<?xml version="1.0" encoding="UTF-8"?>
<svg version="1.1" xmlns="http://www.w3.org/2000/svg" width="512" height="512">
<path d="M0 0 C2.44225447 1.66159248 4.74768159 3.38773224 7.0390625 5.25 C7.86148438 5.86875 8.68390625 6.4875 9.53125 7.125 C18.05508655 14.34769016 22.77534926 23.75949315 26.0390625 34.25 C26.22009521 34.80204102 26.40112793 35.35408203 26.58764648 35.92285156 C27.25618199 39.36929855 27.16094074 42.80087409 27.13671875 46.296875 C27.1353038 47.06807678 27.13388885 47.83927856 27.13243103 48.6338501 C27.12684784 51.08927338 27.11429845 53.54460442 27.1015625 56 C27.09654533 57.66796743 27.0919828 59.33593629 27.08789062 61.00390625 C27.07688391 65.08597287 27.05963086 69.16797081 27.0390625 73.25 C28.27994629 73.2185791 28.27994629 73.2185791 29.54589844 73.18652344 C33.2934962 73.10338381 37.04089999 73.05134469 40.7890625 73 C42.09101563 72.96648437 43.39296875 72.93296875 44.734375 72.8984375 C45.98476562 72.88554687 47.23515625 72.87265625 48.5234375 72.859375 C49.67553711 72.83842773 50.82763672 72.81748047 52.01464844 72.79589844 C55.67052743 73.34481149 56.80700112 74.366418 59.0390625 77.25 C59.5703125 79.25 59.5703125 79.25 59.5390625 81.25 C59.55453125 82.24 59.55453125 82.24 59.5703125 83.25 C58.78509019 86.20613104 57.41401125 87.34984561 55.0390625 89.25 C52.01464844 89.70410156 52.01464844 89.70410156 48.5234375 89.640625 C47.27304688 89.62773437 46.02265625 89.61484375 44.734375 89.6015625 C43.43242187 89.56804687 42.13046875 89.53453125 40.7890625 89.5 C39.47164063 89.48195313 38.15421875 89.46390625 36.796875 89.4453125 C33.54353942 89.39816271 30.29166625 89.33236044 27.0390625 89.25 C27.04274967 90.38013393 27.04643684 91.51026787 27.05023575 92.67464828 C27.1389567 120.14842258 27.20472875 147.62217833 27.24631119 175.09606552 C27.26695363 188.38213684 27.29510638 201.66809185 27.34082031 214.95410156 C27.38063652 226.53153363 27.40648307 238.10889726 27.41541648 249.68639588 C27.42064004 255.81900899 27.43295237 261.95142628 27.46198273 268.08397675 C27.4890693 273.85247491 27.49752113 279.62069599 27.49149323 285.38925171 C27.49259649 287.50971226 27.50059033 289.63018178 27.5158844 291.75058746 C27.53570635 294.63971243 27.53103005 297.52778318 27.52008057 300.41693115 C27.53173193 301.26128841 27.5433833 302.10564567 27.55538774 302.97558951 C27.51757034 306.65235052 27.38653495 308.79057401 25.13399887 311.76886368 C22.86695427 313.37168186 21.78536265 313.79291094 19.0390625 313.75 C18.0490625 313.76546875 18.0490625 313.76546875 17.0390625 313.78125 C14.02662022 312.98107002 12.90905094 311.73270806 11.0390625 309.25 C10.422616 306.69203509 9.99312976 304.34064013 9.6640625 301.75 C7.96337862 291.05006697 4.07366202 280.84053808 -4.9609375 274.25 C-15.10615627 267.81972163 -25.23831294 265.09508039 -37.1484375 267.25 C-47.81750358 269.97351298 -55.56000358 275.26208355 -61.9609375 284.25 C-67.46162069 294.19906177 -68.63802116 305.36291515 -66.27734375 316.46484375 C-62.92795553 326.37402964 -56.53452243 334.85303572 -47.1640625 339.6953125 C-35.81243531 344.73727889 -24.5927375 344.40122876 -12.38938904 344.40821838 C-10.69870181 344.41278904 -9.0080157 344.41778979 -7.3173309 344.42318195 C-2.68582538 344.43671513 1.94567283 344.4441674 6.5771929 344.45060861 C11.57709011 344.45863381 16.57697221 344.47232426 21.57685852 344.48532104 C30.23475736 344.50705377 38.89265776 344.52520994 47.55056953 344.54092598 C60.06840455 344.56365382 72.58622281 344.59179259 85.1040436 344.62124526 C105.41416294 344.66888546 125.72428914 344.71215931 146.03442383 344.75268555 C165.76196832 344.79205866 185.48950672 344.83348923 205.21704102 344.87768555 C207.04153554 344.88177196 207.04153554 344.88177196 208.90288854 344.88594092 C215.00495398 344.89962069 221.10701933 344.91334091 227.20908463 344.92708123 C277.81906454 345.04098989 328.42905766 345.14781163 379.0390625 345.25 C379.03754362 344.68443901 379.03602474 344.11887803 379.03445983 343.53617883 C378.94499325 310.03394443 378.87633944 276.53173992 378.83480118 243.02941288 C378.82979821 239.0088662 378.82462094 234.98831976 378.81933594 230.96777344 C378.8182867 230.16733792 378.81723745 229.3669024 378.81615642 228.54221126 C378.79874 215.57302387 378.76719553 202.60390723 378.73045132 189.63476184 C378.69307626 176.33224096 378.67083393 163.0297572 378.66270852 149.72718596 C378.65721359 141.51539938 378.63984388 133.30381276 378.60739663 125.09208772 C378.5862911 119.46486996 378.57985343 113.83775594 378.58505699 108.21050146 C378.58762502 104.96132156 378.58145376 101.71256664 378.5622406 98.46343231 C378.54244203 94.94378358 378.54708701 91.4250018 378.55804443 87.90533447 C378.54639307 86.8742117 378.5347417 85.84308892 378.52273726 84.78072 C378.58108525 77.8829143 378.58108525 77.8829143 380.94412613 74.61724472 C383.20162191 73.1439068 384.36505237 72.70821859 387.0390625 72.75 C388.0290625 72.73453125 388.0290625 72.73453125 389.0390625 72.71875 C392.18893281 73.5554343 393.1152531 74.5666538 395.0390625 77.25 C395.65893426 80.93639673 395.57795799 84.60361766 395.54699707 88.33398438 C395.55635701 90.04996952 395.55635701 90.04996952 395.56590605 91.80062103 C395.57911434 94.97651016 395.57434222 98.15178936 395.56196117 101.32766342 C395.5529231 104.75241113 395.56687418 108.17707542 395.57788086 111.60180664 C395.59568407 118.31101802 395.59181816 125.02005059 395.5802303 131.72926903 C395.5712033 137.1810999 395.56996878 142.6328806 395.57432556 148.0847168 C395.57493849 148.86012109 395.57555143 149.63552539 395.57618293 150.43442678 C395.57746181 152.00955774 395.57875866 153.58468868 395.5800733 155.1598196 C395.59148437 169.9360498 395.57835715 184.7121808 395.55687183 199.48839474 C395.53900035 212.17200035 395.54210431 224.85545953 395.56054688 237.5390625 C395.58194431 252.26176617 395.59038568 266.98438286 395.57809782 281.70709991 C395.5768236 283.27649433 395.57556612 284.84588876 395.57432556 286.4152832 C395.57339991 287.57359532 395.57339991 287.57359532 395.57245556 288.75530767 C395.56899926 294.20172046 395.57483699 299.64807816 395.58424377 305.09448242 C395.59545265 311.7302549 395.59244731 318.36583808 395.5711208 325.00158882 C395.56059519 328.38846381 395.55651379 331.77502297 395.56971741 335.16189575 C395.58059179 338.83025424 395.56700604 342.49771489 395.54699707 346.16601562 C395.5603814 347.77864414 395.5603814 347.77864414 395.57403612 349.42385101 C395.56360513 350.40469917 395.55317414 351.38554733 395.54242706 352.39611816 C395.54177765 353.24300453 395.54112824 354.0898909 395.54045916 354.96244049 C394.82996551 358.20397887 393.73065104 359.3262996 391.0390625 361.25 C387.79249191 361.75139666 387.79249191 361.75139666 383.8493042 361.75336456 C383.12059492 361.75917833 382.39188564 361.76499209 381.64109427 361.77098203 C379.18585308 361.78564374 376.73160199 361.77166865 374.27636719 361.75793457 C372.5036731 361.76254112 370.73098283 361.76889238 368.95830059 361.77684355 C364.07632372 361.79359509 359.19465823 361.78526399 354.31268001 361.77289867 C349.05137279 361.76387373 343.79012031 361.77780554 338.52882385 361.78881836 C328.21544891 361.80663851 317.90219018 361.80274719 307.58881062 361.7911678 C299.20465431 361.78214356 290.82053062 361.78090511 282.43637085 361.78526306 C281.24419679 361.78587599 280.05202273 361.78648893 278.82372218 361.78712043 C276.40193008 361.78839932 273.98013799 361.78969617 271.55834591 361.7910108 C248.8268346 361.80242784 226.0953877 361.78928731 203.36388695 361.76780933 C183.86511755 361.7499557 164.36644345 361.75302598 144.86767578 361.77148438 C122.23131681 361.79290289 99.59501446 361.80130974 76.95864677 361.78903532 C74.54319128 361.78776113 72.12773578 361.78650364 69.71228027 361.78526306 C67.92958573 361.78433741 67.92958573 361.78433741 66.11087716 361.78339306 C57.74223923 361.77994174 49.37363724 361.78576421 41.00500488 361.79518127 C30.79790631 361.80641432 20.59093075 361.80333445 10.38384622 361.7820583 C5.1773279 361.77156271 -0.02898554 361.76740045 -5.23550224 361.78065491 C-10.00650395 361.79261655 -14.77711183 361.78595407 -19.54807806 361.7647447 C-21.2695564 361.76029437 -22.99106834 361.76250943 -24.71252489 361.77224785 C-40.78717893 361.85617181 -56.07342584 358.30064023 -68.27734375 347.0625 C-79.59567495 334.87756804 -85.2729051 321.41165876 -85.23509216 304.9552002 C-85.24032884 303.82457515 -85.24556552 302.69395011 -85.25096089 301.5290637 C-85.26595148 297.74394929 -85.26666585 293.95897018 -85.26733398 290.17382812 C-85.27387746 287.45824542 -85.28333541 284.74267436 -85.29255676 282.02709961 C-85.31536903 274.6507097 -85.3233237 267.27434864 -85.32838321 259.89792824 C-85.33164543 255.28639424 -85.33817119 250.67486853 -85.3453846 246.06333923 C-85.3649477 233.27961751 -85.38135291 220.49590349 -85.38426113 207.71216583 C-85.3844487 206.89468918 -85.38463627 206.07721253 -85.38482952 205.23496386 C-85.38519576 203.5779314 -85.38555946 201.92089894 -85.38592064 200.26386648 C-85.38610345 199.44138039 -85.38628626 198.61889429 -85.38647461 197.77148438 C-85.38665516 196.94798664 -85.38683571 196.1244889 -85.38702173 195.27603668 C-85.39055991 181.94609844 -85.41756125 168.6163221 -85.4549725 155.28643996 C-85.49313 141.58021687 -85.51241916 127.87407395 -85.51272064 114.16779661 C-85.51330364 106.48060361 -85.52169272 98.79360363 -85.55071831 91.10646057 C-85.57533234 84.55780598 -85.58244822 78.00941476 -85.56747078 71.46072632 C-85.56034149 68.12492065 -85.56375028 64.79005347 -85.58388138 61.45423889 C-85.68868949 42.95077211 -85.08068371 28.16243941 -72.9609375 13.25 C-72.3421875 12.42757812 -71.7234375 11.60515625 -71.0859375 10.7578125 C-54.25015514 -9.11088653 -22.01325939 -13.01047521 0 0 Z M-61.42578125 26.12890625 C-70.6571318 38.88367305 -69.2440434 55.385426 -69.18798828 70.34863281 C-69.18742334 72.46860244 -69.18774234 74.58857247 -69.18887329 76.70854187 C-69.18944458 82.43289004 -69.17772661 88.15715354 -69.16372538 93.88148212 C-69.15118059 99.87522764 -69.15004457 105.86897532 -69.14767456 111.86273193 C-69.14147078 123.19900205 -69.12507492 134.53523336 -69.10497558 145.87148643 C-69.08258222 158.78324276 -69.07161452 171.69500101 -69.06158471 184.60677195 C-69.04070769 211.1545361 -69.00555321 237.70226587 -68.9609375 264.25 C-65.86413393 262.75592456 -63.36278401 261.05178372 -60.6484375 258.9375 C-47.90395975 249.94691849 -32.62008826 247.94222487 -17.484375 250.46484375 C-8.38769644 252.49193066 -0.828058 255.66721617 6.234375 261.796875 C8.08322499 263.45842548 8.08322499 263.45842548 11.0390625 264.25 C11.0858252 236.42473817 11.12107228 208.59948224 11.14268684 180.774189 C11.15299051 167.85384048 11.16703347 154.93351641 11.18994141 142.01318359 C11.2099031 130.74917132 11.22278555 119.48517676 11.22723949 108.2211473 C11.22984215 102.25937059 11.23594064 96.29764454 11.25052261 90.33588409 C11.26415042 84.71843813 11.26827464 79.10106345 11.26527786 73.48360252 C11.2658257 71.42779083 11.26977203 69.37197662 11.27747345 67.31617928 C11.53095998 42.56206834 11.53095998 42.56206834 -0.2109375 21.375 C-9.90379365 12.60425184 -20.00713916 9.61285431 -32.9453125 9.9375 C-44.84841137 10.61062529 -54.01142914 17.19452751 -61.42578125 26.12890625 Z " fill="#000000" transform="translate(100.9609375,134.75)"/>
<path d="M0 0 C8.93265882 6.43390836 15.13797648 14.69782609 17.58203125 25.4921875 C18.32233547 32.55126412 18.14604986 39.68163614 18.11328125 46.76953125 C18.1159795 48.82931196 18.11986469 50.88909142 18.12487793 52.9488678 C18.13074802 57.24476365 18.12228436 61.54032491 18.10351562 65.83618164 C18.08062666 71.34322657 18.09392771 76.84949591 18.11780548 82.35651302 C18.13224498 86.60042697 18.12766768 90.84415619 18.11729431 95.08807564 C18.11462713 97.11947281 18.11789647 99.15088677 18.12721252 101.18226433 C18.13735865 104.01380987 18.1219088 106.8440863 18.09960938 109.67553711 C18.1077063 110.51349319 18.11580322 111.35144928 18.12414551 112.21479797 C18.07047966 115.88846475 17.92715619 118.03659773 15.67468262 121.01002502 C13.40882476 122.61486449 12.32851674 123.03510134 9.58203125 122.9921875 C8.59203125 123.00765625 8.59203125 123.00765625 7.58203125 123.0234375 C4.62590021 122.23821519 3.48218564 120.86713625 1.58203125 118.4921875 C1.12792969 115.46777344 1.12792969 115.46777344 1.19140625 111.9765625 C1.20429688 110.72617188 1.2171875 109.47578125 1.23046875 108.1875 C1.26398438 106.88554687 1.2975 105.58359375 1.33203125 104.2421875 C1.35007812 102.92476563 1.368125 101.60734375 1.38671875 100.25 C1.43386243 96.99708594 1.50560509 93.74454533 1.58203125 90.4921875 C-3.69796875 90.4921875 -8.97796875 90.4921875 -14.41796875 90.4921875 C-14.41796875 151.2121875 -14.41796875 211.9321875 -14.41796875 274.4921875 C-9.13796875 274.4921875 -3.85796875 274.4921875 1.58203125 274.4921875 C1.5731488 272.84736389 1.56426636 271.20254028 1.55511475 269.50787354 C1.47412467 254.02776341 1.41387165 238.54771891 1.37478256 223.06744766 C1.35415125 215.10835515 1.32601997 207.14942073 1.28027344 199.19042969 C1.24042287 192.25391592 1.21460257 185.31751662 1.20567727 178.38089156 C1.20045943 174.70744008 1.18818435 171.03431612 1.15911102 167.36096954 C1.12692905 163.26165699 1.12607068 159.16291499 1.12792969 155.06347656 C1.11354858 153.84356018 1.09916748 152.6236438 1.08435059 151.36676025 C1.08984924 150.25059326 1.0953479 149.13442627 1.10101318 147.98443604 C1.09732601 147.01470982 1.09363884 146.0449836 1.08983994 145.04587173 C1.72402798 141.75545199 3.00948413 140.56740284 5.58203125 138.4921875 C7.58203125 137.9609375 7.58203125 137.9609375 9.58203125 137.9921875 C10.57203125 137.97671875 10.57203125 137.97671875 11.58203125 137.9609375 C14.49434715 138.73452141 15.67012468 140.19524538 17.58203125 142.4921875 C18.16360855 145.00981522 18.16360855 145.00981522 18.27838135 147.90167236 C18.35611975 149.5537224 18.35611975 149.5537224 18.43542862 151.23914719 C18.47123913 152.44574619 18.50704964 153.6523452 18.54394531 154.89550781 C18.59519436 156.17351887 18.64644341 157.45152992 18.69924545 158.76826859 C18.8645989 163.03481631 18.98336706 167.30213782 19.09765625 171.5703125 C19.11842728 172.30497931 19.1391983 173.03964611 19.16059875 173.79657555 C19.47548499 184.94637197 19.67522075 196.09607031 19.80307961 207.24950981 C19.83193432 209.73384231 19.86413737 212.21811766 19.89640808 214.70240784 C20.4108686 256.95564311 19.66519347 296.04208288 1.83203125 335.2421875 C1.45778519 336.06767593 1.08353912 336.89316437 0.69795227 337.7436676 C-11.50452623 364.38957402 -11.50452623 364.38957402 -18.41796875 370.4921875 C-20.41796875 371.0234375 -20.41796875 371.0234375 -22.41796875 370.9921875 C-23.40796875 371.00765625 -23.40796875 371.00765625 -24.41796875 371.0234375 C-28.1435675 370.03382533 -30.08203707 367.0140487 -32.09869003 363.88123035 C-57.27046856 318.08785845 -65.65080659 273.69592788 -65.68359375 221.97265625 C-65.68418659 221.26410486 -65.68477943 220.55555347 -65.68539023 219.82553083 C-65.69013113 202.32257332 -65.40534894 184.82780096 -65.00037736 167.33003308 C-64.73921223 156.03309505 -64.5695131 144.73829752 -64.47753906 133.4387207 C-64.47139352 132.68635217 -64.46524798 131.93398364 -64.45891622 131.15881606 C-64.43445509 128.13168933 -64.4104036 125.10455974 -64.38692893 122.07742519 C-64.27916464 108.33372865 -64.11767586 94.59052761 -63.93359375 80.84765625 C-63.91975771 79.81371383 -63.91975771 79.81371383 -63.90564215 78.75888368 C-63.78919237 70.18639751 -63.64404696 61.61494009 -63.45578766 53.04367828 C-63.40591959 50.66983514 -63.36228276 48.29585135 -63.32545471 45.9217701 C-63.27336495 42.67555641 -63.19713599 39.43078231 -63.11431885 36.18522644 C-63.10414238 35.25629977 -63.09396592 34.3273731 -63.08348107 33.37029713 C-62.70453739 21.30733239 -58.02282836 11.79739374 -49.3515625 3.51953125 C-35.64424613 -8.02992494 -15.26222402 -9.51731579 0 0 Z M-41.0703125 19.35546875 C-46.09572818 26.62411345 -46.41796875 33.83006792 -46.41796875 42.4921875 C-30.57796875 42.4921875 -14.73796875 42.4921875 1.58203125 42.4921875 C1.58203125 33.0095444 1.10317956 24.84582283 -5.41796875 17.4921875 C-11.64777978 11.94801032 -17.76449837 10.51938805 -26.0078125 10.9140625 C-32.25882355 11.97379862 -36.86917801 14.61801922 -41.0703125 19.35546875 Z M-46.41796875 58.4921875 C-46.41796875 63.7721875 -46.41796875 69.0521875 -46.41796875 74.4921875 C-30.57796875 74.4921875 -14.73796875 74.4921875 1.58203125 74.4921875 C1.58203125 69.2121875 1.58203125 63.9321875 1.58203125 58.4921875 C-14.25796875 58.4921875 -30.09796875 58.4921875 -46.41796875 58.4921875 Z M-46.41796875 90.4921875 C-46.41796875 151.2121875 -46.41796875 211.9321875 -46.41796875 274.4921875 C-41.13796875 274.4921875 -35.85796875 274.4921875 -30.41796875 274.4921875 C-30.41796875 213.7721875 -30.41796875 153.0521875 -30.41796875 90.4921875 C-35.69796875 90.4921875 -40.97796875 90.4921875 -46.41796875 90.4921875 Z M-41.41796875 290.4921875 C-40.65865472 294.28875766 -39.8515505 297.22147939 -38.41796875 300.7421875 C-38.06734375 301.61359375 -37.71671875 302.485 -37.35546875 303.3828125 C-36.59427983 305.43553611 -36.59427983 305.43553611 -35.41796875 306.4921875 C-33.49129368 306.57966957 -31.56145014 306.59916084 -29.6328125 306.58984375 C-28.46298828 306.58662109 -27.29316406 306.58339844 -26.08789062 306.58007812 C-24.2403418 306.56750977 -24.2403418 306.56750977 -22.35546875 306.5546875 C-21.11990234 306.55017578 -19.88433594 306.54566406 -18.61132812 306.54101562 C-15.54682758 306.52918358 -12.48242154 306.51269923 -9.41796875 306.4921875 C-8.77655712 305.21784354 -8.13612058 303.94300877 -7.49609375 302.66796875 C-7.1393457 301.95809814 -6.78259766 301.24822754 -6.41503906 300.5168457 C-4.70533394 297.0451061 -3.41796875 294.38927583 -3.41796875 290.4921875 C-15.95796875 290.4921875 -28.49796875 290.4921875 -41.41796875 290.4921875 Z M-29.41796875 322.4921875 C-27.43796875 327.7721875 -25.45796875 333.0521875 -23.41796875 338.4921875 C-22.75796875 338.4921875 -22.09796875 338.4921875 -21.41796875 338.4921875 C-19.43796875 333.2121875 -17.45796875 327.9321875 -15.41796875 322.4921875 C-20.03796875 322.4921875 -24.65796875 322.4921875 -29.41796875 322.4921875 Z " fill="#000000" transform="translate(446.41796875,21.5078125)"/>
<path d="M0 0 C2.20992673 2.50263226 2.9396167 3.59456925 3.4375 6.9375 C2.86956835 10.91302153 2.10507227 12.42506202 -1 15 C-7.34716085 16.60294897 -12.10740623 14.23191735 -17.60546875 11.2421875 C-21.0141287 9.4739104 -24.22482683 8.60648089 -28 8 C-28.85851562 7.85433594 -29.71703125 7.70867187 -30.6015625 7.55859375 C-46.00929826 5.58590521 -60.27481711 10.08431439 -72.8125 19 C-84.87476499 29.0028539 -91.13561762 43.02146058 -92.9375 58.375 C-93.62523407 73.02902594 -88.87136978 87.40767238 -79.375 98.625 C-76.78185978 101.35830997 -73.99464696 103.70997585 -71 106 C-69.73762269 108.52475462 -69.90143596 110.31200466 -69.9375 113.125 C-69.94652344 114.03507812 -69.95554688 114.94515625 -69.96484375 115.8828125 C-69.97644531 116.58148438 -69.98804688 117.28015625 -70 118 C-68.02 118 -66.04 118 -64 118 C-64.07516846 117.35457245 -64.15033691 116.7091449 -64.2277832 116.04415894 C-65.01592667 109.26310185 -65.79281269 102.48081926 -66.56347656 95.69775391 C-66.851667 93.17399219 -67.14262707 90.65054502 -67.43652344 88.12744141 C-67.86099538 84.479004 -68.2751489 80.82951236 -68.6875 77.1796875 C-68.81874268 76.07076141 -68.94998535 74.96183533 -69.08520508 73.81930542 C-69.7293689 68.02750149 -70.16116887 62.25224404 -70.33203125 56.42626953 C-70.36659424 55.29222687 -70.40115723 54.1581842 -70.43676758 52.98977661 C-69.90492249 49.34917213 -68.87062557 48.22022511 -66 46 C-59.72612563 44.45958653 -53.87577382 46.87854834 -48.125 49.1875 C-40.46256604 51.99971339 -35.61846995 52.45270559 -28 49 C-16.15338164 44.5057754 -16.15338164 44.5057754 -10 46 C-7.12933969 48.21998008 -6.09505619 49.34931805 -5.56323242 52.98977661 C-5.6150769 54.69084061 -5.6150769 54.69084061 -5.66796875 56.42626953 C-5.7045459 57.67345764 -5.74112305 58.92064575 -5.77880859 60.20562744 C-6.11019991 65.89039671 -6.64330436 71.52536432 -7.3125 77.1796875 C-7.44567627 78.35846466 -7.57885254 79.53724182 -7.71606445 80.7517395 C-8.13673599 84.46037064 -8.56816066 88.16765447 -9 91.875 C-9.28977963 94.41267863 -9.57884829 96.95043855 -9.8671875 99.48828125 C-10.56992395 105.65981609 -11.28145641 111.83028665 -12 118 C-10.02 118 -8.04 118 -6 118 C-6.04640625 117.33613281 -6.0928125 116.67226562 -6.140625 115.98828125 C-6.43673861 108.74407319 -6.43673861 108.74407319 -4.3125 105.125 C-2 103 -2 103 0.359375 101.26953125 C9.16934076 93.69765239 15.07651538 81.1174541 16.23046875 69.72460938 C17.12720538 57.18026031 16.16712507 44.7506876 9 34 C8.46355851 30.93381339 8.46302949 28.06682127 9 25 C11.54471222 21.93137644 13.08941981 21.15176337 17 20.5 C20.78369165 21.13061527 22.20847779 22.39110074 25 25 C35.14167517 41.8248989 37.00077159 63.09924901 32.5 82.0625 C28.50336783 94.51193958 22.4122396 104.38378616 13.22265625 113.609375 C10.8131697 115.86986908 10.8131697 115.86986908 10 119 C10.66 119.185625 11.32 119.37125 12 119.5625 C17.48108616 122.18885379 21.68159604 125.98119393 25 131.0625 C27.33318561 137.80281398 27.37756782 146.88943456 24.5 153.4375 C21.65563779 158.15101453 17.09867191 163.04780394 11.75 164.69140625 C11.1725 164.79324219 10.595 164.89507812 10 165 C10.08701172 165.94746094 10.08701172 165.94746094 10.17578125 166.9140625 C10.73723967 178.04698095 7.23690696 188.49928522 -0.05859375 196.9765625 C-8.61603175 205.89558239 -18.53914108 213.65596877 -31.4375 214.125 C-32.283125 214.08375 -33.12875 214.0425 -34 214 C-34.26296875 214.57492187 -34.5259375 215.14984375 -34.796875 215.7421875 C-41.65833991 228.61857294 -57.57499486 238.40010035 -71 243 C-76.11349551 244.5569449 -81.25263305 246.02271851 -86.42333984 247.37768555 C-93.93039222 249.41224446 -101.33019952 251.6334206 -105.4375 258.6875 C-106.2109375 260.3271875 -106.2109375 260.3271875 -107 262 C-107.33 262.66 -107.66 263.32 -108 264 C-108.65607308 271.59323929 -108.98208684 278.83905317 -104 285 C-95.46370002 293.61337718 -84.83338968 293.3269339 -73.37695312 293.390625 C-66.63251567 293.56567889 -66.63251567 293.56567889 -63.39453125 295.7890625 C-61.93163141 298.1083939 -61.45757922 299.28506978 -61.5 302 C-61.4896875 302.66 -61.479375 303.32 -61.46875 304 C-62.2533474 306.95377843 -63.6315522 308.09487006 -66 310 C-70.13797426 310.73151082 -74.26243587 310.61629149 -78.45996094 310.57641602 C-80.46554244 310.56273505 -82.47126544 310.59832359 -84.4765625 310.63476562 C-97.29101475 310.61565859 -106.64249448 307.26471688 -115.875 298.328125 C-118.81313771 295.10913589 -121.0780602 291.90663681 -123 288 C-123.30550781 287.39929688 -123.61101562 286.79859375 -123.92578125 286.1796875 C-128.32354222 276.21698728 -127.77733786 265.02711504 -124 255 C-118.62807189 243.67188573 -110.86467397 236.23879367 -99 232 C-94.39446779 230.62831135 -89.73906884 229.44919629 -85.08691406 228.24755859 C-74.01824994 225.32766245 -64.5224636 220.85443201 -56 213 C-55.67 212.34 -55.34 211.68 -55 211 C-55.969375 210.814375 -56.93875 210.62875 -57.9375 210.4375 C-67.36348135 207.70092477 -75.60800775 198.62175366 -80.5390625 190.44921875 C-84.98450831 181.88328662 -86.31217999 174.59086306 -86 165 C-87.10988281 164.60361328 -87.10988281 164.60361328 -88.2421875 164.19921875 C-93.69668427 161.82736251 -97.76999265 157.88344875 -101 152.9375 C-103.33318561 146.19718602 -103.37756782 137.11056544 -100.5 130.5625 C-97.65563779 125.84898547 -93.09867191 120.95219606 -87.75 119.30859375 C-86.88375 119.15583984 -86.88375 119.15583984 -86 119 C-88.0299984 115.34984514 -90.2545797 112.58387535 -93.1875 109.625 C-107.08853167 94.32028109 -111.0184202 75.6834025 -110.375 55.49609375 C-109.24606604 34.8895211 -99.12791992 19.49584592 -84.6015625 5.7265625 C-62.57637694 -13.3716881 -24.15235541 -17.37579526 0 0 Z M-52 67 C-50.94590449 79.26471128 -49.77316882 91.51251866 -48.4375 103.75 C-48.31076904 104.93376221 -48.18403809 106.11752441 -48.0534668 107.3371582 C-47.93140869 108.43761475 -47.80935059 109.53807129 -47.68359375 110.671875 C-47.57587646 111.6525293 -47.46815918 112.63318359 -47.35717773 113.64355469 C-47.1217946 116.01317875 -47.1217946 116.01317875 -46 118 C-40.72 118 -35.44 118 -30 118 C-28.89009436 115.78018871 -28.69986273 114.16786195 -28.42749023 111.70556641 C-28.32746201 110.8176944 -28.22743378 109.92982239 -28.12437439 109.01504517 C-28.02016678 108.05359589 -27.91595917 107.09214661 -27.80859375 106.1015625 C-27.69902847 105.11505707 -27.5894632 104.12855164 -27.47657776 103.1121521 C-27.24533345 101.02256074 -27.01596991 98.93276054 -26.78833008 96.84277344 C-26.43964336 93.64465868 -26.08456542 90.44730248 -25.72851562 87.25 C-25.50482778 85.22139609 -25.28150832 83.19275152 -25.05859375 81.1640625 C-24.89924599 79.72796127 -24.89924599 79.72796127 -24.73667908 78.2628479 C-24.63980301 77.36867157 -24.54292694 76.47449524 -24.44311523 75.55322266 C-24.31440285 74.37646469 -24.31440285 74.37646469 -24.18309021 73.17593384 C-24.01040324 71.12363719 -24 69.05954906 -24 67 C-24.53367187 67.144375 -25.06734375 67.28875 -25.6171875 67.4375 C-34.94302096 69.76089104 -42.73677928 69.21489864 -52 67 Z M-84 137 C-85.42041821 139.84083641 -85.31452272 141.85477278 -85 145 C-82.76793569 147.84780619 -81.45007001 148.84997666 -78 150 C-75.461416 150.10618726 -72.94987876 150.15723332 -70.41088867 150.16113281 C-69.25425972 150.16858017 -69.25425972 150.16858017 -68.07426453 150.17617798 C-65.52215686 150.19078807 -62.97011137 150.19759993 -60.41796875 150.203125 C-58.64301044 150.20887773 -56.86805215 150.21463545 -55.09309387 150.22039795 C-51.36992097 150.23090488 -47.64676963 150.23674945 -43.92358398 150.24023438 C-39.15875272 150.24571621 -34.39420763 150.26973884 -29.62946606 150.29820633 C-25.96197178 150.31685449 -22.29454611 150.32203948 -18.62700844 150.32357025 C-16.87077585 150.32659276 -15.11454436 150.33460774 -13.35835838 150.34775543 C-10.8977842 150.36486045 -8.43790487 150.36292493 -5.97729492 150.35644531 C-5.25552063 150.3656601 -4.53374634 150.37487488 -3.7901001 150.3843689 C0.86031982 150.34611604 4.05512037 149.46596943 8 147 C9.42041821 144.15916359 9.31452272 142.14522722 9 139 C6.76793569 136.15219381 5.45007001 135.15002334 2 134 C-0.538584 133.89381274 -3.05012124 133.84276668 -5.58911133 133.83886719 C-6.3601973 133.83390228 -7.13128326 133.82893738 -7.92573547 133.82382202 C-10.47784314 133.80921193 -13.02988863 133.80240007 -15.58203125 133.796875 C-17.35698956 133.79112227 -19.13194785 133.78536455 -20.90690613 133.77960205 C-24.63007903 133.76909512 -28.35323037 133.76325055 -32.07641602 133.75976562 C-36.84124728 133.75428379 -41.60579237 133.73026116 -46.37053394 133.70179367 C-50.03802822 133.68314551 -53.70545389 133.67796052 -57.37299156 133.67642975 C-59.12922415 133.67340724 -60.88545564 133.66539226 -62.64164162 133.65224457 C-65.1022158 133.63513955 -67.56209513 133.63707507 -70.02270508 133.64355469 C-70.74447937 133.6343399 -71.46625366 133.62512512 -72.2098999 133.6156311 C-76.86031982 133.65388396 -80.05512037 134.53403057 -84 137 Z M-69 166 C-69 175.56587572 -66.58068675 182.23602531 -60 189.2421875 C-52.22792769 196.07311043 -44.68699494 197.37797713 -34.609375 197.2734375 C-25.78513823 196.60493471 -18.81049156 192.61104817 -13 186 C-8.29584798 179.07249254 -7 174.45499077 -7 166 C-27.46 166 -47.92 166 -69 166 Z " fill="#000000" transform="translate(278,58)"/>
<path d="M0 0 C0.87269531 -0.0038269 1.74539063 -0.00765381 2.64453125 -0.01159668 C4.48699092 -0.0143149 6.32948924 -0.00695994 8.171875 0.00976562 C10.99045934 0.03117752 13.80649485 0.00996199 16.625 -0.015625 C18.41667229 -0.01298171 20.20834299 -0.00785669 22 0 C22.84175781 -0.00809692 23.68351562 -0.01619385 24.55078125 -0.02453613 C28.33452808 0.03603633 30.37053177 0.08830892 33.52441406 2.30761719 C35.08488582 4.6591686 35.5249269 5.85383757 35.609375 8.640625 C35.64160156 9.39472656 35.67382812 10.14882813 35.70703125 10.92578125 C35.72121094 11.70308594 35.73539062 12.48039062 35.75 13.28125 C35.77964844 14.07402344 35.80929687 14.86679687 35.83984375 15.68359375 C35.91027787 17.63227094 35.95743482 19.58176495 36 21.53125 C40.00357126 23.98976831 40.00357126 23.98976831 44.4375 23.96875 C46.43492191 22.84824502 48.38481369 21.64287896 50.3125 20.40625 C54.44193789 18.02215187 57.2702773 17.84467735 62 18.53125 C65.80929177 21.8011763 68.26969563 25.29220482 70.734375 29.63671875 C71.21961639 30.48463737 71.21961639 30.48463737 71.71466064 31.34968567 C72.73404044 33.13517429 73.74208616 34.92676901 74.75 36.71875 C75.44067818 37.93205537 76.13207831 39.14495007 76.82421875 40.35742188 C83.61617323 52.29377752 83.61617323 52.29377752 83 57.53125 C80.08862392 61.41308478 76.95503296 63.09799861 72.6875 65.34375 C69.26970616 67.34754432 69.26970616 67.34754432 66.8984375 70.41015625 C66.44551714 73.10134581 66.62164105 74.14477091 68 76.53125 C71.18857588 78.96291974 74.43121501 80.88812026 77.9609375 82.76953125 C81 84.53125 81 84.53125 83 87.53125 C83.89788704 93.39341637 81.36918011 97.21993202 78.5 102.09375 C78.04874756 102.88007813 77.59749512 103.66640625 77.13256836 104.4765625 C75.77010263 106.83730608 74.38797223 109.18543104 73 111.53125 C72.40082764 112.55581299 72.40082764 112.55581299 71.78955078 113.60107422 C65.62558521 124.1141932 65.62558521 124.1141932 62 126.53125 C56.67269029 127.41913495 54.05926311 126.16044353 49.4375 123.40625 C45.25230661 120.82748037 45.25230661 120.82748037 40.4375 121.09375 C39.633125 121.568125 38.82875 122.0425 38 122.53125 C37.01 123.02625 37.01 123.02625 36 123.53125 C35.97421875 124.71203125 35.9484375 125.8928125 35.921875 127.109375 C35.86558603 128.66670323 35.80823886 130.22399347 35.75 131.78125 C35.73582031 132.55855469 35.72164063 133.33585938 35.70703125 134.13671875 C35.67480469 134.89082031 35.64257812 135.64492188 35.609375 136.421875 C35.58842773 137.11313477 35.56748047 137.80439453 35.54589844 138.51660156 C34.70850226 141.60702788 33.62665414 142.68293902 31 144.53125 C27.9992792 145.12001813 25.05018892 145.09183997 22 145.0625 C21.12730469 145.0663269 20.25460937 145.07015381 19.35546875 145.07409668 C17.51300908 145.0768149 15.67051076 145.06945994 13.828125 145.05273438 C11.00954066 145.03132248 8.19350515 145.05253801 5.375 145.078125 C3.58332771 145.07548171 1.79165701 145.07035669 0 145.0625 C-0.84175781 145.07059692 -1.68351562 145.07869385 -2.55078125 145.08703613 C-6.33452808 145.02646367 -8.37053177 144.97419108 -11.52441406 142.75488281 C-13.08488582 140.4033314 -13.5249269 139.20866243 -13.609375 136.421875 C-13.64160156 135.66777344 -13.67382812 134.91367187 -13.70703125 134.13671875 C-13.72121094 133.35941406 -13.73539062 132.58210937 -13.75 131.78125 C-13.77964844 130.98847656 -13.80929687 130.19570313 -13.83984375 129.37890625 C-13.91027787 127.43022906 -13.95743482 125.48073505 -14 123.53125 C-18.00357126 121.07273169 -18.00357126 121.07273169 -22.4375 121.09375 C-24.41940788 122.20555198 -26.34802223 123.41264915 -28.25 124.65625 C-32.36579545 127.04287099 -36.34661289 127.56433787 -41 126.53125 C-44.06862356 123.98653778 -44.84823663 122.44183019 -45.5 118.53125 C-44.85419146 114.65639878 -43.72249955 113.38439582 -41 110.53125 C-38.15379187 108.54614657 -35.16956009 106.87874843 -32.125 105.21875 C-31.33480469 104.76435547 -30.54460937 104.30996094 -29.73046875 103.84179688 C-25.40823017 101.45054175 -22.05941433 99.61913023 -17 100.53125 C-14.21875 101.95703125 -14.21875 101.95703125 -11.5 103.84375 C-8.51706047 105.85804476 -5.7256415 107.66842925 -2.5 109.28125 C1.33971292 111.20110646 1.33971292 111.20110646 3 113.53125 C3.21876554 116.20018963 3.28335295 118.56625287 3.1875 121.21875 C3.0946875 124.8384375 3.0946875 124.8384375 3 128.53125 C8.28 128.53125 13.56 128.53125 19 128.53125 C18.84243274 123.77396128 18.84243274 123.77396128 18.63964844 119.01855469 C18.58482493 115.73091303 18.74637192 113.87636949 20.7109375 111.203125 C23.0357463 109.50514178 25.26207964 108.23596094 27.875 107.03125 C30.94162928 105.57887279 33.46529595 104.20017404 36.25 102.21875 C39.58858131 100.1700751 41.13068245 100.17648372 45 100.53125 C47.9921875 101.84375 47.9921875 101.84375 50.875 103.53125 C51.84179688 104.088125 52.80859375 104.645 53.8046875 105.21875 C54.52914062 105.651875 55.25359375 106.085 56 106.53125 C56.2475 105.665 56.495 104.79875 56.75 103.90625 C58.06778613 100.34822746 59.80186822 97.6086345 62 94.53125 C61.30132812 94.04914063 60.60265625 93.56703125 59.8828125 93.0703125 C58.51769531 92.12285156 58.51769531 92.12285156 57.125 91.15625 C56.22007812 90.52976562 55.31515625 89.90328125 54.3828125 89.2578125 C52 87.53125 52 87.53125 50 85.53125 C49.45966077 81.28180944 49.5367563 76.99856169 49.5 72.71875 C49.45875 71.52958984 49.4175 70.34042969 49.375 69.11523438 C49.29825098 60.57210931 49.29825098 60.57210931 51.25244141 57.67358398 C52.8203125 56.3515625 52.8203125 56.3515625 56 54.53125 C56.62648438 54.08136719 57.25296875 53.63148438 57.8984375 53.16796875 C59.265625 52.2890625 60.6328125 51.41015625 62 50.53125 C61.566875 49.83257812 61.13375 49.13390625 60.6875 48.4140625 C60.130625 47.50398438 59.57375 46.59390625 59 45.65625 C58.443125 44.75132812 57.88625 43.84640625 57.3125 42.9140625 C56 40.53125 56 40.53125 56 38.53125 C55.27554688 38.964375 54.55109375 39.3975 53.8046875 39.84375 C52.83789062 40.400625 51.87109375 40.9575 50.875 41.53125 C49.92367187 42.088125 48.97234375 42.645 47.9921875 43.21875 C44.60815515 44.70312973 42.65462916 45.01565623 39 44.53125 C36.21875 43.10546875 36.21875 43.10546875 33.5 41.21875 C30.51706047 39.20445524 27.7256415 37.39407075 24.5 35.78125 C20.66028708 33.86139354 20.66028708 33.86139354 19 31.53125 C18.78123446 28.86231037 18.71664705 26.49624713 18.8125 23.84375 C18.9053125 20.2240625 18.9053125 20.2240625 19 16.53125 C13.72 16.53125 8.44 16.53125 3 16.53125 C3.15756726 21.28853872 3.15756726 21.28853872 3.36035156 26.04394531 C3.41517507 29.33158697 3.25362808 31.18613051 1.2890625 33.859375 C-1.0357463 35.55735822 -3.26207964 36.82653906 -5.875 38.03125 C-8.94162928 39.48362721 -11.46529595 40.86232596 -14.25 42.84375 C-17.58858131 44.8924249 -19.13068245 44.88601628 -23 44.53125 C-25.9921875 43.21875 -25.9921875 43.21875 -28.875 41.53125 C-29.84179688 40.974375 -30.80859375 40.4175 -31.8046875 39.84375 C-32.52914062 39.410625 -33.25359375 38.9775 -34 38.53125 C-34.2475 39.3975 -34.495 40.26375 -34.75 41.15625 C-36.06778613 44.71427254 -37.80186822 47.4538655 -40 50.53125 C-39.30132812 51.01335937 -38.60265625 51.49546875 -37.8828125 51.9921875 C-36.97273438 52.62382812 -36.06265625 53.25546875 -35.125 53.90625 C-34.22007812 54.53273438 -33.31515625 55.15921875 -32.3828125 55.8046875 C-30 57.53125 -30 57.53125 -28 59.53125 C-27.45966077 63.78069056 -27.5367563 68.06393831 -27.5 72.34375 C-27.45875 73.53291016 -27.4175 74.72207031 -27.375 75.94726562 C-27.298919 84.41603217 -27.298919 84.41603217 -29.125 87.32080078 C-30.59375 88.58984375 -30.59375 88.58984375 -34 90.53125 C-35.14593474 91.26546676 -36.29176693 91.99984359 -37.4375 92.734375 C-38.62143657 93.42283151 -39.80897852 94.10512427 -41 94.78125 C-41.59039062 95.131875 -42.18078125 95.4825 -42.7890625 95.84375 C-46.50832932 97.97372659 -49.71216082 99.23722674 -54 99.53125 C-57.52906067 97.92713152 -58.82772908 96.78965638 -61 93.53125 C-61.4375 90.65625 -61.4375 90.65625 -61 87.53125 C-58.08862392 83.64941522 -54.95503296 81.96450139 -50.6875 79.71875 C-47.26970616 77.71495568 -47.26970616 77.71495568 -44.8984375 74.65234375 C-44.44551714 71.96115419 -44.62164105 70.91772909 -46 68.53125 C-49.18857588 66.09958026 -52.43121501 64.17437974 -55.9609375 62.29296875 C-59 60.53125 -59 60.53125 -61 57.53125 C-61.89788704 51.66908363 -59.36918011 47.84256798 -56.5 42.96875 C-56.04874756 42.18242187 -55.59749512 41.39609375 -55.13256836 40.5859375 C-53.77010263 38.22519392 -52.38797223 35.87706896 -51 33.53125 C-50.60055176 32.84820801 -50.20110352 32.16516602 -49.78955078 31.46142578 C-43.62558521 20.9483068 -43.62558521 20.9483068 -40 18.53125 C-34.67269029 17.64336505 -32.05926311 18.90205647 -27.4375 21.65625 C-23.25230661 24.23501963 -23.25230661 24.23501963 -18.4375 23.96875 C-17.633125 23.494375 -16.82875 23.02 -16 22.53125 C-15.34 22.20125 -14.68 21.87125 -14 21.53125 C-13.96132813 19.76007813 -13.96132813 19.76007813 -13.921875 17.953125 C-13.86558603 16.39579677 -13.80823886 14.83850653 -13.75 13.28125 C-13.73582031 12.50394531 -13.72164063 11.72664063 -13.70703125 10.92578125 C-13.67480469 10.17167969 -13.64257812 9.41757812 -13.609375 8.640625 C-13.58842773 7.94936523 -13.56748047 7.25810547 -13.54589844 6.54589844 C-11.65847376 -0.41967778 -6.02961521 -0.05799927 0 0 Z " fill="#000000" transform="translate(285,287.46875)"/>
<path d="M0 0 C0.66 -0.0103125 1.32 -0.020625 2 -0.03125 C4.94104143 0.74996413 6.09521479 2.15216214 8 4.5 C8.51757812 7.36572266 8.51757812 7.36572266 8.53125 10.6640625 C8.53898437 12.47197266 8.53898437 12.47197266 8.546875 14.31640625 C8.53140625 15.57324219 8.5159375 16.83007812 8.5 18.125 C8.52320313 19.97544922 8.52320313 19.97544922 8.546875 21.86328125 C8.50402024 31.94486399 6.73919957 40.43517521 -0.296875 47.96875 C-8.20222003 55.07630792 -16.1559439 56.80010382 -26.53173828 56.79052734 C-27.57957489 56.79724457 -28.6274115 56.80396179 -29.70700073 56.81088257 C-33.16148652 56.82984069 -36.61577797 56.83378503 -40.0703125 56.8359375 C-42.47354207 56.84236456 -44.87677086 56.84909285 -47.27999878 56.85610962 C-52.31184709 56.8680752 -57.34362675 56.87179093 -62.37548828 56.87060547 C-68.8298372 56.87040178 -75.28374829 56.89775933 -81.73799324 56.93214989 C-86.69817132 56.95435532 -91.65824272 56.95844504 -96.61846542 56.95738602 C-98.99876293 56.95974944 -101.37906305 56.96861436 -103.75931168 56.98405075 C-107.08220709 57.00359108 -110.40414072 56.99792036 -113.72705078 56.98583984 C-114.71312317 56.99707886 -115.69919556 57.00831787 -116.71514893 57.01989746 C-123.37259291 56.95822361 -123.37259291 56.95822361 -126.6088562 54.59463501 C-128.10950591 52.33511776 -128.54201657 51.18906061 -128.5 48.5 C-128.5103125 47.84 -128.520625 47.18 -128.53125 46.5 C-127.71420359 43.42406058 -126.5660604 42.41066889 -124 40.5 C-120.84120328 39.89951404 -117.71611995 39.9672397 -114.5090332 40.00170898 C-113.06680641 39.99343079 -113.06680641 39.99343079 -111.59544373 39.98498535 C-109.50784154 39.97566097 -107.42018247 39.97556378 -105.33257484 39.98357964 C-102.02360778 39.99619737 -98.71547649 39.98492883 -95.40653992 39.96754456 C-89.5688894 39.94080496 -83.73144292 39.93524991 -77.89373779 39.93664551 C-68.56782157 39.93887069 -59.24215931 39.92464767 -49.91634178 39.88105965 C-46.66530817 39.87125072 -43.41467566 39.87992619 -40.16365051 39.88975525 C-38.15507754 39.88360684 -36.14650671 39.87669371 -34.13793945 39.86889648 C-33.24150726 39.87661575 -32.34507507 39.88433502 -31.42147827 39.89228821 C-24.56532745 39.83765363 -17.75876219 39.04654971 -12.5625 34.25 C-8.46461057 27.0377146 -8.65623079 19.69590713 -8.609375 11.61914062 C-8.43375303 5.12600601 -8.43375303 5.12600601 -6.2109375 1.91796875 C-3.88880092 0.42868328 -2.72969876 -0.04265154 0 0 Z " fill="#000000" transform="translate(424,407.5)"/>
<path d="M0 0 C5.82485779 3.51996782 10.54466582 8.98962934 12.5625 15.5 C13.36764105 23.33608208 13.68710392 31.11922577 8.5625 37.5 C3.75801361 42.54521222 -0.59927055 46.10562995 -7.70703125 46.8359375 C-16.22326573 46.92983204 -22.11345494 46.6177288 -28.40234375 40.62890625 C-34.7841668 33.72505269 -35.91792252 28.29832071 -35.7421875 18.9453125 C-35.04689797 11.08319245 -31.38995981 6.95041296 -25.53515625 1.9453125 C-18.47077988 -2.92213491 -7.84396301 -3.47595223 0 0 Z M-16.8125 17.125 C-18.92456506 20.21186432 -19.04945145 21.8282913 -18.4375 25.5 C-16.9375 28 -16.9375 28 -14.4375 29.5 C-10.7657913 30.11195145 -9.14936432 29.98706506 -6.0625 27.875 C-3.95043494 24.78813568 -3.82554855 23.1717087 -4.4375 19.5 C-5.9375 17 -5.9375 17 -8.4375 15.5 C-12.1092087 14.88804855 -13.72563568 15.01293494 -16.8125 17.125 Z " fill="#000000" transform="translate(195.4375,409.5)"/>
<path d="M0 0 C5.82485779 3.51996782 10.54466582 8.98962934 12.5625 15.5 C13.36764105 23.33608208 13.68710392 31.11922577 8.5625 37.5 C3.75801361 42.54521222 -0.59927055 46.10562995 -7.70703125 46.8359375 C-16.22326573 46.92983204 -22.11345494 46.6177288 -28.40234375 40.62890625 C-34.7841668 33.72505269 -35.91792252 28.29832071 -35.7421875 18.9453125 C-35.04689797 11.08319245 -31.38995981 6.95041296 -25.53515625 1.9453125 C-18.47077988 -2.92213491 -7.84396301 -3.47595223 0 0 Z M-16.8125 17.125 C-18.92456506 20.21186432 -19.04945145 21.8282913 -18.4375 25.5 C-16.9375 28 -16.9375 28 -14.4375 29.5 C-10.7657913 30.11195145 -9.14936432 29.98706506 -6.0625 27.875 C-3.95043494 24.78813568 -3.82554855 23.1717087 -4.4375 19.5 C-5.9375 17 -5.9375 17 -8.4375 15.5 C-12.1092087 14.88804855 -13.72563568 15.01293494 -16.8125 17.125 Z " fill="#000000" transform="translate(307.4375,337.5)"/>
<path d="M0 0 C1.05026367 -0.0038269 2.10052734 -0.00765381 3.18261719 -0.01159668 C5.40170247 -0.01431696 7.62081974 -0.00694777 9.83984375 0.00976562 C13.23770595 0.03117255 16.63345361 0.00996675 20.03125 -0.015625 C22.18750467 -0.01298175 24.34375802 -0.00785682 26.5 0 C27.51674805 -0.00809692 28.53349609 -0.01619385 29.58105469 -0.02453613 C36.61077417 0.06898232 36.61077417 0.06898232 39.88867188 2.43945312 C41.35641689 4.69476864 41.79171277 5.86163257 41.75 8.53125 C41.7603125 9.19125 41.770625 9.85125 41.78125 10.53125 C40.9489357 13.66466854 39.90683918 14.60990886 37.25 16.53125 C33.67231501 17.14709573 30.12279111 17.09135028 26.5 17.0625 C24.92460449 17.06824036 24.92460449 17.06824036 23.31738281 17.07409668 C21.09829753 17.07681696 18.87918026 17.06944777 16.66015625 17.05273438 C13.26229405 17.03132745 9.86654639 17.05253325 6.46875 17.078125 C4.31249533 17.07548175 2.15624198 17.07035682 0 17.0625 C-1.01674805 17.07059692 -2.03349609 17.07869385 -3.08105469 17.08703613 C-10.11077417 16.99351768 -10.11077417 16.99351768 -13.38867188 14.62304688 C-14.85641689 12.36773136 -15.29171277 11.20086743 -15.25 8.53125 C-15.26546875 7.54125 -15.26546875 7.54125 -15.28125 6.53125 C-13.27705847 -1.01394163 -6.37452488 -0.05076385 0 0 Z " fill="#000000" transform="translate(326.75,207.46875)"/>
<path d="M0 0 C2.5 1.5 2.5 1.5 4 4 C4.791013 8.02098277 4.62153384 10.96411027 2.5 14.5 C-1.02640809 16.61584485 -3.98821239 16.80730018 -8 16 C-11.06458538 13.95694308 -11.82153128 12.55920198 -12.9375 9.0625 C-13.01221891 5.40127319 -12.21363944 3.8695326 -10 1 C-6.79158965 -0.60420518 -3.4806013 -0.47462745 0 0 Z " fill="#000000" transform="translate(161,160)"/>
<path d="M0 0 C2.5 1.5 2.5 1.5 4 4 C4.791013 8.02098277 4.62153384 10.96411027 2.5 14.5 C-1.02640809 16.61584485 -3.98821239 16.80730018 -8 16 C-11.06458538 13.95694308 -11.82153128 12.55920198 -12.9375 9.0625 C-13.01221891 5.40127319 -12.21363944 3.8695326 -10 1 C-6.79158965 -0.60420518 -3.4806013 -0.47462745 0 0 Z " fill="#000000" transform="translate(161,64)"/>
<path d="M0 0 C2.23918419 1.8057937 2.84945187 3.08353828 3.3125 5.90234375 C3.52133602 9.40687323 3.32891469 11.45180884 1.5 14.5 C-2.03588973 16.62153384 -4.97901723 16.791013 -9 16 C-11.5 14.5 -11.5 14.5 -13 12 C-13.54719708 9.21841484 -13.58180519 6.7778346 -13 4 C-9.07078336 -1.10798163 -6.1704023 -1.40728474 0 0 Z " fill="#000000" transform="translate(293,29)"/>
<path d="M0 0 C2.23918419 1.8057937 2.84945187 3.08353828 3.3125 5.90234375 C3.52133602 9.40687323 3.32891469 11.45180884 1.5 14.5 C-2.03588973 16.62153384 -4.97901723 16.791013 -9 16 C-11.5 14.5 -11.5 14.5 -13 12 C-13.54719708 9.21841484 -13.58180519 6.7778346 -13 4 C-9.07078336 -1.10798163 -6.1704023 -1.40728474 0 0 Z " fill="#000000" transform="translate(197,29)"/>
<path d="M0 0 C3.06458538 2.04305692 3.82153128 3.44079802 4.9375 6.9375 C5.01221891 10.59872681 4.21363944 12.1304674 2 15 C-1.20841035 16.60420518 -4.5193987 16.47462745 -8 16 C-10.5 14.5 -10.5 14.5 -12 12 C-12.791013 7.97901723 -12.62153384 5.03588973 -10.5 1.5 C-6.97359191 -0.61584485 -4.01178761 -0.80730018 0 0 Z " fill="#000000" transform="translate(327,160)"/>
<path d="M0 0 C3.06458538 2.04305692 3.82153128 3.44079802 4.9375 6.9375 C5.01221891 10.59872681 4.21363944 12.1304674 2 15 C-1.20841035 16.60420518 -4.5193987 16.47462745 -8 16 C-10.5 14.5 -10.5 14.5 -12 12 C-12.791013 7.97901723 -12.62153384 5.03588973 -10.5 1.5 C-6.97359191 -0.61584485 -4.01178761 -0.80730018 0 0 Z " fill="#000000" transform="translate(327,64)"/>
<path d="M0 0 C2.5 1.5 2.5 1.5 4 4 C4.791013 8.02098277 4.62153384 10.96411027 2.5 14.5 C-1.03588973 16.62153384 -3.97901723 16.791013 -8 16 C-10.5 14.5 -10.5 14.5 -12 12 C-12.791013 7.97901723 -12.62153384 5.03588973 -10.5 1.5 C-6.96411027 -0.62153384 -4.02098277 -0.791013 0 0 Z " fill="#000000" transform="translate(340,112)"/>
<path d="M0 0 C2.5 1.5 2.5 1.5 4 4 C4.791013 8.02098277 4.62153384 10.96411027 2.5 14.5 C-1.03588973 16.62153384 -3.97901723 16.791013 -8 16 C-10.5 14.5 -10.5 14.5 -12 12 C-12.791013 7.97901723 -12.62153384 5.03588973 -10.5 1.5 C-6.96411027 -0.62153384 -4.02098277 -0.791013 0 0 Z " fill="#000000" transform="translate(148,112)"/>
<path d="M0 0 C2.5 1.5 2.5 1.5 4 4 C4.791013 8.02098277 4.62153384 10.96411027 2.5 14.5 C-1.03588973 16.62153384 -3.97901723 16.791013 -8 16 C-10.5 14.5 -10.5 14.5 -12 12 C-12.791013 7.97901723 -12.62153384 5.03588973 -10.5 1.5 C-6.96411027 -0.62153384 -4.02098277 -0.791013 0 0 Z " fill="#000000" transform="translate(244,16)"/>
</svg>
