<?xml version="1.0" encoding="UTF-8"?>
<svg version="1.1" xmlns="http://www.w3.org/2000/svg" width="512" height="512">
<path d="M0 0 C2.37540502 1.63234988 4.60190557 3.35585052 6.8203125 5.1953125 C18.03212022 14.47820707 27.59386245 16.84741986 42 16 C43.6697638 15.68254491 45.33687173 15.35056135 47 15 C57.29897617 14.07612126 67.69512615 15.63341543 76.3125 21.6875 C77.56811996 22.7614894 78.79741347 23.86694203 80 25 C80.98033203 25.85078125 80.98033203 25.85078125 81.98046875 26.71875 C87.04547498 31.65639631 89.40458809 36.97026489 91.9375 43.4375 C97.59800633 57.69873196 104.97646824 63.80998543 119 70 C131.59911619 75.6778419 139.44943277 82.06080885 145 95 C148.25160895 104.33526441 146.72035593 114.10721209 145.3125 123.6875 C144.20662468 133.67724039 147.82744405 142.61526319 153 151 C154.70059846 153.06019637 156.48954929 154.98534371 158.32421875 156.92578125 C165.97757085 166.39881147 166.64064894 177.37340815 166 189 C164.62172205 197.64343802 160.16117979 203.87489986 154.9375 210.69140625 C150.71187726 216.27637454 147.47412589 221.10408907 146 228 C145.77183594 229.00546875 145.77183594 229.00546875 145.5390625 230.03125 C144.7137342 234.94653856 145.25833308 239.33582598 146 244.25 C147.97431415 257.75917695 146.6186569 269.05576192 138.4375 280.1875 C130.13635273 289.95896118 118.86490357 294.04503214 107 298 C110.82395911 305.86407742 114.9119277 313.48215663 119.375 321 C120.61313001 323.1034897 121.85006006 325.20768605 123.0859375 327.3125 C123.7262793 328.40304687 124.36662109 329.49359375 125.02636719 330.6171875 C128.39292013 336.38746924 131.6948233 342.19444779 135 348 C140.5292752 357.70498409 146.11248187 367.37657751 151.75488281 377.01635742 C154.89906561 382.39060102 158.02871845 387.77274241 161.13671875 393.16796875 C161.48134659 393.76617432 161.82597443 394.36437988 162.18104553 394.98071289 C163.85684362 397.89063503 165.53089359 400.80154484 167.20336914 403.71337891 C167.80141357 404.75284668 168.39945801 405.79231445 169.015625 406.86328125 C169.54446289 407.78407471 170.07330078 408.70486816 170.61816406 409.65356445 C171.68824811 411.47062767 172.83027964 413.24541946 174 415 C174 415.99 174 416.98 174 418 C172.53113342 417.92552643 172.53113342 417.92552643 171.03259277 417.84954834 C161.73843179 417.39713333 152.44970361 417.09709628 143.14572906 416.94041061 C138.36199057 416.85509761 133.59171681 416.71910388 128.81396484 416.46044922 C109.31245191 414.60819762 109.31245191 414.60819762 91.28447723 420.21686172 C84.68537661 426.43098104 81.458602 435.04522038 78.42657471 443.38703918 C76.12957994 449.20443665 72.89738167 454.365926 69.625 459.6875 C68.48543425 461.62647373 67.34942484 463.56754704 66.21875 465.51171875 C61.82151279 473.01312071 57.41665067 480.51001176 53 488 C49.35248225 486.78416075 49.14744257 485.99712003 47.35546875 482.71484375 C46.85104248 481.80452393 46.34661621 480.8942041 45.8269043 479.95629883 C45.01539917 478.46199341 45.01539917 478.46199341 44.1875 476.9375 C43.01198754 474.81423372 41.8348542 472.69186414 40.65625 470.5703125 C40.05039062 469.4762207 39.44453125 468.38212891 38.8203125 467.25488281 C36.01195236 462.23328177 33.10228725 457.27283958 30.1875 452.3125 C25.06660839 443.57449912 20.01351474 434.79985068 15 426 C9.37705069 416.13244104 3.7152851 406.28894569 -2.04052734 396.49804688 C-4.80679502 391.7887579 -7.53349553 387.06529881 -10.17578125 382.28515625 C-10.67489014 381.3919165 -11.17399902 380.49867676 -11.68823242 379.57836914 C-12.62153175 377.90350521 -13.54300117 376.22197425 -14.45043945 374.53295898 C-14.86124756 373.80020752 -15.27205566 373.06745605 -15.6953125 372.3125 C-16.04609863 371.66925781 -16.39688477 371.02601563 -16.75830078 370.36328125 C-17.16806152 369.91339844 -17.57782227 369.46351563 -18 369 C-19.32 369 -20.64 369 -22 369 C-22.61705811 370.0837793 -22.61705811 370.0837793 -23.24658203 371.18945312 C-31.02847849 384.85038142 -38.84142316 398.49036317 -46.7800293 412.06103516 C-51.02388097 419.31821941 -55.23878857 426.59160984 -59.4375 433.875 C-60.05584717 434.94741943 -60.67419434 436.01983887 -61.3112793 437.12475586 C-64.53218506 442.71292907 -67.74956462 448.303119 -70.96484375 453.89453125 C-77.54231182 465.32524509 -84.14091129 476.73548032 -91 488 C-95.33751396 486.55416201 -96.29362672 483.28157201 -98.3125 479.4375 C-99.20844659 477.7786002 -100.10702299 476.12111882 -101.0078125 474.46484375 C-101.49024414 473.57651855 -101.97267578 472.68819336 -102.46972656 471.77294922 C-105.65694058 465.99752216 -108.96804966 460.28345371 -112.43487549 454.67134094 C-115.71692394 449.28477565 -118.4329662 444.12060432 -120.53857422 438.16650391 C-123.45495255 430.67483997 -126.54705715 424.04215848 -133 419 C-144.63391562 414.2087517 -159.32483432 416.14782573 -171.57849121 416.75115967 C-176.36370835 416.95843531 -181.15061405 417.01541844 -185.93945312 417.0859375 C-195.30048641 417.24551841 -204.64779072 417.5692225 -214 418 C-213.20445303 414.52587119 -211.94810607 411.85440698 -210.19140625 408.73828125 C-209.61463135 407.710979 -209.03785645 406.68367676 -208.44360352 405.62524414 C-207.51245728 403.98543579 -207.51245728 403.98543579 -206.5625 402.3125 C-205.9243335 401.18126709 -205.28616699 400.05003418 -204.62866211 398.88452148 C-200.77925501 392.07991618 -196.8776713 385.30914603 -192.88964844 378.58496094 C-189.14691459 372.2730369 -185.47603196 365.92067276 -181.8125 359.5625 C-181.17739502 358.46035156 -180.54229004 357.35820312 -179.88793945 356.22265625 C-178.58281391 353.95714295 -177.27788445 351.69151666 -175.97314453 349.42578125 C-173.36978775 344.90582302 -170.76396783 340.38728853 -168.1574707 335.86914062 C-166.89647706 333.6831816 -165.63589053 331.49698767 -164.37573242 329.31054688 C-161.47756401 324.28392166 -158.57290075 319.26137968 -155.6484375 314.25 C-155.13506836 313.36884521 -154.62169922 312.48769043 -154.09277344 311.57983398 C-153.14267732 309.95035277 -152.19034777 308.32217088 -151.23535156 306.69555664 C-150.81995117 305.98262451 -150.40455078 305.26969238 -149.9765625 304.53515625 C-149.61643066 303.920354 -149.25629883 303.30555176 -148.88525391 302.67211914 C-147.85311545 300.83335569 -147.85311545 300.83335569 -147 298 C-149.7883499 296.86341547 -152.58324295 295.7906991 -155.41796875 294.7734375 C-168.45358119 290.01145198 -177.42117771 283.63051176 -183.9921875 271.109375 C-187.8630567 262.3354048 -187.23346541 252.80859422 -185.875 243.5625 C-184.24275832 231.82797023 -186.36481836 222.21263064 -193.1640625 212.38671875 C-194.76920687 210.30003107 -196.42571472 208.32906134 -198.1875 206.375 C-205.45835984 198.28762649 -206.48285935 188.33052144 -206.27734375 177.859375 C-205.54919008 167.72675778 -200.61616033 159.80447883 -194.421875 152.015625 C-188.31685351 144.30726453 -184.80248917 135.94608093 -185 126 C-185.29766491 123.72421646 -185.6336671 121.45324388 -186 119.1875 C-187.99291923 106.61572867 -186.66611496 95.3607616 -179.25 84.8125 C-173.21159064 77.45068495 -166.92936727 73.11643034 -158.125 69.625 C-147.17705521 64.96333968 -139.10747064 59.93622341 -134.05859375 48.66796875 C-133.31925234 46.80461014 -132.60503028 44.93117512 -131.91015625 43.05078125 C-127.72809401 32.05350646 -120.67186591 23.32714229 -110 18 C-101.63251001 14.68076943 -92.92793939 13.99887194 -84.0625 15.49609375 C-73.37085618 17.25530555 -62.82188843 16.69513275 -53.70703125 10.421875 C-52.22851776 9.25999891 -50.76616034 8.07728208 -49.3203125 6.875 C-46.76335932 4.80877521 -44.12617861 2.98663587 -41.375 1.1875 C-40.51648438 0.62417969 -39.65796875 0.06085937 -38.7734375 -0.51953125 C-27.65163689 -6.45637974 -10.96791927 -6.1413144 0 0 Z " fill="#FEB021" transform="translate(276,14)"/>
<path d="M0 0 C1.26972656 0.32871094 2.53945313 0.65742187 3.84765625 0.99609375 C37.71346496 10.33925265 65.32750527 32.85661723 83 63 C88.21954742 72.58719408 92.2078244 82.43700766 95 93 C95.21269531 93.74636719 95.42539062 94.49273437 95.64453125 95.26171875 C98.2515252 104.808193 98.21452398 114.56640487 98.24023438 124.38134766 C98.24988976 126.5996729 98.28097461 128.81704917 98.3125 131.03515625 C98.41006674 143.9989084 96.5490782 156.19519305 91.875 168.375 C91.42713135 169.55944702 91.42713135 169.55944702 90.97021484 170.76782227 C78.17511284 203.56713361 53.43757766 230.01771253 21.19140625 244.25 C14.91023917 246.91779976 8.57797394 249.15649138 2 251 C0.88882813 251.3196875 -0.22234375 251.639375 -1.3671875 251.96875 C-34.77158044 259.86300479 -70.01784682 252.48777122 -99 235 C-106.64528415 230.06419697 -113.39528218 224.23838763 -120 218 C-120.73863281 217.32582031 -121.47726563 216.65164063 -122.23828125 215.95703125 C-137.95083878 201.08173256 -147.55786184 182.38684875 -154 162 C-154.31839844 161.02417969 -154.63679687 160.04835937 -154.96484375 159.04296875 C-164.91201038 126.03421183 -157.88884789 91.27853159 -142.32177734 61.40917969 C-126.24640585 32.10889046 -97.10341878 10.94734112 -65.53515625 1.2890625 C-44.62506169 -4.77861858 -21.09596366 -5.70723223 0 0 Z " fill="#09A789" transform="translate(286,70)"/>
<path d="M0 0 C6.31529863 1.84329782 10.90983353 4.29649562 15.9140625 8.52734375 C23.66496446 14.82325183 31.15071257 18.70361135 41.1875 18.390625 C42.77082439 18.36531978 44.35415821 18.34059881 45.9375 18.31640625 C48.410462 18.26696659 50.88292076 18.21114659 53.35546875 18.14404297 C70.85848986 17.69946623 70.85848986 17.69946623 78.140625 22.3359375 C79.6565625 23.17125 79.6565625 23.17125 81.203125 24.0234375 C88.52838042 29.79012794 92.54997745 35.74606054 96.078125 44.2734375 C101.48683592 57.18412814 108.2680329 63.75245068 121.140625 69.3359375 C133.53802222 74.97249923 140.56433883 80.64895085 146.140625 93.3359375 C147.25503057 97.55001729 147.15729786 101.42830441 146.9921875 105.76953125 C146.95513077 107.23888559 146.92004092 108.7082906 146.88671875 110.17773438 C146.83173198 112.46260516 146.76687686 114.74467888 146.66748047 117.02807617 C146.1217009 130.11106964 148.37631977 140.05945223 157.328125 150.2109375 C157.81152344 150.72398437 158.29492188 151.23703125 158.79296875 151.765625 C164.78857248 158.75180674 166.71608374 168.13036557 166.50390625 177.09765625 C165.32718638 187.58691188 160.17656494 195.26127169 153.54296875 203.0703125 C145.7634595 213.20805387 146.81011945 223.51663828 147.22265625 235.69506836 C147.63856574 249.16971499 146.43731275 258.40809161 137.40625 269.078125 C132.43267059 274.03455414 126.57295816 276.85883834 120.078125 279.3359375 C112.19344073 282.34375269 104.54634295 286.94570093 100.140625 294.3359375 C98.92843212 297.07295694 97.8482823 299.85808363 96.765625 302.6484375 C92.27110173 314.16402786 86.48824471 321.8564996 75.140625 327.3359375 C67.65639211 330.55472037 59.34978726 331.26201079 51.328125 329.8359375 C39.81032276 328.02922342 29.81833338 329.69437292 20.140625 336.3359375 C18.73978772 337.47564783 17.34433991 338.6220011 15.953125 339.7734375 C8.94727941 345.30185987 0.60177516 349.36276255 -8.49609375 348.8984375 C-12.11474185 348.03713944 -14.6361496 346.05827027 -17.59375 343.87109375 C-26.79874769 337.63391428 -38.39201986 338.57545665 -48.859375 340.3359375 C-60.75233881 341.26722221 -69.66161361 338.78014377 -79.59375 332.2890625 C-86.26430741 326.53858197 -90.14584927 320.44917196 -93.421875 312.3359375 C-97.98663965 301.15692203 -102.73967205 293.65469161 -113.859375 288.3359375 C-116.35410959 287.35845269 -118.85114257 286.4017601 -121.359375 285.4609375 C-132.90889717 281.07096268 -140.15756416 274.29529359 -145.8515625 263.4453125 C-149.7224317 254.6713423 -149.09284041 245.14453172 -147.734375 235.8984375 C-146.10213332 224.16390773 -148.22419336 214.54856814 -155.0234375 204.72265625 C-156.62858187 202.63596857 -158.28508972 200.66499884 -160.046875 198.7109375 C-167.31773484 190.62356399 -168.34223435 180.66645894 -168.13671875 170.1953125 C-167.40856508 160.06269528 -162.47553533 152.14041633 -156.28125 144.3515625 C-150.17622851 136.64320203 -146.66186417 128.28201843 -146.859375 118.3359375 C-147.15703991 116.06015396 -147.4930421 113.78918138 -147.859375 111.5234375 C-149.85229423 98.95166617 -148.52548996 87.6966991 -141.109375 77.1484375 C-135.07096564 69.78662245 -128.78874227 65.45236784 -119.984375 61.9609375 C-109.03643021 57.29927718 -100.96684564 52.27216091 -95.91796875 41.00390625 C-95.17862734 39.14054764 -94.46440528 37.26711262 -93.76953125 35.38671875 C-89.58746901 24.38944396 -82.53124091 15.66307979 -71.859375 10.3359375 C-63.49188501 7.01670693 -54.78731439 6.33480944 -45.921875 7.83203125 C-35.57521647 9.53447889 -24.72930613 9.18610888 -15.90625 2.95703125 C-15.33390625 2.50457031 -14.7615625 2.05210938 -14.171875 1.5859375 C-9.54338322 -1.94001261 -5.36730103 -1.24650434 0 0 Z M-71.859375 81.3359375 C-72.52710938 81.93019531 -73.19484375 82.52445313 -73.8828125 83.13671875 C-96.6065653 104.63360227 -109.92640861 137.47346577 -111.109375 168.42578125 C-111.87833413 205.64197932 -98.94053445 238.27935368 -73.30908203 265.22119141 C-50.32569872 288.7666497 -19.03741362 302.15546525 13.73120117 302.73876953 C45.44331649 303.10054144 75.90791412 294.7153087 100.140625 273.3359375 C101.36652344 272.28986328 101.36652344 272.28986328 102.6171875 271.22265625 C125.71107187 251.09594278 143.81204261 221.35892188 146.30880737 190.23974609 C146.51900677 185.9384079 146.52646013 181.64254948 146.47680664 177.3371582 C146.45302414 175.13911567 146.45630279 172.94228132 146.46289062 170.74414062 C146.44666921 162.44726534 145.86784401 154.47450559 144.140625 146.3359375 C143.86863281 145.05203125 143.59664062 143.768125 143.31640625 142.4453125 C138.18645819 122.48261871 128.72863272 104.82769412 115.140625 89.3359375 C114.45613281 88.50707031 113.77164063 87.67820313 113.06640625 86.82421875 C96.51787976 67.33917 72.57651816 54.80801564 48.140625 48.3359375 C46.95855469 48.01496094 45.77648437 47.69398437 44.55859375 47.36328125 C1.68914843 37.54759356 -39.96439644 52.92275579 -71.859375 81.3359375 Z " fill="#FEC637" transform="translate(237.859375,21.6640625)"/>
<path d="M0 0 C34.32 0 68.64 0 104 0 C104 6.93 104 13.86 104 21 C101.03 21 98.06 21 95 21 C95 24.63 95 28.26 95 32 C96.57910156 31.94199219 98.15820312 31.88398438 99.78515625 31.82421875 C101.8775745 31.77730354 103.97002486 31.73180528 106.0625 31.6875 C107.10083984 31.64560547 108.13917969 31.60371094 109.20898438 31.56054688 C115.02065856 31.46829808 118.97099361 31.75215616 123.59545898 35.42895508 C128.41009785 40.81435419 128.45490008 45.3485909 128.43359375 52.3046875 C128.4388356 53.30202911 128.44407745 54.29937073 128.44947815 55.32693481 C128.45589121 57.43327912 128.45457065 59.53965928 128.44604492 61.64599609 C128.43754737 64.85709967 128.4662872 68.06641634 128.49804688 71.27734375 C128.49965942 73.32812447 128.49908033 75.37890832 128.49609375 77.4296875 C128.50732773 78.38406708 128.51856171 79.33844666 128.53013611 80.32174683 C128.46702816 86.40510911 127.61907313 90.0532602 124 95 C117.69744575 100.6661137 108.63563584 99.49229716 100.75585938 99.40039062 C93.7110219 99.47576019 90.35715057 100.39697686 85 105 C78.03580586 107.32139805 70.34090518 106 63 106 C63 119.2 63 132.4 63 146 C68.94 146 74.88 146 81 146 C81.556875 147.4025 82.11375 148.805 82.6875 150.25 C84.51068669 154.31073398 86.0576426 156.70793174 90 159 C92.31 159.66 94.62 160.32 97 161 C97 166.28 97 171.56 97 177 C67.3 177 37.6 177 7 177 C7 171.72 7 166.44 7 161 C8.381875 160.62875 9.76375 160.2575 11.1875 159.875 C16.19130705 158.19132907 18.17361855 156.45369198 21 152 C21.66 149.69 22.32 147.38 23 145 C28.61 145 34.22 145 40 145 C40 132.46 40 119.92 40 107 C34.72 107 29.44 107 24 107 C17 104 17 104 14.8359375 101.84375 C9.44286067 98.33750721 2.51458411 99.48994344 -3.7421875 99.51171875 C-10.36256554 99.42502332 -14.77204902 99.2485723 -20 95 C-24.1842581 89.17197713 -24.60336119 84.56413408 -24.56640625 77.5 C-24.57260483 76.50548828 -24.57880341 75.51097656 -24.58518982 74.48632812 C-24.59226685 72.391937 -24.58915114 70.29748936 -24.57641602 68.203125 C-24.56254066 65.00935888 -24.5966656 61.81851959 -24.63476562 58.625 C-24.63571685 56.58333262 -24.63385783 54.5416616 -24.62890625 52.5 C-24.64216446 51.55189453 -24.65542267 50.60378906 -24.66908264 49.62695312 C-24.57825599 43.12042211 -23.29775151 39.9142024 -19 35 C-14.37115036 30.76619133 -8.5967518 31.66505226 -2.6875 31.8125 C-1.14739258 31.83280273 -1.14739258 31.83280273 0.42382812 31.85351562 C2.94944489 31.88875679 5.47479056 31.94256053 8 32 C8 28.37 8 24.74 8 21 C5.36 21 2.72 21 0 21 C0 14.07 0 7.14 0 0 Z " fill="#FEC637" transform="translate(204,107)"/>
<path d="M0 0 C0.35078613 0.63164062 0.70157227 1.26328125 1.06298828 1.9140625 C8.70985139 15.66702135 16.48090039 29.33369051 24.4375 42.91015625 C28.1321337 49.21570521 31.78840581 55.54301324 35.4375 61.875 C36.05568604 62.94717773 36.67387207 64.01935547 37.31079102 65.12402344 C40.53192804 70.71240137 43.74941864 76.30286514 46.96484375 81.89453125 C48.26810245 84.1589271 49.57148581 86.42325121 50.875 88.6875 C51.49826172 89.771521 52.12152344 90.85554199 52.76367188 91.97241211 C56.59533015 98.61992942 60.47656953 105.23299604 64.56396484 111.72729492 C66.22341839 114.41769518 67 115.76468929 67 119 C66.02075562 118.95035095 65.04151123 118.9007019 64.03259277 118.84954834 C54.73843179 118.39713333 45.44970361 118.09709628 36.14572906 117.94041061 C31.36199057 117.85509761 26.59171681 117.71910388 21.81396484 117.46044922 C2.31245191 115.60819762 2.31245191 115.60819762 -15.71552277 121.21686172 C-22.31462339 127.43098104 -25.541398 136.04522038 -28.57342529 144.38703918 C-30.87042006 150.20443665 -34.10261833 155.365926 -37.375 160.6875 C-38.51456575 162.62647373 -39.65057516 164.56754704 -40.78125 166.51171875 C-45.17848721 174.01312071 -49.58334933 181.51001176 -54 189 C-57.64751775 187.78416075 -57.85255743 186.99712003 -59.64453125 183.71484375 C-60.14895752 182.80452393 -60.65338379 181.8942041 -61.1730957 180.95629883 C-61.71409912 179.96009521 -62.25510254 178.9638916 -62.8125 177.9375 C-63.98801246 175.81423372 -65.1651458 173.69186414 -66.34375 171.5703125 C-67.25253906 169.9291748 -67.25253906 169.9291748 -68.1796875 168.25488281 C-70.98804764 163.23328177 -73.89771275 158.27283958 -76.8125 153.3125 C-81.93339161 144.57449912 -86.98648526 135.79985068 -92 127 C-97.06021933 118.11996038 -102.15538258 109.26177419 -107.3125 100.4375 C-108.16352295 98.98029541 -108.16352295 98.98029541 -109.03173828 97.49365234 C-111.24172418 93.711608 -113.45325282 89.93050782 -115.67236328 86.15380859 C-117.24347321 83.47960871 -118.80958163 80.80253422 -120.375 78.125 C-120.84591064 77.32763428 -121.31682129 76.53026855 -121.80200195 75.70874023 C-125 70.22671848 -125 70.22671848 -125 68 C-124.12601562 67.88785156 -124.12601562 67.88785156 -123.234375 67.7734375 C-112.2238338 66.00759599 -103.75675676 60.93383057 -95.32421875 53.83203125 C-88.59545788 48.52818444 -81.99655337 46.83251107 -73.5625 46.875 C-72.79873047 46.87113281 -72.03496094 46.86726563 -71.24804688 46.86328125 C-70.50748047 46.86457031 -69.76691406 46.86585938 -69.00390625 46.8671875 C-68.33174072 46.86831543 -67.6595752 46.86944336 -66.96704102 46.87060547 C-64.87462088 47.0082476 -63.02508604 47.47073653 -61 48 C-48.3366795 48.89226649 -38.29222081 46.56308774 -28 39 C-21.42934619 33.13385831 -18.09972932 25.05498169 -15.125 16.9375 C-12.90228089 11.20902879 -7.14531633 0 0 0 Z " fill="#F95E16" transform="translate(383,313)"/>
<path d="M0 0 C6.79355387 2.24512996 10.15220828 7.41153492 13.34765625 13.6171875 C14.60076105 16.39738787 15.8083233 19.19293933 17 22 C22.20647975 34.13309441 28.28348761 40.8811383 40.51953125 46.08984375 C44.96409637 47.72068418 48.61307276 48.13610006 53.375 48.125 C54.47585937 48.12757813 55.57671875 48.13015625 56.7109375 48.1328125 C59.8969892 48.00415958 62.86112498 47.53550361 66 47 C81.71149018 45.96320116 91.86870512 50.52078937 104.0625 60.1875 C110.24559565 64.92618396 117.28886746 67.32946674 125 68 C123.65544302 71.54434427 122.08771656 74.80799193 120.234375 78.11328125 C119.68144775 79.10126709 119.12852051 80.08925293 118.55883789 81.10717773 C117.96192139 82.16493408 117.36500488 83.22269043 116.75 84.3125 C116.12665771 85.42117432 115.50331543 86.52984863 114.86108398 87.67211914 C109.52126695 97.13940877 104.05876975 106.53299965 98.5625 115.91015625 C94.8678663 122.21570521 91.21159419 128.54301324 87.5625 134.875 C86.94431396 135.94717773 86.32612793 137.01935547 85.68920898 138.12402344 C82.46807196 143.71240137 79.25058136 149.30286514 76.03515625 154.89453125 C69.45768818 166.32524509 62.85908871 177.73548032 56 189 C51.66248604 187.55416201 50.70637328 184.28157201 48.6875 180.4375 C47.79155341 178.7786002 46.89297701 177.12111882 45.9921875 175.46484375 C45.50975586 174.57651855 45.02732422 173.68819336 44.53027344 172.77294922 C41.34305942 166.99752216 38.03195034 161.28345371 34.56512451 155.67134094 C31.28307606 150.28477565 28.5670338 145.12060432 26.46142578 139.16650391 C23.54504745 131.67483997 20.45294285 125.04215848 14 120 C2.36608438 115.2087517 -12.32483432 117.14782573 -24.57849121 117.75115967 C-29.36370835 117.95843531 -34.15061405 118.01541844 -38.93945312 118.0859375 C-48.30048641 118.24551841 -57.64779072 118.5692225 -67 119 C-66.20445303 115.52587119 -64.94810607 112.85440698 -63.19140625 109.73828125 C-62.61463135 108.710979 -62.03785645 107.68367676 -61.44360352 106.62524414 C-60.82283936 105.53203857 -60.2020752 104.43883301 -59.5625 103.3125 C-58.9243335 102.18126709 -58.28616699 101.05003418 -57.62866211 99.88452148 C-53.77925501 93.07991618 -49.8776713 86.30914603 -45.88964844 79.58496094 C-40.1565462 69.91638515 -34.5778565 60.1578066 -28.96875 50.41699219 C-27.02293134 47.03979997 -25.07447709 43.66414404 -23.125 40.2890625 C-15.38037555 26.87997317 -7.66749854 13.45334916 0 0 Z " fill="#F24C00" transform="translate(129,313)"/>
<path d="M0 0 C1.90458984 0.49306641 1.90458984 0.49306641 3.84765625 0.99609375 C37.71346496 10.33925265 65.32750527 32.85661723 83 63 C88.21954742 72.58719408 92.2078244 82.43700766 95 93 C95.21269531 93.74636719 95.42539062 94.49273437 95.64453125 95.26171875 C98.2515252 104.808193 98.21452398 114.56640487 98.24023438 124.38134766 C98.24988976 126.5996729 98.28097461 128.81704917 98.3125 131.03515625 C98.41006674 143.9989084 96.5490782 156.19519305 91.875 168.375 C91.42713135 169.55944702 91.42713135 169.55944702 90.97021484 170.76782227 C78.17511284 203.56713361 53.43757766 230.01771253 21.19140625 244.25 C14.91023917 246.91779976 8.57797394 249.15649138 2 251 C0.88882813 251.3196875 -0.22234375 251.639375 -1.3671875 251.96875 C-11.01983995 254.249902 -20.64241527 254.25927831 -30.5 254.25 C-31.20422089 254.24940582 -31.90844177 254.24881165 -32.63400269 254.24819946 C-39.81180818 254.22510559 -46.89820462 254.13482297 -54 253 C-54 252.67 -54 252.34 -54 252 C-53.27039063 251.85304688 -52.54078125 251.70609375 -51.7890625 251.5546875 C-16.66392643 244.0092879 12.76542039 225.55020932 32.6875 195.1875 C51.1959664 166.09584242 56.78703496 130.82965545 49.75390625 97.125 C49.18028966 94.74731466 48.59321772 92.3728709 48 90 C47.67 100.56 47.34 111.12 47 122 C46.67 122 46.34 122 46 122 C45.98541748 120.72358643 45.97083496 119.44717285 45.95581055 118.13208008 C45.8977646 113.38879621 45.82053172 108.64598393 45.73754883 103.90307617 C45.70432917 101.85172184 45.67628803 99.80027675 45.65356445 97.7487793 C45.6199643 94.79697051 45.56764524 91.84599114 45.51171875 88.89453125 C45.50532883 87.97976517 45.4989389 87.06499908 45.49235535 86.12251282 C45.38077001 81.27154553 45.15055685 77.93262007 42 74 C36.64354755 69.03715268 31.05007902 69.34381265 24.125 69.25 C23.05507813 69.22035156 21.98515625 69.19070312 20.8828125 69.16015625 C18.25560838 69.08978471 15.62780132 69.04258997 13 69 C13 65.37 13 61.74 13 58 C15.97 58 18.94 58 22 58 C22 51.07 22 44.14 22 37 C20.35 36.67 18.7 36.34 17 36 C14.81640625 34.28515625 14.81640625 34.28515625 12.5625 32.0625 C-4.94374314 15.76981648 -27.25426118 3.76916489 -51 0 C-51 -0.66 -51 -1.32 -51 -2 C-34.67371942 -4.97277356 -15.99289839 -4.32666583 0 0 Z " fill="#07967B" transform="translate(286,70)"/>
<path d="M0 0 C0.35078613 0.63164062 0.70157227 1.26328125 1.06298828 1.9140625 C8.70985139 15.66702135 16.48090039 29.33369051 24.4375 42.91015625 C28.1321337 49.21570521 31.78840581 55.54301324 35.4375 61.875 C36.05568604 62.94717773 36.67387207 64.01935547 37.31079102 65.12402344 C40.53192804 70.71240137 43.74941864 76.30286514 46.96484375 81.89453125 C48.26810245 84.1589271 49.57148581 86.42325121 50.875 88.6875 C51.49826172 89.771521 52.12152344 90.85554199 52.76367188 91.97241211 C56.59533015 98.61992942 60.47656953 105.23299604 64.56396484 111.72729492 C66.22341839 114.41769518 67 115.76468929 67 119 C56.54292344 119.20868725 46.08634338 119.368522 35.62760735 119.46630955 C30.770846 119.51324825 25.91551077 119.5768893 21.05957031 119.67895508 C16.37157354 119.77687227 11.68494654 119.83058262 6.99600601 119.85389519 C5.20886795 119.87050349 3.42180355 119.90293907 1.63525009 119.95157051 C-12.36794167 120.31752815 -12.36794167 120.31752815 -16.38311768 117.07615662 C-17.95998844 114.75442777 -18.99802002 112.61328833 -20 110 C-20.74173954 108.66522989 -21.49926853 107.33894345 -22.28125 106.02734375 C-23.0238671 104.6657127 -23.76332546 103.30235527 -24.5 101.9375 C-28.55427248 94.53703184 -32.74069833 87.22181503 -37 79.9375 C-37.88872803 78.41636597 -37.88872803 78.41636597 -38.79541016 76.86450195 C-41.5527173 72.15356495 -44.32243021 67.45054047 -47.1171875 62.76171875 C-47.58640625 61.97224854 -48.055625 61.18277832 -48.5390625 60.36938477 C-49.40746711 58.91045867 -50.27966043 57.45377877 -51.15625 55.99975586 C-54 51.22208659 -54 51.22208659 -54 49 C-53.17757813 48.84144531 -52.35515625 48.68289063 -51.5078125 48.51953125 C-40.18549675 46.15308881 -29.51773229 42.47476049 -22.4140625 32.8515625 C-19.46791251 28.23044398 -17.4107473 23.59091919 -15.5625 18.4375 C-13.34118776 12.36830172 -7.84079334 0 0 0 Z " fill="#F24C00" transform="translate(383,313)"/>
<path d="M0 0 C6.79355387 2.24512996 10.15220828 7.41153492 13.34765625 13.6171875 C14.60076105 16.39738787 15.8083233 19.19293933 17 22 C22.06880655 33.81226305 28.12981532 40.99123784 40.13671875 46.03515625 C44.67438358 47.5642193 49.25977262 48.38569587 54 49 C52.62551133 52.63632623 50.99565142 55.97064121 49.09375 59.359375 C48.52003662 60.38377686 47.94632324 61.40817871 47.35522461 62.46362305 C46.74300049 63.54812744 46.13077637 64.63263184 45.5 65.75 C44.86779541 66.8738208 44.23559082 67.9976416 43.58422852 69.15551758 C38.9379217 77.39223278 34.20504102 85.57141748 29.3671875 93.69677734 C27.74772731 96.42498938 26.139281 99.15956766 24.53125 101.89453125 C23.33335698 103.92970142 22.13544051 105.96485778 20.9375 108 C20.36443115 108.97541748 19.7913623 109.95083496 19.20092773 110.95581055 C18.66927002 111.85726807 18.1376123 112.75872559 17.58984375 113.6875 C17.11409912 114.49574219 16.63835449 115.30398438 16.14819336 116.13671875 C15 118 15 118 14 119 C11.47458998 119.09504251 8.97662874 119.12557158 6.45092773 119.11352539 C5.26564987 119.11374443 5.26564987 119.11374443 4.056427 119.1139679 C1.43212178 119.11326857 -1.19211336 119.10547527 -3.81640625 119.09765625 C-5.63101665 119.09579214 -7.44562756 119.0943682 -9.26023865 119.09336853 C-14.0459023 119.08954279 -18.8315358 119.07971204 -23.6171875 119.06866455 C-28.49674064 119.05845163 -33.37629864 119.05387117 -38.25585938 119.04882812 C-47.83725286 119.03808982 -57.41862393 119.02101273 -67 119 C-66.20445303 115.52587119 -64.94810607 112.85440698 -63.19140625 109.73828125 C-62.61463135 108.710979 -62.03785645 107.68367676 -61.44360352 106.62524414 C-60.82283936 105.53203857 -60.2020752 104.43883301 -59.5625 103.3125 C-58.9243335 102.18126709 -58.28616699 101.05003418 -57.62866211 99.88452148 C-53.77925501 93.07991618 -49.8776713 86.30914603 -45.88964844 79.58496094 C-40.1565462 69.91638515 -34.5778565 60.1578066 -28.96875 50.41699219 C-27.02293134 47.03979997 -25.07447709 43.66414404 -23.125 40.2890625 C-15.38037555 26.87997317 -7.66749854 13.45334916 0 0 Z " fill="#F95F16" transform="translate(129,313)"/>
<path d="M0 0 C34.32 0 68.64 0 104 0 C104 6.93 104 13.86 104 21 C101.03 21 98.06 21 95 21 C95 24.63 95 28.26 95 32 C96.57910156 31.94199219 98.15820312 31.88398438 99.78515625 31.82421875 C101.8775745 31.77730354 103.97002486 31.73180528 106.0625 31.6875 C107.10083984 31.64560547 108.13917969 31.60371094 109.20898438 31.56054688 C115.02065856 31.46829808 118.97099361 31.75215616 123.59545898 35.42895508 C128.41009785 40.81435419 128.45490008 45.3485909 128.43359375 52.3046875 C128.4388356 53.30202911 128.44407745 54.29937073 128.44947815 55.32693481 C128.45589121 57.43327912 128.45457065 59.53965928 128.44604492 61.64599609 C128.43754737 64.85709967 128.4662872 68.06641634 128.49804688 71.27734375 C128.49965942 73.32812447 128.49908033 75.37890832 128.49609375 77.4296875 C128.50732773 78.38406708 128.51856171 79.33844666 128.53013611 80.32174683 C128.46702816 86.40510911 127.61907313 90.0532602 124 95 C117.69744575 100.6661137 108.63563584 99.49229716 100.75585938 99.40039062 C93.7110219 99.47576019 90.35715057 100.39697686 85 105 C82.23434618 105.92188461 80.61716298 106.11785222 77.76953125 106.09765625 C76.96708984 106.09443359 76.16464844 106.09121094 75.33789062 106.08789062 C74.50451172 106.07951172 73.67113281 106.07113281 72.8125 106.0625 C71.96751953 106.05798828 71.12253906 106.05347656 70.25195312 106.04882812 C68.16793845 106.03705403 66.08396023 106.0191189 64 106 C64.99 105.34 65.98 104.68 67 104 C71.51093358 100.61679981 73.73656537 98.29835176 76 93 C76.46693615 89.48961888 76.46693615 89.48961888 76.43237305 85.70947266 C76.44264684 84.99507208 76.45292063 84.2806715 76.46350574 83.54462242 C76.49319876 81.25101439 76.50290463 78.9578355 76.51171875 76.6640625 C76.52719817 75.24046348 76.54399742 73.81687819 76.56213379 72.39331055 C76.61989306 67.13735827 76.65217548 61.88115093 76.6875 56.625 C76.790625 44.86875 76.89375 33.1125 77 21 C51.59 21 26.18 21 0 21 C0 14.07 0 7.14 0 0 Z " fill="#FAB023" transform="translate(204,107)"/>
<path d="M0 0 C5.61 0 11.22 0 17 0 C17 12.87 17 25.74 17 39 C20.25875 38.979375 23.5175 38.95875 26.875 38.9375 C36.94983661 38.90648887 46.95133049 39.30527717 57 40 C57.23074219 40.60328125 57.46148437 41.2065625 57.69921875 41.828125 C59.70570843 46.74521432 61.24419498 50.23499708 66 53 C68.31 53.66 70.62 54.32 73 55 C73 60.28 73 65.56 73 71 C43.3 71 13.6 71 -17 71 C-17 65.72 -17 60.44 -17 55 C-15.618125 54.62875 -14.23625 54.2575 -12.8125 53.875 C-7.80869295 52.19132907 -5.82638145 50.45369198 -3 46 C-2.34 43.69 -1.68 41.38 -1 39 C4.61 39 10.22 39 16 39 C16 26.46 16 13.92 16 1 C10.72 1 5.44 1 0 1 C0 0.67 0 0.34 0 0 Z " fill="#F9C539" transform="translate(228,213)"/>
<path d="M0 0 C1.54010742 0.02030273 1.54010742 0.02030273 3.11132812 0.04101562 C5.63694489 0.07625679 8.16229056 0.13006053 10.6875 0.1875 C10.6875 3.8175 10.6875 7.4475 10.6875 11.1875 C9.49511719 11.22488281 8.30273438 11.26226562 7.07421875 11.30078125 C5.507781 11.36644032 3.94137616 11.43288768 2.375 11.5 C1.58931641 11.52255859 0.80363281 11.54511719 -0.00585938 11.56835938 C-0.76318359 11.60380859 -1.52050781 11.63925781 -2.30078125 11.67578125 C-3.34552612 11.71505737 -3.34552612 11.71505737 -4.41137695 11.75512695 C-6.89021226 12.31888929 -7.71568766 13.23140835 -9.3125 15.1875 C-9.57422754 18.20046236 -9.66110113 21.00230568 -9.60546875 24.01171875 C-9.60122391 24.87311966 -9.59697906 25.73452057 -9.59260559 26.62202454 C-9.57581248 29.37333431 -9.53815956 32.12391162 -9.5 34.875 C-9.48495396 36.7402238 -9.47126541 38.60545907 -9.45898438 40.47070312 C-9.42845851 45.04347796 -9.36973989 49.61466914 -9.3125 54.1875 C-2.7125 54.5175 3.8875 54.8475 10.6875 55.1875 C11.43619792 57.7265625 12.18489583 60.265625 12.93359375 62.8046875 C13.61363826 65.17025381 13.61363826 65.17025381 14.6875 67.1875 C10.66691398 67.30436443 6.64676918 67.37497388 2.625 67.4375 C1.49126953 67.47101563 0.35753906 67.50453125 -0.81054688 67.5390625 C-7.53185957 67.61744516 -12.02984503 67.53709639 -17.3125 63.1875 C-21.49462431 57.35723852 -21.91586776 52.75288896 -21.87890625 45.6875 C-21.88510483 44.69298828 -21.89130341 43.69847656 -21.89768982 42.67382812 C-21.90476685 40.579437 -21.90165114 38.48498936 -21.88891602 36.390625 C-21.87504066 33.19685888 -21.9091656 30.00601959 -21.94726562 26.8125 C-21.94821685 24.77083262 -21.94635783 22.7291616 -21.94140625 20.6875 C-21.95466446 19.73939453 -21.96792267 18.79128906 -21.98158264 17.81445312 C-21.89075599 11.30792211 -20.61025151 8.1017024 -16.3125 3.1875 C-11.68365036 -1.04630867 -5.9092518 -0.14744774 0 0 Z " fill="#FC9B0E" transform="translate(201.3125,138.8125)"/>
<path d="M0 0 C3.52213723 -0.1355827 7.03900521 -0.23439847 10.5625 -0.3125 C12.0484668 -0.3753418 12.0484668 -0.3753418 13.56445312 -0.43945312 C19.26731473 -0.53418505 23.03656495 -0.14989646 27.57788086 3.42895508 C32.4279961 8.78697938 32.45487873 13.35556124 32.43359375 20.3046875 C32.4388356 21.30202911 32.44407745 22.29937073 32.44947815 23.32693481 C32.45589121 25.43327912 32.45457065 27.53965928 32.44604492 29.64599609 C32.43754737 32.85709967 32.4662872 36.06641634 32.49804688 39.27734375 C32.49965942 41.32812447 32.49908033 43.37890832 32.49609375 45.4296875 C32.51294472 46.86125687 32.51294472 46.86125687 32.53013611 48.32174683 C32.46702076 54.40582258 31.61676463 58.05133846 28 63 C22.33715859 68.15897205 14.67113024 67.47302558 7.5 67.25 C6.39140625 67.23195313 5.2828125 67.21390625 4.140625 67.1953125 C1.42616704 67.1485115 -1.28644716 67.08296375 -4 67 C-3.52433594 65.86498047 -3.52433594 65.86498047 -3.0390625 64.70703125 C-1.92602177 61.80726725 -1.42822208 59.06892488 -1 56 C0.26457031 55.93941406 1.52914063 55.87882812 2.83203125 55.81640625 C4.49219871 55.73199096 6.15235437 55.64734345 7.8125 55.5625 C8.64587891 55.52318359 9.47925781 55.48386719 10.33789062 55.44335938 C11.14033203 55.40146484 11.94277344 55.35957031 12.76953125 55.31640625 C13.50792236 55.27974854 14.24631348 55.24309082 15.00708008 55.20532227 C17.207495 55.05157859 17.207495 55.05157859 20 54 C20.07411371 48.50076251 20.12858464 43.00181521 20.16479492 37.50219727 C20.17988873 35.63105201 20.20036589 33.75994217 20.22631836 31.88891602 C20.26267593 29.20059474 20.27972015 26.51274087 20.29296875 23.82421875 C20.30845261 22.98662521 20.32393646 22.14903168 20.33988953 21.28605652 C20.4853254 16.97569176 20.4853254 16.97569176 18.59753418 13.28198242 C16.62167325 11.69640196 15.49964927 11.58269358 12.98828125 11.48828125 C12.23095703 11.45283203 11.47363281 11.41738281 10.69335938 11.38085938 C9.51483398 11.34702148 9.51483398 11.34702148 8.3125 11.3125 C7.51521484 11.27833984 6.71792969 11.24417969 5.89648438 11.20898438 C3.93148096 11.12661896 1.96576304 11.06162933 0 11 C0 7.37 0 3.74 0 0 Z " fill="#FD9B0D" transform="translate(300,139)"/>
<path d="M0 0 C6.27 0 12.54 0 19 0 C21.53222254 3.7983338 21.30589635 6.87876094 21.30078125 11.28125 C21.30506638 12.0911438 21.3093515 12.9010376 21.31376648 13.73547363 C21.31950638 15.44684922 21.32001254 17.1582492 21.31567383 18.86962891 C21.31251167 21.49033084 21.33598372 24.10990622 21.36132812 26.73046875 C21.36360091 28.39322774 21.36430471 30.05598977 21.36328125 31.71875 C21.372491 32.50318481 21.38170074 33.28761963 21.39118958 34.0958252 C21.3526746 38.61499811 21.34053802 39.65946198 18 43 C12.06 43 6.12 43 0 43 C0 28.81 0 14.62 0 0 Z " fill="#0DA787" transform="translate(300,151)"/>
<path d="M0 0 C6.27 0 12.54 0 19 0 C19 14.19 19 28.38 19 43 C13.06 43 7.12 43 1 43 C-2.34053802 39.65946198 -2.3526746 38.61499811 -2.39118958 34.0958252 C-2.38197983 33.31139038 -2.37277008 32.52695557 -2.36328125 31.71875 C-2.36377975 30.9088562 -2.36427826 30.0989624 -2.36479187 29.26452637 C-2.36245258 27.5531163 -2.35273255 25.84170272 -2.33618164 24.13037109 C-2.31258804 21.50977842 -2.31562167 18.89020315 -2.32226562 16.26953125 C-2.31668876 14.60676476 -2.30957883 12.94400256 -2.30078125 11.28125 C-2.30169266 10.49681519 -2.30260406 9.71238037 -2.30354309 8.9041748 C-2.25368827 5.08160354 -2.17016688 3.25525033 0 0 Z " fill="#0DA787" transform="translate(193,151)"/>
<path d="M0 0 C7.26 0 14.52 0 22 0 C22 12.87 22 25.74 22 39 C14.74 39 7.48 39 0 39 C0 26.13 0 13.26 0 0 Z " fill="#FF9B0D" transform="translate(245,213)"/>
<path d="M0 0 C6.83967827 6.83967827 19 19.85385127 19 30 C18.28884033 29.67854004 17.57768066 29.35708008 16.8449707 29.02587891 C13.89254957 27.96125404 11.6050979 27.69067367 8.48046875 27.5859375 C7.45888672 27.54726562 6.43730469 27.50859375 5.38476562 27.46875 C3.80211914 27.42234375 3.80211914 27.42234375 2.1875 27.375 C1.11306641 27.33632812 0.03863281 27.29765625 -1.06835938 27.2578125 C-3.71196539 27.16381762 -6.35595876 27.08083151 -9 27 C-9 23.37 -9 19.74 -9 16 C-6.03 16 -3.06 16 0 16 C0 10.72 0 5.44 0 0 Z " fill="#10A786" transform="translate(308,112)"/>
<path d="M0 0 C6.27 0 12.54 0 19 0 C19 6.6 19 13.2 19 20 C12.73 20 6.46 20 0 20 C0 13.4 0 6.8 0 0 Z " fill="#FF9B0D" transform="translate(288,108)"/>
</svg>
