<?xml version="1.0" encoding="UTF-8"?>
<svg version="1.1" xmlns="http://www.w3.org/2000/svg" width="512" height="512">
<path d="M0 0 C6.90190315 6.61372348 10.09676299 12.24854534 10.5 21.8125 C10.29473605 30.21939758 7.72168092 36.26700394 2.125 42.5 C-2.9784653 47.20920618 -9.00330668 50.79682604 -14.81103516 54.56396484 C-18.72511476 57.13173378 -22.57891239 59.78738188 -26.4375 62.4375 C-27.23406006 62.98349854 -28.03062012 63.52949707 -28.85131836 64.09204102 C-32.75488866 66.76874099 -36.65522564 69.45013187 -40.5546875 72.1328125 C-41.27342041 72.62724854 -41.99215332 73.12168457 -42.73266602 73.63110352 C-44.07207326 74.55291883 -45.41113098 75.4752423 -46.74975586 76.39819336 C-50.47803008 78.96600807 -54.22707996 81.49820157 -58 84 C-57.36553313 87.46630731 -56.00461302 89.75680997 -54.0078125 92.640625 C-53.3897876 93.53958496 -52.7717627 94.43854492 -52.13500977 95.36474609 C-51.47170654 96.31687988 -50.80840332 97.26901367 -50.125 98.25 C-49.11747681 99.71107178 -49.11747681 99.71107178 -48.08959961 101.20166016 C-46.72117367 103.18526795 -45.35032627 105.16720746 -43.97705078 107.14746094 C-41.64546383 110.51153379 -39.32848414 113.88545096 -37.01318359 117.26074219 C-35.01258943 120.17645163 -33.00646644 123.08832937 -31 126 C-30.57589844 125.02160156 -30.15179688 124.04320312 -29.71484375 123.03515625 C-22.62738335 107.04293791 -13.65385509 95.72399399 3 89 C17.16097098 84.69588745 32.55069811 85.61656805 45.69921875 92.390625 C59.58240094 100.2764385 67.16718049 110.76263933 72 126 C75.44737402 139.65858316 72.81894624 154.30980309 65.79296875 166.33203125 C57.414239 178.79972715 45.46936563 187.68259309 30.6171875 190.6953125 C25.10106205 191.3374883 19.54258766 191.14191547 14 191 C17.97326112 197.40061178 22.10076136 203.67266764 26.375 209.875 C27.07326904 210.88844482 27.07326904 210.88844482 27.78564453 211.92236328 C30.0775908 215.24034145 32.38272484 218.54835842 34.70703125 221.84375 C35.1261377 222.44074707 35.54524414 223.03774414 35.97705078 223.65283203 C37.1201119 225.27912351 38.26886493 226.90141004 39.41796875 228.5234375 C41 231 41 231 41 233 C52.18833912 225.93656241 63.104807 218.50552993 74 211 C108.01965407 187.57490667 108.01965407 187.57490667 122 189 C129.4867946 190.95664272 135.88272915 195.67094499 140.38671875 201.92578125 C144.40590954 209.41416829 144.44034468 218.84799787 142.1875 226.90625 C136.54326436 239.6057802 120.46681063 249.59356572 108 255 C104.875 254.6875 104.875 254.6875 102 254 C97.30458061 254 95.66357851 255.07161126 91.75 257.5625 C90.67234375 258.22378906 89.5946875 258.88507813 88.484375 259.56640625 C85.60555219 261.82496867 85.60555219 261.82496867 85.890625 265.46484375 C85.92671875 266.63144531 85.9628125 267.79804688 86 269 C82.94803627 274.609968 76.81876305 277.8018676 71.625 281.25 C70.63999512 281.9102417 69.65499023 282.5704834 68.64013672 283.25073242 C66.6702433 284.5680241 64.69779348 285.88150192 62.72265625 287.19091797 C60.37744359 288.74920579 58.04568004 290.32479396 55.71875 291.91015625 C54.52156166 292.71202595 53.32370978 293.51290647 52.125 294.3125 C51.11695313 294.98925781 50.10890625 295.66601562 49.0703125 296.36328125 C41.87621377 300.19830335 34.93461954 300.67975233 27 299 C15.12293134 294.98326541 9.71635465 285.8238874 3.16259766 275.76269531 C0.96773719 272.43491442 -1.30046622 269.1573177 -3.5625 265.875 C-4.02986572 265.1948584 -4.49723145 264.5147168 -4.97875977 263.81396484 C-8.21661703 259.11004771 -11.50730232 254.44658462 -14.85546875 249.8203125 C-16 248 -16 248 -16 246 C-33.23126254 257.38240843 -33.23126254 257.38240843 -50.12890625 269.25 C-55.47237711 273.08255841 -60.93268174 276.74749289 -66.375 280.4375 C-66.92253937 280.80878021 -67.47007874 281.18006042 -68.03421021 281.56259155 C-70.72189448 283.38485728 -73.40976867 285.20684277 -76.09765625 287.02880859 C-80.48920245 290.01142501 -84.86607273 293.01505437 -89.23242188 296.03442383 C-92.75117875 298.46533837 -96.2875601 300.86628477 -99.84375 303.2421875 C-120.09811305 316.81777697 -129.15476665 329.87412237 -139.6875 351.6875 C-140.59180936 353.55231655 -141.49643387 355.4169803 -142.40136719 357.28149414 C-144.94080926 362.51783573 -147.47148226 367.75837672 -150 373 C-150.58083601 374.20250097 -151.16172049 375.40497853 -151.74267578 376.60742188 C-156.82890479 387.14673295 -161.81826655 397.73106513 -166.79418945 408.32275391 C-169.19509 413.43266481 -171.60169884 418.53988242 -174.0096283 423.64648438 C-175.94188827 427.74627143 -177.86447708 431.85038106 -179.77850342 435.95870972 C-180.65103405 437.82701976 -181.52870336 439.69280936 -182.40869141 441.55761719 C-183.47305388 443.81329886 -184.52938245 446.07279807 -185.57568359 448.33691406 C-189.65267842 456.92192759 -194.18928158 464.95257084 -202.5625 469.9375 C-203.45066406 470.48277344 -204.33882812 471.02804687 -205.25390625 471.58984375 C-215.08603772 476.63877612 -225.45628499 476.9462386 -236 474 C-246.02557408 470.03795737 -253.84605069 463.01439912 -258.25390625 453.08203125 C-264.24718868 436.35732163 -258.04890904 423.13680322 -250.92504883 408.01416016 C-250.26274405 406.61350674 -249.60022133 405.21295637 -248.9375 403.8125 C-248.59496185 403.08601257 -248.25242371 402.35952515 -247.89950562 401.61102295 C-241.74641332 388.56274979 -235.43783479 375.59231076 -229.09378052 362.63604736 C-223.35845483 350.91945405 -217.76581662 339.15072725 -212.31689453 327.29833984 C-208.07688422 318.09570053 -203.61679325 309.01885193 -199 300 C-205.5618153 304.33726049 -212.08471651 308.72574489 -218.5625 313.1875 C-219.22024414 313.6402832 -219.87798828 314.09306641 -220.55566406 314.55957031 C-223.53993705 316.61471037 -226.52340784 318.67100186 -229.50537109 320.72949219 C-232.0852977 322.50952042 -234.66749789 324.2862111 -237.25 326.0625 C-238.06025635 326.62283936 -238.8705127 327.18317871 -239.70532227 327.76049805 C-240.46772217 328.28426025 -241.23012207 328.80802246 -242.015625 329.34765625 C-242.68883789 329.81179932 -243.36205078 330.27594238 -244.05566406 330.75415039 C-248.87139433 333.83987007 -251.23778249 334.17378505 -257 333 C-257.66 332.67 -258.32 332.34 -259 332 C-259.91523438 332.6496875 -260.83046875 333.299375 -261.7734375 333.96875 C-262.97378605 334.81274508 -264.17431634 335.65648173 -265.375 336.5 C-265.97828125 336.92925781 -266.5815625 337.35851562 -267.203125 337.80078125 C-271.7734375 341 -271.7734375 341 -274 341 C-273.690625 342.60875 -273.690625 342.60875 -273.375 344.25 C-272.98839164 348.11608364 -272.93378566 348.92562915 -275 352 C-277.28393555 353.85595703 -277.28393555 353.85595703 -280.13671875 355.7578125 C-281.18214844 356.46147949 -282.22757812 357.16514648 -283.3046875 357.89013672 C-284.43201388 358.63551145 -285.55962347 359.38045801 -286.6875 360.125 C-287.83248823 360.88880107 -288.97701823 361.65328951 -290.12109375 362.41845703 C-292.38058599 363.92828267 -294.6432168 365.43324228 -296.90771484 366.93554688 C-299.51595535 368.67684497 -302.1024662 370.44213131 -304.67578125 372.234375 C-316.4613223 380.41990572 -325.59915801 383.22864327 -340 382 C-350.71964066 379.99006738 -358.37937289 373.08589285 -364.5 364.3125 C-370.08310783 355.69438878 -370.05536369 345.92129997 -369 336 C-365.71476892 322.20202947 -355.86788543 314.35049473 -344.375 307.0625 C-342.21501622 305.65928938 -340.05615363 304.25435133 -337.8984375 302.84765625 C-336.87073242 302.18137207 -335.84302734 301.51508789 -334.78417969 300.82861328 C-331.45045837 298.63906815 -328.22187952 296.35077876 -325 294 C-317.7460774 288.73577573 -310.27195219 283.81150176 -302.78710938 278.8828125 C-297.95188041 275.68702336 -293.18329913 272.43927627 -288.51171875 269.0078125 C-281.8218261 264.09442674 -274.89285549 259.56187919 -267.9609375 255 C-263.0648587 251.7612502 -258.23153109 248.47567276 -253.5 245 C-246.81430355 240.08884278 -239.88892481 235.55929242 -232.9609375 231 C-220.79894888 223.35185305 -220.79894888 223.35185305 -210 214 C-213.9010207 205.03595244 -217.85982945 196.14301495 -222.3125 187.4375 C-228.86335661 174.39696576 -231.71687642 161.90600424 -227.4375 147.5 C-223.13456115 136.43962901 -214.5953889 128.08132424 -203.89404297 123.17504883 C-192.19375391 118.42445905 -180.26140545 118.55505911 -167.8737793 118.56420898 C-153.55093795 118.54145746 -140.06841885 116.9230279 -127.25 110 C-126.59257812 109.67 -125.93515625 109.34 -125.2578125 109 C-121.59487705 107.10179863 -118.73436624 105.09342444 -116 102 C-116.47050781 101.29875 -116.94101563 100.5975 -117.42578125 99.875 C-123.53456 90.56638476 -127.42516114 83.38545398 -126 72 C-122.7673358 59.92095904 -115.50995872 54.63767237 -105.375 48.125 C-98.37117939 43.57558461 -91.49060272 38.94689685 -84.76416016 33.99560547 C-78.96086785 29.80587651 -72.93889064 25.93407713 -66.9609375 22 C-61.03680727 18.08119551 -55.23909975 14.03812044 -49.51367188 9.83447266 C-46.14281714 7.37442968 -42.71661831 5.00990769 -39.25 2.6875 C-38.64285156 2.27177734 -38.03570312 1.85605469 -37.41015625 1.42773438 C-25.67637932 -6.44065122 -11.97130003 -8.91979218 0 0 Z " fill="#DDF4FB" transform="translate(369,21)"/>
<path d="M0 0 C6.90190315 6.61372348 10.09676299 12.24854534 10.5 21.8125 C10.29473605 30.21939758 7.72168092 36.26700394 2.125 42.5 C-2.9784653 47.20920618 -9.00330668 50.79682604 -14.81103516 54.56396484 C-18.72511476 57.13173378 -22.57891239 59.78738188 -26.4375 62.4375 C-27.23406006 62.98349854 -28.03062012 63.52949707 -28.85131836 64.09204102 C-32.75488866 66.76874099 -36.65522564 69.45013187 -40.5546875 72.1328125 C-41.27342041 72.62724854 -41.99215332 73.12168457 -42.73266602 73.63110352 C-44.07207326 74.55291883 -45.41113098 75.4752423 -46.74975586 76.39819336 C-50.47803008 78.96600807 -54.22707996 81.49820157 -58 84 C-57.36553313 87.46630731 -56.00461302 89.75680997 -54.0078125 92.640625 C-53.3897876 93.53958496 -52.7717627 94.43854492 -52.13500977 95.36474609 C-51.47170654 96.31687988 -50.80840332 97.26901367 -50.125 98.25 C-49.11747681 99.71107178 -49.11747681 99.71107178 -48.08959961 101.20166016 C-46.72117367 103.18526795 -45.35032627 105.16720746 -43.97705078 107.14746094 C-41.64546383 110.51153379 -39.32848414 113.88545096 -37.01318359 117.26074219 C-35.01258943 120.17645163 -33.00646644 123.08832937 -31 126 C-30.57589844 125.02160156 -30.15179688 124.04320312 -29.71484375 123.03515625 C-22.62738335 107.04293791 -13.65385509 95.72399399 3 89 C17.16097098 84.69588745 32.55069811 85.61656805 45.69921875 92.390625 C59.58240094 100.2764385 67.16718049 110.76263933 72 126 C75.44737402 139.65858316 72.81894624 154.30980309 65.79296875 166.33203125 C57.414239 178.79972715 45.46936563 187.68259309 30.6171875 190.6953125 C25.10106205 191.3374883 19.54258766 191.14191547 14 191 C17.97326112 197.40061178 22.10076136 203.67266764 26.375 209.875 C27.07326904 210.88844482 27.07326904 210.88844482 27.78564453 211.92236328 C30.0775908 215.24034145 32.38272484 218.54835842 34.70703125 221.84375 C35.1261377 222.44074707 35.54524414 223.03774414 35.97705078 223.65283203 C37.1201119 225.27912351 38.26886493 226.90141004 39.41796875 228.5234375 C41 231 41 231 41 233 C52.18833912 225.93656241 63.104807 218.50552993 74 211 C108.01965407 187.57490667 108.01965407 187.57490667 122 189 C129.4867946 190.95664272 135.88272915 195.67094499 140.38671875 201.92578125 C144.40590954 209.41416829 144.44034468 218.84799787 142.1875 226.90625 C136.51784023 239.66298448 120.47484332 249.50893649 108 255 C104.8125 255 104.8125 255 102 254 C99.47829004 251.23425359 99.04482285 249.39593519 98.625 245.6875 C100.85276813 239.71303093 105.80825303 237.40442425 111 234 C113.53661277 232.25116345 116.04984948 230.47051358 118.5625 228.6875 C119.16989014 228.26686279 119.77728027 227.84622559 120.40307617 227.4128418 C123.22939298 225.42534415 125.05965418 223.91051873 127 221 C127.48384204 216.08093925 127.51355236 213.94151265 125.125 209.5625 C122.9740625 206.96872242 122.21459031 206.19150792 118.97314453 205.68041992 C111.25581803 205.25015107 106.98216754 207.85142742 100.875 212.3125 C99.96121582 212.9511499 99.04743164 213.5897998 98.10595703 214.24780273 C96.25539867 215.54312889 94.41135208 216.84781214 92.57421875 218.16210938 C89.67137953 220.23462205 86.73431079 222.25138824 83.78662109 224.25927734 C81.86548427 225.56898722 79.95140404 226.88842427 78.0390625 228.2109375 C71.85570341 232.48414082 65.65506995 236.73193653 59.44140625 240.9609375 C56.72059927 242.81421561 54.0190989 244.68877024 51.33984375 246.6015625 C50.29957031 247.33117187 49.25929688 248.06078125 48.1875 248.8125 C47.31480469 249.43769531 46.44210937 250.06289063 45.54296875 250.70703125 C42.34015678 252.33549632 40.54755402 252.60748964 37 252 C31.80561665 248.01205407 28.41229389 242.10497344 24.75 236.75 C24.05543701 235.74291992 23.36087402 234.73583984 22.64526367 233.69824219 C16.06915873 224.14665409 9.55219545 214.55427593 3.04296875 204.95703125 C-4.87117863 193.288857 -12.85016958 181.66500098 -20.84179688 170.04980469 C-27.13511484 160.90042827 -33.39807597 151.73024646 -39.66601562 142.56347656 C-45.70652283 133.72985586 -51.75069497 124.89888867 -57.81884766 116.08422852 C-60.37585026 112.36821944 -62.92550202 108.64731408 -65.46875 104.921875 C-66.05591797 104.06207031 -66.64308594 103.20226562 -67.24804688 102.31640625 C-68.39076088 100.642464 -69.5327238 98.96800871 -70.67382812 97.29296875 C-71.4540332 96.15021484 -71.4540332 96.15021484 -72.25 94.984375 C-72.70890625 94.31116211 -73.1678125 93.63794922 -73.640625 92.94433594 C-74.99752638 90.95331725 -74.99752638 90.95331725 -76.6328125 88.99316406 C-78.40699361 86.40666145 -78.6673954 84.10289808 -78.53271484 80.99633789 C-76.77155141 74.39641425 -66.06447835 69.50041447 -60.75 65.9375 C-58.7837305 64.60825583 -56.8175869 63.27882541 -54.8515625 61.94921875 C-53.37864746 60.95607666 -53.37864746 60.95607666 -51.87597656 59.94287109 C-47.61331735 57.06322406 -43.36827503 54.1581047 -39.125 51.25 C-37.5820575 50.19267002 -36.03908915 49.13537777 -34.49609375 48.078125 C-33.38016846 47.31338867 -33.38016846 47.31338867 -32.24169922 46.53320312 C-29.98817279 44.99191081 -27.73080861 43.45637992 -25.47265625 41.921875 C-24.04425002 40.94794719 -22.61586367 39.97399023 -21.1875 39 C-20.5476416 38.56719727 -19.9077832 38.13439453 -19.24853516 37.68847656 C-11.10242213 32.60554376 -11.10242213 32.60554376 -6 25 C-5.48444662 21.0474241 -5.84085312 19.2955585 -7.75 15.75 C-9.92715101 13.08903765 -10.92172702 12.23818801 -14 11 C-22.94559568 10.41340356 -28.90967116 15.50348326 -35.84326172 20.46728516 C-38.87181611 22.61956776 -41.94541419 24.70336736 -45.01806641 26.79199219 C-52.3450703 31.77524206 -59.63838408 36.80843992 -66.93676758 41.83349609 C-70.52770777 44.30492102 -74.12399013 46.76821247 -77.7265625 49.22265625 C-82.49240328 52.4701466 -87.25072726 55.72832445 -92 59 C-92.71124023 59.48984375 -93.42248047 59.9796875 -94.15527344 60.484375 C-96.10917375 61.83586139 -98.05589203 63.19697715 -100 64.5625 C-100.56928223 64.95574463 -101.13856445 65.34898926 -101.72509766 65.75415039 C-106.04485068 68.77724674 -106.04485068 68.77724674 -109 73 C-110.15958513 79.85833576 -108.34862226 84.30462567 -104.5 89.875 C-104.09007812 90.50535156 -103.68015625 91.13570313 -103.2578125 91.78515625 C-100.0531009 96.65049114 -96.58996495 101.32988079 -93.15429688 106.03320312 C-89.36864307 111.24662844 -85.67008077 116.51727948 -82 121.8125 C-81.41774658 122.6331897 -81.41774658 122.6331897 -80.82373047 123.47045898 C-79.68169257 125.08164167 -78.55930674 126.70669749 -77.4375 128.33203125 C-76.77621094 129.27796143 -76.11492187 130.2238916 -75.43359375 131.19848633 C-73.77737521 134.435051 -73.57857025 136.41126232 -74 140 C-78.14842953 145.43587317 -84.44678398 149.12410916 -90 153 C-90.61858887 153.43634766 -91.23717773 153.87269531 -91.87451172 154.32226562 C-93.84522531 155.70690613 -95.8269772 157.07419917 -97.8125 158.4375 C-98.43431152 158.87473389 -99.05612305 159.31196777 -99.69677734 159.76245117 C-103.40740593 162.27381017 -106.3881915 163.84868531 -111 164 C-111.99 163.34 -112.98 162.68 -114 162 C-117.88879002 162.32124787 -121.00998374 164.5980333 -124.25 166.625 C-125.32765625 167.27726563 -126.4053125 167.92953125 -127.515625 168.6015625 C-128.33546875 169.39304688 -129.1553125 170.18453125 -130 171 C-130.03218085 173.33311141 -130.03036619 175.66686427 -130 178 C-133.42999793 183.33780743 -138.02191801 186.32589955 -143.3125 189.6875 C-144.93557904 190.74374256 -146.55796207 191.80105532 -148.1796875 192.859375 C-148.99147461 193.38595703 -149.80326172 193.91253906 -150.63964844 194.45507812 C-154.11094087 196.72714458 -157.52663045 199.07606222 -160.9375 201.4375 C-162.24860267 202.3425859 -163.55980216 203.24753157 -164.87109375 204.15234375 C-165.53737793 204.61237793 -166.20366211 205.07241211 -166.89013672 205.54638672 C-170.75309076 208.20781097 -174.62720077 210.85293259 -178.5 213.5 C-184.33869357 217.49224408 -190.17320243 221.49041294 -196 225.5 C-202.63635824 230.06666905 -209.2837874 234.6170039 -215.93359375 239.1640625 C-220.960609 242.6023128 -225.98276475 246.04749607 -231 249.5 C-237.63635824 254.06666905 -244.2837874 258.6170039 -250.93359375 263.1640625 C-255.960609 266.6023128 -260.98276475 270.04749607 -266 273.5 C-272.63853339 278.06816583 -279.28805609 282.62011759 -285.94018555 287.16845703 C-291.54462549 291.00143395 -297.14084414 294.84615578 -302.73266602 298.69750977 C-307.50775151 301.98284873 -312.2980503 305.24534911 -317.09277344 308.50195312 C-319.91744436 310.42385418 -322.73645253 312.35383351 -325.5546875 314.28515625 C-329.01898375 316.65820531 -332.50185295 318.9976252 -336.0078125 321.30859375 C-337.52633688 322.33029054 -339.04458279 323.35240138 -340.5625 324.375 C-341.58815063 325.03326782 -341.58815063 325.03326782 -342.63452148 325.70483398 C-348.5275865 329.72713199 -352.1557566 334.96755792 -353.62890625 342.00390625 C-353.44410589 349.12415549 -352.32632636 354.46085182 -347.3515625 359.75390625 C-342.14750154 364.46937634 -337.57461079 366.53977853 -330.49829102 366.2980957 C-322.78207807 365.37739835 -316.11840847 360.30667344 -309.9375 355.9375 C-308.71401855 355.09227783 -308.71401855 355.09227783 -307.46582031 354.22998047 C-303.42111721 351.4307069 -299.41815011 348.58426319 -295.45703125 345.66796875 C-294.74619385 345.15435791 -294.03535645 344.64074707 -293.30297852 344.11157227 C-291.96941631 343.14593304 -290.64738716 342.16408782 -289.33959961 341.16381836 C-286.0508629 338.79774156 -284.30427931 337.99123475 -280.203125 338.109375 C-276.54661583 339.12606291 -275.03317245 339.78081029 -273 343 C-273 346.83857812 -273.19774897 349.08854724 -275.77026367 352.01123047 C-277.98323233 353.98504441 -280.21927023 355.66133808 -282.67578125 357.3203125 C-284.03086792 358.24021973 -284.03086792 358.24021973 -285.41333008 359.17871094 C-286.37005615 359.82098633 -287.32678223 360.46326172 -288.3125 361.125 C-289.78722778 362.11935059 -289.78722778 362.11935059 -291.29174805 363.13378906 C-293.27158384 364.46801568 -295.2524468 365.80071948 -297.234375 367.13183594 C-299.65943371 368.7699494 -302.06790395 370.42827911 -304.46875 372.1015625 C-316.35132722 380.34218409 -325.48452996 383.23842304 -340 382 C-350.71964066 379.99006738 -358.37937289 373.08589285 -364.5 364.3125 C-370.08310783 355.69438878 -370.05536369 345.92129997 -369 336 C-365.71476892 322.20202947 -355.86788543 314.35049473 -344.375 307.0625 C-342.21501622 305.65928938 -340.05615363 304.25435133 -337.8984375 302.84765625 C-336.87073242 302.18137207 -335.84302734 301.51508789 -334.78417969 300.82861328 C-331.45045837 298.63906815 -328.22187952 296.35077876 -325 294 C-317.7460774 288.73577573 -310.27195219 283.81150176 -302.78710938 278.8828125 C-297.95188041 275.68702336 -293.18329913 272.43927627 -288.51171875 269.0078125 C-281.8218261 264.09442674 -274.89285549 259.56187919 -267.9609375 255 C-263.0648587 251.7612502 -258.23153109 248.47567276 -253.5 245 C-246.81430355 240.08884278 -239.88892481 235.55929242 -232.9609375 231 C-220.79894888 223.35185305 -220.79894888 223.35185305 -210 214 C-213.9010207 205.03595244 -217.85982945 196.14301495 -222.3125 187.4375 C-228.86335661 174.39696576 -231.71687642 161.90600424 -227.4375 147.5 C-223.13456115 136.43962901 -214.5953889 128.08132424 -203.89404297 123.17504883 C-192.19375391 118.42445905 -180.26140545 118.55505911 -167.8737793 118.56420898 C-153.55093795 118.54145746 -140.06841885 116.9230279 -127.25 110 C-126.59257812 109.67 -125.93515625 109.34 -125.2578125 109 C-121.59487705 107.10179863 -118.73436624 105.09342444 -116 102 C-116.47050781 101.29875 -116.94101563 100.5975 -117.42578125 99.875 C-123.53456 90.56638476 -127.42516114 83.38545398 -126 72 C-122.7673358 59.92095904 -115.50995872 54.63767237 -105.375 48.125 C-98.37117939 43.57558461 -91.49060272 38.94689685 -84.76416016 33.99560547 C-78.96086785 29.80587651 -72.93889064 25.93407713 -66.9609375 22 C-61.03680727 18.08119551 -55.23909975 14.03812044 -49.51367188 9.83447266 C-46.14281714 7.37442968 -42.71661831 5.00990769 -39.25 2.6875 C-38.64285156 2.27177734 -38.03570312 1.85605469 -37.41015625 1.42773438 C-25.67637932 -6.44065122 -11.97130003 -8.91979218 0 0 Z " fill="#010101" transform="translate(369,21)"/>
<path d="M0 0 C4.59018496 3.95893711 7.83418275 8.77854194 11.25 13.75 C11.84482178 14.60601807 12.43964355 15.46203613 13.05249023 16.34399414 C16.58018091 21.43641928 20.05932432 26.56078435 23.51953125 31.69921875 C24.28286917 32.83040933 25.04621549 33.96159425 25.80957031 35.09277344 C27.28879551 37.28542674 28.75914935 39.48326031 30.22558594 41.68457031 C33.50551814 46.5601452 36.60099803 51.08330826 41 55 C41.33 55.33 41.66 55.66 42 56 C50.96965817 56.60811242 56.29989662 52.95553672 63.4375 47.9375 C64.85141339 46.96202342 66.26547972 45.98676849 67.6796875 45.01171875 C70.51908449 43.0430787 73.3320914 41.04272074 76.1328125 39.01953125 C77.44246991 38.09601597 78.75235651 37.17282558 80.0625 36.25 C80.95376587 35.58665649 80.95376587 35.58665649 81.86303711 34.90991211 C85.09235343 32.66325334 86.79862796 31.9929197 90.77734375 32.1328125 C94.45796443 33.12323407 95.95865307 33.76786737 98 37 C98.375 40.25 98.375 40.25 97 44 C90.58154977 50.77033895 81.74133149 55.6620607 73.93896484 60.72998047 C72.01509186 61.99011485 70.1099555 63.27490692 68.20703125 64.56640625 C66.99244697 65.37799261 65.77761313 66.18920565 64.5625 67 C63.49128906 67.721875 62.42007812 68.44375 61.31640625 69.1875 C54.07486691 73.14518463 47.01778703 73.69735881 39 72 C27.12293134 67.98326541 21.71635465 58.8238874 15.16259766 48.76269531 C12.96773719 45.43491442 10.69953378 42.1573177 8.4375 38.875 C7.97013428 38.1948584 7.50276855 37.5147168 7.02124023 36.81396484 C3.78338297 32.11004771 0.49269768 27.44658462 -2.85546875 22.8203125 C-4 21 -4 21 -4 19 C-21.23126254 30.38240843 -21.23126254 30.38240843 -38.12890625 42.25 C-43.47237711 46.08255841 -48.93268174 49.74749289 -54.375 53.4375 C-54.92253937 53.80878021 -55.47007874 54.18006042 -56.03421021 54.56259155 C-58.72189448 56.38485728 -61.40976867 58.20684277 -64.09765625 60.02880859 C-68.48920245 63.01142501 -72.86607273 66.01505437 -77.23242188 69.03442383 C-80.75117875 71.46533837 -84.2875601 73.86628477 -87.84375 76.2421875 C-108.09811305 89.81777697 -117.15476665 102.87412237 -127.6875 124.6875 C-128.59180936 126.55231655 -129.49643387 128.4169803 -130.40136719 130.28149414 C-132.94080926 135.51783573 -135.47148226 140.75837672 -138 146 C-138.58083601 147.20250097 -139.16172049 148.40497853 -139.74267578 149.60742188 C-144.82890479 160.14673295 -149.81826655 170.73106513 -154.79418945 181.32275391 C-157.19509 186.43266481 -159.60169884 191.53988242 -162.0096283 196.64648438 C-163.94188827 200.74627143 -165.86447708 204.85038106 -167.77850342 208.95870972 C-168.65103405 210.82701976 -169.52870336 212.69280936 -170.40869141 214.55761719 C-171.47305388 216.81329886 -172.52938245 219.07279807 -173.57568359 221.33691406 C-177.65267842 229.92192759 -182.18928158 237.95257084 -190.5625 242.9375 C-191.45066406 243.48277344 -192.33882812 244.02804687 -193.25390625 244.58984375 C-203.08603772 249.63877612 -213.45628499 249.9462386 -224 247 C-234.02557408 243.03795737 -241.84605069 236.01439912 -246.25390625 226.08203125 C-252.24718868 209.35732163 -246.04890904 196.13680322 -238.92504883 181.01416016 C-238.26274405 179.61350674 -237.60022133 178.21295637 -236.9375 176.8125 C-236.59496185 176.08601257 -236.25242371 175.35952515 -235.89950562 174.61102295 C-229.74641332 161.56274979 -223.43783479 148.59231076 -217.09378052 135.63604736 C-211.35845483 123.91945405 -205.76581662 112.15072725 -200.31689453 100.29833984 C-196.07688422 91.09570053 -191.61679325 82.01885193 -187 73 C-193.5618153 77.33726049 -200.08471651 81.72574489 -206.5625 86.1875 C-207.22024414 86.6402832 -207.87798828 87.09306641 -208.55566406 87.55957031 C-211.53993705 89.61471037 -214.52340784 91.67100186 -217.50537109 93.72949219 C-220.0852977 95.50952042 -222.66749789 97.2862111 -225.25 99.0625 C-226.06025635 99.62283936 -226.8705127 100.18317871 -227.70532227 100.76049805 C-228.46772217 101.28426025 -229.23012207 101.80802246 -230.015625 102.34765625 C-230.68883789 102.81179932 -231.36205078 103.27594238 -232.05566406 103.75415039 C-235.5263054 105.97799302 -237.33986647 107.01158129 -241.5625 106.9375 C-245 106 -245 106 -246.9375 103.75 C-248.06982084 100.81928724 -248.33121547 99.10630443 -248 96 C-243.11156727 89.64959772 -234.76710907 85.26544045 -228.1875 80.875 C-227.07519614 80.12674261 -225.96330383 79.3778731 -224.85180664 78.62841797 C-222.62070902 77.1245239 -220.38809735 75.62292296 -218.15429688 74.12304688 C-213.73265757 71.14699615 -209.33319799 68.13917979 -204.9375 65.125 C-204.17518066 64.60317139 -203.41286133 64.08134277 -202.62744141 63.54370117 C-198.28076234 60.56750776 -193.93999163 57.58285858 -189.60302734 54.5925293 C-187.62827042 53.232787 -185.65041539 51.87766648 -183.671875 50.5234375 C-181.27267579 48.88075389 -178.88924453 47.21845922 -176.515625 45.5390625 C-175.45859375 44.80429687 -174.4015625 44.06953125 -173.3125 43.3125 C-172.40113281 42.66925781 -171.48976563 42.02601563 -170.55078125 41.36328125 C-167.70536855 39.84253235 -166.17514879 39.54565259 -163 40 C-160.125 42.0625 -160.125 42.0625 -158 45 C-158.29432983 49.90827614 -159.52301795 53.66971911 -161.703125 58.04296875 C-162.54435913 59.75347412 -162.54435913 59.75347412 -163.40258789 61.49853516 C-163.70278839 62.09788879 -164.00298889 62.69724243 -164.31228638 63.3147583 C-165.94022202 66.56596729 -167.53575918 69.83310413 -169.13671875 73.09765625 C-169.46542465 73.76561218 -169.79413055 74.43356812 -170.13279724 75.12176514 C-173.21889265 81.40639647 -176.14827716 87.75904845 -179.0625 94.125 C-184.68218845 106.34560642 -190.57443049 118.42533342 -196.5 130.5 C-203.00167025 143.74885973 -209.44944661 157.00864176 -215.57299805 170.4375 C-218.09643494 175.96172428 -220.69571692 181.42410146 -223.453125 186.8359375 C-224.01636475 187.95597168 -224.57960449 189.07600586 -225.15991211 190.22998047 C-226.21878623 192.32520281 -227.29614718 194.41124524 -228.39672852 196.48486328 C-231.84735762 203.35794829 -233.07363524 209.31660265 -232 217 C-229.5141254 224.07528059 -225.64501705 227.71416375 -219 231 C-218.34 231.33 -217.68 231.66 -217 232 C-209.74195535 232.74535475 -204.01432556 232.24764167 -198 228 C-192.02983287 222.03812477 -188.8381323 215.08009726 -185.3125 207.5 C-184.6935923 206.19050412 -184.07362201 204.88150998 -183.45263672 203.57299805 C-182.20577931 200.94224792 -180.96447066 198.30900007 -179.72802734 195.67333984 C-177.8139735 191.59704831 -175.86342774 187.53871476 -173.90942383 183.48144531 C-170.39719477 176.18327233 -166.93065416 168.86419507 -163.5 161.52734375 C-156.19718676 145.91314945 -148.82654255 130.33105799 -141.32415771 114.81164551 C-140.40867548 112.91411224 -139.49685481 111.01480751 -138.58892822 109.11364746 C-129.45180432 89.99879609 -129.45180432 89.99879609 -123 83 C-122.11658936 81.99404785 -122.11658936 81.99404785 -121.21533203 80.96777344 C-115.52301069 74.62129759 -108.28391281 70.18359026 -101.24023438 65.49609375 C-97.45150796 62.96587192 -93.69598438 60.38733404 -89.9375 57.8125 C-89.15842285 57.28027832 -88.3793457 56.74805664 -87.57666016 56.19970703 C-81.04564827 51.73319357 -74.55217625 47.21378932 -68.0625 42.6875 C-61.36949121 38.020424 -54.66182184 33.39281614 -47.8515625 28.8984375 C-43.68237999 26.12278996 -39.56208606 23.27741856 -35.4387207 20.43432617 C-31.59631096 17.7850978 -27.74922881 15.14304751 -23.89453125 12.51171875 C-23.03867432 11.92737061 -22.18281738 11.34302246 -21.30102539 10.7409668 C-19.63271544 9.60241591 -17.96395129 8.46453021 -16.29467773 7.32739258 C-15.53227783 6.80685303 -14.76987793 6.28631348 -13.984375 5.75 C-13.31116211 5.29109375 -12.63794922 4.8321875 -11.94433594 4.359375 C-10.5762665 3.40289451 -9.24166251 2.39763263 -7.93457031 1.359375 C-5.10667091 -0.62772039 -3.37724811 -0.55138745 0 0 Z " fill="#010101" transform="translate(357,248)"/>
<path d="M0 0 C0.65710968 -0.0065712 1.31421936 -0.0131424 1.99124146 -0.01991272 C4.16880402 -0.03964587 6.34629767 -0.05130758 8.52392578 -0.0612793 C9.63900702 -0.06739259 9.63900702 -0.06739259 10.77661514 -0.07362938 C14.71044894 -0.09448912 18.64424785 -0.10879183 22.578125 -0.11816406 C26.64267661 -0.12923498 30.70668171 -0.16364228 34.77103996 -0.20333576 C37.89544702 -0.22946949 41.01972314 -0.23785291 44.14422989 -0.24144554 C45.64256613 -0.24631912 47.14089622 -0.25795514 48.63912582 -0.27648354 C50.73642168 -0.30081042 52.83229401 -0.29992308 54.9296875 -0.29296875 C56.71933426 -0.30176811 56.71933426 -0.30176811 58.5451355 -0.31074524 C61.59423828 0.17700195 61.59423828 0.17700195 63.86764526 1.67729187 C66.23297179 5.10174135 67.02247344 8.63805277 67.88427734 12.64233398 C68.07993286 13.49492294 68.27558838 14.3475119 68.47717285 15.22593689 C69.11938914 18.04247382 69.74008928 20.86326122 70.35986328 23.68481445 C70.80157004 25.65076393 71.24427294 27.61648984 71.68792725 29.58200073 C72.61495792 33.7040898 73.53169057 37.82829409 74.44091797 41.9543457 C75.60267513 47.22372975 76.7868194 52.48776277 77.9784584 57.75045967 C78.89593208 61.81175863 79.80277099 65.87537477 80.70635223 69.939785 C81.13880712 71.88035924 81.57417339 73.82028718 82.01258087 75.7595253 C82.62620254 78.48257051 83.22575594 81.20835846 83.82177734 83.93530273 C84.00250793 84.72528152 84.18323853 85.51526031 84.3694458 86.32917786 C85.54535656 91.80576943 86.51338461 97.60035902 85.59423828 103.17700195 C83.61843552 105.86450589 81.84943263 106.67545964 78.59423828 107.17700195 C77.15642329 107.26629939 75.71513301 107.3074611 74.27455139 107.31071472 C73.41803482 107.31497971 72.56151825 107.31924469 71.67904663 107.32363892 C70.74750763 107.32318573 69.81596863 107.32273254 68.85620117 107.32226562 C67.86878433 107.32562424 66.88136749 107.32898285 65.86402893 107.33244324 C62.59830469 107.3419462 59.33263174 107.34389595 56.06689453 107.3449707 C53.79772419 107.34818345 51.52855406 107.35154753 49.25938416 107.35505676 C44.50226359 107.36104619 39.74516118 107.36289682 34.98803711 107.36230469 C28.89034085 107.36220301 22.79276088 107.3758619 16.6950922 107.3930769 C12.00853438 107.4041906 7.32200475 107.4062241 2.6354351 107.40569496 C0.38715654 107.40687577 -1.86112274 107.41130318 -4.10938835 107.41902733 C-7.25245207 107.4288155 -10.39526235 107.42595384 -13.53833008 107.41992188 C-14.46784485 107.42554138 -15.39735962 107.43116089 -16.3550415 107.43695068 C-21.91802356 107.40979733 -26.27384773 107.30891594 -30.40576172 103.17700195 C-32.0883057 98.39603668 -30.80942237 94.12862485 -29.73095703 89.35107422 C-29.44579727 88.03307327 -29.44579727 88.03307327 -29.15487671 86.68844604 C-28.5244801 83.78782767 -27.87959816 80.89065264 -27.23388672 77.9934082 C-26.79059595 75.97482687 -26.34795795 73.95610208 -25.90594482 71.9372406 C-24.97737059 67.70672289 -24.04178002 63.4778362 -23.10107422 59.25 C-21.89731178 53.83784503 -20.70961308 48.42231932 -19.52699661 43.00550938 C-18.61501744 38.83571288 -17.6952081 34.66767427 -16.77297211 30.50013542 C-16.33217828 28.50438784 -15.89364547 26.50813947 -15.45743561 24.51138496 C-14.84549949 21.71656035 -14.22322113 18.92423508 -13.59814453 16.13232422 C-13.42034454 15.31083389 -13.24254456 14.48934357 -13.05935669 13.64295959 C-12.03575983 9.12876876 -10.7977376 5.20033208 -8.40576172 1.17700195 C-5.57247507 -0.23964137 -3.16825658 0.02617608 0 0 Z " fill="#010100" transform="translate(397.40576171875,389.822998046875)"/>
<path d="M0 0 C3.11948519 1.68841351 5.39079952 3.78159903 7 7 C7.30064125 11.5357435 7.27824483 16.08048107 7.3125 20.625 C7.35600586 22.51412109 7.35600586 22.51412109 7.40039062 24.44140625 C7.40876953 25.66988281 7.41714844 26.89835937 7.42578125 28.1640625 C7.44036377 29.28248535 7.45494629 30.4009082 7.4699707 31.55322266 C6.19806923 40.88138109 0.14327687 46.40056801 -6.359375 52.75 C-7.26375305 53.64871826 -8.1681311 54.54743652 -9.09991455 55.47338867 C-11.48646174 57.8414307 -13.8812753 60.20041369 -16.28070068 62.55535889 C-18.73483254 64.9683048 -21.17744194 67.39285562 -23.62109375 69.81640625 C-28.40360013 74.55494912 -33.19735828 79.28187067 -38 84 C-37.67765381 84.61875 -37.35530762 85.2375 -37.02319336 85.875 C-35.40654209 89.23251196 -35.28543777 92.36019865 -36 96 C-38.0625 98.5625 -38.0625 98.5625 -41 100 C-44.2452431 99.82919773 -46.96462374 99.3551837 -50.03353882 98.30239868 C-50.68247101 98.20260712 -51.3314032 98.10281555 -52 98 C-54.28814271 99.85292957 -56.21039053 101.65373909 -58.2265625 103.7734375 C-58.81545258 104.37177399 -59.40434265 104.97011047 -60.01107788 105.58657837 C-61.89448053 107.50464544 -63.76003945 109.43901161 -65.625 111.375 C-67.50041678 113.30032552 -69.3793001 115.22217236 -71.26034546 117.14199829 C-72.4307574 118.33887678 -73.5972407 119.53961184 -74.75942993 120.74447632 C-79.5994048 125.73321996 -79.5994048 125.73321996 -83.625 126.5 C-87.29265068 125.95664434 -87.98201439 125.43485086 -90.62109375 123.03515625 C-91.32169922 122.39916504 -92.02230469 121.76317383 -92.74414062 121.10791016 C-96.68476935 117.42572526 -100.58927007 113.71639246 -104.4375 109.9375 C-105.65856445 108.77250977 -105.65856445 108.77250977 -106.90429688 107.58398438 C-107.67708984 106.82279297 -108.44988281 106.06160156 -109.24609375 105.27734375 C-109.94404053 104.59921631 -110.6419873 103.92108887 -111.36108398 103.22241211 C-113.45167309 100.38751972 -113.9101132 98.51460217 -114 95 C-112.05746115 90.4546285 -108.49798391 87.23776841 -105.01953125 83.82421875 C-104.44667892 83.25419632 -103.8738266 82.68417389 -103.28361511 82.09687805 C-101.46457646 80.28897622 -99.63868622 78.48817881 -97.8125 76.6875 C-96.5731077 75.45814588 -95.33417035 74.22833292 -94.09570312 72.99804688 C-91.06904285 69.99336069 -88.03622079 66.99502376 -85 64 C-85.32234619 63.38125 -85.64469238 62.7625 -85.97680664 62.125 C-87.59345791 58.76748804 -87.71456223 55.63980135 -87 52 C-84.9375 49.4375 -84.9375 49.4375 -82 48 C-78.74969788 48.17106853 -76.07098901 48.56898855 -73.04833984 49.78543091 C-70.86094314 50.24555822 -70.86094314 50.24555822 -68.96728516 48.52145386 C-68.24847168 47.77042389 -67.5296582 47.01939392 -66.7890625 46.24560547 C-65.96720459 45.40077606 -65.14534668 44.55594666 -64.29858398 43.68551636 C-63.41630127 42.75546783 -62.53401855 41.82541931 -61.625 40.8671875 C-60.21829323 39.42429094 -58.81156429 37.9814153 -57.40361023 36.53973579 C-53.93538711 32.9797766 -50.49544077 29.39252853 -47.05712891 25.80371094 C-44.66224651 23.30635502 -42.2496471 20.82717136 -39.82659912 18.35715103 C-38.4745765 16.96778799 -37.14343313 15.55820233 -35.81298828 14.14816284 C-29.79953647 8.01638947 -24.13487239 4.68866646 -16 2 C-14.41723267 1.45446976 -14.41723267 1.45446976 -12.80249023 0.8979187 C-8.48980564 -0.48386672 -4.47124256 -0.73192139 0 0 Z " fill="#000000" transform="translate(361,343)"/>
<path d="M0 0 C4.9243829 1.77520359 6.99771436 5.77571681 9.8125 9.9375 C10.5849707 11.03094727 10.5849707 11.03094727 11.37304688 12.14648438 C11.85451172 12.84966797 12.33597656 13.55285156 12.83203125 14.27734375 C13.27264893 14.91921631 13.7132666 15.56108887 14.16723633 16.22241211 C15 18 15 18 14 21 C11.63391649 22.74757586 9.28684632 24.35907813 6.8125 25.9375 C6.15185547 26.36740234 5.49121094 26.79730469 4.81054688 27.24023438 C2.28376766 28.88401276 -0.24653199 30.52171518 -2.79150391 32.13720703 C-5.91892883 34.06508539 -5.91892883 34.06508539 -8 37 C-7.7834375 38.85625 -7.7834375 38.85625 -7.5625 40.75 C-7.52759279 43.50766921 -7.64192342 44.59704698 -9.49609375 46.68359375 C-11.60018297 48.26268605 -13.74396874 49.64714342 -16 51 C-17.1446875 51.73283203 -17.1446875 51.73283203 -18.3125 52.48046875 C-20.19389553 53.6798584 -22.08778211 54.85063499 -24 56 C-25.485 55.01 -25.485 55.01 -27 54 C-31.3451304 53.22408386 -33.6478052 53.14657004 -37.42382812 55.52978516 C-38.28427734 56.19284668 -39.14472656 56.8559082 -40.03125 57.5390625 C-46.8423283 62.66100247 -53.92256091 67.31664677 -61.0390625 72 C-67.02301114 75.95837429 -72.88912572 80.0339751 -78.66772461 84.28710938 C-86.44640821 90 -86.44640821 90 -89 90 C-89.4846875 88.9584375 -89.969375 87.916875 -90.46875 86.84375 C-91.14532675 85.39559655 -91.82245285 83.94769968 -92.5 82.5 C-92.85658691 81.73768066 -93.21317383 80.97536133 -93.58056641 80.18994141 C-95.41766814 76.2847926 -97.28528684 72.40136558 -99.2421875 68.5546875 C-99.59990234 67.85150391 -99.95761719 67.14832031 -100.32617188 66.42382812 C-101.00684828 65.09416416 -101.69274993 63.76715729 -102.38476562 62.44335938 C-106.2556279 54.88444762 -108.78310228 47.03823274 -106.3125 38.671875 C-102.9307195 30.38651276 -98.03728541 24.87511975 -90 21 C-85.28950025 19.11529278 -81.0400389 18.71822382 -76.0234375 18.7265625 C-74.45921824 18.70975175 -72.89500913 18.69197491 -71.33081055 18.67333984 C-70.52074554 18.66631042 -69.71068054 18.65928101 -68.87606812 18.65203857 C-44.44046789 18.38786992 -22.479298 15.95917384 -2.234375 1.08984375 C-1.49703125 0.73019531 -0.7596875 0.37054688 0 0 Z " fill="#FA4654" transform="translate(262,137)"/>
<path d="M0 0 C3.02996251 2.85016254 5.30619315 5.76076522 7.5625 9.25 C11.20335185 14.80567023 14.92682521 20.29521744 18.70117188 25.76098633 C21.17538474 29.34490597 23.63787536 32.93581087 26.078125 36.54296875 C26.57787842 37.27870117 27.07763184 38.01443359 27.5925293 38.77246094 C28.55585771 40.19129442 29.51578631 41.61244355 30.47192383 43.03613281 C32.7143216 46.5691163 32.7143216 46.5691163 36 49 C40.87025393 49.45510044 43.24452152 48.63723347 47.1875 45.8125 C48.22777344 45.08289063 49.26804687 44.35328125 50.33984375 43.6015625 C50.91718262 43.18938477 51.49452148 42.77720703 52.08935547 42.35253906 C54.97133467 40.31239534 57.89423788 38.33333866 60.81323242 36.34667969 C66.88147214 32.21485351 72.92920292 28.05318276 78.96728516 23.87744141 C80.89021806 22.55201056 82.81979177 21.23668234 84.75 19.921875 C87.9692671 17.72523497 91.1428592 15.47070682 94.3125 13.203125 C96.16620787 11.9055943 98.0203705 10.60871302 99.875 9.3125 C101.15866455 8.37482788 101.15866455 8.37482788 102.46826172 7.41821289 C107.7150538 3.79600791 111.46254874 2.31404055 117.87548828 2.60717773 C121.92673733 3.35625378 123.93477353 5.57969804 126.3125 8.75 C127.36243911 12.18616436 127.8853318 15.52058411 127 19 C122.34033193 26.13418131 114.77357688 29.94950341 107.6640625 34.34570312 C101.84341522 37.88441248 101.84341522 37.88441248 98.890625 43.72265625 C98.92671875 44.80417969 98.9628125 45.88570313 99 47 C98.72296519 50.52414043 98.01858907 50.98410725 95.19921875 53.39453125 C94.03684527 54.21230142 92.86587486 55.0179606 91.6875 55.8125 C91.10548828 56.23208984 90.52347656 56.65167969 89.92382812 57.08398438 C85.60393684 60.05360386 85.60393684 60.05360386 83.01953125 59.82421875 C82.35308594 59.55222656 81.68664062 59.28023438 81 59 C76.61043468 57.90390124 74.70288418 57.64815442 70.59765625 59.703125 C69.40544482 60.53255513 68.22757644 61.38286718 67.0625 62.25 C66.42642822 62.69802979 65.79035645 63.14605957 65.13500977 63.60766602 C63.78140252 64.56217287 62.43344824 65.52473915 61.09082031 66.49462891 C58.26264627 68.5308878 55.40005082 70.51505194 52.53100586 72.49316406 C51.16837699 73.4332588 49.80958651 74.37894971 48.45532227 75.33105469 C41.98390761 79.83913759 37.04227588 82.89358621 29 82 C23.45448416 78.65762628 20.36838402 73.03114316 16.875 67.75 C15.53673643 65.75632372 14.19819283 63.76283538 12.859375 61.76953125 C12.20388672 60.78807129 11.54839844 59.80661133 10.87304688 58.79541016 C8.32168413 54.98765423 5.7284279 51.2097659 3.125 47.4375 C2.69002197 46.80553711 2.25504395 46.17357422 1.80688477 45.52246094 C-2.44934542 39.33950566 -6.72240427 33.16818743 -11 27 C-10.34 26.67 -9.68 26.34 -9 26 C-8.62379184 24.3424849 -8.29789873 22.67336345 -8 21 C-7.42009243 19.29333854 -6.80216541 17.59925336 -6.15234375 15.91796875 C-5.79462891 14.98662109 -5.43691406 14.05527344 -5.06835938 13.09570312 C-4.69517578 12.13599609 -4.32199219 11.17628906 -3.9375 10.1875 C-3.56044922 9.20845703 -3.18339844 8.22941406 -2.79492188 7.22070312 C-1.86684405 4.8123999 -0.93509884 2.40558386 0 0 Z " fill="#C6ECFB" transform="translate(370,223)"/>
<path d="M0 0 C8.25701167 7.10487051 13.23907257 15.03892318 14.421875 25.859375 C15.15888233 37.60029251 12.57592239 46.27484169 4.953125 55.46875 C-2.81041946 63.06228984 -11.89653063 66.45075736 -22.625 66.5625 C-33.70088431 66.33725667 -40.75670782 63.07938058 -48.8046875 55.359375 C-56.61074886 46.96994251 -59.6626654 37.67466302 -59.34375 26.2734375 C-58.26425302 15.99368218 -53.44301038 7.70202914 -45.67578125 0.9921875 C-31.61538378 -9.55862881 -14.53990761 -9.78811784 0 0 Z " fill="#C7EDFC" transform="translate(412,130)"/>
<path d="M0 0 C-7.72594594 16.95848423 -15.74916033 33.7602327 -23.9375 50.5 C-24.39111908 51.42761139 -24.84473816 52.35522278 -25.31210327 53.3109436 C-27.4558411 57.69223593 -29.60413967 62.07118691 -31.76147461 66.44580078 C-33.13067032 69.22292231 -34.48558324 72.0056396 -35.81860352 74.80029297 C-36.33221436 75.86393066 -36.8458252 76.92756836 -37.375 78.0234375 C-37.79394531 78.90435059 -38.21289062 79.78526367 -38.64453125 80.69287109 C-41.92826443 86.28207832 -46.89488294 89.99574826 -53 92 C-59.8963017 92.99264949 -65.23559469 92.16165916 -71.12890625 88.421875 C-73.61994866 86.52889079 -75.3237655 84.64329286 -77 82 C-77.5775 81.154375 -78.155 80.30875 -78.75 79.4375 C-81.4198195 72.09549639 -80.81034465 64.9799376 -77.61328125 57.90625 C-76.53598241 55.75915789 -75.43451857 53.62406489 -74.3125 51.5 C-73.42750381 49.7510819 -72.54258573 48.00212015 -71.66178894 46.25108337 C-71.05104956 45.03891569 -70.43742276 43.82819873 -69.82099915 42.61891174 C-67.55049051 38.15385506 -65.40222373 33.64210411 -63.3125 29.08984375 C-63.0168364 28.44580597 -62.72117279 27.80176819 -62.41654968 27.13821411 C-61.26283731 24.61896727 -60.11283946 22.0980541 -58.9659729 19.57568359 C-58.1751252 17.83908499 -57.3787065 16.10502666 -56.58203125 14.37109375 C-56.13061768 13.38036865 -55.6792041 12.38964355 -55.21411133 11.36889648 C-54 9 -54 9 -52 7 C-49.99072266 6.86621094 -49.99072266 6.86621094 -47.5390625 6.984375 C-41.97060784 7.09226756 -36.82880155 6.30734981 -31.375 5.25 C-29.95018311 4.98473511 -29.95018311 4.98473511 -28.49658203 4.71411133 C-21.27721327 3.33642018 -14.19363207 1.61547508 -7.1171875 -0.36328125 C-4.07392095 -0.98490086 -2.86483985 -0.85666228 0 0 Z " fill="#C6EDFC" transform="translate(204,389)"/>
<path d="M0 0 C15.18 0 30.36 0 46 0 C42.55589591 18.36855517 42.55589591 18.36855517 40.87890625 25.4609375 C40.59985695 26.6614122 40.59985695 26.6614122 40.31517029 27.88613892 C39.73415252 30.38318719 39.1485972 32.87913964 38.5625 35.375 C37.79155244 38.6741496 37.02260851 41.97376413 36.25390625 45.2734375 C36.06647858 46.0757782 35.8790509 46.8781189 35.6859436 47.70477295 C34.16462256 54.23675445 32.70350615 60.7812681 31.27796936 67.33480835 C30.63209779 70.28138446 29.95479498 73.13561506 29 76 C14.15 76 -0.7 76 -16 76 C-14.87489056 68.12423391 -14.87489056 68.12423391 -14.15551758 64.77832031 C-13.99457611 64.02424896 -13.83363464 63.27017761 -13.66781616 62.49325562 C-13.49513214 61.69626251 -13.32244812 60.89926941 -13.14453125 60.078125 C-12.96217926 59.22771637 -12.77982727 58.37730774 -12.59194946 57.50112915 C-12.00127292 54.75021408 -11.40701274 52.00008833 -10.8125 49.25 C-10.40557594 47.35956023 -9.99875679 45.46909787 -9.59204102 43.57861328 C-6.45921328 29.0377051 -3.25324723 14.51448764 0 0 Z " fill="#FCDF76" transform="translate(400,405)"/>
<path d="M0 0 C-2.88371742 8.97673325 -12.97144921 13.76343606 -20.4921875 18.6875 C-24.72339191 21.46060423 -28.89078867 24.32600376 -33.0625 27.1875 C-33.86751953 27.73905762 -34.67253906 28.29061523 -35.50195312 28.85888672 C-38.00174573 30.57194507 -40.50095879 32.28584571 -43 34 C-47.88055755 37.34769535 -52.76201177 40.69393799 -57.65234375 44.02734375 C-60.36554978 45.87706825 -63.06612863 47.74245363 -65.75390625 49.62890625 C-66.82511719 50.37011719 -67.89632812 51.11132812 -69 51.875 C-69.9075 52.51179688 -70.815 53.14859375 -71.75 53.8046875 C-72.86375 54.39636719 -72.86375 54.39636719 -74 55 C-77 54 -77 54 -78.31640625 51.7421875 C-86.05098526 33.94538189 -86.05098526 33.94538189 -83.3125 24.671875 C-79.9307195 16.38651276 -75.03728541 10.87511975 -67 7 C-62.28941874 5.11526016 -58.04007126 4.71847178 -53.0234375 4.7265625 C-51.45824227 4.70909962 -49.89305666 4.69075645 -48.32788086 4.67163086 C-47.51769501 4.66453094 -46.70750916 4.65743103 -45.87277222 4.65011597 C-32.76405956 4.51830331 -20.24493337 4.04442989 -7.46484375 0.83984375 C-4 0 -4 0 0 0 Z " fill="#FC636E" transform="translate(239,151)"/>
<path d="M0 0 C3.33192715 22.55048292 1.16966456 46.87383567 -4 69 C-11.75728274 67.83238132 -17.4999918 62.28298008 -22.390625 56.3828125 C-28.23312557 47.73250825 -30.36125231 38.29928636 -29 28 C-26.37848533 16.37281142 -19.91312622 8.78019989 -10.13671875 2.3125 C-6.49139114 0.07332253 -4.2902545 -0.0932664 0 0 Z " fill="#DCF3FA" transform="translate(382,125)"/>
<path d="M0 0 C5.14338337 2.9958329 8.76038445 7.90615335 10.625 13.5 C11.36549988 20.33444968 10.75132112 25.87758585 6.625 31.5 C1.95651766 36.47823946 -2.29642232 39.24765757 -9.1875 39.8125 C-15.10833641 39.63375777 -19.71432188 37.93925437 -24.1875 34.0625 C-29.55584722 27.77386469 -30.80738044 23.62941659 -30.71875 15.3203125 C-29.99973413 9.42111407 -26.60782799 5.38649406 -22.25 1.5625 C-16.05626697 -2.88083022 -6.96102003 -3.05638597 0 0 Z " fill="#040303" transform="translate(300.375,184.5)"/>
<path d="M0 0 C0.19173014 2.33728167 0.32864628 4.65853424 0.4375 7 C0.51871094 8.299375 0.59992188 9.59875 0.68359375 10.9375 C0.44530645 14.48569801 -0.64250978 16.12426114 -3.02587891 18.7265625 C-3.66201614 19.42354248 -4.29815338 20.12052246 -4.9535675 20.83862305 C-8.34479209 24.42032666 -11.78446477 27.94707073 -15.26953125 31.4375 C-16.03174484 32.20304199 -16.79395844 32.96858398 -17.57926941 33.75732422 C-19.17548212 35.35856229 -20.77301792 36.95848243 -22.37182617 38.55712891 C-24.82824177 41.01575594 -27.2765204 43.48230396 -29.72460938 45.94921875 C-31.28076129 47.50830044 -32.83738484 49.06691157 -34.39453125 50.625 C-35.12783157 51.36548584 -35.8611319 52.10597168 -36.61665344 52.86889648 C-37.29463486 53.54380127 -37.97261627 54.21870605 -38.67114258 54.9140625 C-39.26735916 55.5117041 -39.86357574 56.1093457 -40.4778595 56.72509766 C-42 58 -42 58 -44 58 C-45.65625 56.390625 -45.65625 56.390625 -47.5 54.25 C-48.1084375 53.55390625 -48.716875 52.8578125 -49.34375 52.140625 C-50.88551036 50.14797247 -51.91454589 48.25958911 -53 46 C-47.56697148 40.427421 -42.11744736 34.87154821 -36.64679813 29.3359251 C-34.10652299 26.76445179 -31.57208353 24.18775194 -29.05053711 21.59790039 C-26.61293364 19.09469105 -24.16059351 16.60680106 -21.69772148 14.12845802 C-20.31336734 12.72776284 -18.94434438 11.31196811 -17.57569885 9.8959198 C-12.66864536 4.98628112 -7.4339662 0 0 0 Z " fill="#D3E1E5" transform="translate(353,359)"/>
<path d="M0 0 C1.47819297 2.74164208 2.40630072 5.23467938 3.05322266 8.27783203 C3.23325836 9.11194611 3.41329407 9.94606018 3.5987854 10.80545044 C3.78532684 11.69722992 3.97186829 12.5890094 4.1640625 13.5078125 C4.36099701 14.42964325 4.55793152 15.351474 4.76083374 16.30123901 C5.17515361 18.24569106 5.58684793 20.19070417 5.99609375 22.13623047 C6.62437666 25.1220377 7.26070104 28.10604291 7.8984375 31.08984375 C8.29994968 32.97906673 8.70100707 34.86838644 9.1015625 36.7578125 C9.2921524 37.65364044 9.48274231 38.54946838 9.67910767 39.47244263 C9.85283905 40.30025238 10.02657043 41.12806213 10.20556641 41.98095703 C10.35941803 42.71057648 10.51326965 43.44019592 10.67178345 44.19192505 C11 46 11 46 11 48 C4.07 48 -2.86 48 -10 48 C-9.35855587 42.2270028 -8.70476876 37.15069953 -7.40625 31.5859375 C-7.25466431 30.92719635 -7.10307861 30.2684552 -6.94689941 29.5897522 C-6.46937926 27.5170259 -5.98525265 25.44592839 -5.5 23.375 C-5.01553051 21.29676626 -4.53262306 19.21820547 -4.05310059 17.13882446 C-3.61894293 15.25759961 -3.1797433 13.37754043 -2.74023438 11.49755859 C-2.22317697 9.05449645 -1.80494038 6.58936429 -1.46289062 4.11572266 C-1 1 -1 1 0 0 Z " fill="#F89500" transform="translate(455,433)"/>
<path d="M0 0 C1.11677492 0.94947559 2.23244654 1.90024897 3.34765625 2.8515625 C3.96906494 3.38088379 4.59047363 3.91020508 5.23071289 4.45556641 C7.2481965 6.21665393 9.14412108 8.06988592 11 10 C9.48623919 13.56764285 7.39486871 15.83706287 4.6484375 18.546875 C3.79765625 19.39121094 2.946875 20.23554688 2.0703125 21.10546875 C1.18085938 21.97816406 0.29140625 22.85085938 -0.625 23.75 C-1.5221875 24.63816406 -2.419375 25.52632813 -3.34375 26.44140625 C-5.55807004 28.63216969 -7.77692435 30.81812763 -10 33 C-13.41059403 31.39464713 -15.61792484 29.59481099 -18.25 26.875 C-18.95640625 26.15054687 -19.6628125 25.42609375 -20.390625 24.6796875 C-20.92171875 24.12539063 -21.4528125 23.57109375 -22 23 C-17.47008204 17.56266945 -12.65705784 12.53541069 -7.625 7.5625 C-6.88894531 6.83095703 -6.15289062 6.09941406 -5.39453125 5.34570312 C-3.59863926 3.56147277 -1.80044015 1.77963876 0 0 Z " fill="#8998A4" transform="translate(288,417)"/>
<path d="M0 0 C3.0625 0.3125 3.0625 0.3125 5 1.4375 C6.0625 3.3125 6.0625 3.3125 5.9375 6.375 C5.0625 9.3125 5.0625 9.3125 2.0625 11.3125 C-1.25990324 10.9883631 -2.54526303 10.70473697 -4.9375 8.3125 C-5.1875 5.3125 -5.1875 5.3125 -4.9375 2.3125 C-2.9375 0.3125 -2.9375 0.3125 0 0 Z " fill="#F25F6A" transform="translate(289.9375,197.6875)"/>
</svg>
