<?xml version="1.0" encoding="UTF-8"?>
<svg version="1.1" xmlns="http://www.w3.org/2000/svg" width="512" height="512">
<path d="M0 0 C1.31266846 0.01244751 1.31266846 0.01244751 2.65185547 0.02514648 C18.93707743 0.44815881 29.42893869 8.16700509 40.3515625 19.59375 C42.45871291 21.76691678 44.67301476 23.75401054 46.96875 25.7265625 C51.56434789 29.69849535 55.80696148 33.98230291 60.0625 38.3125 C61.55758161 39.83300816 63.05486644 41.35135411 64.5546875 42.8671875 C65.20550293 43.52960449 65.85631836 44.19202148 66.52685547 44.87451172 C69.90534605 48.05432599 73.27230131 47.58251955 77.66308594 47.5793457 C78.43402588 47.58282013 79.20496582 47.58629456 79.99926758 47.58987427 C81.67658515 47.59723531 83.35391248 47.60257883 85.03124237 47.60616493 C87.68792131 47.61332449 90.34441491 47.62898801 93.0010376 47.64750671 C100.55567859 47.69999434 108.11021973 47.74793861 115.66503906 47.76342773 C120.28409273 47.77351952 124.9026827 47.80287671 129.52155304 47.84474754 C131.2805251 47.85704804 133.0395627 47.86218053 134.79857635 47.85994911 C137.26433101 47.85759133 139.72876062 47.87979809 142.19433594 47.9074707 C143.27935394 47.89756859 143.27935394 47.89756859 144.3862915 47.88746643 C149.4611648 47.9807202 152.33837203 49.16012936 156.1875 52.4375 C159.94798306 56.878339 160.75443949 60.40899658 160.62231445 66.07592773 C160.62140808 66.81658478 160.62050171 67.55724182 160.61956787 68.32034302 C160.61552014 69.91961 160.60259027 71.51887444 160.58165932 73.11800957 C160.55037829 75.6537588 160.54667678 78.18821138 160.55058289 80.72413635 C160.55708497 87.93008067 160.51669506 95.13542891 160.4519043 102.34106445 C160.4141056 106.7573286 160.41037436 111.17259819 160.42693138 115.58897591 C160.42616952 117.26627523 160.41218214 118.94362481 160.38445473 120.62069511 C159.95885529 129.61511946 159.95885529 129.61511946 162.66004944 137.94354248 C164.40459887 139.71874241 166.109945 141.07764809 168.1875 142.4375 C168.88979736 143.06833496 169.59209473 143.69916992 170.31567383 144.34912109 C170.89857178 144.83977051 171.48146973 145.33041992 172.08203125 145.8359375 C176.56120129 149.70298669 180.71665353 153.85584387 184.875 158.0625 C185.60783203 158.79984375 186.34066406 159.5371875 187.09570312 160.296875 C188.50617501 161.71624977 189.91503273 163.13723101 191.32202148 164.56005859 C192.87317439 166.12115869 194.44220178 167.66447357 196.015625 169.203125 C205.6796968 179.14529958 208.80105466 190.68998968 208.69543457 204.2474823 C208.70479451 206.1152134 208.70479451 206.1152134 208.71434355 208.02067643 C208.72745995 211.44677141 208.72284629 214.87197884 208.71039867 218.29801834 C208.70130126 222.00424557 208.71534083 225.71039853 208.72631836 229.41661072 C208.74405684 236.66428678 208.74028499 243.91179667 208.7286678 251.1594791 C208.71961737 257.05065708 208.71841641 262.94178863 208.72276306 268.83297157 C208.72337599 269.67288122 208.72398893 270.51279086 208.72462043 271.37815231 C208.72589938 273.0846176 208.72719624 274.79108288 208.7285108 276.49754814 C208.73990236 292.47855939 208.72682419 308.45947868 208.70530933 324.44047485 C208.68742983 338.14550251 208.69055222 351.85039468 208.70898438 365.55541992 C208.73039938 381.48568508 208.73881416 397.41586982 208.72653532 413.34614736 C208.72526117 415.0452568 208.72400368 416.74436626 208.72276306 418.44347572 C208.72183741 419.69735416 208.72183741 419.69735416 208.72089306 420.97656348 C208.71744278 426.86050096 208.72326134 432.74438732 208.73268127 438.62831688 C208.74390921 445.79885986 208.74084416 452.96922772 208.7195583 460.13975068 C208.70905999 463.79652239 208.7049051 467.45300231 208.71815491 471.10977173 C208.73230918 475.07616835 208.71538667 479.04208916 208.69543457 483.00846863 C208.70435746 484.16051086 208.71328034 485.31255309 208.72247362 486.4995057 C208.64286061 494.65160112 207.19211277 499.76519551 201.9375 506.1875 C193.63329651 512.98184831 186.04588227 513.01075836 175.77709961 512.94543457 C174.20021712 512.95004667 172.62333893 512.95640166 171.04646969 512.96434355 C166.72447062 512.98101768 162.40282555 512.97279929 158.08082533 512.96039867 C153.41544178 512.95134265 148.7501188 512.96532066 144.08474731 512.97631836 C134.94969424 512.99410225 125.81477266 512.99026416 116.67971444 512.9786678 C109.25528653 512.96963325 101.83089546 512.96840957 94.40646362 512.97276306 C93.34966933 512.97337599 92.29287504 512.97398893 91.20405668 512.97462043 C89.05718079 512.97589934 86.91030491 512.97719619 84.76342905 512.9785108 C64.63346932 512.98991622 44.50358247 512.97680347 24.3736347 512.95530933 C7.10224341 512.9374384 -10.16904034 512.94054251 -27.44042969 512.95898438 C-47.49849309 512.98039174 -67.55649262 512.98881758 -87.61456585 512.97653532 C-89.75353176 512.97526113 -91.89249769 512.97400364 -94.03146362 512.97276306 C-95.08386815 512.97214596 -96.13627267 512.97152886 -97.22056824 512.97089306 C-104.63584079 512.96743976 -112.05107283 512.97326807 -119.46633911 512.98268127 C-128.5034293 512.99390113 -137.54038053 512.99086144 -146.57745481 512.9695583 C-151.18808595 512.95904775 -155.79848542 512.95492617 -160.40911484 512.96815491 C-164.63080791 512.9800845 -168.8520548 512.97350701 -173.07370746 512.9522447 C-174.59984105 512.94778103 -176.12601242 512.95003967 -177.65212166 512.95974785 C-187.25420785 513.01613912 -193.88624411 512.468073 -201.5625 506.1875 C-207.73497958 498.64335829 -208.39378723 492.47909909 -208.32043457 483.00846863 C-208.32667453 481.76799454 -208.3329145 480.52752044 -208.33934355 479.24945623 C-208.3525015 475.82237737 -208.34781603 472.39618023 -208.33539867 468.96915567 C-208.32632773 465.26690788 -208.3403282 461.5647357 -208.35131836 457.86250305 C-208.36908802 450.61541447 -208.3652701 443.36849177 -208.3536678 436.12139674 C-208.34462553 430.22874258 -208.34341291 424.33613483 -208.34776306 418.44347572 C-208.34837599 417.60402578 -208.34898893 416.76457583 -208.34962043 415.89968801 C-208.35089937 414.19419531 -208.35219623 412.48870263 -208.3535108 410.78320996 C-208.36491259 394.79639841 -208.35181029 378.80967865 -208.33030933 362.82288215 C-208.3124485 349.1187732 -208.31553484 335.41479984 -208.33398438 321.71069336 C-208.35541509 305.78481592 -208.36380368 289.85901898 -208.35153532 273.93312913 C-208.35026118 272.23307662 -208.34900369 270.5330241 -208.34776306 268.83297157 C-208.34714596 267.99658979 -208.34652886 267.160208 -208.34589306 266.29848131 C-208.34244602 260.41749084 -208.34825474 254.53655161 -208.35768127 248.65556908 C-208.36892756 241.48174544 -208.36580659 234.30809676 -208.3445583 227.13429304 C-208.33408155 223.47717064 -208.32986772 219.82033938 -208.34315491 216.16321945 C-208.35736748 212.19114423 -208.34034013 208.21954053 -208.32043457 204.2474823 C-208.32935746 203.10213223 -208.33828034 201.95678216 -208.34747362 200.77672452 C-208.21086715 186.6862431 -202.67318273 176.21332924 -192.8125 166.4375 C-191.06597571 164.68011528 -189.31990358 162.9222811 -187.57421875 161.1640625 C-186.0659077 159.64836753 -184.5571095 158.13315937 -183.0480957 156.61816406 C-182.0204943 155.5855389 -180.99379286 154.55201732 -179.96801758 153.51757812 C-174.09852845 147.6000325 -168.17000733 141.83678999 -161.8125 136.4375 C-160.14098303 134.76598303 -160.68302082 132.72570865 -160.66905212 130.49320984 C-160.6698452 129.43273186 -160.6698452 129.43273186 -160.6706543 128.35083008 C-160.66717987 127.60929687 -160.66370544 126.86776367 -160.66012573 126.10375977 C-160.65275497 124.48753935 -160.64741665 122.87130871 -160.64383507 121.25507545 C-160.63668539 118.69508736 -160.62102869 116.13529271 -160.60249329 113.57536316 C-160.54996436 106.29465449 -160.50207246 99.01404822 -160.48657227 91.7331543 C-160.47647765 87.28382562 -160.44711061 82.83497794 -160.40525246 78.38583946 C-160.39295299 76.69106374 -160.38781928 74.99622002 -160.39005089 73.30140114 C-160.39240991 70.92412891 -160.3701921 68.54822902 -160.3425293 66.17114258 C-160.35243141 65.12584633 -160.35243141 65.12584633 -160.36253357 64.05943298 C-160.26734403 59.06090547 -159.02494629 56.23262696 -155.8125 52.4375 C-151.30478716 48.59792641 -147.66947703 47.87348587 -141.91455078 48.00268555 C-140.76208359 48.0040451 -140.76208359 48.0040451 -139.58633423 48.00543213 C-137.9265023 48.00948126 -136.2666729 48.02241667 -134.60696793 48.04334068 C-131.97434347 48.07461636 -129.34296821 48.07832346 -126.71017456 48.07441711 C-119.22853045 48.0679149 -111.74745966 48.10825371 -104.26611328 48.1730957 C-99.68127524 48.21092117 -95.09739501 48.21461488 -90.51244736 48.19806862 C-88.77178172 48.19882994 -87.03106734 48.21279787 -85.29062271 48.24054527 C-74.40141457 48.75272524 -74.40141457 48.75272524 -64.94677734 44.1496582 C-63.86490599 42.94458548 -62.81404602 41.71011599 -61.8125 40.4375 C-60.65331055 39.32665039 -60.65331055 39.32665039 -59.47070312 38.19335938 C-58.85130859 37.56236328 -58.23191406 36.93136719 -57.59375 36.28125 C-56.88863281 35.56839844 -56.18351563 34.85554688 -55.45703125 34.12109375 C-54.39548828 33.04021484 -54.39548828 33.04021484 -53.3125 31.9375 C-48.55725382 27.09563731 -43.766945 22.40737063 -38.5871582 18.01782227 C-36.76690808 16.39690068 -35.13692317 14.67921141 -33.5 12.875 C-24.70325153 3.95802262 -12.28065307 -0.15115749 0 0 Z " fill="#010100" transform="translate(255.8125,-0.4375)"/>
<path d="M0 0 C95.7 0 191.4 0 290 0 C290.3125 77.8125 290.3125 77.8125 290.38793945 102.40942383 C290.42449072 109.66629349 290.42449072 109.66629349 290.4650116 116.92314148 C290.48299574 120.16302447 290.49256453 123.40281677 290.49711609 126.64274597 C290.50318854 130.77123263 290.52345817 134.89941692 290.55416143 139.02779138 C290.5630038 140.54556051 290.56679105 142.06336917 290.56503928 143.58116305 C290.56339329 145.62643475 290.58177162 147.67169377 290.60127258 149.71687317 C290.60588155 150.86450543 290.61049051 152.0121377 290.61523914 153.1945467 C290.78086321 155.9894155 290.78086321 155.9894155 292.30617046 157.86535168 C295.19558441 159.80088806 297.6513203 159.41858496 301 159 C303.28244295 156.7752208 303.94707439 155.37123881 304.39872742 152.20318604 C304.40983047 151.12841003 304.42093353 150.05363403 304.43237305 148.94628906 C304.46206429 147.11484344 304.46206429 147.11484344 304.49235535 145.24639893 C304.49874527 143.93274353 304.50513519 142.61908813 304.51171875 141.265625 C304.52856971 139.90369041 304.54672052 138.54177133 304.56611633 137.17987061 C304.61357789 133.60264941 304.6434117 130.02549112 304.66955566 126.44805908 C304.69938088 122.79467344 304.74590439 119.14150446 304.79101562 115.48828125 C304.87700481 108.32562842 304.94436916 101.16295977 305 94 C308.82859222 95.78327312 311.53100098 98.20850035 314.5 101.1640625 C315.01755859 101.67496429 315.53511719 102.18586609 316.06835938 102.71224976 C317.1601791 103.79396538 318.24931903 104.87839169 319.3359375 105.96533203 C320.98413289 107.6091748 322.64761386 109.23636793 324.3125 110.86328125 C331.92751182 118.39737421 338.03373937 125.30937361 338.3125 136.5625 C338.100059 149.20273977 331.69908995 156.58239523 323 165 C320.65566299 167.16726065 318.27541777 169.28239503 315.87109375 171.3828125 C311.38038289 175.47638566 307.13991004 179.81759685 302.8840332 184.15332031 C299.69667942 187.38168564 296.47879013 190.50125048 293.0390625 193.4609375 C288.63351076 197.2566054 284.57271087 201.35310496 280.5 205.5 C275.81672776 210.26857774 271.08033648 214.84975966 266.01367188 219.20898438 C262.34510446 222.47191 258.93887401 225.99848712 255.5 229.5 C250.8066805 234.27880802 246.06008022 238.87155094 240.98242188 243.24023438 C237.49728173 246.33394006 234.26192574 249.67436478 231 253 C226.44106214 257.64797961 221.81259409 262.09875244 216.87890625 266.34814453 C214.13287333 268.76234135 211.56084753 271.32976371 209 273.9375 C208.26716797 274.67709961 208.26716797 274.67709961 207.51953125 275.43164062 C206.34396475 276.61873229 205.17161174 277.80900498 204 279 C200.18728209 275.82273508 196.54483529 272.600001 193.0625 269.0625 C189.87210457 265.82923937 186.57819 262.8004026 183.12109375 259.85546875 C181.5980764 258.52317917 180.11507415 257.14462092 178.66015625 255.73828125 C167.9469909 245.49899999 155.88630303 241.3847165 141.14453125 241.6875 C126.35281004 243.15748472 115.93772317 250.49589675 106.0546875 260.90234375 C103.86038531 263.18813619 101.56664626 265.2821426 99.1640625 267.34765625 C94.71784493 271.18363969 90.61275318 275.31233329 86.5 279.5 C81.81672776 284.26857774 77.08033648 288.84975966 72.01367188 293.20898438 C68.34510446 296.47191 64.93887401 299.99848712 61.5 303.5 C56.81672776 308.26857774 52.08033648 312.84975966 47.01367188 317.20898438 C43.34510446 320.47191 39.93887401 323.99848712 36.5 327.5 C31.81672776 332.26857774 27.08033648 336.84975966 22.01367188 341.20898438 C18.34510446 344.47191 14.93887401 347.99848712 11.5 351.5 C6.81672776 356.26857774 2.08033648 360.84975966 -2.98632812 365.20898438 C-6.65489554 368.47191 -10.06112599 371.99848712 -13.5 375.5 C-17.56198317 379.63597194 -21.60989003 383.72277217 -26.0078125 387.50390625 C-31.14641308 391.92269794 -35.80967321 396.79535307 -40.52734375 401.65429688 C-41.20667969 402.34458984 -41.88601562 403.03488281 -42.5859375 403.74609375 C-43.1948584 404.37185303 -43.8037793 404.9976123 -44.43115234 405.64233398 C-46 407 -46 407 -48 407 C-48 329.12 -48 251.24 -48 171 C-38.06952807 179.51183309 -28.57926441 188.27246135 -19.42773438 197.60913086 C-16.40619193 200.67401511 -13.34117263 203.61398725 -10.078125 206.421875 C-4.89049936 210.89742443 -0.15311261 215.79856111 4.64453125 220.68359375 C8.00328124 224.07918561 11.37852424 227.38417769 15 230.5 C20.16560744 234.94435252 24.87292293 239.82507088 29.64453125 244.68359375 C33.65845901 248.74154997 37.76278785 252.59029038 42.08935547 256.31201172 C45.1386362 259.00594566 47.97079244 261.90289023 50.8125 264.8125 C55.11745362 269.23589934 55.11745362 269.23589934 60 273 C63.57176115 272.91832511 63.57176115 272.91832511 67 272 C69.36351703 268.45472445 69.6062475 267.17690458 69 263 C67.25524533 260.71707824 65.65291374 258.92640133 63.59375 256.97265625 C63.03562622 256.42065048 62.47750244 255.86864471 61.90246582 255.2999115 C60.11524726 253.5395746 58.30807235 251.80138345 56.5 250.0625 C55.31378519 248.89782623 54.12887476 247.73182237 52.9453125 246.56445312 C47.70929705 241.42306777 42.41258164 236.40545288 36.83789062 231.63061523 C32.4655412 227.75137482 28.44915919 223.484663 24.35546875 219.31640625 C21.02748794 215.95192108 17.68726995 212.6749408 14.09375 209.59375 C13.48509787 209.0494805 12.87644573 208.50521099 12.24934959 207.94444847 C10.00162439 205.94866389 10.00162439 205.94866389 7.452631 204.13399696 C3.21502788 200.65858255 -0.01949543 197.49819199 -0.90642166 191.96033859 C-1.35997073 186.93329421 -1.23835938 181.91297092 -1.13525391 176.87255859 C-1.13218702 174.90893057 -1.13353153 172.94529153 -1.13890648 170.98166847 C-1.14115549 165.74363039 -1.08339103 160.50789713 -1.01280212 155.270401 C-0.95566219 150.34792171 -0.95316117 145.42599032 -0.94604492 140.50317383 C-0.89366429 126.12681301 -0.75405147 111.75087701 -0.625 97.375 C-0.41875 65.24125 -0.2125 33.1075 0 0 Z " fill="#FDF3D5" transform="translate(111,63)"/>
<path d="M0 0 C4.92116254 2.90274333 8.84863273 6.63321794 12.84765625 10.6796875 C13.89566406 11.72576172 13.89566406 11.72576172 14.96484375 12.79296875 C16.20912466 14.03967044 17.44521997 15.29467293 18.66796875 16.5625 C20.58041268 18.42010683 22.53867614 20.15260252 24.55859375 21.890625 C29.80626198 26.44943824 34.6243625 31.40678912 39.4921875 36.36328125 C42.85093749 39.75887311 46.22618049 43.06386519 49.84765625 46.1796875 C55.01326369 50.62404002 59.72057918 55.50475838 64.4921875 60.36328125 C67.85093749 63.75887311 71.22618049 67.06386519 74.84765625 70.1796875 C80.01326369 74.62404002 84.72057918 79.50475838 89.4921875 84.36328125 C92.85093749 87.75887311 96.22618049 91.06386519 99.84765625 94.1796875 C105.01326369 98.62404002 109.72057918 103.50475838 114.4921875 108.36328125 C117.85093749 111.75887311 121.22618049 115.06386519 124.84765625 118.1796875 C130.01326369 122.62404002 134.72057918 127.50475838 139.4921875 132.36328125 C142.84837352 135.75628101 146.22070238 139.05893217 149.83984375 142.171875 C154.2813526 145.99292713 158.36885721 150.12707912 162.47265625 154.3046875 C167.09635626 159.01065975 171.68769097 163.56148177 176.84765625 167.6796875 C176.49197925 170.25834571 176.0815722 171.45113212 174.196877 173.29263645 C171.13670584 175.09945414 169.05741853 175.05678917 165.51012421 175.06000423 C163.5424681 175.07266415 163.5424681 175.07266415 161.53506136 175.08557981 C160.07574128 175.07978432 158.61642232 175.07370327 157.15710449 175.06736755 C155.60969896 175.07153877 154.06229649 175.07701512 152.51489973 175.08368737 C148.25600876 175.09818842 143.99731054 175.09388279 139.7384088 175.08652055 C135.14802066 175.08180271 130.55767506 175.09428638 125.96730042 175.10453796 C116.97209765 175.12175808 107.97696463 175.12255939 98.98174965 175.11732506 C91.67304215 175.11328838 84.36435531 175.11472093 77.0556488 175.12007332 C75.49705338 175.12119595 75.49705338 175.12119595 73.90697119 175.12234126 C71.79632524 175.12387269 69.6856793 175.12541104 67.57503337 175.12695623 C47.76999147 175.1406927 27.96498905 175.13523535 8.15994805 175.12377102 C-9.97250808 175.11383565 -28.10486221 175.12678253 -46.2373026 175.15070521 C-64.84198335 175.17506661 -83.44661654 175.18471149 -102.05131292 175.17805248 C-112.50197662 175.1745539 -122.95256183 175.17683445 -133.4032135 175.19430351 C-142.29887541 175.20898847 -151.19440356 175.20970956 -160.09006274 175.1922326 C-164.63131744 175.18368987 -169.17233282 175.18165242 -173.71357536 175.19688416 C-177.86736524 175.21064425 -182.0207088 175.20608111 -186.17447227 175.18664492 C-187.68046909 175.18285775 -189.18650093 175.18588433 -190.6924668 175.19625657 C-192.73321361 175.20931721 -194.77408022 175.19552692 -196.81481171 175.18025875 C-197.95028553 175.18015141 -199.08575934 175.18004408 -200.25564146 175.17993349 C-203.7894013 174.56967085 -204.99143945 173.48852996 -207.15234375 170.6796875 C-207.22265625 168.73046875 -207.22265625 168.73046875 -206.15234375 166.6796875 C-203.95703125 164.41015625 -203.95703125 164.41015625 -201.02734375 161.8671875 C-195.31412997 156.81870771 -189.91625767 151.51663128 -184.58154297 146.07104492 C-181.55887146 143.00670131 -178.49384401 140.06598217 -175.23046875 137.2578125 C-170.8135519 133.447181 -166.73795305 129.33971591 -162.65234375 125.1796875 C-157.96907151 120.41110976 -153.23268023 115.82992784 -148.16601562 111.47070312 C-144.49744821 108.2077775 -141.09121776 104.68120038 -137.65234375 101.1796875 C-132.96907151 96.41110976 -128.23268023 91.82992784 -123.16601562 87.47070312 C-119.49744821 84.2077775 -116.09121776 80.68120038 -112.65234375 77.1796875 C-107.96907151 72.41110976 -103.23268023 67.82992784 -98.16601562 63.47070312 C-94.49744821 60.2077775 -91.09121776 56.68120038 -87.65234375 53.1796875 C-82.96907151 48.41110976 -78.23268023 43.82992784 -73.16601562 39.47070312 C-69.49744821 36.2077775 -66.09121776 32.68120038 -62.65234375 29.1796875 C-57.89941076 24.34018014 -53.09125595 19.6839669 -47.94726562 15.26074219 C-45.54912979 13.14834724 -43.35474463 10.86869654 -41.15234375 8.5546875 C-29.52948482 -3.17513025 -15.55849141 -7.25652959 0 0 Z " fill="#FEDF7C" transform="translate(271.15234375,322.3203125)"/>
<path d="M0 0 C1.21218704 -0.00478363 2.42437408 -0.00956726 3.67329407 -0.01449585 C6.23785702 -0.01789648 8.80246323 -0.0086829 11.36694336 0.01220703 C15.26971714 0.03885043 19.16958404 0.01252059 23.07226562 -0.01953125 C25.56901672 -0.01622492 28.06576601 -0.00981408 30.5625 0 C32.29895027 -0.01518173 32.29895027 -0.01518173 34.07048035 -0.03067017 C42.36741476 0.08774883 49.20829418 1.71732995 55.52079773 7.37313843 C62.80692715 15.00900845 62.61328125 21.95630497 62.61328125 32.6640625 C89.01328125 32.6640625 115.41328125 32.6640625 142.61328125 32.6640625 C142.61328125 28.7040625 142.61328125 24.7440625 142.61328125 20.6640625 C145.27625556 12.97102559 148.65721382 7.04865026 155.98876953 3.02709961 C162.14797469 0.04484499 167.73552416 -0.01020846 174.48046875 0.10546875 C175.67761505 0.10780014 176.87476135 0.11013153 178.10818481 0.11253357 C180.62102454 0.12222318 183.13384402 0.1438984 185.64648438 0.17700195 C189.49772341 0.22668431 193.34768713 0.238504 197.19921875 0.24414062 C199.64714905 0.25821747 202.09506826 0.27441856 204.54296875 0.29296875 C205.69401093 0.29833145 206.8450531 0.30369415 208.03097534 0.30921936 C209.63381882 0.33320045 209.63381882 0.33320045 211.26904297 0.35766602 C212.20706757 0.36830582 213.14509216 0.37894562 214.11154175 0.38990784 C216.77947883 0.68227536 218.37250645 1.2022917 220.61328125 2.6640625 C222.72205031 5.8272161 222.94139047 6.98324217 222.29003906 10.63964844 C220.59942285 15.69685972 216.86440111 19.91421463 213.7421875 24.16796875 C213.20207031 24.93238281 212.66195312 25.69679687 212.10546875 26.484375 C211.6038623 27.16773926 211.10225586 27.85110352 210.58544922 28.55517578 C209.28398844 31.37838477 209.64552776 32.74254253 210.61328125 35.6640625 C211.81888232 37.81572159 211.81888232 37.81572159 213.37109375 39.84375 C214.18513672 40.99037109 214.18513672 40.99037109 215.015625 42.16015625 C216.16305655 43.74470458 217.3193274 45.32288986 218.484375 46.89453125 C221.17193856 50.71099979 222.58672718 52.78423759 222.73046875 57.546875 C221.47901471 61.03869431 220.72078607 61.79975262 217.61328125 63.6640625 C215.46185303 64.02482605 215.46185303 64.02482605 213.12011719 64.00463867 C211.79920074 64.00429878 211.79920074 64.00429878 210.45159912 64.00395203 C209.50979797 63.98846817 208.56799683 63.97298431 207.59765625 63.95703125 C206.62669006 63.95278641 205.65572388 63.94854156 204.65533447 63.94416809 C201.55769994 63.92739103 198.46071876 63.88974022 195.36328125 63.8515625 C193.26172815 63.83651442 191.16016485 63.82282623 189.05859375 63.81054688 C183.90990496 63.77749061 178.76170384 63.72571458 173.61328125 63.6640625 C173.63575928 64.68234131 173.6582373 65.70062012 173.68139648 66.74975586 C173.69957989 68.10529906 173.71721005 69.46084977 173.734375 70.81640625 C173.7587262 71.81963928 173.7587262 71.81963928 173.78356934 72.84313965 C173.84279654 79.09256518 172.56265483 83.79770793 168.61328125 88.6640625 C163.62000131 92.93152417 158.8363128 95.77093814 152.17501831 95.81796265 C151.26675797 95.82656311 150.35849762 95.83516357 149.42271423 95.84402466 C147.93125633 95.85041458 147.93125633 95.85041458 146.40966797 95.85693359 C144.83598701 95.86919983 144.83598701 95.86919983 143.23051453 95.88171387 C139.75133841 95.90656728 136.27220314 95.92308545 132.79296875 95.9375 C131.60440403 95.94282368 130.41583931 95.94814735 129.19125748 95.95363235 C122.89801936 95.98036599 116.60480107 95.99973869 110.31152344 96.01416016 C103.81829281 96.03079204 97.32557128 96.07555782 90.83253288 96.1265316 C85.83441603 96.16022832 80.83641953 96.17174041 75.83819962 96.17738724 C73.44526411 96.18409483 71.05233638 96.19930391 68.65951157 96.22327805 C65.30367643 96.25497745 61.94920794 96.25495824 58.59326172 96.24755859 C57.61110184 96.26396393 56.62894196 96.28036926 55.61701965 96.29727173 C48.22225815 96.23078387 42.55901211 94.24520161 37.02360344 89.22127342 C32.05713564 83.71354865 31.30801819 77.94411937 31.48828125 70.7890625 C31.49730469 70.10070312 31.50632813 69.41234375 31.515625 68.703125 C31.53895612 67.02328412 31.57481799 65.34362504 31.61328125 63.6640625 C30.78095978 63.68071709 30.78095978 63.68071709 29.93182373 63.69770813 C24.15702409 63.80831879 18.38252522 63.88373602 12.60693359 63.9387207 C10.45153583 63.96386647 8.29622334 63.99798774 6.14111328 64.04125977 C3.04308033 64.10190758 -0.05382556 64.13027162 -3.15234375 64.15234375 C-4.59785614 64.19105339 -4.59785614 64.19105339 -6.0725708 64.23054504 C-12.70923961 64.23332795 -12.70923961 64.23332795 -16.02636719 61.44604492 C-17.50327297 58.42570368 -17.9621282 56.9626192 -17.38671875 53.6640625 C-16.17749023 51.44750977 -16.17749023 51.44750977 -14.5078125 49.23046875 C-13.91677734 48.41642578 -13.32574219 47.60238281 -12.71679688 46.76367188 C-11.45554949 45.07289752 -10.18991922 43.38538374 -8.91992188 41.70117188 C-5.48065939 37.08246783 -5.48065939 37.08246783 -4.10546875 31.6328125 C-6.3878361 26.34440035 -9.82055792 21.866159 -13.16992188 17.20898438 C-13.70681641 16.44005859 -14.24371094 15.67113281 -14.796875 14.87890625 C-15.29324463 14.18917725 -15.78961426 13.49944824 -16.30102539 12.78881836 C-17.68724386 10.07591993 -17.94663818 8.67287299 -17.38671875 5.6640625 C-13.23468628 -1.00244883 -7.06280577 -0.0612147 0 0 Z " fill="#050303" transform="translate(153.38671875,103.3359375)"/>
<path d="M0 0 C9.93047193 8.51183309 19.42073559 17.27246135 28.57226562 26.60913086 C31.59380807 29.67401511 34.65882737 32.61398725 37.921875 35.421875 C43.10950064 39.89742443 47.84688739 44.79856111 52.64453125 49.68359375 C56.00328124 53.07918561 59.37852424 56.38417769 63 59.5 C68.16560744 63.94435252 72.87292293 68.82507088 77.64453125 73.68359375 C81.65845901 77.74154997 85.76278785 81.59029038 90.08935547 85.31201172 C93.1386362 88.00594566 95.97079244 90.90289023 98.8125 93.8125 C103.11745362 98.23589934 103.11745362 98.23589934 108 102 C112.65815681 101.59404786 112.65815681 101.59404786 117 100 C117.66 100.86625 118.32 101.7325 119 102.625 C122.15097682 106.43886244 125.96802147 109.17861552 130 112 C127.73007082 115.12115262 125.30585384 117.6720197 122.375 120.15234375 C117.86145325 124.05865243 113.68068456 128.24316454 109.5 132.5 C104.81672776 137.26857774 100.08033648 141.84975966 95.01367188 146.20898438 C91.34510446 149.47191 87.93887401 152.99848712 84.5 156.5 C79.81672776 161.26857774 75.08033648 165.84975966 70.01367188 170.20898438 C66.34510446 173.47191 62.93887401 176.99848712 59.5 180.5 C54.81672776 185.26857774 50.08033648 189.84975966 45.01367188 194.20898438 C41.34510446 197.47191 37.93887401 200.99848712 34.5 204.5 C30.43801683 208.63597194 26.39010997 212.72277217 21.9921875 216.50390625 C16.85358692 220.92269794 12.19032679 225.79535307 7.47265625 230.65429688 C6.79332031 231.34458984 6.11398438 232.03488281 5.4140625 232.74609375 C4.50068115 233.68473267 4.50068115 233.68473267 3.56884766 234.64233398 C2 236 2 236 0 236 C0 158.12 0 80.24 0 0 Z " fill="#FECF63" transform="translate(63,234)"/>
<path d="M0 0 C0 78.21 0 156.42 0 237 C-7.8613296 230.26171749 -7.8613296 230.26171749 -11.33984375 226.72265625 C-12.09330078 225.96146484 -12.84675781 225.20027344 -13.62304688 224.41601562 C-15.16214233 222.85094387 -16.701205 221.28583987 -18.24023438 219.72070312 C-22.36334534 215.55533996 -26.56178466 211.59017247 -31.00610352 207.77124023 C-35.42964174 203.84167371 -39.50055476 199.53586501 -43.64453125 195.31640625 C-47.00328124 191.92081439 -50.37852424 188.61582231 -54 185.5 C-59.16560744 181.05564748 -63.87292293 176.17492912 -68.64453125 171.31640625 C-72.00328124 167.92081439 -75.37852424 164.61582231 -79 161.5 C-84.16560744 157.05564748 -88.87292293 152.17492912 -93.64453125 147.31640625 C-97.63446709 143.28270512 -101.71346514 139.45893797 -106.01367188 135.75927734 C-109.49191009 132.67862535 -112.73690356 129.36776369 -116 126.0625 C-116.67933594 125.37865234 -117.35867188 124.69480469 -118.05859375 123.99023438 C-119.70808359 122.32912841 -121.3551668 120.66571487 -123 119 C-121.38468385 115.5803033 -119.58748974 113.34800823 -116.875 110.6875 C-116.15054687 109.96949219 -115.42609375 109.25148438 -114.6796875 108.51171875 C-112.56464592 106.52925266 -110.42209458 104.6284279 -108.2265625 102.73828125 C-103.77037101 98.86376308 -99.63583504 94.71116901 -95.5 90.5 C-90.81672776 85.73142226 -86.08033648 81.15024034 -81.01367188 76.79101562 C-77.34510446 73.52809 -73.93887401 70.00151288 -70.5 66.5 C-65.81672776 61.73142226 -61.08033648 57.15024034 -56.01367188 52.79101562 C-52.34510446 49.52809 -48.93887401 46.00151288 -45.5 42.5 C-40.81672776 37.73142226 -36.08033648 33.15024034 -31.01367188 28.79101562 C-27.34510446 25.52809 -23.93887401 22.00151288 -20.5 18.5 C-15.73205533 13.64520752 -10.92349961 8.94292357 -5.74414062 4.52539062 C-3.97215001 3.01464595 -3.97215001 3.01464595 -2.33398438 1.30273438 C-1 0 -1 0 0 0 Z " fill="#FDCF63" transform="translate(449,234)"/>
<path d="M0 0 C95.7 0 191.4 0 290 0 C290 50.82 290 101.64 290 154 C289.67 154 289.34 154 289 154 C289 103.51 289 53.02 289 1 C193.96 1 98.92 1 1 1 C0.79375 29.17375 0.5875 57.3475 0.375 86.375 C0.26333496 95.24294434 0.15166992 104.11088867 0.03662109 113.24755859 C0.02302906 121.2559429 0.02302906 121.2559429 0.03335571 129.26431274 C0.03729054 132.80950903 -0.00877621 136.35011144 -0.08651733 139.8944397 C-1.40244437 162.89377366 -1.40244437 162.89377366 8.18711281 182.77515602 C11.20111858 185.57393685 14.30552006 188.05248728 17.69369888 190.38209915 C23.0505441 194.13999718 27.8576882 198.71484062 32.4375 203.375 C33.18773437 204.13296875 33.93796875 204.8909375 34.7109375 205.671875 C36.23697917 207.22395833 37.76302083 208.77604167 39.2890625 210.328125 C43.39511971 214.4765127 47.57810169 218.42299977 52.00390625 222.2265625 C56.42797108 226.15714065 60.49980444 230.463371 64.64453125 234.68359375 C68.72520873 238.80903186 72.88795807 242.75136072 77.29858398 246.5234375 C78.76639546 247.79726787 80.17139213 249.14282159 81.5625 250.5 C83.98267437 252.28690025 83.98267437 252.28690025 87.23828125 251.97265625 C92.0984962 250.71596516 94.21890105 248.47377146 97.625 244.9375 C112.07359186 230.79677817 127.9278544 224.7050181 148.03662109 224.61279297 C166.27097721 224.90652287 179.51866514 233.46005615 192.80078125 245.1953125 C197.85244887 250.12120504 197.85244887 250.12120504 204.25 252.3125 C208.9200036 250.67799874 211.20412666 248.22773205 214.49609375 244.6171875 C216.51922595 242.50252514 218.54036671 240.62823625 220.75390625 238.7265625 C225.22689156 234.86426459 229.36099741 230.71439426 233.5 226.5 C238.18327224 221.73142226 242.91966352 217.15024034 247.98632812 212.79101562 C251.65489554 209.52809 255.06112599 206.00151288 258.5 202.5 C262.51150578 198.4154249 266.50482795 194.36754542 270.84765625 190.6328125 C276.09984969 186.10876112 281.01207518 181.24922498 285.9375 176.375 C286.41743408 175.90964844 286.89736816 175.44429687 287.3918457 174.96484375 C288.80083825 173.59843261 290.19556139 172.21735565 291.58984375 170.8359375 C292.41347412 170.02688965 293.23710449 169.2178418 294.08569336 168.38427734 C296.13503907 165.83180824 296.67139241 164.21885256 297 161 C296.34 160.67 295.68 160.34 295 160 C296.11375 159.731875 297.2275 159.46375 298.375 159.1875 C302.21840951 158.34190981 302.21840951 158.34190981 304 155 C304.32921736 152.23084856 304.32921736 152.23084856 304.31884766 149.05981445 C304.33871735 147.83877518 304.35858704 146.6177359 304.37905884 145.35969543 C304.39061005 144.04087875 304.40216125 142.72206207 304.4140625 141.36328125 C304.43277347 139.99992194 304.45234683 138.63657421 304.4727478 137.27323914 C304.52408284 133.68780345 304.56370099 130.10233022 304.60089111 126.51672363 C304.64092231 122.85675762 304.69201865 119.19694799 304.7421875 115.53710938 C304.83896295 108.3581802 304.92336232 101.17917539 305 94 C308.82859222 95.78327312 311.53100098 98.20850035 314.5 101.1640625 C315.01755859 101.67496429 315.53511719 102.18586609 316.06835938 102.71224976 C317.1601791 103.79396538 318.24931903 104.87839169 319.3359375 105.96533203 C320.98413289 107.6091748 322.64761386 109.23636793 324.3125 110.86328125 C331.92751182 118.39737421 338.03373937 125.30937361 338.3125 136.5625 C338.100059 149.20273977 331.69908995 156.58239523 323 165 C320.65566299 167.16726065 318.27541777 169.28239503 315.87109375 171.3828125 C311.38038289 175.47638566 307.13991004 179.81759685 302.8840332 184.15332031 C299.69667942 187.38168564 296.47879013 190.50125048 293.0390625 193.4609375 C288.63351076 197.2566054 284.57271087 201.35310496 280.5 205.5 C275.81672776 210.26857774 271.08033648 214.84975966 266.01367188 219.20898438 C262.34510446 222.47191 258.93887401 225.99848712 255.5 229.5 C250.8066805 234.27880802 246.06008022 238.87155094 240.98242188 243.24023438 C237.49728173 246.33394006 234.26192574 249.67436478 231 253 C226.44106214 257.64797961 221.81259409 262.09875244 216.87890625 266.34814453 C214.13287333 268.76234135 211.56084753 271.32976371 209 273.9375 C208.51144531 274.43056641 208.02289063 274.92363281 207.51953125 275.43164062 C206.34396475 276.61873229 205.17161174 277.80900498 204 279 C200.18728209 275.82273508 196.54483529 272.600001 193.0625 269.0625 C189.87210457 265.82923937 186.57819 262.8004026 183.12109375 259.85546875 C181.5980764 258.52317917 180.11507415 257.14462092 178.66015625 255.73828125 C167.9469909 245.49899999 155.88630303 241.3847165 141.14453125 241.6875 C126.17047185 243.17560528 115.84657293 250.67636806 105.8046875 261.12109375 C103.06808896 263.96463352 100.16099265 266.52437593 97.140625 269.0625 C95.3357248 270.6961323 93.66292882 272.36532648 91.984375 274.125 C91.45070313 274.67994141 90.91703125 275.23488281 90.3671875 275.80664062 C89.3040338 276.91987041 88.25152788 278.04338522 87.2109375 279.17773438 C83.57281486 282.97466396 83.57281486 282.97466396 80.96875 283.08984375 C78.32255228 281.6249843 76.07896168 279.99989648 73.75 278.0625 C72.41195312 276.99708984 72.41195312 276.99708984 71.046875 275.91015625 C68.68680019 272.55470638 68.94912259 272.30110631 69.484375 268.5078125 C69.67531046 264.51629924 69.11631885 263.15898976 66.70996094 259.86987305 C63.48503547 256.3333505 59.99657131 253.07643277 56.5 249.8125 C55.31286896 248.66702552 54.12794995 247.51925391 52.9453125 246.36914062 C47.70684005 241.30327762 42.36271248 236.39194707 36.83789062 231.6394043 C32.47408575 227.74687643 28.4510038 223.48654121 24.35546875 219.31640625 C21.02748794 215.95192108 17.68726995 212.6749408 14.09375 209.59375 C13.48509787 209.0494805 12.87644573 208.50521099 12.24934959 207.94444847 C10.00162439 205.94866389 10.00162439 205.94866389 7.452631 204.13399696 C3.21502788 200.65858255 -0.01949543 197.49819199 -0.90642166 191.96033859 C-1.35997073 186.93329421 -1.23835938 181.91297092 -1.13525391 176.87255859 C-1.13218702 174.90893057 -1.13353153 172.94529153 -1.13890648 170.98166847 C-1.14115549 165.74363039 -1.08339103 160.50789713 -1.01280212 155.270401 C-0.95566219 150.34792171 -0.95316117 145.42599032 -0.94604492 140.50317383 C-0.89366429 126.12681301 -0.75405147 111.75087701 -0.625 97.375 C-0.41875 65.24125 -0.2125 33.1075 0 0 Z " fill="#F4E5C3" transform="translate(111,63)"/>
<path d="M0 0 C0.80525352 0.73203022 0.80525352 0.73203022 1.62677479 1.47884893 C4.6266392 3.40165294 6.42330303 3.36209434 9.97160339 3.33841705 C11.20180584 3.33760651 12.43200829 3.33679597 13.69948959 3.33596087 C15.06683388 3.31980114 16.43417518 3.30338603 17.80151367 3.28674316 C19.25246275 3.280176 20.70341848 3.27496354 22.15437698 3.2709918 C25.31265477 3.2593909 28.47067365 3.2381294 31.62884331 3.20957565 C36.76741403 3.16312399 41.90597307 3.13724783 47.04469299 3.11380005 C54.50662831 3.0778173 61.96845187 3.03208409 69.43029785 2.98097229 C81.2291769 2.90122323 93.02807861 2.85486773 104.82714844 2.81433105 C108.86416667 2.80008004 112.90118431 2.78566338 116.9382019 2.7712326 C118.45164281 2.76584567 118.45164281 2.76584567 119.99565828 2.7603499 C131.48394267 2.7191301 142.97220082 2.67229651 154.46044922 2.62207031 C155.5107265 2.61748839 156.56100379 2.61290647 157.64310765 2.60818571 C174.65158157 2.5329836 191.65976477 2.42760893 208.66801751 2.31372577 C226.13360949 2.1977784 243.59904863 2.12411674 261.06498623 2.08703756 C271.83560899 2.06264261 282.60494385 2.0039506 293.37510699 1.90097934 C300.7614726 1.83331243 308.1473009 1.8059611 315.53397256 1.81002444 C319.79343549 1.81111474 324.05084072 1.79441321 328.30984688 1.72911453 C332.2157077 1.6695976 336.11827526 1.6617122 340.02442896 1.69347399 C341.43107092 1.69602483 342.83790302 1.68020126 344.24406374 1.64332134 C351.63315298 1.46020487 356.69552904 2.15008872 362.29234242 7.02613899 C364.64157451 9.26253602 366.8415136 11.57850517 369 14 C368.64049807 16.60638901 368.18216149 17.81129869 366.33359575 19.7262302 C363.28807247 21.38859849 361.12930341 21.37717459 357.66246796 21.38031673 C355.69481185 21.39297665 355.69481185 21.39297665 353.68740511 21.40589231 C352.22808503 21.40009682 350.76876607 21.39401577 349.30944824 21.38768005 C347.76204271 21.39185127 346.21464024 21.39732762 344.66724348 21.40399987 C340.40835251 21.41850092 336.14965429 21.41419529 331.89075255 21.40683305 C327.30036441 21.40211521 322.71001881 21.41459888 318.11964417 21.42485046 C309.1244414 21.44207058 300.12930838 21.44287189 291.1340934 21.43763756 C283.8253859 21.43360088 276.51669906 21.43503343 269.20799255 21.44038582 C267.64939713 21.44150845 267.64939713 21.44150845 266.05931494 21.44265376 C263.94866899 21.44418519 261.83802305 21.44572354 259.72737712 21.44726873 C239.92233522 21.4610052 220.1173328 21.45554785 200.3122918 21.44408352 C182.17983567 21.43414815 164.04748154 21.44709503 145.91504115 21.47101771 C127.3103604 21.49537911 108.70572721 21.50502399 90.10103083 21.49836498 C79.65036713 21.4948664 69.19978192 21.49714695 58.74913025 21.51461601 C49.85346834 21.52930097 40.95794019 21.53002206 32.06228101 21.5125451 C27.52102631 21.50400237 22.98001093 21.50196492 18.43876839 21.51719666 C14.28497851 21.53095675 10.13163495 21.52639361 5.97787148 21.50695742 C4.47187466 21.50317025 2.96584282 21.50619683 1.45987695 21.51656907 C-0.58086986 21.52962971 -2.62173647 21.51583942 -4.66246796 21.50057125 C-5.79794178 21.50046391 -6.93341559 21.50035658 -8.10329771 21.50024599 C-11.63667459 20.89004949 -12.83509486 19.80423679 -15 17 C-15.12109375 15.1015625 -15.12109375 15.1015625 -14 13 C-12.06270647 11.00849649 -10.15157822 9.18990187 -8.0625 7.375 C-6.96990839 6.40380746 -5.8774549 5.43245951 -4.78515625 4.4609375 C-3.86605469 3.64882813 -2.94695312 2.83671875 -2 2 C-1.34 1.34 -0.68 0.68 0 0 Z " fill="#FED064" transform="translate(79,476)"/>
<path d="M0 0 C2.31 1.98 4.62 3.96 7 6 C8.00346403 6.68650289 9.00692806 7.37300577 10.04080009 8.08031178 C14.58391429 11.41541603 17.99668064 14.4466672 19.01416397 20.13121605 C19.56201481 25.32069689 19.46915216 30.50499852 19.39501953 35.71557617 C19.40662459 37.71242342 19.42285706 39.7092483 19.44334412 41.70602417 C19.48372091 47.11005009 19.45403421 52.51153472 19.40737772 57.91542983 C19.37448553 62.43786705 19.37540053 66.96004856 19.37599552 71.48258573 C19.37659837 82.16094729 19.31972496 92.83794441 19.2265625 103.51586914 C19.13167217 114.50251326 19.13152685 125.48624299 19.17872727 136.47311991 C19.21608957 145.93045615 19.19505373 155.38645062 19.12773407 164.84362012 C19.08811812 170.48126734 19.06977662 176.11682957 19.10736465 181.75453758 C19.1401334 187.06308211 19.09937844 192.36627867 19.00424385 197.67402267 C18.98136646 199.61072944 18.98339237 201.54793306 19.01349831 203.48454094 C19.15188559 213.38259792 18.56645922 220.27220192 11.59442604 227.74049407 C3.08968232 236 3.08968232 236 0 236 C0 158.12 0 80.24 0 0 Z " fill="#FCC067" transform="translate(63,234)"/>
<path d="M0 0 C37.62 0 75.24 0 114 0 C114 27 114 27 109 33 C106.77452087 33.75504684 106.77452087 33.75504684 104.48413086 33.76190186 C103.60941132 33.7788208 102.73469177 33.79573975 101.83346558 33.81317139 C100.88682037 33.801026 99.94017517 33.78888062 98.96484375 33.77636719 C97.45423874 33.79213806 97.45423874 33.79213806 95.91311646 33.80822754 C92.58727812 33.8346158 89.26335747 33.81715932 85.9375 33.796875 C83.62491488 33.80091691 81.31233225 33.80674014 78.99975586 33.81427002 C74.15421262 33.82311498 69.30933323 33.81026096 64.46386719 33.78222656 C58.25248883 33.74804109 52.04266588 33.76772452 45.8313446 33.80366135 C41.05631794 33.82534217 36.28166009 33.81844238 31.50662231 33.80289459 C29.21647966 33.79889191 26.92630352 33.80380463 24.63619995 33.81777191 C21.43494987 33.83301143 18.23621865 33.80978661 15.03515625 33.77636719 C13.61518845 33.79458527 13.61518845 33.79458527 12.16653442 33.81317139 C11.29181488 33.79625244 10.41709534 33.7793335 9.51586914 33.76190186 C8.76004044 33.7596397 8.00421173 33.75737755 7.22547913 33.75504684 C5 33 5 33 0 27 C0 18.09 0 9.18 0 0 Z " fill="#E1626C" transform="translate(199,151)"/>
<path d="M0 0 C1.24494232 -0.0112793 2.48988464 -0.02255859 3.77255249 -0.03417969 C5.14435048 -0.02640319 6.51614617 -0.01821056 7.88793945 -0.00964355 C9.33868105 -0.01506618 10.78941714 -0.02218964 12.24014282 -0.03088379 C16.1740789 -0.04910364 20.10759491 -0.04205537 24.04153824 -0.02936745 C28.16051608 -0.01923275 32.27945823 -0.02863443 36.3984375 -0.03491211 C43.31525116 -0.04218716 50.23189393 -0.03260461 57.14868164 -0.0135498 C65.14281377 0.00821876 73.13653782 0.00116729 81.13066006 -0.02085543 C87.99705972 -0.03901354 94.86333662 -0.04156577 101.72975254 -0.03110075 C105.82953644 -0.02486804 109.9291286 -0.02402395 114.02890015 -0.0372467 C117.88353938 -0.04881068 121.73765305 -0.04077006 125.59223557 -0.01766968 C127.00595604 -0.01238543 128.41972083 -0.0138916 129.83342361 -0.02272034 C131.7647467 -0.03366869 133.69616656 -0.01749754 135.62744141 0 C137.24789116 0.00226215 137.24789116 0.00226215 138.90107727 0.00457001 C142.53997089 0.63344551 144.20750575 1.93509708 146.8137207 4.50793457 C147.8762207 7.44543457 147.8762207 7.44543457 147.8137207 10.50793457 C146.19885254 13.15965843 146.19885254 13.15965843 143.8137207 15.50793457 C140.9588623 16.13714027 140.9588623 16.13714027 137.58911133 16.14285278 C135.67110718 16.16400146 135.67110718 16.16400146 133.71435547 16.18557739 C132.29955701 16.1758561 130.88476204 16.16561527 129.4699707 16.15490723 C127.978342 16.16168323 126.48672166 16.17058628 124.99511719 16.18145752 C120.94541939 16.20426004 116.89635816 16.195411 112.84664917 16.17956209 C108.60974403 16.16690785 104.37289359 16.17864187 100.13598633 16.18649292 C93.02065235 16.19559091 85.9055778 16.18359779 78.7902832 16.15979004 C70.56261657 16.13257831 62.33556941 16.14139238 54.10791779 16.16892207 C47.04535874 16.19160801 39.98298624 16.1948158 32.92040253 16.18172872 C28.70155177 16.17393131 24.48299223 16.17290038 20.26416016 16.18941116 C16.29781074 16.2038494 12.33226035 16.19384714 8.36599731 16.16493988 C6.90993578 16.15832544 5.45380707 16.160233 3.99777222 16.1712532 C2.01131584 16.18490244 0.0247126 16.16475543 -1.96166992 16.14285278 C-3.62969666 16.14002509 -3.62969666 16.14002509 -5.3314209 16.13714027 C-8.1862793 15.50793457 -8.1862793 15.50793457 -10.57141113 13.15965843 C-12.1862793 10.50793457 -12.1862793 10.50793457 -12.2487793 7.44543457 C-10.09614889 1.49404462 -5.99652815 0.00837117 0 0 Z " fill="#080706" transform="translate(188.186279296875,223.4920654296875)"/>
<path d="M0 0 C3.82859222 1.78327312 6.53100098 4.20850035 9.5 7.1640625 C10.27633789 7.93041519 10.27633789 7.93041519 11.06835938 8.71224976 C12.1601791 9.79396538 13.24931903 10.87839169 14.3359375 11.96533203 C15.98413289 13.6091748 17.64761386 15.23636793 19.3125 16.86328125 C26.92751182 24.39737421 33.03373937 31.30937361 33.3125 42.5625 C33.10005337 55.20307475 26.69858409 62.58201539 18 71 C15.64327405 73.18130622 13.25184653 75.31088913 10.83203125 77.421875 C6.36237563 81.49080288 2.14703614 85.81219457 -2.08691406 90.12426758 C-2.70920898 90.75486084 -3.33150391 91.3854541 -3.97265625 92.03515625 C-4.81195679 92.89185913 -4.81195679 92.89185913 -5.66821289 93.76586914 C-7 95 -7 95 -8 95 C-8 85.76 -8 76.52 -8 67 C-8.66 66.67 -9.32 66.34 -10 66 C-8.329375 65.5978125 -8.329375 65.5978125 -6.625 65.1875 C-2.78159049 64.34190981 -2.78159049 64.34190981 -1 61 C-0.67078264 58.23084856 -0.67078264 58.23084856 -0.68115234 55.05981445 C-0.66128265 53.83877518 -0.64141296 52.6177359 -0.62094116 51.35969543 C-0.60938995 50.04087875 -0.59783875 48.72206207 -0.5859375 47.36328125 C-0.56722653 45.99992194 -0.54765317 44.63657421 -0.5272522 43.27323914 C-0.47591716 39.68780345 -0.43629901 36.10233022 -0.39910889 32.51672363 C-0.35907769 28.85675762 -0.30798135 25.19694799 -0.2578125 21.53710938 C-0.16103705 14.3581802 -0.07663768 7.17917539 0 0 Z " fill="#FCA75E" transform="translate(416,157)"/>
<path d="M0 0 C5.71509382 3.45796533 10.27568151 8.1404567 14.91796875 12.88745117 C18.20994187 16.25126379 21.61721036 19.37316276 25.24609375 22.3671875 C27 24 27 24 31 29 C-0.02 29 -31.04 29 -63 29 C-58.96788791 24.29586922 -55.12519791 20.08954932 -50.5625 16 C-47.00090046 12.77291256 -43.49918195 9.54968583 -40.1875 6.0625 C-29.26287447 -5.02437245 -13.74098775 -7.58369393 0 0 Z " fill="#FCA75E" transform="translate(272,19)"/>
<path d="M0 0 C1.009487 -0.00845947 2.018974 -0.01691895 3.05905151 -0.02563477 C4.718936 -0.01652573 4.718936 -0.01652573 6.41235352 -0.00723267 C7.57840118 -0.01248962 8.74444885 -0.01774658 9.9458313 -0.02316284 C13.81110925 -0.03639716 17.67597742 -0.02761225 21.54125977 -0.01748657 C24.22022009 -0.01950631 26.89916783 -0.02241203 29.578125 -0.02618408 C35.19706689 -0.03164328 40.81589052 -0.02444581 46.43481445 -0.01016235 C52.93269166 0.00616459 59.43028649 0.00087619 65.92815685 -0.01564157 C71.50531273 -0.02925185 77.08238355 -0.03117838 82.65955067 -0.02332556 C85.9913405 -0.01864647 89.32296834 -0.01920692 92.65475464 -0.02793503 C96.36842115 -0.03552781 100.08154041 -0.02397501 103.79516602 -0.00723267 C104.90175568 -0.01330536 106.00834534 -0.01937805 107.14846802 -0.02563477 C108.15795502 -0.01717529 109.16744202 -0.00871582 110.20751953 0 C111.08577896 0.00113108 111.96403839 0.00226215 112.86891174 0.00342751 C115.61849139 0.46790236 116.49708496 1.12248553 118.10375977 3.38095093 C118.81155953 8.95487409 118.81155953 8.95487409 118.10375977 11.38095093 C115.92077783 13.86484915 114.11047656 15.21777978 110.80593872 15.75338745 C107.85307432 15.90303781 104.92368643 15.92113815 101.96704102 15.89852905 C100.84292816 15.90553833 99.71881531 15.91254761 98.56063843 15.91976929 C94.84559412 15.93737148 91.1313118 15.9257178 87.41625977 15.91220093 C84.83463393 15.91489518 82.25300908 15.91877704 79.67138672 15.92379761 C74.26104129 15.92969572 68.85098214 15.9215011 63.44067383 15.9024353 C57.19151317 15.88066729 50.94287456 15.88771908 44.69372654 15.90974092 C38.67459989 15.93010071 32.65572803 15.92791966 26.63656616 15.91621399 C24.0784803 15.9135443 21.52038112 15.9168249 18.96231079 15.9261322 C15.3880069 15.93628274 11.81470753 15.92081575 8.24047852 15.89852905 C7.18162445 15.90662598 6.12277039 15.9147229 5.03182983 15.92306519 C0.52975884 15.87101973 -2.13918894 15.83752793 -6.05517578 13.47579956 C-8.06778679 11.18575729 -8.53500849 10.31931436 -8.39624023 7.31845093 C-7.89624023 3.38095093 -7.89624023 3.38095093 -6.67100525 1.65866661 C-4.32829684 -0.02793148 -2.87543167 0.00370316 0 0 Z " fill="#070706" transform="translate(200.896240234375,264.6190490722656)"/>
<path d="M0 0 C0 28.71 0 57.42 0 87 C-7.77535101 80.33541342 -7.77535101 80.33541342 -11.4375 76.5625 C-14.25234532 73.69978316 -17.10774653 71.01179774 -20.1875 68.4375 C-27.1535004 62.41510125 -32.28531636 55.44979931 -33.31640625 46.14453125 C-33.71761771 35.93305239 -30.75313911 29.72818351 -24.08862305 22.25634766 C-20.22795238 18.08565001 -16.2149459 14.07137198 -12.1875 10.0625 C-11.32962891 9.20076172 -10.47175781 8.33902344 -9.58789062 7.45117188 C-8.76869141 6.63326172 -7.94949219 5.81535156 -7.10546875 4.97265625 C-6.36449951 4.23281494 -5.62353027 3.49297363 -4.86010742 2.73071289 C-1.92523628 0 -1.92523628 0 0 0 Z " fill="#FCA75E" transform="translate(96,157)"/>
<path d="M0 0 C0.81417892 0.00707474 1.62835785 0.01414948 2.46720886 0.0214386 C5.05591518 0.04932527 7.64242148 0.11204809 10.23046875 0.17578125 C11.99020303 0.20087175 13.74997138 0.22368361 15.50976562 0.24414062 C19.81334171 0.29913253 24.11528285 0.38536133 28.41796875 0.48828125 C26.9505024 3.51458449 25.2862543 6.09010549 23.29296875 8.80078125 C21.41730841 11.64900621 20.41315383 13.50828168 19.60546875 16.86328125 C20.68741145 21.69041023 23.08271495 25.09927529 25.88671875 29.1328125 C27.41796875 31.48828125 27.41796875 31.48828125 27.41796875 33.48828125 C19.16796875 33.48828125 10.91796875 33.48828125 2.41796875 33.48828125 C2.08796875 30.18828125 1.75796875 26.88828125 1.41796875 23.48828125 C-0.33203125 20.23828125 -0.33203125 20.23828125 -3.58203125 18.48828125 C-6.91839285 17.81488717 -10.18278734 17.56088646 -13.58203125 17.48828125 C-13.71795146 15.59445961 -13.81444065 13.69778421 -13.89453125 11.80078125 C-13.95253906 10.74503906 -14.01054687 9.68929687 -14.0703125 8.6015625 C-12.80320785 0.52250327 -6.87229872 -0.22634866 0 0 Z " fill="#FA7D83" transform="translate(325.58203125,118.51171875)"/>
<path d="M0 0 C5.03536777 -0.07432418 10.07041408 -0.12868401 15.10620117 -0.16479492 C16.81817184 -0.1798534 18.53010411 -0.20030455 20.24194336 -0.22631836 C22.70696505 -0.2628319 25.17147535 -0.27975562 27.63671875 -0.29296875 C28.77919319 -0.31619453 28.77919319 -0.31619453 29.94474792 -0.33988953 C34.481983 -0.34131672 37.40386417 0.16742431 41 3 C42.38226016 5.76452033 42.09525387 8.0461363 42.0625 11.125 C42.05347656 12.22070312 42.04445312 13.31640625 42.03515625 14.4453125 C42.02355469 15.28835937 42.01195312 16.13140625 42 17 C41.33613281 17.01417969 40.67226562 17.02835938 39.98828125 17.04296875 C35.6089129 17.27951857 32.69586818 17.55975686 28.9375 19.9375 C26.16458517 23.81449996 26.16458517 23.81449996 26 33 C17.75 33 9.5 33 1 33 C2.46091053 29.34772368 3.46542189 27.16861593 5.625 24.125 C8.10644394 20.12339221 9.05229864 17.77581692 8 13 C6.06448438 9.97706888 3.98266636 7.16568248 1.75 4.35546875 C0 2 0 2 0 0 Z " fill="#FA7D83" transform="translate(158,119)"/>
</svg>
