<?xml version="1.0" encoding="UTF-8"?>
<svg version="1.1" xmlns="http://www.w3.org/2000/svg" width="512" height="512">
<path d="M0 0 C1.1563192 -0.00467997 2.31263839 -0.00935994 3.50399756 -0.01418173 C7.3398417 -0.02605199 11.17532328 -0.0167057 15.01116943 -0.00723267 C17.7767815 -0.00965299 20.54237864 -0.01653795 23.3079834 -0.02316284 C30.0156089 -0.03644466 36.72313323 -0.03364786 43.43076256 -0.02492492 C48.88375885 -0.01812905 54.33672694 -0.01723984 59.78972626 -0.02049637 C60.56801825 -0.02095607 61.34631025 -0.02141577 62.14818685 -0.0218894 C63.72958933 -0.02284863 65.31099181 -0.02382128 66.89239427 -0.02480717 C81.69073603 -0.0333442 96.48902186 -0.02355231 111.28735444 -0.00740607 C123.97266446 0.00600618 136.65789214 0.00365829 149.34320068 -0.01016235 C164.09750337 -0.02622978 178.85175721 -0.0325315 193.60606742 -0.02332556 C195.18018579 -0.02236997 196.75430416 -0.02142686 198.32842255 -0.02049637 C199.48998932 -0.01980213 199.48998932 -0.01980213 200.67502208 -0.01909386 C206.12068354 -0.01650825 211.56631388 -0.02086548 217.01197052 -0.02793503 C223.64918091 -0.0363627 230.28628491 -0.03404288 236.92348316 -0.0180928 C240.30698442 -0.01022859 243.69016229 -0.0087117 247.07368469 -0.01704025 C250.74623956 -0.02524654 254.41829707 -0.01494445 258.09082031 0 C259.1529846 -0.00669217 260.21514889 -0.01338433 261.30949998 -0.02027929 C272.69274264 0.06947285 280.69685717 3.25956196 288.79144287 11.38095093 C301.43133772 27.54264854 303.62905104 46.29352664 301.36175537 66.14266968 C298.87511869 78.62190192 293.01057805 90.54184235 282.79144287 98.38095093 C275.52658572 102.93520428 269.08791015 104.52103245 260.51800537 104.47860718 C259.36429443 104.47538452 258.2105835 104.47216187 257.02191162 104.46884155 C255.83210693 104.46046265 254.64230225 104.45208374 253.41644287 104.44345093 C252.20343506 104.43893921 250.99042725 104.43442749 249.74066162 104.42977905 C246.75753781 104.41803447 243.77451608 104.40160933 240.79144287 104.38095093 C241.43518448 108.77709323 242.08180034 113.17280808 242.72894287 117.56845093 C242.91134521 118.81432983 243.09374756 120.06020874 243.28167725 121.34384155 C243.45892334 122.54589233 243.63616943 123.74794312 243.81878662 124.98641968 C244.06229858 126.64387207 244.06229858 126.64387207 244.31072998 128.33480835 C244.6130465 130.2505032 244.95013864 132.16135321 245.33660889 134.06185913 C246.19541138 138.44069157 246.37105902 142.07681459 244.54144287 146.19345093 C242.66135736 148.54355782 241.5533904 149.28809399 238.79144287 150.38095093 C236.57269287 150.53329468 236.57269287 150.53329468 234.29144287 150.31845093 C233.53863037 150.26559937 232.78581787 150.2127478 232.01019287 150.15829468 C228.66188146 148.9852067 227.64518396 147.39230248 225.79144287 144.38095093 C224.79781494 141.40636062 224.22256353 138.40129369 223.66644287 135.31845093 C223.51046631 134.5546814 223.35448975 133.79091187 223.19378662 133.0039978 C221.98899734 126.70623567 221.35230387 120.37226082 220.7333374 113.99642944 C220.64214127 113.07028084 220.55094513 112.14413223 220.45698547 111.18991852 C220.23371499 108.92039828 220.01190647 106.65074526 219.79144287 104.38095093 C218.19730529 104.385099 218.19730529 104.385099 216.57096291 104.38933086 C190.69734997 104.45596514 164.82374818 104.50524514 138.95006752 104.53638744 C126.43768894 104.55184838 113.92536708 104.57292321 101.4130249 104.60726929 C90.50574371 104.63719521 79.5985036 104.65653155 68.69118249 104.66321641 C62.91723504 104.66712323 57.14340513 104.67628888 51.36949539 104.6981411 C45.93095994 104.71855659 40.49259006 104.72477445 35.05401993 104.72027397 C33.06186523 104.7210969 31.06970479 104.72703224 29.07758331 104.73856735 C14.30514279 104.81988408 2.69872473 104.11438422 -8.85699463 93.92782593 C-16.34053447 86.08792705 -22.13253632 73.67988921 -22.23199463 62.82235718 C-21.80905299 55.33183808 -19.212143 51.04615563 -13.64605713 46.06845093 C-8.93996494 42.0750854 -4.55367903 42.24564364 1.39691162 42.28329468 C2.23611649 42.28470963 3.07532135 42.28612457 3.93995667 42.2875824 C6.61965503 42.29317878 9.29926977 42.30573058 11.97894287 42.31845093 C13.79599896 42.3234664 15.61305635 42.32802922 17.43011475 42.3321228 C21.883923 42.34314702 26.33766876 42.36040915 30.79144287 42.38095093 C30.01612147 40.28890045 29.23345596 38.19957073 28.44769287 36.11141968 C27.79510498 34.36574707 27.79510498 34.36574707 27.1293335 32.58480835 C25.18157339 27.92049159 23.15751067 24.5247443 18.45819092 22.25302124 C15.68416261 21.34586852 13.5327676 21.12283724 10.62347412 21.11532593 C9.64700928 21.1127478 8.67054443 21.11016968 7.66448975 21.10751343 C6.14951904 21.11911499 6.14951904 21.11911499 4.60394287 21.13095093 C3.61329834 21.12321655 2.62265381 21.11548218 1.60198975 21.10751343 C-12.14116515 21.14356105 -25.06686608 24.4817823 -35.58355713 33.81845093 C-44.30770658 43.51611062 -48.66597241 56.84424606 -51.20855713 69.38095093 C-51.3837085 70.24188354 -51.55885986 71.10281616 -51.73931885 71.98983765 C-53.23847018 80.01517854 -53.59487455 87.85226229 -53.58355713 96.00595093 C-53.58301331 96.67636414 -53.58246948 97.34677734 -53.58190918 98.0375061 C-53.48167412 125.21403752 -46.90022055 151.42582631 -39.12261963 177.31845093 C-38.93047316 177.9590168 -38.73832668 178.59958267 -38.54035759 179.25955963 C-34.49415728 192.71673448 -30.06361831 206.03665372 -25.55239868 219.34475708 C0.85183267 297.36574852 0.85183267 297.36574852 5.79144287 336.38095093 C5.97448975 337.68677124 6.15753662 338.99259155 6.34613037 340.33798218 C8.38802547 359.34472429 8.43768548 380.80015502 3.79144287 399.38095093 C3.59276611 400.18452026 3.39408936 400.9880896 3.18939209 401.81600952 C-0.40404565 415.84791283 -5.678053 428.98315356 -13.20855713 441.38095093 C17.90909343 441.44947275 49.02672393 441.50252326 80.14443208 441.53414692 C83.82291171 441.53789878 87.5013912 441.54178177 91.17987061 441.54574585 C91.9121518 441.54653278 92.644433 441.54731971 93.39890454 441.54813049 C105.23682199 441.56116416 117.07469547 441.5848067 128.91258689 441.61240932 C141.07045034 441.64052039 153.22829085 441.65713921 165.38618547 441.66321641 C172.88084692 441.66732106 180.37538408 441.68025836 187.87000725 441.70470033 C193.62878634 441.72251805 199.38748679 441.72430221 205.14628792 441.72027397 C207.50000648 441.72109618 209.85372996 441.72702177 212.20742035 441.73856735 C231.03021639 441.82633433 247.41867742 441.31272191 262.04144287 427.88095093 C280.11814933 408.54374513 280.42694353 379.01147305 279.93206787 354.14706421 C279.41366802 340.26366828 277.1567948 326.48269222 273.97406006 312.97250366 C272.80189985 307.74204688 272.74567404 303.66150892 273.79144287 298.38095093 C275.97536385 295.10506946 277.36256276 294.50008429 281.16644287 293.44345093 C285.40806325 293.37031954 287.33218828 293.94374883 290.79144287 296.38095093 C294.3763376 301.95745384 295.17728303 308.28306751 296.35394287 314.69345093 C296.66621826 316.29930054 296.66621826 316.29930054 296.98480225 317.93759155 C299.91435096 333.48532186 301.20475786 348.75906675 301.16644287 364.56845093 C301.16562714 365.84513641 301.16562714 365.84513641 301.16479492 367.14761353 C301.08552362 394.21337415 296.73655899 422.5419446 277.36566162 442.99813843 C262.26283219 456.97799571 243.95874115 462.87453975 223.57131958 462.76863098 C222.3061556 462.77401652 221.04099162 462.77940206 219.73748934 462.78495079 C216.26493552 462.7992723 212.7926217 462.795203 209.32005548 462.78778398 C205.55996189 462.78302147 201.79991796 462.79558895 198.0398407 462.80580139 C190.68986038 462.82293273 183.33996576 462.82384151 175.98997067 462.81858849 C170.01401243 462.81453621 164.03807939 462.81600286 158.06212234 462.82133675 C157.20947304 462.82208517 156.35682374 462.82283359 155.47833658 462.82360469 C153.74586656 462.82513626 152.01339655 462.82667461 150.28092654 462.82821966 C134.06281892 462.84192331 117.84475965 462.83652126 101.62665315 462.82503445 C86.80388443 462.81509659 71.98124043 462.82805607 57.15849094 462.85196864 C41.91527602 462.87637322 26.67211916 462.88596465 11.4288851 462.87931591 C2.88010822 462.87582771 -5.66857269 462.87802981 -14.21733475 462.89556694 C-21.49167177 462.9103056 -28.76584516 462.91090227 -36.04017903 462.89349603 C-39.7479725 462.88499875 -43.45547384 462.88280518 -47.16325188 462.89814758 C-51.18987044 462.91460265 -55.21578769 462.89981414 -59.24240112 462.88215637 C-60.40379533 462.89176138 -61.56518955 462.90136639 -62.76177752 462.91126245 C-73.49281538 462.81466335 -82.34358332 460.25262057 -90.14215088 452.70516968 C-103.2037803 438.01392297 -104.99136285 421.03672527 -104.38775635 402.21981812 C-103.59149419 389.60546333 -98.32294459 376.29279644 -89.20855713 367.38095093 C-78.39376523 359.21362008 -69.38227994 358.06911772 -56.07965088 358.18563843 C-54.84940689 358.18846832 -53.6191629 358.19129822 -52.35163879 358.19421387 C-48.44967633 358.20534545 -44.54794939 358.23043735 -40.64605713 358.25595093 C-37.98915945 358.26712559 -35.33226398 358.27511403 -32.675354 358.28329468 C-26.18634232 358.3052618 -19.69746656 358.33866916 -13.20855713 358.38095093 C-18.7305011 311.09550026 -32.29398992 267.43993623 -47.20855713 222.38095093 C-74.68430956 139.34909701 -74.68430956 139.34909701 -74.58355713 97.25595093 C-74.58301331 96.39822083 -74.58246948 95.54049072 -74.58190918 94.6567688 C-74.54376056 81.55592098 -73.95345004 69.02244129 -70.20855713 56.38095093 C-69.98893311 55.62781616 -69.76930908 54.8746814 -69.54302979 54.09872437 C-63.48784605 34.0176267 -53.85726924 17.99456332 -35.07183838 7.65438843 C-23.76440504 2.11661046 -12.53910683 -0.07967193 0 0 Z M44.79144287 20.38095093 C45.13642822 21.31254028 45.48141357 22.24412964 45.83685303 23.20394897 C46.2885083 24.44185181 46.74016357 25.67975464 47.20550537 26.95516968 C47.8776709 28.78567871 47.8776709 28.78567871 48.56341553 30.65316772 C53.95686291 47.0254437 52.05793267 63.34010075 46.79144287 79.38095093 C46.45007642 80.71225023 46.11512116 82.04524091 45.79144287 83.38095093 C74.61567985 83.52107859 103.43986581 83.62690141 132.26437473 83.69182396 C134.92810145 83.69798297 137.59182794 83.704191 140.2555542 83.71054077 C140.91763451 83.71211463 141.57971481 83.7136885 142.26185816 83.71531005 C152.31290882 83.73978828 162.36378909 83.78191322 172.41473389 83.83358765 C184.07899314 83.89336874 195.74309917 83.93209524 207.40750736 83.9454819 C213.58447702 83.95330771 219.76100835 83.97171485 225.9378376 84.01533127 C231.75157792 84.05605127 237.56469927 84.06862087 243.37856865 84.05959702 C245.51230101 84.0612479 247.64605403 84.073186 249.77966309 84.09618378 C252.69442925 84.12606084 255.60686202 84.11885336 258.52168274 84.10247803 C259.78678369 84.1286936 259.78678369 84.1286936 261.07744223 84.15543878 C266.59973036 84.07163978 269.42353856 82.7255323 273.41938061 78.9080292 C280.60336506 70.91239603 282.25246993 59.85555987 282.04144287 49.50204468 C281.1355388 38.1923986 277.44465604 28.89558342 268.79144287 21.38095093 C264.86499076 20.07213356 261.1329418 20.24669183 257.04066467 20.26069641 C256.13563633 20.25984199 255.23060798 20.25898756 254.29815453 20.25810724 C251.25333558 20.25645484 248.20857123 20.26196994 245.16375732 20.26742554 C242.98600262 20.26770749 240.80824782 20.26754952 238.63049316 20.26698303 C232.70729772 20.26669536 226.78412239 20.27258725 220.86093163 20.27955699 C214.67494321 20.28579552 208.48895435 20.28639472 202.30296326 20.2875824 C190.58391512 20.29069423 178.86487628 20.29890565 167.14583224 20.30893189 C153.80623528 20.32017761 140.46663828 20.32560463 127.12703764 20.33062732 C99.68183423 20.34108837 72.23663907 20.35868497 44.79144287 20.38095093 Z M-1.20855713 62.38095093 C0.00235766 69.64643966 2.06129805 75.77778959 7.47894287 80.94345093 C11.22379801 83.27133385 13.32836643 83.81009289 17.79144287 83.38095093 C22.93048262 80.64193766 25.30003022 77.49766771 27.66644287 72.31845093 C27.97323975 71.69390015 28.28003662 71.06934937 28.59613037 70.4258728 C29.96406851 67.56480575 30.79144287 65.58847264 30.79144287 62.38095093 C20.23144287 62.38095093 9.67144287 62.38095093 -1.20855713 62.38095093 Z M-78.20855713 386.38095093 C-84.33345685 397.9298912 -86.21833616 410.38627109 -83.02105713 423.19345093 C-80.75089151 430.41961192 -77.80653044 437.21380989 -71.20855713 441.38095093 C-66.26417547 443.02907815 -61.15847517 442.87992142 -55.97662354 443.00570679 C-53.97812948 443.0678424 -51.98171476 443.18799449 -49.98590088 443.3086853 C-42.9698146 443.59001952 -42.9698146 443.59001952 -36.93707275 440.52792358 C-35.02682618 437.90264797 -33.61250696 435.30822922 -32.20855713 432.38095093 C-31.63331299 431.28097778 -31.05806885 430.18100464 -30.46539307 429.04769897 C-28.99023439 426.18176751 -27.57726512 423.29885588 -26.20855713 420.38095093 C-27.06086914 420.36636841 -27.91318115 420.35178589 -28.7913208 420.33676147 C-31.96926888 420.27551808 -35.14658259 420.20133064 -38.32403564 420.11849976 C-39.69631671 420.08535287 -41.06873075 420.05728922 -42.44122314 420.03451538 C-44.41993479 420.00078326 -46.39827089 419.94693602 -48.37652588 419.89266968 C-49.5652832 419.8664856 -50.75404053 419.84030151 -51.9788208 419.81332397 C-55.47372699 419.34545196 -57.39012791 418.45994191 -60.20855713 416.38095093 C-62.90990895 412.3330286 -62.98866668 408.08432986 -62.20855713 403.38095093 C-61.08746338 401.11141968 -61.08746338 401.11141968 -59.70855713 398.88095093 C-56.90693919 394.32036263 -56.26005737 390.65698082 -57.20855713 385.38095093 C-58.55602237 381.92748944 -58.55602237 381.92748944 -60.20855713 379.38095093 C-68.33895396 378.33133003 -73.18655995 379.70727468 -78.20855713 386.38095093 Z M-38.20855713 379.38095093 C-38.20855713 386.31095093 -38.20855713 393.24095093 -38.20855713 400.38095093 C-31.60855713 400.38095093 -25.00855713 400.38095093 -18.20855713 400.38095093 C-17.73418213 398.58657593 -17.25980713 396.79220093 -16.77105713 394.94345093 C-16.50422119 393.93411499 -16.23738525 392.92477905 -15.96246338 391.88485718 C-15.07715762 387.77024957 -14.67333825 383.563981 -14.20855713 379.38095093 C-22.12855713 379.38095093 -30.04855713 379.38095093 -38.20855713 379.38095093 Z " fill="#000000" transform="translate(128.20855712890625,24.619049072265625)"/>
<path d="M0 0 C1.18529297 -0.020625 2.37058594 -0.04125 3.59179688 -0.0625 C10.21480528 -0.09188662 16.75758807 -0.06379962 22.6875 3.25 C25.00542989 6.72689484 25.41589921 8.56495239 25.31640625 12.6640625 C23.96246633 18.23119436 19.50109255 22.16968297 15.6875 26.25 C14.06120211 28.01964145 12.43620331 29.79047764 10.8125 31.5625 C9.97976563 32.46871094 9.14703125 33.37492187 8.2890625 34.30859375 C3.48490432 39.74032214 -0.89599346 45.50238334 -5.3125 51.25 C-6.21452752 52.41691118 -7.11686721 53.58358113 -8.01953125 54.75 C-8.88817782 55.87487879 -9.75667099 56.99987606 -10.625 58.125 C-11.04031982 58.66213623 -11.45563965 59.19927246 -11.88354492 59.75268555 C-14.20448988 62.76658966 -16.43079456 65.83090812 -18.625 68.9375 C-21.76766919 73.12772559 -24.54625493 73.91674621 -29.625 74.875 C-30.511875 74.99875 -31.39875 75.1225 -32.3125 75.25 C-31.961875 75.745 -31.61125 76.24 -31.25 76.75 C-29.7062204 80.8667456 -30.35998938 85.15011958 -32.15444946 89.10614014 C-33.24972866 90.96745205 -34.41843054 92.74562603 -35.64453125 94.5234375 C-36.07755051 95.17325592 -36.51056976 95.82307434 -36.95671082 96.49258423 C-37.86835525 97.85356042 -38.78728959 99.20967936 -39.71313477 100.56103516 C-41.12768684 102.62892782 -42.5153449 104.71304112 -43.90039062 106.80078125 C-44.79274003 108.12603204 -45.68656977 109.45028752 -46.58203125 110.7734375 C-46.99572464 111.39423187 -47.40941803 112.01502625 -47.83564758 112.65463257 C-49.98853821 115.77180209 -51.64566443 118.04679741 -55.3125 119.25 C-57.3867625 119.53480806 -59.47321439 119.73874224 -61.5625 119.875 C-62.64015625 119.94976562 -63.7178125 120.02453125 -64.828125 120.1015625 C-65.64796875 120.15054688 -66.4678125 120.19953125 -67.3125 120.25 C-66.4875 121.260625 -65.6625 122.27125 -64.8125 123.3125 C-62.7890842 125.79118436 -62.31150228 127.25710448 -61.859375 130.4765625 C-62.45232613 135.41441416 -64.37259749 138.45733681 -67.0625 142.5625 C-67.55186035 143.33287598 -68.0412207 144.10325195 -68.54541016 144.89697266 C-70.11809398 147.35893317 -71.7146653 149.80430526 -73.3125 152.25 C-74.38840504 153.92813915 -75.46392799 155.60652334 -76.5390625 157.28515625 C-77.58664424 158.89967024 -78.63606767 160.51299101 -79.6875 162.125 C-80.17444336 162.87950439 -80.66138672 163.63400879 -81.16308594 164.41137695 C-84.50784 169.44974275 -87.44598044 173.6009767 -93.625 175 C-94.511875 175.0825 -95.39875 175.165 -96.3125 175.25 C-95.9825 175.78625 -95.6525 176.3225 -95.3125 176.875 C-94.02168793 179.94067868 -94.03681676 181.92380037 -94.3125 185.25 C-95.34375186 187.73437947 -96.40093612 189.96958683 -97.6796875 192.31640625 C-98.03040314 192.98419098 -98.38111877 193.65197571 -98.74246216 194.33999634 C-99.49268942 195.76590911 -100.24828986 197.18900566 -101.00878906 198.60946655 C-102.98710098 202.30696963 -104.92357705 206.02636436 -106.8671875 209.7421875 C-107.44445587 210.84154884 -107.44445587 210.84154884 -108.03338623 211.96311951 C-111.23553232 218.06917426 -114.33081465 224.22042949 -117.3125 230.4375 C-117.71452637 231.26000244 -118.11655273 232.08250488 -118.53076172 232.92993164 C-118.89186035 233.68910889 -119.25295898 234.44828613 -119.625 235.23046875 C-119.93050781 235.86879639 -120.23601562 236.50712402 -120.55078125 237.16479492 C-122.19516024 241.66628241 -122.45006067 246.33375502 -122.62890625 251.0859375 C-122.67080078 252.14941406 -122.71269531 253.21289062 -122.75585938 254.30859375 C-122.79517578 255.40300781 -122.83449219 256.49742187 -122.875 257.625 C-122.93977539 259.30142578 -122.93977539 259.30142578 -123.00585938 261.01171875 C-123.11147411 263.75770199 -123.2135797 266.50376881 -123.3125 269.25 C-122.01054687 269.20359375 -120.70859375 269.1571875 -119.3671875 269.109375 C-117.64064804 269.07184153 -115.91408364 269.03544307 -114.1875 269 C-113.3315625 268.96648437 -112.475625 268.93296875 -111.59375 268.8984375 C-105.97678548 268.81202266 -102.73772706 269.4329795 -98.3125 273.25 C-96.5490383 276.16354542 -96.30412484 277.84799234 -96.375 281.25 C-97.56005783 285.04218505 -99.28547845 286.72748204 -102.3125 289.25 C-106.01497039 290.4841568 -109.43908744 290.39476699 -113.29486084 290.39044189 C-114.11736273 290.39341302 -114.93986462 290.39638414 -115.78729081 290.3994453 C-118.55319107 290.40814154 -121.31904808 290.40964133 -124.08496094 290.41113281 C-126.06416924 290.41576036 -128.04337664 290.42078493 -130.02258301 290.42617798 C-135.40700083 290.4393107 -140.79140618 290.44574872 -146.17583752 290.45018864 C-149.53900254 290.45311814 -152.90216415 290.45722273 -156.26532745 290.46169281 C-166.785472 290.47537045 -177.30560874 290.48503563 -187.82576156 290.4888947 C-199.97403943 290.49337533 -212.12220479 290.51092236 -224.27044845 290.5398953 C-233.65737951 290.56150625 -243.04427891 290.57159868 -252.4312346 290.57293582 C-258.03903669 290.57398433 -263.64673305 290.57990185 -269.25450897 290.59775543 C-274.53057384 290.61422575 -279.80645338 290.6163966 -285.08253479 290.60761642 C-287.01789598 290.60684548 -288.95326708 290.61119633 -290.88860321 290.62107468 C-293.5333577 290.63378111 -296.17745452 290.62792447 -298.82220459 290.61749268 C-299.5857399 290.62554908 -300.3492752 290.63360548 -301.13594794 290.64190602 C-306.2276165 290.5950264 -309.80471549 289.67484994 -314.3125 287.25 C-316.98384463 283.24298306 -317.13903281 279.96123704 -316.3125 275.25 C-313.78281526 271.96824682 -312.23518669 270.55756223 -308.3125 269.25 C-306.105793 269.15783109 -303.89632872 269.12806847 -301.68769836 269.12974548 C-301.01134895 269.12889106 -300.33499954 269.12803663 -299.63815469 269.12715632 C-297.36722284 269.12550653 -295.09636452 269.1310147 -292.82543945 269.13647461 C-291.19940187 269.13675662 -289.57336417 269.13659849 -287.94732666 269.1360321 C-283.52821265 269.13574465 -279.10912566 269.14163298 -274.69001794 269.14860606 C-270.07355399 269.15484826 -265.45708946 269.15544409 -260.84062195 269.15663147 C-252.09651354 269.15974222 -243.3524176 269.16795218 -234.60831469 269.17798096 C-224.65438542 269.18915002 -214.70045557 269.19465455 -204.74652159 269.19967639 C-184.26850743 269.21013499 -163.7905045 269.22772951 -143.3125 269.25 C-143.38675968 265.01313807 -143.47842514 260.77709121 -143.58525085 256.54095459 C-143.61914856 255.10412584 -143.64853969 253.66718259 -143.67308044 252.23016357 C-143.86265284 241.38086241 -145.5468733 232.4011849 -149.55908203 222.31591797 C-162.40691307 187.08638258 -157.11682412 144.19314166 -144.37109375 109.81640625 C-144.07388428 109.01275635 -143.7766748 108.20910645 -143.47045898 107.38110352 C-142.10485081 104.86784319 -140.73447972 103.73927363 -138.3125 102.25 C-136.05859375 101.88671875 -136.05859375 101.88671875 -133.75 101.9375 C-132.98558594 101.94136719 -132.22117187 101.94523437 -131.43359375 101.94921875 C-129.3125 102.25 -129.3125 102.25 -126.3125 104.25 C-126.20109465 97.4047601 -126.58687933 90.98467485 -127.625 84.2109375 C-128.42981223 74.7208599 -121.89785199 68.05277273 -116.18725586 61.14624023 C-111.48508284 55.59288434 -106.55122984 50.23662307 -101.5 45 C-100.72825439 44.17653076 -100.72825439 44.17653076 -99.94091797 43.33642578 C-96.39249512 39.74932182 -93.43349861 38.09753124 -88.3125 37.25 C-86.16796875 37.7109375 -86.16796875 37.7109375 -84.5 38.625 C-81.61183428 40.40139582 -81.61183428 40.40139582 -79.3125 40.25 C-78.94898438 39.15300781 -78.58546875 38.05601562 -78.2109375 36.92578125 C-77.70411373 35.47100933 -77.19624551 34.01660099 -76.6875 32.5625 C-76.45160156 31.84126953 -76.21570313 31.12003906 -75.97265625 30.37695312 C-73.18561505 22.55179898 -67.61885187 19.0747997 -60.4375 15.3125 C-59.78894043 14.97186523 -59.14038086 14.63123047 -58.47216797 14.28027344 C-40.18267902 4.91387809 -20.52148326 0.08840704 0 0 Z M-24.25 23.3125 C-25.07395264 23.53220459 -25.89790527 23.75190918 -26.74682617 23.97827148 C-34.95356879 26.26777377 -42.72795552 29.37538128 -50.3125 33.25 C-51.37082031 33.78753906 -52.42914063 34.32507813 -53.51953125 34.87890625 C-57.44783395 38.21384295 -58.52820215 41.84226555 -60.1875 46.625 C-68.43142048 68.71180351 -68.43142048 68.71180351 -74.3671875 72.59375 C-77.22751787 73.55868073 -79.30681785 73.61068186 -82.3125 73.25 C-86.24096232 71.0500611 -89.18341974 68.4462279 -92.3125 65.25 C-93.71304559 66.7664949 -95.10768309 68.28844674 -96.5 69.8125 C-97.27730469 70.65941406 -98.05460937 71.50632813 -98.85546875 72.37890625 C-99.66628906 73.32636719 -100.47710937 74.27382812 -101.3125 75.25 C-101.777771 75.71446533 -102.24304199 76.17893066 -102.72241211 76.6574707 C-107.81913594 82.39839011 -106.79364669 89.03823956 -106.5 96.3125 C-105.70354062 121.31610182 -105.70354062 121.31610182 -110.19604492 128.09008789 C-113.19374145 131.14933592 -115.05633473 131.18135217 -119.3125 131.25 C-122.68978179 130.74710549 -125.99571091 130.05750801 -129.3125 129.25 C-129.94728292 131.62273228 -130.57019245 133.99770924 -131.1875 136.375 C-131.36152344 137.02082031 -131.53554688 137.66664063 -131.71484375 138.33203125 C-134.73455974 150.0753712 -135.67695077 161.84398966 -135.625 173.9375 C-135.62226074 175.2359082 -135.61952148 176.53431641 -135.61669922 177.87207031 C-136.21138429 195.06578437 -136.21138429 195.06578437 -130.3125 210.25 C-129.51585937 208.65671875 -129.51585937 208.65671875 -128.703125 207.03125 C-126.578125 202.78125 -126.578125 202.78125 -124.453125 198.53125 C-124.10443359 197.82613281 -123.75574219 197.12101563 -123.39648438 196.39453125 C-122.66210766 194.94165624 -121.90199762 193.50155539 -121.11914062 192.07421875 C-120.74466797 191.37941406 -120.37019531 190.68460938 -119.984375 189.96875 C-119.63987305 189.34935547 -119.29537109 188.72996094 -118.94042969 188.09179688 C-118.14394856 185.75561739 -118.48297797 184.54411899 -119.3125 182.25 C-120.15268752 180.97633994 -121.03013903 179.72671148 -121.9375 178.5 C-124.22568493 174.88990179 -125.09892093 172.36295994 -124.203125 168.1328125 C-121.2748507 161.94233789 -113.8282366 159.36079991 -107.8046875 157.109375 C-105.3125 156.25 -105.3125 156.25 -102.375 155.66796875 C-97.79057905 153.54533507 -96.00546274 150.03777566 -93.4375 145.8125 C-92.93992187 145.03583984 -92.44234375 144.25917969 -91.9296875 143.45898438 C-89.08569559 139.18773063 -89.08569559 139.18773063 -88.3125 134.25 C-89.98257434 132.73685546 -89.98257434 132.73685546 -92.125 131.375 C-95.44088884 128.98215114 -97.86527447 127.20574979 -99.3125 123.25 C-99.21576768 117.83299017 -97.95042097 115.16498118 -94.3125 111.25 C-92.08874025 109.73795414 -89.9695825 108.4072182 -87.625 107.125 C-86.69288696 106.60570923 -86.69288696 106.60570923 -85.74194336 106.07592773 C-79.86988226 102.87831594 -74.42268592 100.3036239 -67.6875 100.1875 C-62.16588504 98.65371807 -60.16717656 93.9651122 -57.3125 89.25 C-56.3225 87.765 -56.3225 87.765 -55.3125 86.25 C-55.42481625 82.99282875 -56.66132849 81.84012653 -58.8125 79.3125 C-62.3125 75.025 -62.3125 75.025 -62.3125 71.25 C-61.08964064 66.68465838 -59.8048651 64.22334616 -55.875 61.5625 C-49.65227136 58.07226106 -42.60276713 55.74354007 -35.5625 54.6875 C-30.95280286 52.6485955 -29.12943499 49.36493572 -26.34765625 45.25390625 C-24.4470257 42.44856096 -22.44408258 39.81964992 -20.3125 37.1875 C-19.6628125 36.383125 -19.013125 35.57875 -18.34375 34.75 C-17.6734375 33.925 -17.003125 33.1 -16.3125 32.25 C-14.81012517 30.39775706 -13.31006354 28.54363509 -11.8125 26.6875 C-11.1421875 25.86121094 -10.471875 25.03492188 -9.78125 24.18359375 C-8.21168678 22.52197553 -8.21168678 22.52197553 -8.3125 21.25 C-13.96822898 21.00213937 -18.79732958 21.843935 -24.25 23.3125 Z " fill="#000000" transform="translate(463.3125,158.75)"/>
<path d="M0 0 C0.91627474 -0.00438225 1.83254947 -0.00876451 2.77659011 -0.01327956 C5.86577156 -0.02669971 8.95492447 -0.03285362 12.04412842 -0.03897095 C14.25141022 -0.04686935 16.45869072 -0.05513814 18.66596985 -0.06375122 C25.9310075 -0.09000067 33.19605101 -0.10528136 40.46112061 -0.11953735 C42.95910394 -0.12489575 45.45708724 -0.13027326 47.9550705 -0.13566971 C58.34352711 -0.15730234 68.73198307 -0.17619166 79.1204567 -0.1872921 C81.81685643 -0.19022183 84.51325612 -0.19318349 87.20965576 -0.19619751 C88.21493095 -0.19731659 88.21493095 -0.19731659 89.24051473 -0.19845827 C100.09694548 -0.21111173 110.95321246 -0.24433413 121.80956665 -0.28599934 C132.95383218 -0.32841912 144.09803881 -0.35157954 155.24239039 -0.35721266 C161.50026619 -0.3608714 167.75786441 -0.3729485 174.01566315 -0.4053154 C179.90244141 -0.43532632 185.78877312 -0.44173256 191.6756115 -0.42993164 C193.83716176 -0.42971033 195.99873232 -0.43806299 198.16021156 -0.45558548 C201.11003414 -0.47819857 204.05822676 -0.47001821 207.00805664 -0.45410156 C207.86467872 -0.46798365 208.7213008 -0.48186574 209.60388112 -0.49616849 C213.79027293 -0.44046104 216.46090627 -0.109995 219.79070663 2.54932213 C222.25799561 5.15390015 222.25799561 5.15390015 222.98455811 7.43515015 C222.75035231 12.55164593 222.1675099 15.47435728 218.25799561 19.15390015 C214.92309736 20.82134927 211.17655731 20.30185169 207.50926208 20.30107117 C206.13379163 20.3065862 206.13379163 20.3065862 204.7305339 20.31221265 C201.63901492 20.32327974 198.54752951 20.32709843 195.45599365 20.3309021 C193.24708956 20.33716441 191.03818653 20.343811 188.82928467 20.35081482 C182.81480005 20.36824486 176.8003234 20.37878178 170.78581977 20.38702035 C167.03120583 20.39216565 163.27659438 20.39824155 159.52198219 20.40453148 C149.12923224 20.42140323 138.73648388 20.43603868 128.34372234 20.44328022 C125.64628282 20.44519015 122.9488433 20.44711048 120.25140381 20.44906616 C119.24573516 20.44979177 119.24573516 20.44979177 118.21974996 20.45053204 C107.35620453 20.45883437 96.49276914 20.48417454 85.62927177 20.51664684 C74.47935629 20.54970394 63.32948066 20.56739485 52.17951232 20.57092446 C45.91780081 20.57327949 39.65626321 20.58229883 33.39459801 20.60738564 C27.5054042 20.63059864 21.61649966 20.63492683 15.72727203 20.62462425 C13.56369632 20.62412715 11.40010669 20.63049863 9.23657417 20.6441803 C6.28659266 20.66179407 3.3376611 20.65484478 0.38768005 20.64164734 C-0.47185487 20.65261658 -1.33138979 20.66358583 -2.21697122 20.67488748 C-6.26118362 20.63109748 -8.25250063 20.46397629 -11.75010967 18.24841595 C-14.8388287 15.00056819 -15.07572401 12.67555748 -15.03497314 8.19296265 C-14.57945473 5.02255448 -12.98884782 3.33465994 -10.74200439 1.15390015 C-7.4088586 -0.51267275 -3.66552269 0.00210797 0 0 Z " fill="#000000" transform="translate(110.74200439453125,146.84609985351563)"/>
<path d="M0 0 C1.25424552 -0.00679667 1.25424552 -0.00679667 2.53382933 -0.01373065 C5.34590154 -0.02642781 8.15778139 -0.02475086 10.96987915 -0.02310181 C12.98189037 -0.02908374 14.99389928 -0.03588851 17.00590515 -0.04345703 C22.47904139 -0.06115833 27.95211514 -0.06581415 33.42527723 -0.0670886 C37.99051122 -0.06898529 42.55573056 -0.07634018 47.12095892 -0.08343279 C57.88977969 -0.09973004 68.658567 -0.10460053 79.42739868 -0.10317993 C90.5444995 -0.10197813 101.66140629 -0.12308456 112.778458 -0.15466726 C122.31568199 -0.18079856 131.8528425 -0.19154855 141.39010203 -0.19026911 C147.08952754 -0.18975855 152.78878069 -0.1954935 158.48817062 -0.21662521 C163.84800078 -0.2359546 169.20749323 -0.23616836 174.56733513 -0.22159195 C176.5357875 -0.21949616 178.50426071 -0.22425034 180.47267723 -0.23631287 C183.1577218 -0.2517026 185.84159283 -0.24249907 188.52661133 -0.22705078 C189.69816208 -0.24248147 189.69816208 -0.24248147 190.89338052 -0.25822389 C194.6059519 -0.21094245 196.69755214 0.14333427 199.85051918 2.17333031 C202.9989021 5.40556397 203.22856064 7.71755372 203.17935181 12.22836304 C202.72507288 15.43287115 201.1947295 17.09466764 198.89028931 19.26742554 C195.17651874 20.50534906 191.73148985 20.41884772 187.86323547 20.42132568 C187.03594446 20.42570794 186.20865346 20.43009019 185.35629302 20.43460524 C182.57424718 20.44799805 179.79223302 20.45417315 177.01016235 20.46029663 C175.01947893 20.46819711 173.02879693 20.47646603 171.03811646 20.4850769 C164.49276091 20.51129951 157.94739895 20.52660306 151.40200806 20.54086304 C149.1501191 20.54622229 146.89823019 20.5515998 144.64634132 20.55699539 C135.28124261 20.57862292 125.91614562 20.59736086 116.55102825 20.60861778 C103.1214366 20.62486568 89.69213387 20.65806549 76.26265115 20.71501863 C66.82393374 20.75368566 57.38529372 20.77324654 47.94649917 20.77853835 C42.3067836 20.78219573 36.66737617 20.79425863 31.0277462 20.82664108 C25.72287065 20.85666517 20.41849062 20.86305365 15.11354828 20.85125732 C13.16646543 20.85103613 11.21935996 20.85937913 9.27235603 20.87691116 C6.61373651 20.89954825 3.95692221 20.89133384 1.29829407 20.87542725 C0.52795497 20.88930933 -0.24238412 20.90319142 -1.03606683 20.91749418 C-4.93460277 20.86002956 -7.53352913 20.32557902 -10.56880474 17.94426918 C-13.73862496 14.60486455 -14.18995116 12.84113224 -14.10971069 8.26742554 C-11.24160747 0.666952 -7.54996981 -0.02976949 0 0 Z " fill="#000000" transform="translate(122.10971069335938,193.73257446289063)"/>
<path d="M0 0 C0.69646847 -0.00438225 1.39293695 -0.00876451 2.11051053 -0.01327956 C4.4557717 -0.0266867 6.80099529 -0.03285067 9.14628601 -0.03897095 C10.8231778 -0.04687036 12.50006789 -0.05513921 14.17695618 -0.06375122 C19.69365308 -0.08998821 25.21035764 -0.10527971 30.72709656 -0.11953735 C32.62456454 -0.12489619 34.52203247 -0.1302737 36.41950035 -0.13566971 C44.31079735 -0.15730017 52.20209229 -0.17603797 60.09341145 -0.1872921 C71.41161425 -0.20353841 82.72947413 -0.23673075 94.04754764 -0.29369295 C102.00089125 -0.33235966 109.95414301 -0.35192086 117.90757817 -0.35721266 C122.66030541 -0.36087039 127.41266705 -0.37293624 132.16529274 -0.4053154 C136.63627033 -0.43533894 141.10666 -0.44172847 145.57771683 -0.42993164 C147.21883648 -0.42971043 148.85998296 -0.43805479 150.50100899 -0.45558548 C152.74194314 -0.47822212 154.98073536 -0.47001078 157.22167969 -0.45410156 C158.47548589 -0.45741171 159.72929209 -0.46072186 161.02109241 -0.46413231 C165.19406226 0.32210414 166.67483992 1.89142204 169.30131531 5.15390015 C170.15230123 8.24070621 169.92498873 11.02419351 169.30131531 14.15390015 C167.18739654 17.65280018 166.18395472 18.85968701 162.30131531 20.15390015 C160.0679818 20.252434 157.83176725 20.28893403 155.5962677 20.29434204 C154.56865934 20.29879872 154.56865934 20.29879872 153.52029121 20.30334544 C151.21958511 20.31203258 148.91893105 20.31354069 146.61820984 20.31503296 C144.97072742 20.31966108 143.32324608 20.32468573 141.67576599 20.33007812 C137.19641234 20.3432037 132.71707368 20.34964725 128.2377038 20.35408878 C125.44006682 20.35701893 122.64243395 20.3611236 119.84479904 20.36559296 C111.09412248 20.37926758 102.34345529 20.38893471 93.59276879 20.39279485 C83.48653939 20.3972773 73.38044513 20.41483401 63.27425683 20.44379544 C55.4652628 20.46539822 47.65630684 20.47549836 39.84728324 20.47683597 C35.18186429 20.4778849 30.51657238 20.48381148 25.85118484 20.50165558 C21.46319424 20.51811227 17.07542651 20.52030351 12.68741608 20.51151657 C11.07695037 20.51074494 9.46647279 20.51510555 7.85603714 20.52497482 C5.65720177 20.53765977 3.45915989 20.53183703 1.2603302 20.52139282 C0.02994585 20.52285938 -1.2004385 20.52432594 -2.46810722 20.52583694 C-5.99456949 20.11983489 -7.86494605 19.24764382 -10.69868469 17.15390015 C-13.26439059 13.73295896 -13.13576524 10.30616531 -12.69868469 6.15390015 C-8.96029176 0.42169765 -6.62514332 0.02947076 0 0 Z " fill="#000000" transform="translate(136.6986846923828,240.84609985351563)"/>
<path d="M0 0 C1.40148555 -0.00677867 2.80296219 -0.01568322 4.204422 -0.02655029 C8.00414989 -0.04932132 11.8031981 -0.04051695 15.6029377 -0.02465487 C19.58178649 -0.01198423 23.5605776 -0.02373919 27.53942871 -0.03158569 C34.22089065 -0.04067891 40.90207614 -0.02870312 47.58349609 -0.00488281 C55.3050564 0.02232809 63.02595659 0.01351368 70.7475009 -0.01401484 C77.38037877 -0.03671442 84.01305807 -0.03990192 90.64596224 -0.02682149 C94.60605977 -0.01903155 98.56584715 -0.01797252 102.52592468 -0.03450394 C106.24935956 -0.04896211 109.97194453 -0.03890387 113.6952877 -0.01003265 C115.71126008 -0.00028184 117.72730445 -0.01511063 119.74324036 -0.03067017 C129.591449 0.08476285 129.591449 0.08476285 132.69421387 3.04483032 C134.93445927 6.49307577 135.09832711 8.48644479 134.88476562 12.49072266 C134.0847731 15.94069043 132.12883568 17.55625262 129.38476562 19.64697266 C126.76923298 20.95473898 124.83787703 20.78181131 121.90765381 20.79414368 C120.74400803 20.80129898 119.58036224 20.80845428 118.38145447 20.81582642 C117.09831863 20.81851532 115.8151828 20.82120422 114.49316406 20.82397461 C113.13316168 20.83023861 111.77316101 20.83688536 110.41316223 20.84388733 C106.71258856 20.86130426 103.01202781 20.87185125 99.3114233 20.88009286 C96.99939436 20.88524221 94.68736943 20.89131801 92.37534332 20.89760399 C85.14157654 20.91665915 77.90781998 20.93088884 70.67403293 20.93921596 C62.3239985 20.9489866 53.9742293 20.97530003 45.62428832 21.01571685 C39.17070216 21.04588235 32.71719199 21.06068528 26.26353669 21.06399697 C22.40898775 21.06634723 18.55472203 21.07530394 14.70024872 21.10045815 C11.07223634 21.12375138 7.44469339 21.12796741 3.8166256 21.11769676 C1.85443986 21.11696589 -0.10772211 21.13604903 -2.06980896 21.15576172 C-12.89725357 21.09177143 -12.89725357 21.09177143 -17.61523438 16.64697266 C-18.75147556 14.37449028 -18.87970281 12.86394502 -18.99023438 10.33447266 C-19.03921875 9.57521484 -19.08820313 8.81595703 -19.13867188 8.03369141 C-18.53949373 5.30161793 -17.57576574 3.64796433 -15.54402161 1.7192421 C-10.95509666 -0.83187599 -5.09691733 -0.03933939 0 0 Z " fill="#000000" transform="translate(157.615234375,287.35302734375)"/>
<path d="M0 0 C1.07528458 -0.00571014 2.15056915 -0.01142029 3.25843811 -0.01730347 C4.43309631 -0.01842133 5.60775452 -0.01953918 6.81800842 -0.02069092 C8.67952293 -0.02813828 8.67952293 -0.02813828 10.5786438 -0.03573608 C13.97947637 -0.0478329 17.38024755 -0.05529936 20.78109431 -0.05974674 C22.90652083 -0.06268093 25.03194199 -0.06678632 27.1573658 -0.07125092 C33.80967048 -0.08491673 40.46196289 -0.09458871 47.11428064 -0.09845281 C54.78960674 -0.10293596 62.46475497 -0.12049948 70.14002699 -0.1494534 C76.07644609 -0.1710697 82.01281513 -0.181157 87.94927317 -0.18249393 C91.49351348 -0.1835417 95.03758637 -0.18944385 98.5817852 -0.20731354 C102.53428266 -0.2268555 106.48655753 -0.22250545 110.43910217 -0.21600342 C112.19805313 -0.22982559 112.19805313 -0.22982559 113.99253845 -0.243927 C115.07064285 -0.23835785 116.14874725 -0.2327887 117.25952148 -0.22705078 C118.66068915 -0.22925062 118.66068915 -0.22925062 120.09016323 -0.2314949 C124.03375533 0.33197674 126.67607378 2.15833824 129.50575256 4.89044189 C131.26423986 8.22231256 131.20587743 10.42391162 130.69325256 14.14044189 C129.04422949 17.07203846 127.12270876 19.63175069 123.85067654 20.79614735 C121.3439555 21.1961848 118.96401883 21.26956046 116.42446899 21.27415466 C115.35759857 21.27841965 114.29072815 21.28268463 113.19152832 21.28707886 C112.02622086 21.28662567 110.86091339 21.28617249 109.66029358 21.28570557 C107.81340942 21.29074348 107.81340942 21.29074348 105.92921448 21.29588318 C102.55523742 21.30375505 99.1813219 21.30706071 95.80733991 21.30769897 C93.69866437 21.30841014 91.58999527 21.31054571 89.48132133 21.31319618 C82.12284308 21.32244461 74.76438293 21.32653163 67.40589905 21.32574463 C60.54967284 21.32514371 53.69352527 21.33569961 46.83731896 21.35148829 C40.94760854 21.3645674 35.05792383 21.36992838 29.168199 21.36928922 C25.65194587 21.36903437 22.13576266 21.3718782 18.619524 21.38246727 C14.69818679 21.39395427 10.77695738 21.38939915 6.85560608 21.38336182 C5.11068123 21.39179108 5.11068123 21.39179108 3.33050537 21.40039062 C2.26081512 21.39619614 1.19112488 21.39200165 0.08901978 21.38768005 C-0.83771766 21.38822482 -1.76445509 21.38876959 -2.71927547 21.38933086 C-6.25443255 21.04928405 -9.07962504 19.9293063 -12.05674744 18.01544189 C-14.07984798 14.98079109 -14.43915832 11.70856677 -14.30674744 8.14044189 C-12.95014728 5.16884155 -11.60391302 3.43760748 -9.30674744 1.14044189 C-6.19814027 0.07226418 -3.26875766 0.01041351 0 0 Z " fill="#000000" transform="translate(167.30674743652344,380.85955810546875)"/>
<path d="M0 0 C1.08369873 -0.00990463 2.16739746 -0.01980927 3.28393555 -0.03001404 C5.05994896 -0.02326157 5.05994896 -0.02326157 6.87184143 -0.01637268 C8.7479863 -0.02666756 8.7479863 -0.02666756 10.66203308 -0.03717041 C14.08989199 -0.05233857 17.51720726 -0.05393167 20.94505954 -0.04822803 C23.80790585 -0.04513749 26.67070291 -0.05122714 29.53354222 -0.05726677 C36.28811461 -0.0713139 43.04256053 -0.06974934 49.7971344 -0.05836487 C56.76253618 -0.04688438 63.7275529 -0.06095738 70.69290394 -0.08776134 C76.67605564 -0.10992248 82.65908651 -0.11655479 88.64227635 -0.11068493 C92.21448649 -0.10731497 95.78644983 -0.10973262 99.35862541 -0.12693596 C103.34235081 -0.14528392 107.32560317 -0.13121361 111.30934143 -0.11402893 C113.0823185 -0.12853088 113.0823185 -0.12853088 114.89111328 -0.14332581 C122.87754111 -0.07104022 122.87754111 -0.07104022 126.87173462 2.28475952 C129.38947383 5.25332973 129.6907129 7.33418189 129.9287262 11.12986755 C129.44729365 15.1051249 127.57753863 16.7310892 124.6552887 19.38768005 C121.67057091 20.38258598 119.69917348 20.51796287 116.58268738 20.52812195 C115.53401993 20.53383209 114.48535248 20.53954224 113.40490723 20.54542542 C111.67960533 20.5471022 111.67960533 20.5471022 109.91944885 20.54881287 C108.10204445 20.55626022 108.10204445 20.55626022 106.2479248 20.56385803 C102.92347648 20.57596685 99.59909105 20.58342473 96.27462816 20.58786869 C94.19728226 20.59080092 92.11994186 20.59490599 90.04259872 20.59937286 C83.54192843 20.61304434 77.04127074 20.62271295 70.54058707 20.62657475 C63.03844064 20.63105611 55.53647636 20.64860892 48.03438532 20.67757535 C42.23386627 20.69919393 36.43339847 20.70927911 30.63283956 20.71061587 C27.16906631 20.7116637 23.70546436 20.71756656 20.24173355 20.73543549 C16.37773513 20.75498196 12.51396431 20.75062648 8.6499176 20.74412537 C6.9306884 20.75794754 6.9306884 20.75794754 5.17672729 20.77204895 C4.1224202 20.7664798 3.0681131 20.76091064 1.9818573 20.75517273 C1.06856974 20.75663929 0.15528217 20.75810585 -0.78568077 20.75961685 C-3.92241867 20.30371442 -5.78340268 19.22903342 -8.3447113 17.38768005 C-10.30983455 14.66186394 -11.42682724 12.74259292 -11.2197113 9.32518005 C-10.55485743 6.09588982 -10.09968055 4.08396424 -7.62040615 1.7974081 C-4.85631169 0.08513042 -3.23547537 0.00835383 0 0 Z " fill="#000000" transform="translate(160.34471130371094,334.61231994628906)"/>
</svg>
