<?xml version="1.0" encoding="UTF-8"?>
<svg version="1.1" xmlns="http://www.w3.org/2000/svg" width="512" height="512">
<path d="M0 0 C1.06079877 -0.00453111 2.12159754 -0.00906223 3.21454173 -0.01373065 C6.76276735 -0.02637319 10.31083946 -0.02475438 13.85908508 -0.02310181 C16.40532122 -0.0290869 18.95155554 -0.0358924 21.49778748 -0.04345703 C27.6911837 -0.05928668 33.88452384 -0.06556515 40.0779384 -0.06668179 C45.11063766 -0.06763308 50.14332438 -0.07174738 55.17601967 -0.07808304 C69.4468262 -0.09568297 83.71760269 -0.10492318 97.98842015 -0.10342209 C99.14135486 -0.10330222 99.14135486 -0.10330222 100.31758118 -0.10317993 C101.08714265 -0.10309817 101.85670412 -0.10301641 102.64958564 -0.10293217 C115.13658593 -0.10211831 127.62346588 -0.12128439 140.11043134 -0.14945666 C152.93406158 -0.17816037 165.75763306 -0.19199854 178.58129627 -0.19026911 C185.7801779 -0.18960462 192.97893316 -0.19512332 200.17778587 -0.21662521 C206.94199926 -0.23670001 213.70590073 -0.23618941 220.47014236 -0.22159195 C222.95664801 -0.21949276 225.44317007 -0.22427022 227.92964745 -0.23631287 C231.31539676 -0.25165321 234.70020966 -0.24253115 238.0859375 -0.22705078 C239.0772669 -0.23733791 240.06859631 -0.24762503 241.089966 -0.25822389 C247.69533119 -0.19115576 247.69533119 -0.19115576 250.99415302 2.11083031 C252.35249329 4.26742554 252.35249329 4.26742554 252.35249329 7.26742554 C254.96010175 7.23441784 257.55912174 7.16731074 260.16499329 7.07992554 C261.27197571 7.07122437 261.27197571 7.07122437 262.40132141 7.06234741 C264.84813991 7.01426039 264.84813991 7.01426039 268.35249329 6.26742554 C270.37822823 3.90791724 270.37822823 3.90791724 271.35249329 1.26742554 C273.43932108 -0.81940226 277.93431458 0.05460614 280.81343079 0.02914429 C281.67376923 0.02107254 282.53410767 0.01300079 283.42051697 0.00468445 C285.25150017 -0.00918397 287.08250953 -0.01989371 288.91352844 -0.02774048 C291.6814667 -0.04479094 294.44815905 -0.08862974 297.21577454 -0.13296509 C313.11857158 -0.27366034 324.43951126 2.95403669 336.47749329 13.76742554 C344.14035634 21.69134806 348.44541867 32.35803408 348.66499329 43.26742554 C348.7023761 44.48430054 348.73975891 45.70117554 348.77827454 46.95492554 C348.35249329 50.26742554 348.35249329 50.26742554 346.52046204 52.70492554 C344.35249329 54.26742554 344.35249329 54.26742554 341.35249329 54.26742554 C341.35249329 60.53742554 341.35249329 66.80742554 341.35249329 73.26742554 C348.4078406 74.22555912 352.85755894 74.1406848 358.54438782 69.89096069 C359.77367554 68.91463469 361.0024999 67.93772505 362.23091125 66.96029663 C382.57603451 50.87641139 411.31295684 38.49177888 437.47749329 37.95492554 C438.67632141 37.91754272 439.87514954 37.88015991 441.11030579 37.84164429 C444.35249329 38.26742554 444.35249329 38.26742554 446.78218079 39.66195679 C450.83400212 46.38475488 447.98544759 56.23823354 446.72749329 63.57992554 C446.55073059 64.61882935 446.3739679 65.65773315 446.19184875 66.7281189 C441.89611409 90.77143721 434.01229231 116.08417174 418.35249329 135.26742554 C418.99186829 135.76242554 419.63124329 136.25742554 420.28999329 136.76742554 C423.0393256 140.09994956 423.59480213 143.04942462 423.35249329 147.26742554 C422.19350559 151.05140284 420.50827839 154.49057815 418.72749329 158.01742554 C418.28792297 158.94941772 417.84835266 159.88140991 417.39546204 160.84164429 C415.05849665 165.61837413 413.12301891 169.53697835 408.35249329 172.26742554 C404.53999329 172.51742554 404.53999329 172.51742554 401.35249329 172.26742554 C401.09983704 173.14140991 400.84718079 174.01539429 400.58686829 174.91586304 C398.9452435 179.37318602 396.35728729 182.83155365 393.61811829 186.68148804 C393.20046204 187.53484741 392.78280579 188.38820679 392.35249329 189.26742554 C393.11865008 191.29009109 393.11865008 191.29009109 394.35249329 193.26742554 C395.3222782 203.01699649 386.95095227 210.97166125 381.16499329 218.14242554 C372.03859592 229.253108 362.82751582 239.52562688 351.35249329 248.26742554 C351.82686829 248.63867554 352.30124329 249.00992554 352.78999329 249.39242554 C354.99997904 252.04440844 355.18965926 253.82348583 355.35249329 257.26742554 C354.63914888 260.02300594 353.8611661 262.50207611 352.85249329 265.14242554 C352.62046204 265.79211304 352.38843079 266.44180054 352.14936829 267.11117554 C350.82412771 270.72177998 349.43480582 274.11482378 347.60420227 277.50863647 C341.09050746 289.91126042 341.34195279 302.00579492 341.41499329 315.76742554 C341.40185631 318.05520613 341.38560258 320.34297105 341.36616516 322.63070679 C341.32572135 328.17661187 341.32356988 333.72147051 341.35249329 339.26742554 C342.13624329 339.39117554 342.91999329 339.51492554 343.72749329 339.64242554 C346.35249329 340.26742554 346.35249329 340.26742554 348.35249329 342.26742554 C349.67459906 346.31602238 349.48520231 350.40194552 349.46601868 354.61605835 C349.4661647 355.45544952 349.46631073 356.2948407 349.46646118 357.15966797 C349.46576535 359.92998858 349.45798836 362.70024169 349.45014954 365.47055054 C349.44828419 367.39297448 349.44686083 369.3153989 349.44586182 371.23782349 C349.44204586 376.29470128 349.43222341 381.35155031 349.42115784 386.40841675 C349.41092393 391.56974905 349.40635995 396.73108601 349.40132141 401.89242554 C349.39060033 412.01743817 349.37353494 422.14242946 349.35249329 432.26742554 C350.31671204 432.20941772 351.28093079 432.15140991 352.27436829 432.09164429 C353.53764954 432.0465271 354.80093079 432.00140991 356.10249329 431.95492554 C357.35546204 431.89691772 358.60843079 431.83890991 359.89936829 431.77914429 C363.35249329 432.26742554 363.35249329 432.26742554 365.80561829 434.66195679 C367.35249329 437.26742554 367.35249329 437.26742554 367.35249329 439.26742554 C372.63249329 439.26742554 377.91249329 439.26742554 383.35249329 439.26742554 C383.68249329 437.94742554 384.01249329 436.62742554 384.35249329 435.26742554 C385.4679718 433.54452515 385.4679718 433.54452515 387.35249329 432.26742554 C390.5670929 431.8633728 390.5670929 431.8633728 394.50483704 431.83383179 C395.20137894 431.82858994 395.89792084 431.82334808 396.61557007 431.81794739 C398.0873532 431.81153028 399.55918763 431.81286025 401.03096008 431.82138062 C403.27904485 431.82988412 405.52458194 431.80114233 407.77241516 431.76937866 C409.20405503 431.76776629 410.63569938 431.76834488 412.06733704 431.77133179 C413.36792053 431.76947876 414.66850403 431.76762573 416.00849915 431.76571655 C419.35249329 432.26742554 419.35249329 432.26742554 421.77461243 433.75350952 C424.05330075 437.38396808 423.92494228 440.83081652 423.88374329 444.98617554 C423.88757019 445.83989746 423.89139709 446.69361938 423.89533997 447.57321167 C423.89806035 449.38210222 423.89069024 451.19103202 423.87397766 452.99984741 C423.85277922 455.73059257 423.87366333 458.45864289 423.89936829 461.18930054 C423.9272071 477.35338636 420.85208975 488.86952208 409.70014954 501.07601929 C402.49570727 507.857707 392.72844481 512.38349517 382.8466177 512.40164661 C381.72030042 512.40610446 380.59398314 512.4105623 379.43353504 512.41515523 C377.57710261 512.41487869 377.57710261 512.41487869 375.6831665 512.41459656 C374.36852262 512.41827325 373.05387873 512.42194993 371.69939715 512.42573804 C368.04696142 512.43575082 364.39454214 512.43947367 360.74209464 512.44212735 C356.80394202 512.44603258 352.8658024 512.45561081 348.92765808 512.46434021 C339.41491726 512.48409914 329.90217538 512.49417042 320.38941917 512.503068 C315.90845202 512.50745211 311.42748606 512.51281863 306.94651985 512.51805687 C292.04834584 512.5350691 277.15017256 512.54956271 262.25199032 512.55680561 C258.38615862 512.55871547 254.52032692 512.56063581 250.65449524 512.56259155 C249.21326351 512.56331716 249.21326351 512.56331716 247.742916 512.56405743 C232.18240223 512.57235561 216.6219654 512.59768897 201.06148522 512.63017223 C185.08179857 512.66325831 169.10215099 512.6812558 153.12242991 512.68444985 C144.15208673 512.68661359 135.18185571 512.69534219 126.21154594 512.72091103 C118.57103099 512.74263923 110.93065543 512.75065805 103.29011308 512.74094424 C99.39402588 512.73640557 95.49822617 512.73826022 91.60217857 512.75770569 C88.02966596 512.77538178 84.45764963 512.77430422 80.88513143 512.7588084 C78.99261689 512.75532356 77.10009688 512.77142552 75.20765537 512.78841287 C61.57581212 512.68621446 51.14746864 507.75521554 41.16499329 498.64242554 C29.9976604 486.98471076 29.0501698 472.74313008 29.11198425 457.49311829 C29.11111127 455.88905236 29.10935857 454.2849867 29.10680592 452.68092257 C29.10234668 448.28881084 29.11031646 443.89679716 29.12036204 439.50469792 C29.1290148 434.76248061 29.12607509 430.02026864 29.1245575 425.27804565 C29.1235098 417.06702812 29.12977436 408.85604241 29.14103317 400.64503288 C29.15730083 388.77335727 29.16249748 376.90169703 29.16500916 365.03001148 C29.16938427 345.76807633 29.1826884 326.50615813 29.20161438 307.24423218 C29.21997793 288.53524866 29.23413211 269.82626976 29.24263 251.11727905 C29.24315545 249.96367628 29.2436809 248.8100735 29.24422227 247.62151306 C29.24683238 241.83411322 29.24935979 236.04671336 29.25184608 230.25931346 C29.27257286 182.26200577 29.3077934 134.26471648 29.35249329 86.26742554 C28.52865646 86.27408737 27.70481964 86.28074921 26.85601807 86.28761292 C19.07337593 86.34784733 11.29084762 86.39346238 3.5080328 86.42286205 C-0.49272712 86.4384851 -4.49329363 86.45966142 -8.49394226 86.4937439 C-12.35837124 86.52645801 -16.22261474 86.54430381 -20.08717155 86.55205727 C-21.55790054 86.55757924 -23.02861995 86.56836223 -24.49926949 86.58461571 C-26.56721161 86.60655123 -28.6343977 86.6093859 -30.70243835 86.60800171 C-32.46449364 86.61799446 -32.46449364 86.61799446 -34.262146 86.62818909 C-39.10231007 86.11239331 -43.23455348 84.85932275 -46.5579071 81.11508179 C-48.0157854 77.30493335 -48.09611616 73.72779409 -48.08110046 69.70492554 C-48.08634232 68.87718628 -48.09158417 68.04944702 -48.09698486 67.19662476 C-48.10339618 65.44500851 -48.10207958 63.69334916 -48.09355164 61.94174194 C-48.08512164 59.3033944 -48.11368257 56.66727371 -48.14555359 54.02914429 C-48.208228 39.04146167 -45.97634 25.2735169 -35.38969421 13.82601929 C-24.95060171 3.89415542 -14.18201819 -0.04460993 0 0 Z " fill="#020202" transform="translate(55.64750671386719,-0.267425537109375)"/>
<path d="M0 0 C0.86033844 -0.00807175 1.72067688 -0.01614349 2.60708618 -0.02445984 C4.43806939 -0.03832826 6.26907874 -0.049038 8.10009766 -0.05688477 C10.86803591 -0.07393523 13.63472827 -0.11777403 16.40234375 -0.16210938 C32.3051408 -0.30280463 43.62608048 2.92489241 55.6640625 13.73828125 C63.32692556 21.66220377 67.63198788 32.3288898 67.8515625 43.23828125 C67.88894531 44.45515625 67.92632812 45.67203125 67.96484375 46.92578125 C67.5390625 50.23828125 67.5390625 50.23828125 65.70703125 52.67578125 C63.5390625 54.23828125 63.5390625 54.23828125 60.5390625 54.23828125 C60.62546997 55.12181274 60.62546997 55.12181274 60.71362305 56.02319336 C62.14800587 72.874303 62.14800587 72.874303 58.44140625 78.3203125 C55.583863 80.55088424 52.65913723 82.39659822 49.5390625 84.23828125 C47.93809229 85.54674141 46.37455352 86.90232783 44.8515625 88.30078125 C43.64113281 89.40486328 43.64113281 89.40486328 42.40625 90.53125 C32.47577229 99.907028 22.90192227 109.41741878 14.5390625 120.23828125 C13.49908139 121.528704 12.45726506 122.81764889 11.4140625 124.10546875 C-3.14146796 142.23165278 -15.30065727 161.87736666 -26.4609375 182.23828125 C-26.91919922 183.06440918 -27.37746094 183.89053711 -27.84960938 184.74169922 C-37.48615059 202.18657258 -45.64211971 220.50956887 -52.4609375 239.23828125 C-53.13640625 239.191875 -53.811875 239.14546875 -54.5078125 239.09765625 C-55.39984375 239.0615625 -56.291875 239.02546875 -57.2109375 238.98828125 C-58.09265625 238.941875 -58.974375 238.89546875 -59.8828125 238.84765625 C-63.38399281 239.37813811 -64.28908701 240.45919909 -66.4609375 243.23828125 C-67.87521479 245.70897214 -69.13748226 248.10502629 -70.3359375 250.67578125 C-70.85148193 251.77937988 -70.85148193 251.77937988 -71.37744141 252.90527344 C-74.02152295 258.7970969 -76.05187737 264.78577024 -77.8359375 270.98828125 C-78.19341064 272.2266272 -78.19341064 272.2266272 -78.55810547 273.48999023 C-81.72034482 285.09894762 -82.82700172 296.54215682 -82.7734375 308.55078125 C-82.76924805 309.85313721 -82.76505859 311.15549316 -82.76074219 312.49731445 C-82.62210593 324.57562933 -81.46731476 336.33537723 -79.4609375 348.23828125 C-79.32703613 349.05232422 -79.19313477 349.86636719 -79.05517578 350.70507812 C-76.130748 367.84754205 -70.54438145 384.53451519 -64.23193359 400.70458984 C-61.9343501 408.25503996 -63.54782014 416.44715348 -64.484375 424.13671875 C-64.57807373 424.91877686 -64.67177246 425.70083496 -64.76831055 426.5065918 C-64.99748591 428.41735965 -65.22897371 430.32784991 -65.4609375 432.23828125 C-66.27623287 432.24462916 -66.27623287 432.24462916 -67.10799885 432.25110531 C-80.32789906 432.35437027 -93.54774502 432.4630638 -106.76755238 432.57762051 C-113.16052827 432.63285434 -119.55350874 432.68627515 -125.9465332 432.7355957 C-132.1127344 432.78323236 -138.27887912 432.83557503 -144.44501305 432.891222 C-146.80098762 432.9116487 -149.15697768 432.93036125 -151.51297951 432.94735527 C-154.80534098 432.97139219 -158.09759536 433.00144792 -161.38989258 433.03295898 C-162.37028503 433.03871445 -163.35067749 433.04446991 -164.36077881 433.05039978 C-165.70481529 433.06508301 -165.70481529 433.06508301 -167.07600403 433.08006287 C-167.8549191 433.08651542 -168.63383417 433.09296797 -169.43635273 433.09961605 C-171.66588702 433.16733967 -171.66588702 433.16733967 -174.4609375 434.23828125 C-175.72036521 438.01656439 -175.59640835 441.55666558 -175.6015625 445.4921875 C-175.61990547 447.16863321 -175.63947713 448.84506585 -175.66015625 450.52148438 C-175.68898333 453.15232211 -175.71093405 455.78232476 -175.71142578 458.41333008 C-175.72750712 470.57426819 -176.35674548 479.47267221 -184.5859375 489.05078125 C-191.78184032 495.5953308 -199.74678868 498.0858554 -209.38671875 497.65234375 C-217.72739989 496.52894832 -223.72185848 492.22462218 -229.4609375 486.23828125 C-234.08639159 480.15215745 -235.71083705 475.50261907 -235.71147728 467.86579895 C-235.71427496 467.12948193 -235.71707263 466.39316491 -235.71995509 465.63453525 C-235.72693067 463.15967516 -235.71964791 460.68506172 -235.7124939 458.21020508 C-235.71463194 456.42086541 -235.71765699 454.63152662 -235.72149432 452.84218979 C-235.72954857 447.91887459 -235.72522073 442.99563518 -235.71897554 438.07232022 C-235.71444878 432.76467387 -235.7214784 427.45704213 -235.72727966 422.1493988 C-235.73592046 412.94851157 -235.73771886 403.74764356 -235.73533249 394.54675293 C-235.73223724 381.22959101 -235.74386578 367.91247167 -235.75988229 354.59532046 C-235.78585897 332.97126563 -235.80586927 311.34721076 -235.81933594 289.72314453 C-235.82055149 287.78112471 -235.82055149 287.78112471 -235.8217916 285.79987216 C-235.83300681 267.43735109 -235.83829263 249.07483304 -235.84117873 230.712309 C-235.84138272 229.42005465 -235.84158671 228.1278003 -235.84179688 226.79638672 C-235.84199681 225.5057075 -235.84219675 224.21502828 -235.84240274 222.88523757 C-235.84613737 201.35260717 -235.86523582 179.82002284 -235.89689124 158.2874155 C-235.91579756 145.00754455 -235.92177234 131.72779179 -235.91107406 118.44791108 C-235.90474887 109.34269765 -235.91281271 100.23756886 -235.93212818 91.13237399 C-235.94279777 85.88116876 -235.94698261 80.63016915 -235.93365669 75.37896538 C-235.92156585 70.56601213 -235.92802111 65.75344357 -235.94884868 60.94052351 C-235.95313505 59.20492475 -235.95075464 57.46929311 -235.94080751 55.73371756 C-235.87276904 42.9264089 -237.24384091 31.54633926 -244.2109375 20.42578125 C-244.82453125 19.42933594 -245.438125 18.43289062 -246.0703125 17.40625 C-246.52921875 16.69082031 -246.988125 15.97539062 -247.4609375 15.23828125 C-246.36172596 15.23681469 -245.26251442 15.23534813 -244.12999344 15.23383713 C-217.40717918 15.19727299 -190.68449055 15.13786403 -163.96178055 15.05437851 C-151.03897132 15.01453697 -138.11622343 14.98217048 -125.19335938 14.96728516 C-113.93228403 14.95429514 -102.67134338 14.92739842 -91.41034389 14.88366818 C-85.44545114 14.86099372 -79.48072489 14.84537415 -73.51578522 14.8463974 C-67.90479442 14.84714048 -62.29417253 14.82933176 -56.68327713 14.79711342 C-54.62090104 14.78857414 -52.55848376 14.78689161 -50.49609756 14.79247856 C-47.6857038 14.79907944 -44.87649728 14.78129216 -42.06622314 14.75726318 C-41.24521158 14.7650236 -40.42420001 14.77278402 -39.5783093 14.7807796 C-36.00341472 14.72646139 -33.89325729 14.56050188 -30.98560715 12.39334488 C-29.29567285 10.22542616 -29.29567285 10.22542616 -28.4609375 7.23828125 C-27.34074219 7.22410156 -26.22054687 7.20992188 -25.06640625 7.1953125 C-23.59370881 7.14841131 -22.12105382 7.10016391 -20.6484375 7.05078125 C-19.54145508 7.04208008 -19.54145508 7.04208008 -18.41210938 7.03320312 C-15.96529088 6.9851161 -15.96529088 6.9851161 -12.4609375 6.23828125 C-10.43520255 3.87877295 -10.43520255 3.87877295 -9.4609375 1.23828125 C-7.3741097 -0.84854655 -2.87911621 0.02546186 0 0 Z " fill="#F8F2F0" transform="translate(336.4609375,-0.23828125)"/>
<path d="M0 0 C69.63 0 139.26 0 211 0 C211 0.33 211 0.66 211 1 C139.72 1.495 139.72 1.495 67 2 C68.98 4.31 70.96 6.62 73 9 C74.64453125 11.765625 74.64453125 11.765625 75.8125 14.25 C76.21082031 15.08015625 76.60914063 15.9103125 77.01953125 16.765625 C78.57813728 20.31750807 79.12430601 23.03359433 79.12025452 26.87846375 C79.12231651 28.38657623 79.12231651 28.38657623 79.12442017 29.92515564 C79.11902725 31.57808372 79.11902725 31.57808372 79.11352539 33.2644043 C79.11367142 34.42551727 79.11381744 35.58663025 79.1139679 36.78292847 C79.11326989 40.63004407 79.10548266 44.47711158 79.09765625 48.32421875 C79.09579167 50.98794131 79.09431878 53.65166118 79.09336853 56.31538391 C79.09025943 62.61579291 79.0820517 68.91618457 79.07201904 75.21658593 C79.06084485 82.38943077 79.05534416 89.56227643 79.05032361 96.73512781 C79.03986875 111.49009407 79.02227743 126.24504673 79 141 C79.85256567 140.99723462 79.85256567 140.99723462 80.72235489 140.99441338 C94.55174219 140.95024613 108.38111713 140.91727683 122.21055984 140.89637566 C128.89837612 140.88592885 135.58613995 140.87200214 142.27392578 140.84912109 C148.72538504 140.82742484 155.17679535 140.81543813 161.62828827 140.81024551 C164.0923108 140.80654398 166.55633059 140.79931603 169.02033234 140.78853989 C172.4657627 140.77406789 175.91098955 140.77202028 179.35644531 140.77294922 C180.89177162 140.76216339 180.89177162 140.76216339 182.45811462 140.75115967 C183.39758438 140.753909 184.33705414 140.75665833 185.30499268 140.75949097 C186.11985767 140.75764738 186.93472267 140.75580379 187.77428055 140.75390434 C190.30501424 141.03372513 191.85919901 141.62957356 194 143 C196.32749345 146.49124017 196.50299316 147.89222251 196 152 C194.1329009 154.30275556 192.64352259 155.67823871 190 157 C188.51748736 157.0921488 187.0308745 157.12193101 185.54550171 157.12025452 C184.60878128 157.12162918 183.67206085 157.12300385 182.70695496 157.12442017 C181.67621353 157.12082489 180.64547211 157.11722961 179.58349609 157.11352539 C178.50055771 157.11367142 177.41761932 157.11381744 176.30186462 157.1139679 C172.70903547 157.11326915 169.11625764 157.10547852 165.5234375 157.09765625 C163.03764881 157.09579193 160.55185975 157.0943681 158.06607056 157.09336853 C152.18353603 157.08993565 146.30102057 157.08204773 140.41849387 157.07201904 C133.06545754 157.05975492 125.71241893 157.05437626 118.359375 157.04882812 C105.23957207 157.03809268 92.11979132 157.02049672 79 157 C79 169.21 79 181.42 79 194 C84.63320312 193.95359375 90.26640625 193.9071875 96.0703125 193.859375 C99.64324764 193.83893207 103.21611048 193.81967603 106.7890625 193.8046875 C112.457835 193.78079416 118.12634858 193.75255597 123.79492188 193.69824219 C128.36609608 193.65471827 132.93699255 193.63084896 137.508358 193.62049103 C139.25066372 193.61311139 140.99295457 193.59870053 142.73514175 193.57707977 C145.1793911 193.5479581 147.62249907 193.54404755 150.06689453 193.54589844 C150.78403122 193.53151733 151.50116791 193.51713623 152.24003601 193.50231934 C157.26761638 193.54339858 160.17880737 194.75965905 164 198 C165.1875 201.4375 165.1875 201.4375 165 205 C162.30123042 208.60527217 160.81438951 209.86680522 156.32365417 210.60127258 C154.88140645 210.61567227 153.43871974 210.60268085 151.99682617 210.56762695 C150.81067215 210.56872215 150.81067215 210.56872215 149.60055542 210.56983948 C146.99731885 210.56636721 144.39589111 210.5275257 141.79296875 210.48828125 C139.98408485 210.47895178 138.17518829 210.4718363 136.36628723 210.46684265 C131.61321928 210.44778331 126.86091947 210.39869187 122.1081543 210.34332275 C116.40139896 210.28309724 110.69438628 210.26020894 104.98740387 210.23105621 C96.32440224 210.18262597 87.66308486 210.08680446 79 210 C79 222.54 79 235.08 79 248 C83.63417969 247.95359375 88.26835937 247.9071875 93.04296875 247.859375 C95.98244434 247.83893178 98.92183202 247.81967584 101.86132812 247.8046875 C106.52500661 247.78079479 111.18837034 247.75255923 115.85180664 247.69824219 C119.61250058 247.65471492 123.3728569 247.63084852 127.13378334 247.62049103 C128.56711452 247.61311188 130.00042765 247.5987018 131.43361473 247.57707977 C133.44408454 247.54796043 135.45489555 247.54636538 137.46557617 247.54589844 C138.60919113 247.53701599 139.75280609 247.52813354 140.93107605 247.51898193 C144.70100241 248.10987396 146.36003108 249.28106631 149 252 C149.5625 255.5 149.5625 255.5 149 259 C146.78136971 261.90717073 145.48055071 262.83981643 142 264 C139.96033519 264.08911173 137.91782714 264.11760045 135.8762207 264.11352539 C134.61513992 264.11344986 133.35405914 264.11337433 132.05476379 264.11329651 C130.67843588 264.10818989 129.30210837 264.10297389 127.92578125 264.09765625 C126.51759389 264.09579086 125.10940589 264.09436753 123.70121765 264.09336853 C119.9973267 264.08955288 116.29347505 264.07973072 112.58959961 264.06866455 C108.80908754 264.05842997 105.02856892 264.05381172 101.24804688 264.04882812 C93.83199656 264.03863844 86.41605411 264.01906441 79 264 C79 276.21 79 288.42 79 301 C85.95126953 300.91298828 85.95126953 300.91298828 93.04296875 300.82421875 C95.98245697 300.79866462 98.92180785 300.77459496 101.86132812 300.75585938 C106.52511101 300.72599282 111.18840214 300.69069858 115.85180664 300.62280273 C119.61252026 300.56839336 123.37270644 300.53856117 127.13378334 300.52561378 C128.56714492 300.51638965 130.00047828 300.49837629 131.43361473 300.47134972 C133.44398106 300.43495241 135.45488047 300.43295673 137.46557617 300.43237305 C138.60919113 300.42126999 139.75280609 300.41016693 140.93107605 300.39872742 C144.97167564 301.19037354 146.4609509 302.82918985 149 306 C149.5625 309.0625 149.5625 309.0625 149 312 C147.1329009 314.30275556 145.64352259 315.67823871 143 317 C140.96769104 317.09152672 138.93231422 317.11751434 136.89794922 317.11352539 C135.61677216 317.11344986 134.33559509 317.11337433 133.01559448 317.11329651 C131.61195843 317.10818948 130.20832277 317.10297348 128.8046875 317.09765625 C127.37265065 317.09579146 125.94061316 317.09436784 124.50857544 317.09336853 C120.73726646 317.08954819 116.96599593 317.07972202 113.19470215 317.06866455 C108.67094212 317.05664277 104.14716925 317.05204589 99.62339783 317.04621124 C92.74890514 317.03651001 85.87449682 317.0173501 79 317 C79 329.21 79 341.42 79 354 C83.55039063 353.94199219 88.10078125 353.88398438 92.7890625 353.82421875 C95.67842124 353.79865933 98.56763986 353.77458932 101.45703125 353.75585938 C106.03952111 353.72601308 110.62150965 353.69077375 115.20361328 353.62280273 C118.89949394 353.56832344 122.59483678 353.53854657 126.2910881 353.52561378 C127.69850503 353.51640213 129.10589375 353.49841321 130.5130806 353.47134972 C142.92092507 353.24229081 142.92092507 353.24229081 146.86865234 356.34301758 C149 359 149 359 149.6875 362 C148.76697003 366.01685805 147.16547886 367.40616122 144 370 C140.93107605 370.60127258 140.93107605 370.60127258 137.46557617 370.56762695 C136.16460495 370.5672493 134.86363373 370.56687164 133.52323914 370.56648254 C132.11313917 370.54095295 130.70304908 370.51487303 129.29296875 370.48828125 C127.84281129 370.47894903 126.392638 370.47183485 124.94245911 370.46684265 C121.136241 370.44780435 117.33098568 370.39873306 113.52514648 370.34332275 C109.63733951 370.29206055 105.74937607 370.26931387 101.86132812 370.24414062 C94.24044776 370.19060936 86.62035908 370.10533738 79 370 C79.13882854 374.58357376 79.28726748 379.16678696 79.4375 383.75 C79.47681641 385.05195313 79.51613281 386.35390625 79.55664062 387.6953125 C79.59853516 388.94570313 79.64042969 390.19609375 79.68359375 391.484375 C79.72025146 392.63647461 79.75690918 393.78857422 79.79467773 394.97558594 C79.98374515 398.59010241 79.98374515 398.59010241 81 402 C83.81044276 403.72173178 85.92920861 404.24889947 89.20147705 404.24050903 C90.44660568 404.24463303 90.44660568 404.24463303 91.71688843 404.24884033 C92.6188797 404.24164978 93.52087097 404.23445923 94.45019531 404.22705078 C95.88484634 404.22748886 95.88484634 404.22748886 97.34848022 404.22793579 C100.50845424 404.22654294 103.6681922 404.21098366 106.828125 404.1953125 C109.01959097 404.19158222 111.21105862 404.18873532 113.40252686 404.18673706 C119.16964322 404.17910183 124.9366588 404.1594542 130.70373535 404.1373291 C136.5889347 404.11686836 142.47415033 404.10773485 148.359375 404.09765625 C159.90629427 404.07620828 171.45313875 404.04207358 183 404 C182.67 408.29 182.34 412.58 182 417 C180.67868576 417.01030746 179.35737152 417.02061493 177.99601746 417.03123474 C165.5617618 417.1288662 153.12755734 417.2315905 140.69338512 417.33933926 C134.30040923 417.39457309 127.90742876 417.4479939 121.5144043 417.49731445 C115.3482031 417.54495111 109.18205838 417.59729378 103.01592445 417.65294075 C100.65994988 417.67336745 98.30395982 417.69208 95.94795799 417.70907402 C92.65559652 417.73311094 89.36334214 417.76316667 86.07104492 417.79467773 C85.09065247 417.8004332 84.11026001 417.80618866 83.10015869 417.81211853 C81.75612221 417.82680176 81.75612221 417.82680176 80.38493347 417.84178162 C79.6060184 417.84823417 78.82710333 417.85468672 78.02458477 417.8613348 C75.79505048 417.92905842 75.79505048 417.92905842 73 419 C71.74057229 422.77828314 71.86452915 426.31838433 71.859375 430.25390625 C71.84103203 431.93035196 71.82146037 433.6067846 71.80078125 435.28320312 C71.77195417 437.91404086 71.75000345 440.54404351 71.74951172 443.17504883 C71.73343038 455.33598694 71.10419202 464.23439096 62.875 473.8125 C55.67909718 480.35704955 47.71414882 482.84757415 38.07421875 482.4140625 C29.73353761 481.29066707 23.73907902 476.98634093 18 471 C13.37454591 464.9138762 11.75010045 460.26433782 11.74946022 452.6275177 C11.74666254 451.89120068 11.74386487 451.15488366 11.74098241 450.396254 C11.73400683 447.92139391 11.74128959 445.44678047 11.7484436 442.97192383 C11.74630556 441.18258416 11.74328051 439.39324537 11.73944318 437.60390854 C11.73138893 432.68059334 11.73571677 427.75735393 11.74196196 422.83403897 C11.74648872 417.52639262 11.7394591 412.21876088 11.73365784 406.91111755 C11.72501704 397.71023032 11.72321864 388.50936231 11.72560501 379.30847168 C11.72870026 365.99130976 11.71707172 352.67419042 11.70105521 339.35703921 C11.67507853 317.73298438 11.65506823 296.10892951 11.64160156 274.48486328 C11.64038601 272.54284346 11.64038601 272.54284346 11.6391459 270.56159091 C11.62793069 252.19906984 11.62264487 233.83655179 11.61975877 215.47402775 C11.61955478 214.1817734 11.61935079 212.88951905 11.61914062 211.55810547 C11.61894069 210.26742625 11.61874075 208.97674703 11.61853476 207.64695632 C11.61480013 186.11432592 11.59570168 164.58174159 11.56404626 143.04913425 C11.54513994 129.7692633 11.53916516 116.48951054 11.54986344 103.20962983 C11.55618863 94.1044164 11.54812479 84.99928761 11.52880932 75.89409274 C11.51813973 70.64288751 11.51395489 65.3918879 11.52728081 60.14068413 C11.53937165 55.32773088 11.53291639 50.51516232 11.51208882 45.70224226 C11.50780245 43.9666435 11.51018286 42.23101186 11.52012999 40.49543631 C11.60571403 24.38541558 8.51695998 14.60050282 0 0 Z " fill="#EDE0DB" transform="translate(89,15)"/>
<path d="M0 0 C5.28 0 10.56 0 16 0 C16.99 1.98 17.98 3.96 19 6 C21.34938888 7.17469444 22.95073205 7.20034889 25.5703125 7.31640625 C26.91416016 7.37924805 26.91416016 7.37924805 28.28515625 7.44335938 C29.22230469 7.48267578 30.15945313 7.52199219 31.125 7.5625 C32.06988281 7.60568359 33.01476562 7.64886719 33.98828125 7.69335938 C36.32537092 7.79959072 38.6625683 7.90163176 41 8 C41.11727273 12.14559093 41.18760933 16.29074862 41.25 20.4375 C41.28351563 21.60216797 41.31703125 22.76683594 41.3515625 23.96679688 C41.43387032 31.27161598 40.71362201 36.66322297 37 43 C36.53078125 43.80953125 36.0615625 44.6190625 35.578125 45.453125 C30.69424199 52.06073143 24.95315902 55.87737182 17 58 C13.26639023 58.28900425 9.54360704 58.2611508 5.80044556 58.24050903 C4.66825856 58.24221788 3.53607156 58.24392673 2.36957586 58.24568737 C-1.42604366 58.2489829 -5.2214866 58.2379773 -9.01708984 58.22705078 C-11.73715324 58.22537297 -14.45721318 58.22671513 -17.17727661 58.22793579 C-23.0343547 58.22898373 -28.89138818 58.22271662 -34.74845505 58.21146011 C-43.2167504 58.19519578 -51.68502422 58.18999615 -60.1533335 58.18748413 C-73.89308742 58.18310849 -87.63281758 58.16980295 -101.37255859 58.15087891 C-114.71826051 58.13251671 -128.06395597 58.11836187 -141.40966797 58.10986328 C-142.64391963 58.10907511 -142.64391963 58.10907511 -143.90310566 58.10827102 C-148.03108548 58.10566091 -152.15906535 58.10313351 -156.28704524 58.10064721 C-190.52471393 58.0799188 -224.7623544 58.04469684 -259 58 C-258.44570313 57.07058594 -257.89140625 56.14117187 -257.3203125 55.18359375 C-256.58813369 53.93513501 -255.85638579 52.68642348 -255.125 51.4375 C-254.76019531 50.82841797 -254.39539063 50.21933594 -254.01953125 49.59179688 C-250.32581924 43.24532805 -248.7826319 37.34869632 -248.5859375 29.97265625 C-248.54726562 28.68681641 -248.50859375 27.40097656 -248.46875 26.07617188 C-248.43730501 24.73828582 -248.40605741 23.40039511 -248.375 22.0625 C-248.33675658 20.69724244 -248.2977013 19.33200736 -248.2578125 17.96679688 C-248.16390063 14.6446646 -248.07822213 11.32253259 -248 8 C-246.75040843 7.99761165 -245.50081686 7.99522329 -244.21335888 7.99276257 C-214.56981743 7.9354385 -184.92635743 7.86273355 -155.28290431 7.77101372 C-151.63660126 7.75974516 -147.99029783 7.74860678 -144.34399414 7.73754883 C-143.61806168 7.73534514 -142.89212922 7.73314146 -142.14419881 7.730871 C-130.38039179 7.69547071 -118.61658483 7.67062202 -106.85274424 7.64965298 C-94.78754462 7.62791264 -82.7224143 7.59487913 -70.65727359 7.55129844 C-63.20868768 7.52475114 -55.76018817 7.50707849 -48.31155727 7.50065396 C-42.60592573 7.49479066 -36.90043803 7.47323719 -31.19487381 7.44572449 C-28.84987693 7.4368992 -26.50485436 7.43323089 -24.15984154 7.43499184 C-20.96832467 7.43663238 -17.77741694 7.42004978 -14.58598328 7.39872742 C-13.64922136 7.40357499 -12.71245945 7.40842257 -11.74731082 7.41341704 C-10.89487255 7.4039605 -10.04243428 7.39450396 -9.16416454 7.38476086 C-8.42712738 7.38286225 -7.69009022 7.38096365 -6.9307186 7.37900752 C-4.39688995 6.88160717 -3.58918624 6.00980439 -2 4 C-1.34 2.68 -0.68 1.36 0 0 Z " fill="#F7F1EF" transform="translate(423,439)"/>
<path d="M0 0 C0.33 0 0.66 0 1 0 C1 15.84 1 31.68 1 48 C-0.65 48.66 -2.3 49.32 -4 50 C-7.00322179 53.00322179 -6.30825918 56.36763672 -6.31884766 60.39697266 C-6.32900091 61.27939825 -6.33915417 62.16182384 -6.3496151 63.07098961 C-6.38031954 65.93534292 -6.39742713 68.79959646 -6.4140625 71.6640625 C-6.43099003 73.42928941 -6.44880587 75.19450803 -6.4675293 76.9597168 C-6.53080094 83.514716 -6.57684584 90.06987231 -6.625 96.625 C-6.74875 111.26875 -6.8725 125.9125 -7 141 C-40.99 141 -74.98 141 -110 141 C-109 125 -109 125 -108 119 C-107.38705078 118.79955078 -106.77410156 118.59910156 -106.14257812 118.39257812 C-93.25164887 114.14059622 -80.82866379 109.7045304 -69 103 C-68.33419922 102.62649414 -67.66839844 102.25298828 -66.98242188 101.86816406 C-51.51537687 93.06441001 -35.23665145 80.21590755 -27 64 C-25.99682961 57.79411261 -27.11116068 53.51505689 -30 48 C-28.82155406 44.72431976 -26.82470093 42.60383086 -24.4375 40.125 C-13.88173638 28.39215483 -7.09558256 13.95937477 0 0 Z " fill="#F7F1EF" transform="translate(396,291)"/>
<path d="M0 0 C-6.35413721 12.67277644 -13.13695436 24.67207642 -23.625 34.375 C-27.55915798 38.02753528 -27.55915798 38.02753528 -28.875 43 C-28.47131367 46.33714032 -27.07327924 48.99344563 -25.625 52 C-23.75394634 56.34588705 -23.75394634 56.34588705 -24.7890625 59.09765625 C-26.38450986 61.24340497 -28.12469939 63.09475447 -30 65 C-30.57363281 65.70769531 -31.14726562 66.41539062 -31.73828125 67.14453125 C-45.04616386 83.41605367 -67.62166834 96.21036466 -88 101 C-88.24546934 94.60292013 -87.36689664 88.97451111 -85.9375 82.75 C-85.71416992 81.75838867 -85.49083984 80.76677734 -85.26074219 79.74511719 C-84.52015753 76.49359788 -83.76175817 73.24661998 -83 70 C-82.61448975 68.33324219 -82.61448975 68.33324219 -82.22119141 66.6328125 C-80.58099783 59.59276737 -78.79836873 52.60515029 -76.91845703 45.62548828 C-75.98044735 41.92281848 -75.22018494 38.20860345 -74.46484375 34.46484375 C-70.59622705 17.48360524 -70.59622705 17.48360524 -64.47167969 13.25390625 C-58.10190627 10.44753805 -51.45009259 9.43307807 -44.58984375 8.52294922 C-38.65690085 7.65866986 -32.88386093 6.16365657 -27.0625 4.75 C-24.99156545 4.2834296 -22.91997443 3.81976093 -20.84765625 3.359375 C-15.95549363 2.26301004 -11.16586648 0.93038925 -6.37280273 -0.53808594 C-3.85548154 -1.02813344 -2.40147681 -0.8239987 0 0 Z " fill="#FBE67B" transform="translate(379,293)"/>
<path d="M0 0 C1.29683212 0.01556442 2.59366425 0.03112885 3.92979431 0.04716492 C7.34997172 0.08883342 10.76486922 0.19653968 14.1829834 0.31890869 C17.68180907 0.43219176 21.18150311 0.4818317 24.68164062 0.53710938 C31.52818806 0.65448213 38.37126144 0.84177567 45.21484375 1.07421875 C43.33984375 6.82421875 43.33984375 6.82421875 42.21484375 9.07421875 C41.79210191 13.83006443 42.66265709 16.11832942 45.21484375 20.07421875 C43.94736886 22.32616938 42.67601507 24.57577622 41.40234375 26.82421875 C41.04591797 27.4584375 40.68949219 28.09265625 40.32226562 28.74609375 C36.20288613 36.00224846 36.20288613 36.00224846 34.21484375 38.07421875 C32.20668287 38.04182906 30.19822351 38.00605394 28.19140625 37.92578125 C25.96909675 37.91885237 25.96909675 37.91885237 23.71484375 39.88671875 C22.84314819 40.91797892 22.01719735 41.98813432 21.21484375 43.07421875 C20.57417969 43.93402344 19.93351562 44.79382813 19.2734375 45.6796875 C17.89462578 47.56127034 16.52921294 49.45277149 15.1796875 51.35546875 C14.53128906 52.25265625 13.88289063 53.14984375 13.21484375 54.07421875 C12.64485657 54.94358566 12.07486938 55.81295258 11.48760986 56.70866394 C9.21484375 59.07421875 9.21484375 59.07421875 6.30413818 59.67549133 C5.1760675 59.66438828 4.04799683 59.65328522 2.88574219 59.6418457 C1.60471619 59.64146805 0.32369019 59.64109039 -0.99615479 59.64070129 C-2.38937353 59.61516987 -3.78258231 59.58908992 -5.17578125 59.5625 C-6.60494754 59.55317042 -8.03412986 59.54605499 -9.46331787 59.5410614 C-13.21859153 59.5220023 -16.97289282 59.47291307 -20.7277832 59.4175415 C-24.56187791 59.36632423 -28.3961303 59.34354221 -32.23046875 59.31835938 C-39.74914044 59.2647914 -47.26701192 59.17949416 -54.78515625 59.07421875 C-53.67384088 57.15691799 -52.56099602 55.24050371 -51.44750977 53.32446289 C-50.82795914 52.25716446 -50.20840851 51.18986603 -49.57008362 50.09022522 C-47.42208799 46.46073932 -45.13861976 42.96640473 -42.72265625 39.51171875 C-42.26713379 38.85534424 -41.81161133 38.19896973 -41.34228516 37.52270508 C-37.51957867 32.05082495 -33.60523006 26.64584242 -29.66015625 21.26171875 C-29.11093506 20.51011475 -28.56171387 19.75851074 -27.99584961 18.98413086 C-26.91372517 17.51912294 -25.81573125 16.06567021 -24.70028687 14.62586975 C-23.38915517 12.87896513 -22.14218357 11.08256225 -20.9539032 9.24987793 C-14.89889938 0.59626925 -10.267772 -0.46856624 0 0 Z " fill="#FCE87C" transform="translate(412.78515625,151.92578125)"/>
<path d="M0 0 C2.46053499 0.00188885 4.92160829 0.06909199 7.37915039 0.19042969 C9.32864342 0.21589874 9.32864342 0.21589874 11.31752014 0.24188232 C14.75459595 0.2874625 18.18547321 0.40505853 21.62011719 0.53833008 C25.13204044 0.66164828 28.64497787 0.71600789 32.15844727 0.77636719 C39.03792935 0.90462635 45.91331976 1.10909344 52.78930664 1.36230469 C47.45459882 6.71784693 42.06820654 11.84757765 35.85180664 16.17480469 C32.7665621 18.01788734 32.7665621 18.01788734 31.78930664 20.36230469 C31.16370941 26.0197167 31.16370941 26.0197167 33.66430664 30.79980469 C35.6963621 32.3864791 35.6963621 32.3864791 37.78930664 33.36230469 C37.52794111 34.71833054 37.25458522 36.07204561 36.97680664 37.42480469 C36.82598633 38.17890625 36.67516602 38.93300781 36.51977539 39.70996094 C36.2787207 40.58523438 36.03766602 41.46050781 35.78930664 42.36230469 C35.49709229 43.5021582 35.20487793 44.64201172 34.90380859 45.81640625 C33.81599862 48.28531453 33.12532482 49.18545158 30.71354675 50.45481873 C27.90604592 51.36975698 25.10375349 52.08336113 22.22680664 52.74902344 C21.16631104 53.01818069 20.10581543 53.28733795 19.01318359 53.56465149 C15.61140289 54.42056261 12.20117956 55.2351694 8.78930664 56.04980469 C6.55428092 56.60775133 4.31989637 57.16827309 2.08618164 57.73144531 C-10.61803524 60.90644809 -23.37410328 63.77662107 -36.21069336 66.36230469 C-35.61346561 62.92111719 -34.73527279 59.92367019 -33.34741211 56.72167969 C-32.96109619 55.82811768 -32.57478027 54.93455566 -32.17675781 54.01391602 C-31.75483154 53.05638428 -31.33290527 52.09885254 -30.89819336 51.11230469 C-30.45886475 50.11030029 -30.01953613 49.1082959 -29.56689453 48.07592773 C-26.16695795 40.38784718 -22.63801601 32.76403667 -19.02319336 25.17480469 C-18.54906006 24.17352539 -18.07492676 23.17224609 -17.58642578 22.140625 C-16.67354242 20.24479358 -15.73890186 18.35920655 -14.77775574 16.48738098 C-13.74383687 14.42551325 -12.77182342 12.33127514 -11.86843872 10.20896912 C-8.96490428 4.10723858 -7.02891664 0.66425969 0 0 Z " fill="#FCF6DF" transform="translate(355.210693359375,224.6376953125)"/>
<path d="M0 0 C6.54960367 4.31424406 11.10181175 10.19689522 13.55078125 17.68383789 C14.16884294 20.87055052 14.11095647 23.92662086 14.09765625 27.171875 C14.09515869 28.4206543 14.09266113 29.66943359 14.09008789 30.95605469 C14.08098389 32.53805664 14.07187988 34.12005859 14.0625 35.75 C14.041875 40.7825 14.02125 45.815 14 51 C-6.13 51 -26.26 51 -47 51 C-47.0825 46.09125 -47.165 41.1825 -47.25 36.125 C-47.28641602 34.59762207 -47.32283203 33.07024414 -47.36035156 31.49658203 C-47.44472217 21.07681167 -46.05161448 12.39932965 -38.703125 4.53125 C-27.56216083 -5.48539669 -13.26781783 -6.89926527 0 0 Z " fill="#EEE1DC" transform="translate(71,19)"/>
<path d="M0 0 C1.17625443 -0.01134979 2.35250885 -0.02269958 3.56440735 -0.03439331 C4.85127441 -0.03146271 6.13814148 -0.0285321 7.46400452 -0.0255127 C8.83578177 -0.03285376 10.20755285 -0.0414401 11.57931519 -0.05117798 C15.30249049 -0.07339861 19.02544451 -0.07632443 22.74867702 -0.07443047 C25.85757207 -0.07431079 28.96642019 -0.08287352 32.07530218 -0.09120798 C39.40997959 -0.11044386 46.74454318 -0.11332515 54.07923889 -0.10656738 C61.64453815 -0.0999254 69.20934999 -0.12279642 76.77455038 -0.15988111 C83.27149928 -0.19057298 89.76829135 -0.20193875 96.2653113 -0.1980443 C100.14497944 -0.19597631 104.02426826 -0.20146312 107.90386772 -0.22593689 C111.55254795 -0.24819365 115.2004354 -0.2463363 118.84911919 -0.22600937 C120.8245863 -0.22097154 122.80006811 -0.24062541 124.7754364 -0.26101685 C134.43075831 -0.16922909 134.43075831 -0.16922909 137.53726196 2.74145508 C139.62496177 5.99862572 139.96468126 7.59787921 139.23768616 11.39440918 C137.13392993 14.10488647 135.94895354 15.26100583 132.53900146 15.90056705 C131.50072708 15.90337398 130.4624527 15.9061809 129.39271545 15.90907288 C128.19818756 15.92179733 127.00365967 15.93452179 125.77293396 15.94763184 C124.46579437 15.94110596 123.15865479 15.93458008 121.81190491 15.92785645 C120.41879868 15.93491516 119.02570013 15.94365998 117.63261414 15.95396423 C113.85158568 15.97647252 110.07097551 15.97351556 106.28990555 15.96464276 C103.13368605 15.95953438 99.97754527 15.9668241 96.82133389 15.97411484 C89.37638919 15.99111801 81.93164945 15.98754343 74.48670959 15.9708252 C66.80436022 15.95389703 59.12257876 15.96974657 51.4402914 16.00204808 C44.84483095 16.02872987 38.24954744 16.03602404 31.65403843 16.02753299 C27.71461952 16.02260034 23.77554248 16.02483741 19.83616638 16.04532051 C16.13247291 16.06365632 12.42959764 16.05774607 8.72594833 16.03312111 C6.71810392 16.02571425 4.71021611 16.04298428 2.70243835 16.0609436 C1.50791046 16.04828964 0.31338257 16.03563568 -0.91734314 16.02259827 C-1.95561752 16.02201196 -2.99389191 16.02142565 -4.06362915 16.02082157 C-6.76231384 15.39440918 -6.76231384 15.39440918 -9.12762451 13.08170986 C-10.76231384 10.39440918 -10.76231384 10.39440918 -10.76231384 6.76940918 C-9.02027114 0.89001505 -5.81782547 0.02122132 0 0 Z " fill="#040404" transform="translate(189.76231384277344,102.6055908203125)"/>
<path d="M0 0 C1.14404297 -0.0112793 2.28808594 -0.02255859 3.46679688 -0.03417969 C5.34334961 -0.0220343 5.34334961 -0.0220343 7.2578125 -0.00964355 C8.59180465 -0.01506511 9.9257908 -0.02218797 11.25976562 -0.03088379 C14.87966598 -0.04911656 18.49911024 -0.04205017 22.11901855 -0.02936745 C25.9074832 -0.01923938 29.69590882 -0.02863258 33.484375 -0.03491211 C39.84642548 -0.04218911 46.20829022 -0.03259956 52.5703125 -0.0135498 C59.92541387 0.00821921 67.28007173 0.00116786 74.63516235 -0.02085543 C80.95036617 -0.03900805 87.26543648 -0.04156848 93.58065796 -0.03110075 C97.35234853 -0.02486499 101.12383064 -0.02403225 104.89550781 -0.0372467 C108.44153603 -0.04880278 111.98699253 -0.04078487 115.53295898 -0.01766968 C117.45490737 -0.00985857 119.37690412 -0.02174065 121.29882812 -0.03417969 C123.01489258 -0.01726074 123.01489258 -0.01726074 124.765625 0 C125.75965332 0.0015081 126.75368164 0.0030162 127.77783203 0.00457001 C131.12180514 0.65073131 132.31253651 1.85166135 134.3828125 4.50793457 C134.8828125 7.50793457 134.8828125 7.50793457 134.3828125 10.50793457 C132.5157134 12.81069013 131.02633509 14.18617328 128.3828125 15.50793457 C126.63311949 15.61174932 124.87949612 15.65179122 123.12675476 15.66183472 C121.45484573 15.67473541 121.45484573 15.67473541 119.74916077 15.68789673 C117.9062571 15.69428665 117.9062571 15.69428665 116.02612305 15.70080566 C114.09189484 15.7130719 114.09189484 15.7130719 112.11859131 15.72558594 C107.83559257 15.75180966 103.55258403 15.76711365 99.26953125 15.78137207 C97.79553534 15.78673156 96.3215395 15.79210907 94.84754372 15.79750443 C88.71652798 15.81913344 82.58551488 15.83787049 76.45447063 15.84912682 C67.6656213 15.86536849 58.87721391 15.89855067 50.0885312 15.95552766 C43.91011982 15.99421775 37.73182669 16.01375835 31.55329734 16.01904738 C27.86246077 16.02270213 24.17209551 16.03473531 20.48139 16.06715012 C16.36322081 16.10280073 12.2460023 16.09886237 8.12768555 16.09143066 C6.90515579 16.107836 5.68262604 16.12424133 4.42304993 16.1411438 C-4.77468591 16.0730167 -4.77468591 16.0730167 -7.87858582 13.16287231 C-10.01117206 9.90629908 -10.34834335 8.32619292 -9.6171875 4.50793457 C-6.66313992 0.73337918 -4.73247101 0.00717993 0 0 Z " fill="#060606" transform="translate(150.6171875,156.4920654296875)"/>
<path d="M0 0 C0.28497208 4.73766081 0.53617312 9.47241729 0.7265625 14.21484375 C0.87991275 17.97572683 1.15238277 21.69619995 1.5234375 25.44140625 C2.18462542 33.82106083 2.33744609 40.38518856 -2.99145508 47.23999023 C-5.31041375 49.90277034 -7.72108299 52.46449286 -10.16992188 55.0078125 C-13.23406077 58.34337458 -15.82259796 61.9960398 -18.4375 65.6875 C-18.96069824 66.41718994 -19.48389648 67.14687988 -20.02294922 67.89868164 C-26.57865185 77.10788296 -32.79358851 86.55344564 -39 96 C-41.91281776 90.76682951 -43.08851764 84.84752582 -44.6237793 79.10058594 C-45.18635334 77.00427279 -45.76374514 74.91240284 -46.34179688 72.8203125 C-46.70143756 71.4846215 -47.06019179 70.14869143 -47.41796875 68.8125 C-47.74563232 67.60207031 -48.0732959 66.39164062 -48.41088867 65.14453125 C-49.52683655 59.18787617 -46.83407161 55.86775494 -43.5625 51.0625 C-43.11656494 50.4015332 -42.67062988 49.74056641 -42.21118164 49.05957031 C-37.73605112 42.49573134 -32.94657205 36.21308567 -28 30 C-26.90751953 28.61554688 -26.90751953 28.61554688 -25.79296875 27.203125 C-3.97543353 0 -3.97543353 0 0 0 Z " fill="#FBE67B" transform="translate(387,103)"/>
<path d="M0 0 C0.66 0 1.32 0 2 0 C4.61731051 6.90205067 7.20954223 13.81306688 9.78076172 20.73242188 C10.5575187 22.81414302 11.33980807 24.89381421 12.12939453 26.97070312 C13.14420045 29.64139235 14.13705555 32.31927985 15.125 35 C15.43187744 35.79245117 15.73875488 36.58490234 16.05493164 37.40136719 C19.68275249 47.41933074 15.97606236 55.76611005 12.8125 65.5 C7.19934086 83.08612557 2.63306399 100.89841802 -1 119 C-15.2687071 97.59693934 -15.22557523 53.3751736 -10.48925781 29.01611328 C-8.38014242 19.45873984 -5.81053519 8.02106488 0 0 Z " fill="#F9DF58" transform="translate(280,255)"/>
<path d="M0 0 C0.66 0 1.32 0 2 0 C2.16604736 0.67466309 2.33209473 1.34932617 2.50317383 2.04443359 C3.27037027 5.15526482 4.0414129 8.26513097 4.8125 11.375 C5.07353516 12.43589844 5.33457031 13.49679688 5.60351562 14.58984375 C7.05441299 20.42925785 8.61446086 26.16768793 10.5534668 31.86572266 C11.49038483 36.34387324 9.25453299 39.6664289 7.19140625 43.55859375 C6.61374512 44.65695557 6.03608398 45.75531738 5.44091797 46.88696289 C5.13426208 47.46624542 4.8276062 48.04552795 4.51165771 48.6423645 C-0.36625243 57.86792261 -5.13925897 67.13871078 -9.625 76.5625 C-10.01357178 77.37452881 -10.40214355 78.18655762 -10.80249023 79.02319336 C-13.12930822 83.95433035 -15.18593313 88.93411069 -17.08349609 94.04663086 C-18 96 -18 96 -20 97 C-21.46275072 93.14789856 -22.90434344 89.28858092 -24.32739258 85.42163086 C-24.813602 84.1093014 -25.30538293 82.7990214 -25.80297852 81.4909668 C-26.52040303 79.60206073 -27.21696232 77.70650532 -27.91015625 75.80859375 C-28.33433838 74.67220459 -28.75852051 73.53581543 -29.19555664 72.36499023 C-30.5752216 66.59384543 -29.18864808 61.85768158 -26.91796875 56.5078125 C-26.48637451 55.48502197 -26.05478027 54.46223145 -25.61010742 53.40844727 C-25.14064697 52.32490967 -24.67118652 51.24137207 -24.1875 50.125 C-23.70192627 48.9918335 -23.21635254 47.85866699 -22.71606445 46.69116211 C-15.83351222 30.79236752 -8.42412584 15.14198261 0 0 Z " fill="#FBF5DE" transform="translate(326,182)"/>
<path d="M0 0 C1.03076847 3.17414081 0.95073474 5.0922399 -0.00390625 8.2734375 C-0.2467334 9.09134766 -0.48956055 9.90925781 -0.73974609 10.75195312 C-1.01125488 11.61755859 -1.28276367 12.48316406 -1.5625 13.375 C-1.83916504 14.26896484 -2.11583008 15.16292969 -2.40087891 16.08398438 C-7.13418408 31.04369876 -12.99623496 45.66813832 -25.43359375 55.890625 C-27.74678812 58.64427714 -27.74678812 58.64427714 -28 66 C-41.86 66 -55.72 66 -70 66 C-68.1385107 62.27702139 -66.74413327 60.55548726 -63.8125 57.75 C-60.94352351 54.99658649 -58.26177582 52.17275721 -55.67578125 49.15625 C-52.14162153 45.0799478 -48.34239 41.40009658 -44.375 37.75 C-43.68059814 37.10595215 -42.98619629 36.4619043 -42.27075195 35.79833984 C-40.85699547 34.48793428 -39.44172972 33.17915499 -38.02490234 31.87207031 C-36.16135058 30.14917244 -34.30728973 28.41683663 -32.45703125 26.6796875 C-22.18093482 17.05729062 -11.32107261 8.35744104 0 0 Z " fill="#FAF4DD" transform="translate(483,72)"/>
<path d="M0 0 C1.51038597 -0.01292336 1.51038597 -0.01292336 3.05128479 -0.02610779 C6.38218845 -0.0488239 9.71225459 -0.04201802 13.04321289 -0.03295898 C15.35722606 -0.03819224 17.6712371 -0.04446761 19.98524475 -0.05174255 C24.83661939 -0.06215737 29.68770091 -0.05756982 34.5390625 -0.04296875 C40.75812156 -0.02578425 46.97625646 -0.04926739 53.19521236 -0.08445835 C57.97447338 -0.10641272 62.75351263 -0.10499546 67.5328083 -0.09669304 C69.82575048 -0.09587236 72.11870876 -0.10275787 74.41160393 -0.11746407 C77.6174292 -0.13487185 80.82158582 -0.12039712 84.02734375 -0.09765625 C84.97556 -0.10934845 85.92377625 -0.12104065 86.90072632 -0.13308716 C91.43283428 -0.06763243 93.46420437 0.07878602 97.20265198 2.84632874 C99.07836914 5.53344727 99.07836914 5.53344727 99.14086914 9.15844727 C98.07836914 12.53344727 98.07836914 12.53344727 96.62632751 14.21813965 C92.62088665 16.28582919 88.69266415 15.96721133 84.24853516 15.95336914 C83.25136475 15.96183868 82.25419434 15.97030823 81.22680664 15.97903442 C77.92850005 16.00244543 74.63065881 16.0034256 71.33227539 16.00219727 C69.04068311 16.00929622 66.74909261 16.01699483 64.45750427 16.02526855 C59.65325988 16.03872273 54.84917985 16.04027781 50.04492188 16.03442383 C43.88642595 16.02852625 37.72871796 16.05911822 31.57037449 16.09954071 C26.83745571 16.12538144 22.10472757 16.1282984 17.37174797 16.12464905 C15.10112464 16.12634361 12.83049282 16.13601829 10.55993843 16.15379333 C7.38528727 16.17591108 4.21224299 16.16631678 1.03759766 16.14868164 C-0.37070061 16.16857651 -0.37070061 16.16857651 -1.80744934 16.18887329 C-6.33539155 16.13038551 -8.30441956 16.00266806 -12.00892639 13.18640137 C-13.92163086 10.53344727 -13.92163086 10.53344727 -14.48413086 7.47094727 C-12.94100555 -0.58759602 -6.81517899 -0.04680398 0 0 Z " fill="#030202" transform="translate(154.921630859375,209.466552734375)"/>
<path d="M0 0 C0.86033844 -0.00807175 1.72067688 -0.01614349 2.60708618 -0.02445984 C4.43806939 -0.03832826 6.26907874 -0.049038 8.10009766 -0.05688477 C10.86803591 -0.07393523 13.63472827 -0.11777403 16.40234375 -0.16210938 C32.3051408 -0.30280463 43.62608048 2.92489241 55.6640625 13.73828125 C63.32692556 21.66220377 67.63198788 32.3288898 67.8515625 43.23828125 C67.90763672 45.06359375 67.90763672 45.06359375 67.96484375 46.92578125 C67.5390625 50.23828125 67.5390625 50.23828125 65.73828125 52.67578125 C63.5390625 54.23828125 63.5390625 54.23828125 60.0390625 54.23828125 C56.18065548 53.13587924 54.99126331 52.33744568 52.5390625 49.23828125 C51.921875 46.35546875 51.921875 46.35546875 51.6640625 43.11328125 C50.59335966 34.81766183 47.36961339 28.627586 41.2890625 22.86328125 C30.75379719 15.04664945 19.75724411 15.70808045 7.24511719 15.82299805 C4.90767213 15.8374942 2.5717646 15.82230696 0.234375 15.8046875 C-0.47919159 15.82116837 -1.19275818 15.83764923 -1.927948 15.85462952 C-5.71047838 15.8165163 -7.15626578 15.54144834 -9.88330078 12.82788086 C-12.38324745 8.7243627 -12.38324745 8.7243627 -12.4609375 6.23828125 C-9.14142741 -0.24985211 -6.94224494 0.06139469 0 0 Z " fill="#010101" transform="translate(336.4609375,-0.23828125)"/>
<path d="M0 0 C0.84125931 -0.0087616 1.68251862 -0.01752319 2.54927063 -0.02655029 C5.32308922 -0.04851168 8.09530655 -0.03400365 10.86914062 -0.01708984 C12.80058091 -0.02045893 14.73201912 -0.02531232 16.66345215 -0.03158569 C20.70862033 -0.03895259 24.75323596 -0.02825737 28.79833984 -0.00488281 C33.9805474 0.02360483 39.16146024 0.00719988 44.3436203 -0.02274513 C48.33113337 -0.04082302 52.31834007 -0.03505782 56.30586243 -0.02210617 C58.21641697 -0.01877352 60.12699943 -0.02285429 62.03752136 -0.03450394 C64.70935614 -0.04722086 67.37910189 -0.02782516 70.05078125 0 C71.23230522 -0.01518173 71.23230522 -0.01518173 72.43769836 -0.03067017 C76.45557432 0.04675248 78.32034466 0.48612512 81.51989746 2.9960022 C83.52539062 5.64697266 83.52539062 5.64697266 84.08789062 8.70947266 C83.37479702 12.43340593 82.56839804 13.39655285 79.52539062 15.64697266 C76.54817243 16.04151404 73.94129831 16.19424718 70.96484375 16.16455078 C70.10261703 16.17156006 69.24039032 16.17856934 68.35203552 16.18579102 C65.5032425 16.20338954 62.65544367 16.19174178 59.80664062 16.17822266 C57.82653615 16.18091704 55.84643296 16.18479901 53.86633301 16.18981934 C49.71691284 16.1957169 45.56783715 16.18714303 41.41845703 16.16845703 C36.0984073 16.14566743 30.77916471 16.15878911 25.45914459 16.18274689 C21.37048252 16.19719783 17.28201195 16.19260209 13.19334412 16.18223572 C11.23172409 16.17956649 9.2700867 16.18284507 7.30848694 16.19215393 C4.56716832 16.20230788 1.82715857 16.18683492 -0.9140625 16.16455078 C-2.13138817 16.17669617 -2.13138817 16.17669617 -3.37330627 16.18908691 C-6.95258511 16.13515564 -9.0566137 15.95609637 -11.9744873 13.79821777 C-13.47460938 11.64697266 -13.47460938 11.64697266 -14.03710938 8.70947266 C-12.61888321 0.9880191 -6.89576029 -0.08860555 0 0 Z " fill="#070707" transform="translate(154.474609375,315.35302734375)"/>
<path d="M0 0 C0.84125931 -0.00700928 1.68251862 -0.01401855 2.54927063 -0.02124023 C5.32289898 -0.03880814 8.09550237 -0.02720196 10.86914062 -0.01367188 C12.80057979 -0.01636714 14.73201763 -0.02024985 16.66345215 -0.02526855 C20.70854631 -0.03116197 24.75328683 -0.02260566 28.79833984 -0.00390625 C33.98038636 0.01888316 39.16160418 0.00575924 44.3436203 -0.01819611 C48.33109772 -0.03265829 52.31837906 -0.02804615 56.30586243 -0.01768494 C58.21641641 -0.01501882 60.12698825 -0.01828338 62.03752136 -0.02760315 C64.70908689 -0.03777566 67.37931519 -0.02225835 70.05078125 0 C70.8384639 -0.00809692 71.62614655 -0.01619385 72.43769836 -0.02453613 C76.12068929 0.03223952 78.34354877 0.40744709 81.51989746 2.33117676 C83.52539062 4.51757812 83.52539062 4.51757812 84.08789062 8.01757812 C83.42299113 12.15473056 82.87912505 13.08452806 79.52539062 15.51757812 C76.54817243 15.91211951 73.94129831 16.06485265 70.96484375 16.03515625 C70.10261703 16.04216553 69.24039032 16.0491748 68.35203552 16.05639648 C65.5032425 16.07399501 62.65544367 16.06234725 59.80664062 16.04882812 C57.82653615 16.05152251 55.84643296 16.05540448 53.86633301 16.0604248 C49.71691284 16.06632237 45.56783715 16.0577485 41.41845703 16.0390625 C36.0984073 16.0162729 30.77916471 16.02939458 25.45914459 16.05335236 C21.37048252 16.06780329 17.28201195 16.06320756 13.19334412 16.05284119 C11.23172409 16.05017196 9.2700867 16.05345054 7.30848694 16.0627594 C4.56716832 16.07291335 1.82715857 16.05744039 -0.9140625 16.03515625 C-2.13138817 16.04730164 -2.13138817 16.04730164 -3.37330627 16.05969238 C-6.92883372 16.00611899 -9.05810951 15.81973831 -11.9744873 13.70397949 C-14.19631267 10.46570834 -14.08971322 8.34489097 -13.47460938 4.51757812 C-9.46791101 0.14945016 -5.62370197 -0.05780842 0 0 Z " fill="#020202" transform="translate(154.474609375,262.482421875)"/>
<path d="M0 0 C0.86222672 -0.00700928 1.72445343 -0.01401855 2.61280823 -0.02124023 C5.46160125 -0.03883876 8.30940008 -0.027191 11.15820312 -0.01367188 C13.1383076 -0.01636626 15.11841079 -0.02024823 17.09851074 -0.02526855 C21.24793091 -0.03116612 25.3970066 -0.02259225 29.54638672 -0.00390625 C34.86643645 0.01888335 40.18567904 0.00576167 45.50569916 -0.01819611 C49.59436123 -0.03264704 53.6828318 -0.02805131 57.77149963 -0.01768494 C59.73311966 -0.01501571 61.69475705 -0.01829429 63.65635681 -0.02760315 C66.39767543 -0.0377571 69.13768518 -0.02228414 71.87890625 0 C73.09623192 -0.01214539 73.09623192 -0.01214539 74.33815002 -0.02453613 C77.91742886 0.02939514 80.02145745 0.20845441 82.93933105 2.36633301 C84.43945312 4.51757812 84.43945312 4.51757812 85.00195312 7.45507812 C84.23233717 11.64520942 82.77430331 12.90156754 79.43945312 15.51757812 C76.42415268 16.01221122 73.97528255 16.20323275 70.96484375 16.16455078 C70.12358444 16.17331238 69.28232513 16.18207397 68.41557312 16.19110107 C65.64175453 16.21306247 62.8695372 16.19855443 60.09570312 16.18164062 C58.16426284 16.18500971 56.23282463 16.1898631 54.3013916 16.19613647 C50.25622342 16.20350337 46.21160779 16.19280815 42.16650391 16.16943359 C36.98429635 16.14094595 31.80338351 16.1573509 26.62122345 16.18729591 C22.63371038 16.2053738 18.64650368 16.1996086 14.65898132 16.18665695 C12.74842678 16.1833243 10.83784432 16.18740507 8.92732239 16.19905472 C6.25548761 16.21177164 3.58574186 16.19237594 0.9140625 16.16455078 C-0.26746147 16.17973251 -0.26746147 16.17973251 -1.47285461 16.19522095 C-5.49073057 16.1177983 -7.35550091 15.67842566 -10.55505371 13.16854858 C-12.56054688 10.51757812 -12.56054688 10.51757812 -13.12304688 7.45507812 C-11.71644531 0.10949217 -6.49729458 -0.06482419 0 0 Z " fill="#030303" transform="translate(153.560546875,369.482421875)"/>
<path d="M0 0 C-0.81082031 0.61746094 -1.62164062 1.23492187 -2.45703125 1.87109375 C-12.5008023 9.54246471 -22.32987566 17.38004742 -31.6796875 25.89453125 C-33.70154184 27.72917685 -35.74678522 29.52768786 -37.8125 31.3125 C-50.39835616 42.30616953 -63.04026558 53.72700358 -73.73046875 66.609375 C-75 68 -75 68 -77 69 C-77.73868295 56.98321123 -78.13873856 45.03942433 -78 33 C-77.01 33.33 -76.02 33.66 -75 34 C-70.5756456 34.5530443 -67.9145403 34.27337696 -64.34375 31.69140625 C-63.05140492 30.66221745 -61.7706195 29.61839368 -60.5 28.5625 C-45.80246378 16.97537261 -29.35739754 7.82798295 -11.75 1.4375 C-11.03473145 1.17364502 -10.31946289 0.90979004 -9.58251953 0.63793945 C-3.44874793 -1.48438377 -3.44874793 -1.48438377 0 0 Z " fill="#F7EAAA" transform="translate(479,57)"/>
<path d="M0 0 C0.33 1.32 0.66 2.64 1 4 C34.33 4 67.66 4 102 4 C102 7.96 102 11.92 102 16 C68.01 16 34.02 16 -1 16 C-0.67 10.72 -0.34 5.44 0 0 Z " fill="#EEE1DC" transform="translate(287,416)"/>
<path d="M0 0 C0.33 9.24 0.66 18.48 1 28 C0.67 28 0.34 28 0 28 C-0.495 25.03 -0.495 25.03 -1 22 C-9.82651109 30.6152339 -18.54006831 39.1470522 -26 49 C-26.5873291 49.76989258 -27.1746582 50.53978516 -27.77978516 51.33300781 C-31.11846954 55.71631124 -34.4422153 60.11090814 -37.7421875 64.5234375 C-38.2976123 65.26513184 -38.85303711 66.00682617 -39.42529297 66.77099609 C-41.08280496 69.03962864 -41.08280496 69.03962864 -42.57861328 71.77978516 C-43.0476709 72.51245605 -43.51672852 73.24512695 -44 74 C-44.66 74 -45.32 74 -46 74 C-46.53251766 72.08654673 -47.05059483 70.1690705 -47.5625 68.25 C-47.85253906 67.18265625 -48.14257812 66.1153125 -48.44140625 65.015625 C-49.53203006 59.1277818 -46.80252604 55.8214211 -43.5625 51.0625 C-43.11656494 50.4015332 -42.67062988 49.74056641 -42.21118164 49.05957031 C-37.73605112 42.49573134 -32.94657205 36.21308567 -28 30 C-26.90751953 28.61554688 -26.90751953 28.61554688 -25.79296875 27.203125 C-3.97543353 0 -3.97543353 0 0 0 Z " fill="#F8DF58" transform="translate(387,103)"/>
<path d="M0 0 C0.66 0 1.32 0 2 0 C2.53469802 1.72492978 3.05219175 3.455198 3.5625 5.1875 C3.85253906 6.15042969 4.14257812 7.11335937 4.44140625 8.10546875 C5.63052253 14.26725309 2.85886687 18.31939829 -0.1875 23.5 C-10.08974761 40.83997671 -19.18815296 59.21876458 -26 78 C-29.04607867 73.43088199 -30.44861639 69.68352917 -29.54663086 64.17773438 C-28.32196657 59.2987681 -26.18207523 54.72857684 -24.1875 50.125 C-23.70192627 48.9918335 -23.21635254 47.85866699 -22.71606445 46.69116211 C-15.83351222 30.79236752 -8.42412584 15.14198261 0 0 Z " fill="#F7EAAA" transform="translate(326,182)"/>
<path d="M0 0 C-1.32495665 3.01831588 -2.62565429 4.75963026 -5.1875 6.8125 C-14.38053329 14.59122048 -23.13870369 23.38866432 -30.80078125 32.6796875 C-32 34 -32 34 -34 35 C-35.65028836 21.26426661 -35.65028836 21.26426661 -32.18359375 16.5078125 C-29.84608047 14.78768822 -27.50313707 13.32507835 -24.92333984 11.99658203 C-22.68876546 10.83873326 -20.51416211 9.5936526 -18.33203125 8.33984375 C-3.71030309 0 -3.71030309 0 0 0 Z " fill="#FAF4DC" transform="translate(436,91)"/>
<path d="M0 0 C1.11503906 0.01289062 2.23007813 0.02578125 3.37890625 0.0390625 C6.31878096 0.36196062 8.00866933 0.73374934 10.4375 2.375 C12.4375 5.375 12.4375 5.375 12.25 8.875 C11.1673687 13.53864254 11.1673687 13.53864254 8.4375 15.375 C5.69277967 15.7008438 3.24020623 15.83948502 0.5 15.8125 C-0.21607422 15.83248047 -0.93214844 15.85246094 -1.66992188 15.87304688 C-5.15738267 15.86981475 -7.18784565 15.64946988 -10.03125 13.56640625 C-12.29209142 10.33086534 -12.18051681 8.22043793 -11.5625 4.375 C-7.85326038 0.54302818 -5.25726962 -0.13402078 0 0 Z " fill="#060505" transform="translate(150.5625,102.625)"/>
<path d="M0 0 C3.95410548 5.14060557 6 10.06723327 6 16.625 C4.82485843 23.24361344 2.23063724 29.67848929 0 36 C-0.66 35.67 -1.32 35.34 -2 35 C-2.05899621 31.22923455 -2.09392568 27.45859074 -2.125 23.6875 C-2.14175781 22.63498047 -2.15851563 21.58246094 -2.17578125 20.49804688 C-2.21920196 13.44218197 -1.5223667 6.89012527 0 0 Z " fill="#F8E378" transform="translate(292,286)"/>
<path d="M0 0 C1.13757948 4.55031791 0.4283779 6.63084406 -1 11 C-1.433125 10.38125 -1.86625 9.7625 -2.3125 9.125 C-3.99740483 6.7802755 -3.99740483 6.7802755 -7 5 C-4.69 3.35 -2.38 1.7 0 0 Z " fill="#E8DCA1" transform="translate(483,72)"/>
</svg>
