<svg
  width="256"
  height="256"
  viewBox="0 0 256 256"
  fill="none"
  xmlns="http://www.w3.org/2000/svg"
  role="img"
  aria-labelledby="title desc"
>
  <title id="title">Feather Quill</title>
  <desc id="desc">An elegant feather quill with curved barbs and a nib.</desc>

  <!-- Feather body -->
  <path
    d="M200 30c-58 8-106 48-132 106-9 21-14 44-15 66 0 3 3 5 6 4 22-1 45-6 66-15 58-26 98-74 106-132 1-5-3-9-8-8Z"
    fill="white"
    fill-opacity="0.12"
  />

  <!-- Feather spine -->
  <path
    d="M196 36C120 58 66 112 44 188m0 0c24-9 46-24 64-44m-64 44c20-18 35-40 44-64"
    stroke="white"
    stroke-width="6"
    stroke-linecap="round"
    stroke-linejoin="round"
  />

  <!-- Barbs -->
  <path
    d="M86 156c14-6 28-16 40-28M66 170c12-4 24-11 34-20M104 140c16-4 30-12 44-24M120 120c14-2 28-8 40-18M138 102c12-2 24-6 34-14"
    stroke="white"
    stroke-width="4"
    stroke-linecap="round"
  />

  <!-- Nib -->
  <path
    d="M44 188l-16 30 30-16"
    stroke="white"
    stroke-width="6"
    stroke-linecap="round"
    stroke-linejoin="round"
    fill="none"
  />

  <!-- Shadow -->
  <ellipse
    cx="80"
    cy="230"
    rx="56"
    ry="8"
    fill="white"
    opacity="0.08"
  />
</svg>
