<?xml version="1.0" encoding="UTF-8"?>
<svg version="1.1" xmlns="http://www.w3.org/2000/svg" width="512" height="512">
<path d="M0 0 C4.13262094 1.41572955 6.92901609 4.6577179 9.97265625 7.67578125 C11.00737531 8.67363062 12.04256346 9.67099372 13.078125 10.66796875 C14.16942381 11.73158202 15.25926788 12.79668993 16.34765625 13.86328125 C16.87190186 14.37415283 17.39614746 14.88502441 17.9362793 15.41137695 C22.7973474 20.26451897 22.7973474 20.26451897 23.97265625 23.67578125 C23.84351212 27.356389 23.75125016 29.74745775 21.34765625 32.61328125 C17.98262834 34.11868847 15.62228193 34.1239809 11.97265625 33.67578125 C9.25 31.6484375 9.25 31.6484375 6.97265625 29.67578125 C6.84888535 34.30214705 6.75824109 38.92754586 6.69799805 43.55517578 C6.67288177 45.12858876 6.63878153 46.70188537 6.59545898 48.27490234 C6.53467226 50.53902897 6.50642043 52.80161147 6.484375 55.06640625 C6.45856857 55.76759583 6.43276215 56.4687854 6.40617371 57.19122314 C6.40425649 60.54373739 6.64830755 62.3024838 8.8723526 64.86216831 C13.30923149 67.45764987 17.08971348 67.22723054 22.1451416 67.17698669 C23.17902464 67.18252109 24.21290769 67.18805549 25.27812052 67.19375759 C28.74750609 67.2073865 32.21617508 67.19238211 35.68554688 67.17749023 C38.17075405 67.18127258 40.65595912 67.18677191 43.14115906 67.19386292 C49.19354826 67.20639306 55.24565588 67.20023881 61.29801786 67.18518733 C68.34606495 67.16832691 75.39406007 67.17153754 82.44212109 67.17528141 C95.01760857 67.18116013 107.59299593 67.16698802 120.16845703 67.14233398 C132.37129469 67.11841316 144.57399857 67.1113297 156.77685547 67.12182617 C170.06466712 67.13323541 183.35241689 67.13516538 196.64022779 67.12072808 C198.0571235 67.11920224 199.4740192 67.11768188 200.89091492 67.11616707 C201.58805632 67.11540925 202.28519771 67.11465144 203.00346461 67.11387066 C207.91640702 67.10912787 212.8293218 67.11097923 217.74226379 67.11523247 C224.35457665 67.1206735 230.96673099 67.10991767 237.57901955 67.08827782 C240.00865363 67.0827041 242.43830553 67.08224997 244.8679409 67.08723068 C248.17889155 67.09316782 251.48927171 67.08070791 254.8001709 67.0634613 C255.76660601 67.06947135 256.73304112 67.07548139 257.72876215 67.08167356 C262.60049262 67.03537941 266.0573521 66.92872018 269.97265625 63.67578125 C271.4787214 60.66365096 271.09425956 57.56295503 271.0703125 54.26171875 C271.06889755 53.53207916 271.0674826 52.80243958 271.06602478 52.0506897 C271.06042156 49.7173454 271.0478686 47.38409661 271.03515625 45.05078125 C271.03014166 43.47005347 271.02557868 41.88932418 271.02148438 40.30859375 C271.01045109 36.43095271 270.99318436 32.55338318 270.97265625 28.67578125 C270.21984375 29.48789063 269.46703125 30.3 268.69140625 31.13671875 C265.97265625 33.67578125 265.97265625 33.67578125 262.47265625 34.30078125 C258.97265625 33.67578125 258.97265625 33.67578125 255.97265625 31.61328125 C253.97265625 28.67578125 253.97265625 28.67578125 253.72265625 25.36328125 C255.45257297 20.26002692 258.23458167 17.47584711 261.97265625 13.67578125 C262.99906583 12.55621625 264.02367113 11.43499555 265.046875 10.3125 C266.16635871 9.11958077 267.28746294 7.92818032 268.41015625 6.73828125 C269.1976123 5.86792236 269.1976123 5.86792236 270.00097656 4.97998047 C272.86416581 2.02462848 275.03269394 0.31938581 279.15625 -0.36328125 C282.97265625 -0.32421875 282.97265625 -0.32421875 285.01171875 0.6171875 C285.53507812 1.15214844 286.0584375 1.68710938 286.59765625 2.23828125 C287.56251953 3.18960938 287.56251953 3.18960938 288.546875 4.16015625 C289.34738281 4.9903125 290.14789063 5.82046875 290.97265625 6.67578125 C292.16399636 7.85037081 293.3582556 9.02200358 294.5546875 10.19140625 C297.07835026 12.67177873 299.5972787 15.1562965 302.09375 17.6640625 C302.62411865 18.19555908 303.1544873 18.72705566 303.70092773 19.2746582 C305.81344195 21.60211435 305.9869704 22.83037403 306.28515625 26.05078125 C305.97265625 29.67578125 305.97265625 29.67578125 304.41015625 32.11328125 C300.97329278 34.31639886 298.98907469 34.29901859 294.97265625 33.67578125 C292.79806704 32.17688845 290.95321134 30.43596472 288.97265625 28.67578125 C288.95807373 29.72443359 288.94349121 30.77308594 288.9284668 31.85351562 C288.87012992 35.77507207 288.79290188 39.6960754 288.71020508 43.6171875 C288.67712116 45.30850186 288.64903866 46.99992224 288.6262207 48.69140625 C288.59236789 51.13457064 288.54004117 53.5767778 288.484375 56.01953125 C288.47798508 56.76569702 288.47159515 57.51186279 288.4650116 58.28063965 C288.29708451 64.3900926 287.04091637 69.84632128 283.359375 74.8828125 C276.88442512 81.00052377 270.94548334 83.80576264 261.96757507 83.79603577 C260.49320229 83.79809776 260.49320229 83.79809776 258.98904419 83.80020142 C257.9223349 83.79660614 256.85562561 83.79301086 255.7565918 83.78930664 C254.62444748 83.78945267 253.49230316 83.78959869 252.32585144 83.78974915 C248.58700641 83.78905297 244.84821132 83.78127431 241.109375 83.7734375 C238.51577278 83.77157227 235.9221702 83.77014886 233.3285675 83.76914978 C227.20176223 83.76572289 221.07497754 83.75784287 214.94818002 83.74780029 C207.28642033 83.73551501 199.62465771 83.73004997 191.96289062 83.72460938 C178.29946523 83.71487696 164.63607888 83.69484354 150.97265625 83.67578125 C150.97265625 100.50578125 150.97265625 117.33578125 150.97265625 134.67578125 C158.6503125 134.629375 166.32796875 134.58296875 174.23828125 134.53515625 C179.09636765 134.51472298 183.95440122 134.49546754 188.8125 134.48046875 C196.52696711 134.45653862 204.2412447 134.42820099 211.95556641 134.37402344 C218.17362294 134.33062642 224.39147628 134.30665679 230.60967255 134.29627228 C232.98440501 134.28886993 235.3591261 134.27441525 237.73377228 134.25286102 C241.05485748 134.22390955 244.37509839 134.2198219 247.69628906 134.22167969 C248.68243698 134.20729858 249.6685849 134.19291748 250.68461609 134.17810059 C251.59042923 134.18359924 252.49624237 134.1890979 253.42950439 134.19476318 C254.60755583 134.18923243 254.60755583 134.18923243 255.80940628 134.18358994 C258.94019221 134.89591891 260.08199362 136.10527236 261.97265625 138.67578125 C262.47602081 141.64440536 262.47602081 141.64440536 262.48059082 145.17718506 C262.48995076 146.15389738 262.48995076 146.15389738 262.4994998 147.15034127 C262.5154458 149.33073988 262.50282039 151.51002294 262.49023438 153.69042969 C262.49565505 155.25438082 262.5027774 156.81832684 262.51147461 158.38226318 C262.52972367 162.63048899 262.52263245 166.87832658 262.50995827 171.12655926 C262.49983157 175.57512649 262.50922369 180.02366047 262.51550293 184.472229 C262.52278334 191.94736697 262.51318453 199.42234696 262.49414062 206.89746094 C262.4724029 215.52940821 262.47939901 224.16097711 262.50144625 232.79291511 C262.51962712 240.20880351 262.5221445 247.6245783 262.51169157 255.04048181 C262.50546728 259.4673356 262.50459096 263.89401192 262.51783752 268.32085419 C262.52943343 272.48736923 262.52130249 276.65339943 262.4982605 280.81986237 C262.49299192 282.34520159 262.49445538 283.87058193 262.50331116 285.39590454 C262.55181436 294.60247137 262.34761123 301.68328789 256.0078125 308.91796875 C255.35683594 309.45679688 254.70585937 309.995625 254.03515625 310.55078125 C253.38675781 311.10507812 252.73835938 311.659375 252.0703125 312.23046875 C247.12411873 315.63846073 242.55451002 315.96671975 236.68058777 315.94320679 C235.43307935 315.95000346 235.43307935 315.95000346 234.16036874 315.95693743 C231.37532922 315.96959125 228.590485 315.96796043 225.80541992 315.96630859 C223.80783334 315.97229324 221.81024907 315.97909864 219.81266785 315.98666382 C214.38696762 316.00433786 208.96133047 316.00901981 203.53560424 316.01029539 C199.00534725 316.01219472 194.47510494 316.01955268 189.9448536 316.02663958 C179.25546449 316.04292662 168.56610908 316.04780826 157.87670898 316.04638672 C146.8527835 316.04518531 135.82905381 316.06628627 124.80517787 316.09787405 C115.33835434 316.12403287 105.87159478 316.13475417 96.40473539 316.1334759 C90.75163315 316.13296614 85.09870488 316.13865744 79.44563866 316.159832 C74.12763153 316.17920751 68.80996444 316.17934338 63.49194527 316.16479874 C61.5424894 316.16270867 59.59301229 316.16742328 57.64359283 316.17951965 C54.9772223 316.19499034 52.31202159 316.1856522 49.64567566 316.17025757 C48.87863554 316.18054469 48.11159541 316.19083182 47.32131165 316.20143068 C40.79603413 316.11847234 35.64821041 314.02038707 30.73046875 309.7109375 C30.19164062 309.05996094 29.6528125 308.40898437 29.09765625 307.73828125 C28.54335937 307.08988281 27.9890625 306.44148438 27.41796875 305.7734375 C23.6347795 300.28270067 23.63906012 295.16465228 23.6015625 288.703125 C23.58801979 287.26302818 23.58801979 287.26302818 23.57420349 285.7938385 C23.55972722 283.76908476 23.55082079 281.74428453 23.54711914 279.71948242 C23.53518265 276.6201365 23.48593795 273.52275659 23.43554688 270.42382812 C23.42608668 268.45443678 23.41884972 266.48503324 23.4140625 264.515625 C23.39453018 263.58950912 23.37499786 262.66339325 23.35487366 261.70921326 C23.39975294 255.32575839 23.39975294 255.32575839 26.28100586 252.05688477 C29.9527223 250.17290292 32.04793818 250.58558179 35.97265625 251.67578125 C38.03203841 253.25464091 38.81836836 254.36720548 39.97265625 256.67578125 C40.09338981 259.47134243 40.15833232 262.24626737 40.18359375 265.04296875 C40.21166212 266.75000959 40.24032658 268.45704072 40.26953125 270.1640625 C40.31080108 272.85888399 40.34768306 275.55352402 40.37402344 278.24853516 C40.40163189 280.84706211 40.4475024 283.4447608 40.49609375 286.04296875 C40.49934662 286.84725311 40.50259949 287.65153748 40.50595093 288.48019409 C40.57739563 291.7320354 40.74640919 294.23787537 42.25244141 297.15283203 C45.82871651 300.31899781 50.21546457 299.80994015 54.79364014 299.83399963 C55.82169655 299.8414066 55.82169655 299.8414066 56.87052178 299.8489632 C59.16595743 299.86431537 61.46136515 299.87269262 63.75683594 299.88110352 C65.40272771 299.89068383 67.04861704 299.90069401 68.69450378 299.91110229 C73.16311698 299.93814075 77.63174072 299.95915607 82.10039043 299.97910428 C86.77025462 300.00097034 91.44008633 300.02835601 96.10992432 300.05516052 C104.95314037 300.105079 113.79637446 300.15002098 122.63962579 300.19318289 C132.70726307 300.24256247 142.77486775 300.29747793 152.84247351 300.35286248 C173.55250406 300.46666956 194.26256572 300.5735114 214.97265625 300.67578125 C214.64265625 299.68578125 214.31265625 298.69578125 213.97265625 297.67578125 C213.88323177 296.10227433 213.85068304 294.52521797 213.85240173 292.94917297 C213.85033549 291.49457279 213.85033549 291.49457279 213.8482275 290.01058674 C213.85182561 288.94401938 213.85542372 287.87745203 213.85913086 286.77856445 C213.85901032 285.6383015 213.85888979 284.49803854 213.8587656 283.32322216 C213.85951327 279.62431591 213.86713494 275.92545976 213.875 272.2265625 C213.87646987 269.94608586 213.8774903 267.66560888 213.87805176 265.38513184 C213.88329943 256.91950984 213.89726057 248.45389505 213.91015625 239.98828125 C213.93078125 221.07515625 213.95140625 202.16203125 213.97265625 182.67578125 C156.55265625 182.67578125 99.13265625 182.67578125 39.97265625 182.67578125 C39.97265625 196.86578125 39.97265625 211.05578125 39.97265625 225.67578125 C36.97265625 230.67578125 36.97265625 230.67578125 34.97265625 231.67578125 C31.54365865 232.05678098 29.45597583 231.90136887 26.31494141 230.43530273 C22.47993535 225.91715874 23.259753 220.94666376 23.30859375 215.2109375 C23.30381012 213.98547714 23.29902649 212.76001678 23.2940979 211.49742126 C23.29069548 208.90590125 23.29992152 206.31433852 23.32080078 203.72290039 C23.34753448 199.75634926 23.32107194 195.79263425 23.2890625 191.82617188 C23.29236698 189.3085875 23.298774 186.79100489 23.30859375 184.2734375 C23.2984726 183.0868605 23.28835144 181.90028351 23.27792358 180.67774963 C23.39345796 172.5564954 23.39345796 172.5564954 26.11450195 168.41894531 C29.50993534 166.34809929 31.40966781 166.09371991 35.3671875 166.1875 C36.56923828 166.20361328 37.77128906 166.21972656 39.00976562 166.23632812 C40.25564453 166.27822266 41.50152344 166.32011719 42.78515625 166.36328125 C44.68297852 166.39711914 44.68297852 166.39711914 46.61914062 166.43164062 C49.73818244 166.49049047 52.85481527 166.57266755 55.97265625 166.67578125 C55.93338013 165.48819214 55.93338013 165.48819214 55.89331055 164.27661133 C55.78921503 160.68070408 55.72428725 157.08511394 55.66015625 153.48828125 C55.61826172 152.24240234 55.57636719 150.99652344 55.53320312 149.71289062 C55.51708984 148.51083984 55.50097656 147.30878906 55.484375 146.0703125 C55.45819092 144.96534424 55.43200684 143.86037598 55.4050293 142.72192383 C56.17656004 138.58154142 57.71108686 137.29110847 60.97265625 134.67578125 C64.383255 134.07450867 64.383255 134.07450867 68.33325195 134.1081543 C69.05574631 134.10742416 69.77824066 134.10669403 70.52262878 134.10594177 C72.89867572 134.10941124 75.27273529 134.14823712 77.6484375 134.1875 C79.30037871 134.19683053 80.9523338 134.20394551 82.60429382 134.2089386 C86.94311005 134.22798984 91.2810836 134.27707359 95.61956787 134.3324585 C100.82988318 134.39270646 106.04048096 134.41557624 111.25104523 134.44472504 C119.15883419 134.49314075 127.06477582 134.58896627 134.97265625 134.67578125 C134.97265625 117.84578125 134.97265625 101.01578125 134.97265625 83.67578125 C129.40886108 83.69934692 129.40886108 83.69934692 123.73266602 83.72338867 C111.46719767 83.77313397 99.20173083 83.80640302 86.9361887 83.83121777 C79.50078233 83.84666159 72.0654718 83.86770333 64.63012695 83.90209961 C58.146597 83.93207835 51.66313648 83.9513743 45.17953914 83.95804673 C41.74911234 83.96194472 38.31888412 83.97105303 34.88852119 83.99297142 C31.05129424 84.01479926 27.21447648 84.01774584 23.37719727 84.01635742 C22.25006317 84.02714325 21.12292908 84.03792908 19.9616394 84.04904175 C11.00190315 84.01404228 3.00796906 82.59183975 -4.02734375 76.67578125 C-8.77623546 70.31818639 -10.17726472 65.19713851 -10.34375 57.2890625 C-10.3645311 56.47205368 -10.38531219 55.65504486 -10.40672302 54.8132782 C-10.47207454 52.20503091 -10.53103648 49.5966835 -10.58984375 46.98828125 C-10.63304267 45.21939071 -10.6766574 43.45051028 -10.72070312 41.68164062 C-10.82774118 37.34645662 -10.92904919 33.01117196 -11.02734375 28.67578125 C-12.47184245 29.95955404 -13.91634115 31.24332682 -15.36083984 32.52709961 C-18.27575978 34.53628483 -20.65047846 34.23859213 -24.02734375 33.67578125 C-26.46484375 32.17578125 -26.46484375 32.17578125 -28.02734375 29.67578125 C-28.75151496 26.30516238 -28.97813903 24.89797588 -28.02734375 21.67578125 C-24.98925448 17.60488671 -21.34881232 14.20029014 -17.65234375 10.73828125 C-16.65578276 9.77330827 -15.6609708 8.80652553 -14.66796875 7.83789062 C-5.56380935 -0.94824677 -5.56380935 -0.94824677 0 0 Z M71.97265625 150.67578125 C71.97265625 155.95578125 71.97265625 161.23578125 71.97265625 166.67578125 C74.81573395 166.69124245 74.81573395 166.69124245 77.71624756 166.70701599 C95.55100459 166.80463865 113.38572624 166.90730368 131.22042465 167.01512051 C140.39010087 167.07042439 149.55978098 167.12390175 158.72949219 167.1730957 C166.72078319 167.21597225 174.71204587 167.26225903 182.70329309 167.3126598 C186.93550488 167.33923275 191.16771116 167.36408515 195.39995575 167.38485527 C199.3824065 167.40445335 203.36480349 167.42860663 207.34720612 167.45627213 C208.80971805 167.46562576 210.27224176 167.47330709 211.73477173 167.47920036 C213.73024836 167.48749013 215.72569446 167.50235561 217.72113037 167.51756287 C219.39695002 167.52724169 219.39695002 167.52724169 221.1066246 167.53711605 C223.57003118 167.65630132 225.62445956 167.9606303 227.97265625 168.67578125 C228.87827475 171.77151018 229.09737941 174.53425368 229.097229 177.75474548 C229.09979202 178.77954514 229.10235504 179.80434479 229.10499573 180.86019897 C229.10289597 181.97875275 229.1007962 183.09730652 229.09863281 184.24975586 C229.10143501 186.02348824 229.10143501 186.02348824 229.10429382 187.83305359 C229.10829844 190.40195943 229.11037272 192.97086883 229.11075592 195.53977776 C229.11189799 199.60350962 229.12474831 203.66715101 229.14031982 207.73085022 C229.14289268 208.41720501 229.14546553 209.10355981 229.14811635 209.81071323 C229.15338262 211.21397343 229.1586681 212.61723357 229.16397238 214.02049363 C229.19906448 223.47843913 229.22563218 232.93627104 229.22314453 242.39428711 C229.22155569 248.77832757 229.23759444 255.1620584 229.27385116 261.54599959 C229.2923042 264.92265534 229.30166015 268.29879414 229.28937531 271.67548943 C229.27978923 275.44161529 229.30087049 279.20640687 229.32910156 282.97241211 C229.31890488 284.08894165 229.30870819 285.20547119 229.29820251 286.35583496 C229.3611015 292.53869725 229.3611015 292.53869725 232.29022217 297.86817932 C235.83522728 300.2570388 237.78386294 300.43738003 241.97265625 299.67578125 C244.56867084 297.10943901 245.84201743 295.43598956 246.46484756 291.81164074 C246.46116039 290.75434419 246.45747322 289.69704763 246.45367432 288.60771179 C246.4591843 287.39172397 246.46469429 286.17573614 246.47037125 284.9229002 C246.45618585 283.5783978 246.44163428 282.23389923 246.42675781 280.8894043 C246.42553191 279.44702351 246.4260674 278.00464033 246.42821884 276.56226063 C246.42912076 272.70453297 246.40596215 268.84730304 246.3777771 264.98969269 C246.35497291 261.36799068 246.35392335 257.74640884 246.35107422 254.12463379 C246.33009687 243.53745052 246.27425209 232.95035957 246.22265625 222.36328125 C246.14015625 198.70640625 246.05765625 175.04953125 245.97265625 150.67578125 C188.55265625 150.67578125 131.13265625 150.67578125 71.97265625 150.67578125 Z " fill="#000000" transform="translate(113.02734375,196.32421875)"/>
<path d="M0 0 C1.21370821 -0.00935994 1.21370821 -0.00935994 2.45193577 -0.01890898 C5.16673879 -0.03488037 7.8806491 -0.02221879 10.59545898 -0.00964355 C12.54027837 -0.01506284 14.48509365 -0.0221844 16.42990112 -0.03088379 C21.71499033 -0.04914308 26.99976775 -0.04203881 32.28486252 -0.02936745 C37.81101076 -0.0192533 43.33713198 -0.02862871 48.86328125 -0.03491211 C58.1441732 -0.04219313 67.42493791 -0.03258884 76.70581055 -0.0135498 C87.44182183 0.00821975 98.17752929 0.00116871 108.91353321 -0.02085543 C118.12466696 -0.03899643 127.33570914 -0.0415741 136.54685497 -0.03110075 C142.05115427 -0.02485868 147.55531067 -0.02404981 153.05960083 -0.0372467 C158.23398209 -0.04878563 163.40797094 -0.04081519 168.58230972 -0.01766968 C170.48344394 -0.01237212 172.38461107 -0.01391418 174.28573227 -0.02272034 C176.876972 -0.03361825 179.46694679 -0.01998264 182.05810547 0 C182.81413339 -0.00892289 183.5701613 -0.01784577 184.34909916 -0.02703905 C187.65340876 0.02253911 189.71254594 0.29890527 192.49507046 2.13655663 C194.5066369 5.24623029 194.53473897 7.26114233 194.54371643 10.95791626 C194.55066196 11.60356313 194.55760749 12.24920999 194.56476349 12.91442192 C194.58304877 15.07631608 194.57276584 17.23711468 194.5625 19.39904785 C194.56955815 20.94990358 194.57830272 22.50075241 194.58860779 24.05158997 C194.6111335 28.2648127 194.60815324 32.47766029 194.59928632 36.69092035 C194.59417659 40.21191452 194.60146955 43.73283817 194.60875839 47.25382507 C194.62577033 55.56678093 194.62218192 63.87955333 194.60546875 72.19250488 C194.58857754 80.75403549 194.60433745 89.31505511 194.63669163 97.87652981 C194.66344306 105.23555517 194.67064765 112.59442202 194.66217655 119.95349109 C194.65725958 124.34469037 194.65939471 128.73558285 194.67996407 133.12674332 C194.69840643 137.2621521 194.69225914 141.39683147 194.66776466 145.53220177 C194.66278215 147.04380498 194.66617958 148.55546454 194.67891312 150.06702232 C194.74609226 158.7325094 194.36201275 166.29190365 189.02905273 173.50793457 C182.55824444 179.60808847 176.70915811 181.81133788 167.81964111 181.77536011 C166.5854417 181.78215678 166.5854417 181.78215678 165.32630897 181.78909075 C162.57124187 181.80174354 159.81637223 181.80011381 157.0612793 181.79846191 C155.08501939 181.80444668 153.10876182 181.8112521 151.13250732 181.81881714 C145.76458922 181.8364912 140.39673487 181.84117316 135.02879047 181.84244871 C131.67396952 181.84387025 128.31916477 181.84813994 124.96434784 181.85344315 C113.25706452 181.87194918 101.54982676 181.88011318 89.8425293 181.87854004 C78.93563846 181.87733899 68.02894562 181.89843274 57.12210488 181.93002737 C47.75377862 181.95619658 38.38551699 181.96690704 29.01715446 181.96562922 C23.4238233 181.96511971 17.83066805 181.97079676 12.23737335 181.99198532 C6.97435401 182.01137803 1.71167814 182.01148493 -3.55135345 181.99695206 C-5.47942609 181.99486405 -7.40752028 181.99956436 -9.33555603 182.01167297 C-29.4668805 182.12988045 -29.4668805 182.12988045 -37.31079102 175.54309082 C-38.10163086 174.56662598 -38.10163086 174.56662598 -38.90844727 173.57043457 C-39.4537207 172.92203613 -39.99899414 172.2736377 -40.56079102 171.60559082 C-43.25692388 167.59499983 -44.22079634 164.03583702 -44.26147461 159.23034668 C-44.27423431 158.202556 -44.28699402 157.17476532 -44.30014038 156.11582947 C-44.30236603 155.01674759 -44.30459167 153.91766571 -44.30688477 152.78527832 C-44.31354156 151.64764542 -44.32019836 150.51001251 -44.32705688 149.33790588 C-44.33716872 146.93650935 -44.34187436 144.5350848 -44.34155273 142.13366699 C-44.3459356 138.45522114 -44.38229931 134.77796589 -44.42016602 131.09973145 C-44.42603243 128.76575117 -44.43000299 126.43176521 -44.43188477 124.09777832 C-44.4462558 122.99667221 -44.46062683 121.8955661 -44.47543335 120.76109314 C-44.46928009 119.73645462 -44.46312683 118.7118161 -44.45678711 117.65612793 C-44.45963715 116.75631699 -44.46248718 115.85650604 -44.46542358 114.9294281 C-43.80678726 111.70402877 -42.53597993 110.51164613 -39.97094727 108.50793457 C-36.22252389 107.97244552 -34.01381835 107.8385162 -30.78588867 109.91052246 C-27.98229994 113.9228147 -28.40642447 117.78281229 -28.43188477 122.56652832 C-28.4141954 124.03848412 -28.4141954 124.03848412 -28.39614868 125.54017639 C-28.36085205 128.67542351 -28.35171667 131.81000493 -28.34594727 134.94543457 C-28.3295927 138.07709329 -28.3075127 141.20845441 -28.27432251 144.33998108 C-28.25473354 146.28760628 -28.24535319 148.23536758 -28.24740601 150.18309021 C-28.25594842 156.59887949 -28.25594842 156.59887949 -25.97094727 162.50793457 C-22.30482435 164.95201651 -20.56543414 164.75492417 -16.19429016 164.7484436 C-15.15526473 164.75100688 -15.15526473 164.75100688 -14.09524888 164.75362194 C-11.76896117 164.75692211 -9.44296046 164.74590464 -7.11669922 164.73498535 C-5.45125332 164.73442135 -3.78580693 164.73473758 -2.12036133 164.73587036 C2.40621953 164.73644531 6.93269488 164.72466802 11.45925117 164.71072245 C16.18781995 164.69823875 20.91639103 164.69704645 25.64497375 164.69467163 C34.60159536 164.68844991 43.55816828 164.67202974 52.51476842 164.65197265 C64.61613971 164.62546024 76.71752427 164.6146466 88.81891727 164.60296822 C107.88899892 164.58414963 126.95897779 164.54430856 146.02905273 164.50793457 C146.02905273 126.22793457 146.02905273 87.94793457 146.02905273 48.50793457 C88.27905273 48.50793457 30.52905273 48.50793457 -28.97094727 48.50793457 C-28.97094727 60.71793457 -28.97094727 72.92793457 -28.97094727 85.50793457 C-33.97094727 89.50793457 -33.97094727 89.50793457 -37.59594727 89.44543457 C-40.96078484 88.51075747 -41.94400941 88.19113577 -43.97094727 85.50793457 C-44.35862732 83.31385803 -44.35862732 83.31385803 -44.375 80.73278809 C-44.38768417 79.7649086 -44.40036835 78.79702911 -44.41343689 77.79981995 C-44.41050125 76.75603683 -44.40756561 75.71225372 -44.40454102 74.63684082 C-44.40978287 73.56296616 -44.41502472 72.48909149 -44.42042542 71.38267517 C-44.42685173 69.11055364 -44.42550078 66.83839887 -44.41699219 64.56628418 C-44.40848836 61.08724757 -44.43722697 57.60985549 -44.46899414 54.13098145 C-44.47060634 51.92460173 -44.47002827 49.7182191 -44.46704102 47.51184082 C-44.47827499 46.47008194 -44.48950897 45.42832306 -44.50108337 44.35499573 C-44.43258946 37.26512217 -44.43258946 37.26512217 -42.34716797 33.84460449 C-39.2104676 32.08015011 -37.04795502 32.05198897 -33.45532227 32.11730957 C-32.20493164 32.1302002 -30.95454102 32.14309082 -29.66625977 32.15637207 C-27.71333008 32.20664551 -27.71333008 32.20664551 -25.72094727 32.25793457 C-24.40352539 32.27598145 -23.08610352 32.29402832 -21.72875977 32.31262207 C-18.47542419 32.35977186 -15.22355102 32.42557413 -11.97094727 32.50793457 C-11.99189453 31.68067871 -12.0128418 30.85342285 -12.03442383 30.00109863 C-12.11756346 26.25350087 -12.16960257 22.50609708 -12.22094727 18.75793457 C-12.2712207 16.80500488 -12.2712207 16.80500488 -12.32250977 14.81262207 C-12.33540039 13.56223145 -12.34829102 12.31184082 -12.36157227 11.02355957 C-12.38251953 9.87145996 -12.4034668 8.71936035 -12.42504883 7.53234863 C-11.3462443 0.3472785 -6.30853305 -0.07445535 0 0 Z M4.02905273 15.50793457 C4.02905273 21.11793457 4.02905273 26.72793457 4.02905273 32.50793457 C5.93918655 32.51380081 7.84932037 32.51966705 9.81733704 32.52571106 C27.78490172 32.58282885 45.75234531 32.65535407 63.71978474 32.74364948 C72.95787225 32.78864957 82.19592084 32.82805443 91.43408203 32.85437012 C99.48437639 32.87731617 107.53454802 32.91067595 115.58474511 32.95663613 C119.84881085 32.98061433 124.1127547 32.99931288 128.37688637 33.00554848 C132.38816964 33.01157867 136.39914088 33.03150296 140.41030884 33.06221008 C141.88451665 33.07102362 143.35876518 33.07470606 144.83299828 33.07294273 C146.84197371 33.0712981 148.85093606 33.08970436 150.8598175 33.10920715 C151.98532674 33.11381612 153.11083597 33.11842508 154.27045155 33.12317371 C157.02905273 33.50793457 157.02905273 33.50793457 158.85212994 34.84535503 C161.05649302 37.9593477 161.15379879 40.74488666 161.15362549 44.42868042 C161.15618851 45.44369125 161.15875153 46.45870209 161.16139221 47.50447083 C161.15929245 48.61726913 161.15719269 49.73006744 161.1550293 50.87658691 C161.1578315 52.63546989 161.1578315 52.63546989 161.16069031 54.42988586 C161.16469841 56.9802567 161.16676952 59.53063114 161.1671524 62.0810051 C161.16829322 66.11525293 161.18113481 70.14940936 161.19671631 74.18362427 C161.19928916 74.86465159 161.20186202 75.54567891 161.20451283 76.24734342 C161.20977932 77.63990409 161.2150648 79.03246469 161.22036886 80.42502522 C161.25547291 89.81628272 161.28202992 99.20742632 161.27954102 108.59875488 C161.2779521 114.93481242 161.29399422 121.270558 161.33024764 127.60651553 C161.34870283 130.95859515 161.35805501 134.31015395 161.34577179 137.66227341 C161.33618472 141.40216825 161.35726941 145.14071976 161.38549805 148.88049316 C161.37530136 149.98924301 161.36510468 151.09799286 161.354599 152.24034119 C161.41567517 158.40509114 161.41567517 158.40509114 164.3817749 163.69558716 C166.92702405 165.68739767 166.92702405 165.68739767 170.02905273 166.13293457 C173.08721635 165.49581715 174.83539547 164.73704654 176.98323631 162.44924355 C179.51655731 157.74673678 178.66821027 151.83796609 178.59667969 146.62976074 C178.59514733 145.17736789 178.59581665 143.72497132 178.59850597 142.27258015 C178.59963345 138.38780513 178.57068465 134.5038023 178.5354538 130.61920929 C178.50694943 126.97227074 178.50563671 123.32551868 178.5020752 119.6784668 C178.47585295 109.01735403 178.40604694 98.35638451 178.34155273 87.69543457 C178.23842773 63.87355957 178.13530273 40.05168457 178.02905273 15.50793457 C120.60905273 15.50793457 63.18905273 15.50793457 4.02905273 15.50793457 Z " fill="#000000" transform="translate(43.970947265625,-0.5079345703125)"/>
<path d="M0 0 C1.15400927 0.00129972 1.15400927 0.00129972 2.33133185 0.0026257 C3.1426965 -0.00034542 3.95406114 -0.00331654 4.7900126 -0.0063777 C7.53000236 -0.01510339 10.26994864 -0.01657619 13.00995123 -0.01806521 C14.96579834 -0.02269064 16.92164455 -0.02771492 18.87748969 -0.03311038 C24.20597402 -0.04626263 29.53444573 -0.05268479 34.86294377 -0.05712104 C38.18820965 -0.06004712 41.51347204 -0.06415102 44.83873618 -0.06862521 C55.23180255 -0.08230737 65.624861 -0.0919706 76.01793575 -0.0958271 C88.03553306 -0.10031027 100.05301677 -0.11786718 112.07057953 -0.1468277 C121.34615605 -0.16840838 130.62170053 -0.17852944 139.89730191 -0.17986822 C145.44352614 -0.18091882 150.98964368 -0.18688048 156.53584158 -0.20468783 C161.75113081 -0.22110624 166.96623245 -0.22335448 172.18153822 -0.21454883 C174.09922723 -0.2137751 176.01692607 -0.21816495 177.93458998 -0.22800708 C180.54582378 -0.24062627 183.15638308 -0.23490494 185.76761115 -0.22442508 C186.53248921 -0.23248148 187.29736728 -0.24053789 188.08542347 -0.24883842 C190.9279999 -0.22202277 193.144273 -0.15996077 195.64652789 1.26484132 C197.18211859 4.06522047 197.05754482 6.3777442 197.06413519 9.56218076 C197.0722135 10.54373677 197.0722135 10.54373677 197.08045501 11.54512221 C197.09478539 13.7422675 197.08761863 15.9388146 197.08050787 18.13598752 C197.08620905 19.70964155 197.09317233 21.28329144 197.1013056 22.85693479 C197.11928638 27.13614279 197.11805869 31.41514628 197.11236322 35.69438076 C197.10927649 39.2676943 197.11535851 42.84096826 197.12140197 46.41427618 C197.13546356 54.8484021 197.13387414 63.28242679 197.12250006 71.71655393 C197.11103459 80.41038378 197.12506424 89.10390458 197.15189654 97.79769367 C197.17407707 105.26450614 197.1806851 112.73122179 197.17482013 120.19806486 C197.17145285 124.65624488 197.17384946 129.1142271 197.19107115 133.57237935 C197.20657428 137.76922871 197.20254765 141.96562232 197.18376601 146.16245389 C197.18008849 147.69908747 197.18316415 149.23575504 197.1936518 150.77235723 C197.25195362 160.0243649 197.0413083 167.07135563 190.74676764 174.3852551 C190.10481452 174.92408322 189.46286139 175.46291135 188.80145514 176.0180676 C188.16465827 176.57236447 187.52786139 177.12666135 186.87176764 177.6977551 C180.45229364 181.92409919 173.62197245 181.43929058 166.21698248 181.43359494 C164.96432089 181.44031217 163.7116593 181.44702939 162.42103827 181.45395017 C158.99760601 181.46966125 155.57441636 181.47630307 152.15096486 181.47758174 C150.01112169 181.47900594 147.87130377 181.48328045 145.73146689 181.48857617 C138.26389451 181.50705333 130.79639338 181.51524898 123.32879889 181.51367307 C116.37016805 181.51246965 109.41184636 181.53361688 102.4532938 181.56516039 C96.47352714 181.5913004 90.49386169 181.60204145 84.51403832 181.60076225 C80.94466736 181.60025229 77.37557183 181.60595477 73.80625784 181.62711835 C69.82976121 181.65005586 65.85369083 181.64099379 61.87713873 181.62890744 C60.69470084 181.64014646 59.51226294 181.65138547 58.29399359 181.66296506 C57.21174002 181.65457608 56.12948645 181.64618711 55.01443732 181.63754392 C53.6047219 181.63917822 53.6047219 181.63917822 52.16652739 181.64084554 C48.92702243 180.99325224 47.73110151 179.67138149 45.67645514 177.1430676 C45.11004889 175.1430676 45.11004889 175.1430676 45.11395514 173.1430676 C45.09204108 172.4830676 45.07012702 171.8230676 45.04754889 171.1430676 C46.07311889 167.88162759 47.79524396 166.93280373 50.67645514 165.1430676 C53.89747054 164.5729363 57.06847291 164.63726359 60.33197272 164.68896604 C61.78147315 164.68808988 61.78147315 164.68808988 63.26025641 164.68719602 C66.4475345 164.68997799 69.6338721 164.72107613 72.82098639 164.7524426 C75.03343949 164.75990456 77.2458992 164.7655977 79.45836127 164.76959348 C85.27656606 164.78485319 91.09437032 164.8241384 96.91241705 164.8684094 C102.85128609 164.90935453 108.79021996 164.92760291 114.72918952 164.9477551 C126.37845386 164.99063192 138.02742117 165.05888773 149.67645514 165.1430676 C149.34645514 164.1530676 149.01645514 163.1630676 148.67645514 162.1430676 C148.58710605 160.58222743 148.55448072 159.01781768 148.55620062 157.45442319 C148.55413438 156.0124178 148.55413438 156.0124178 148.55202639 154.54128098 C148.5556245 153.48408199 148.55922261 152.426883 148.56292975 151.33764768 C148.56280921 150.20729691 148.56268868 149.07694613 148.56256449 147.91234231 C148.56331214 144.24574129 148.57093369 140.5791908 148.57879889 136.91259885 C148.58026877 134.65197898 148.5812892 132.39135877 148.58185065 130.1307385 C148.58709823 121.73900968 148.60105937 113.34728815 148.61395514 104.9555676 C148.63458014 86.2074426 148.65520514 67.4593176 148.67645514 48.1430676 C91.25645514 48.1430676 33.83645514 48.1430676 -25.32354486 48.1430676 C-25.24104486 66.5405676 -25.15854486 84.9380676 -25.07354486 103.8930676 C-25.05775384 109.70383908 -25.04196283 115.51461057 -25.0256933 121.50146604 C-24.99247661 126.7065936 -24.99247661 126.7065936 -24.95397699 131.91168332 C-24.93935513 134.23147302 -24.93259125 136.55132027 -24.93200433 138.87115598 C-24.92959439 142.38372939 -24.90231518 145.89531344 -24.8694433 149.40771604 C-24.87446737 150.44258019 -24.87949144 151.47744435 -24.88466775 152.54366803 C-24.86040866 157.99050051 -24.86040866 157.99050051 -22.54807794 162.7838757 C-20.16223205 164.24162988 -18.95355872 164.63799693 -16.18511713 164.62548947 C-14.97850175 164.63570127 -14.97850175 164.63570127 -13.74751031 164.64611936 C-12.88701578 164.63479978 -12.02652124 164.6234802 -11.13995111 164.6118176 C-10.24743143 164.61886716 -9.35491174 164.62591672 -8.43534601 164.6331799 C-4.62278127 164.66266896 -0.81072725 164.64603809 3.00189459 164.63379025 C5.78825637 164.63140855 8.57378993 164.65233392 11.36004889 164.6743176 C12.2185192 164.66299802 13.0769895 164.65167844 13.96147406 164.64001584 C18.04648695 164.67445306 20.15226251 164.81657556 23.69623053 167.02392697 C26.04917513 169.54193451 26.67645514 170.69734704 26.67645514 174.1430676 C24.39934671 179.78162182 24.39934671 179.78162182 21.67645514 181.1430676 C20.27990359 181.25729508 18.87825358 181.31238056 17.47723639 181.33593869 C16.60873053 181.35200162 15.74022467 181.36806455 14.84540045 181.38461423 C10.84654821 181.42925953 6.84786238 181.47018581 2.84881842 181.49316525 C0.74811924 181.50965527 -1.35252546 181.53685223 -3.45293939 181.5751965 C-6.49343518 181.63039098 -9.53261327 181.65191048 -12.57354486 181.6665051 C-13.49997797 181.68917447 -14.42641107 181.71184384 -15.38091791 181.73520017 C-22.25694319 181.71327288 -27.61085152 180.03577995 -33.32354486 176.1430676 C-38.41775922 170.7914481 -41.55965691 165.30204827 -41.59769952 157.79199338 C-41.60767465 156.73216245 -41.61764978 155.67233151 -41.62792718 154.58038449 C-41.62859186 153.42802304 -41.62925653 152.27566159 -41.62994134 151.0883801 C-41.64242662 149.25590726 -41.64242662 149.25590726 -41.65516412 147.38641477 C-41.67511054 144.04343633 -41.68590034 140.70070671 -41.69099057 137.3576901 C-41.69463885 135.26792948 -41.7008812 133.17819266 -41.70799196 131.08844113 C-41.73246371 123.79479033 -41.74553442 116.50121048 -41.74908197 109.20752072 C-41.75272047 102.41302633 -41.78264363 95.61898274 -41.82448655 88.82462621 C-41.8591819 82.98583866 -41.87463023 77.14720068 -41.875328 71.30831075 C-41.87612078 67.82321086 -41.88485946 64.33857103 -41.91332567 60.85357785 C-41.94435615 56.96812577 -41.93545028 53.08332284 -41.92291009 49.1977551 C-41.93774438 48.04539365 -41.95257867 46.8930322 -41.96786249 45.7057507 C-41.89621235 37.92821901 -41.89621235 37.92821901 -38.97646844 33.92512631 C-35.70193248 31.72550949 -33.85166257 31.56183258 -29.92901361 31.65478635 C-28.72696283 31.67089963 -27.52491205 31.68701291 -26.28643548 31.70361447 C-25.04055658 31.745509 -23.79467767 31.78740354 -22.51104486 31.8305676 C-21.24583002 31.85312619 -19.98061517 31.87568479 -18.67706048 31.89892697 C-15.55801867 31.95777682 -12.44138584 32.0399539 -9.32354486 32.1430676 C-9.33925531 31.38163449 -9.35496576 30.62020139 -9.37115228 29.83569455 C-9.43362939 26.3757282 -9.47257658 22.9158807 -9.51104486 19.4555676 C-9.53618158 18.257384 -9.5613183 17.05920041 -9.58721673 15.82470822 C-9.5968847 14.66777463 -9.60655267 13.51084104 -9.61651361 12.31884885 C-9.63222406 11.25577512 -9.64793451 10.19270139 -9.66412103 9.0974133 C-8.88711678 2.35724951 -6.37550491 0.03532085 0 0 Z M6.67645514 15.1430676 C6.67645514 20.7530676 6.67645514 26.3630676 6.67645514 32.1430676 C9.53832495 32.14853604 9.53832495 32.14853604 12.45801032 32.15411496 C30.41056619 32.19100547 48.3629512 32.24847468 66.31537497 32.32697034 C75.54560132 32.36679852 84.77574194 32.39917177 94.00604498 32.41406369 C102.05014779 32.42706067 110.09406227 32.45397513 118.13805902 32.49768066 C122.39828127 32.52033966 126.65827086 32.53597564 130.91855872 32.53495145 C134.92745647 32.53420744 138.93583906 32.55205307 142.94460356 32.58423543 C144.41677689 32.59276304 145.88900781 32.59446499 147.36119521 32.58887029 C149.36980867 32.58225305 151.37845732 32.60247164 153.38696539 32.62408566 C155.07384655 32.62961642 155.07384655 32.62961642 156.79480612 32.63525891 C160.38558721 33.26803196 161.56483961 34.19773896 163.67645514 37.1430676 C164.1786772 39.52940488 164.1786772 39.52940488 164.18197882 42.22876096 C164.19300131 43.25500577 164.2040238 44.28125058 164.21538031 45.33859372 C164.20720786 46.45871854 164.1990354 47.57884336 164.1906153 48.73291135 C164.19774039 49.91700589 164.20486548 51.10110044 164.21220648 52.32107663 C164.22819688 55.56498815 164.2267015 58.80834501 164.21809685 62.05226636 C164.21377828 65.44840595 164.2335424 68.8443961 164.25125372 72.24047971 C164.28150763 78.67422351 164.29320789 85.10784388 164.29683018 91.54165292 C164.30347878 103.06362367 164.3324873 114.58550883 164.38192654 126.10737443 C164.39571796 129.48778358 164.40441646 132.86806654 164.40206015 136.24850583 C164.40008791 140.01681197 164.40956225 143.78493861 164.42108405 147.55322385 C164.41696005 148.67334867 164.41283606 149.79347348 164.4085871 150.94754148 C164.41666136 152.48690869 164.41666136 152.48690869 164.42489874 154.05737424 C164.42523423 154.94816175 164.42556971 155.83894925 164.42591536 156.75673032 C164.7007272 159.37425376 165.24812756 160.940266 166.67645514 163.1430676 C170.1889866 165.48475524 171.5411487 165.63930437 175.67645514 165.1430676 C179.27949723 162.93446757 179.27949723 162.93446757 181.30565798 159.36943555 C181.76057411 156.63799423 181.79915702 154.04159467 181.79670966 151.27118039 C181.79808715 150.07336312 181.79946465 148.87554585 181.80088389 147.64143109 C181.79728578 146.32551606 181.79368767 145.00960103 181.78998053 143.65380979 C181.78967414 142.23157496 181.78980778 140.80933998 181.79034579 139.38710523 C181.7905715 135.57923476 181.78477657 131.77139574 181.77773535 127.96353269 C181.77203948 124.39007587 181.77177218 120.81662669 181.77105963 117.24316525 C181.76581278 106.79312854 181.75185162 96.34309767 181.73895514 85.8930676 C181.70801764 50.8718176 181.70801764 50.8718176 181.67645514 15.1430676 C123.92645514 15.1430676 66.17645514 15.1430676 6.67645514 15.1430676 Z " fill="#000000" transform="translate(315.32354485988617,-0.1430675983428955)"/>
<path d="M0 0 C5.83185887 5.40709749 9.26946138 10.60984905 10.04296875 18.5546875 C9.98279637 21.97904315 9.02449376 24.78763049 7.7890625 27.95703125 C7.0047519 29.98769681 6.35177254 31.84979033 6 34 C6.45375 34.9075 6.9075 35.815 7.375 36.75 C10.30361256 42.60722512 10.60218593 48.41133368 8.98046875 54.69140625 C6.51289315 60.50151454 1.90613071 65.56812457 -3.9375 68.0625 C-11.04522694 70.08931276 -17.28606303 69.6074392 -23.921875 66.3359375 C-28.68933259 63.27114333 -32.70323154 58.57610439 -34 53 C-34.40752328 49.58350343 -34.55696119 46.4049277 -34 43 C-31.43671968 39.8335949 -29.92737927 39.15140886 -25.9375 38.5 C-22.18816386 39.13818488 -21.2275222 39.92755558 -19 43 C-18.49393087 44.3863064 -18.0163077 45.78321728 -17.5625 47.1875 C-16.90848564 49.25582252 -16.90848564 49.25582252 -16 51 C-13.57589864 52.31901591 -13.57589864 52.31901591 -11 52 C-10.01 51.34 -9.02 50.68 -8 50 C-7.58333333 47 -7.58333333 47 -8 44 C-9.96511523 41.70412548 -9.96511523 41.70412548 -13.4375 41.0625 C-18.56439127 39.53342716 -18.56439127 39.53342716 -20 37 C-20.39240852 33.9097829 -20.63208702 31.9517271 -20 29 C-16.84702581 25.47608767 -13.46351045 24.31876445 -9 23 C-7.67254834 21.88741409 -7.67254834 21.88741409 -7.75 19.0625 C-7.8325 18.051875 -7.915 17.04125 -8 16 C-10.72971446 13.8117112 -10.72971446 13.8117112 -13.375 13.875 C-17.50927262 15.64683112 -18.86904449 19.19706401 -21 23 C-22 24 -22 24 -25.8125 24.3125 C-28.8307722 24.25831199 -29.86175828 24.08640108 -32.5 22.4375 C-34.62180609 18.98956511 -34.53407721 17.0055791 -34 13 C-31.97370347 6.8012112 -28.3921184 2.5947456 -23 -1 C-15.83604856 -4.42623764 -6.81912444 -4.19958273 0 0 Z " fill="#000000" transform="translate(424,73)"/>
<path d="M0 0 C2.42755689 1.99160808 3.51879918 3.79215999 4.53393555 6.73706055 C4.92400032 7.84787239 4.92400032 7.84787239 5.32194519 8.98112488 C5.59082047 9.77497086 5.85969574 10.56881683 6.13671875 11.38671875 C6.42102249 12.20372757 6.70532623 13.02073639 6.99824524 13.86250305 C7.90284387 16.46808778 8.79529451 19.07764884 9.6875 21.6875 C10.29933374 23.45665585 10.91195474 25.22553966 11.52539062 26.99414062 C13.02607458 31.32632526 14.51587849 35.66211491 16 40 C17.95925654 36.42259489 19.175949 32.65007898 20.42578125 28.78515625 C20.89705864 27.36238892 21.36908739 25.93987029 21.84179688 24.51757812 C22.57944702 22.29039966 23.31260243 20.06218252 24.03295898 17.8293457 C24.73353476 15.66399489 25.45301305 13.50568504 26.17578125 11.34765625 C26.4885778 10.35524681 26.4885778 10.35524681 26.80769348 9.3427887 C28.34391134 4.82635388 30.2728843 1.98276306 34 -1 C37.54595558 -1 39.86176141 -0.72088444 42.875 1.1875 C44.83948686 4.35250661 45.3190993 7.4234915 44.5758667 11.09542847 C43.85309416 13.57799071 43.04947175 16.01893562 42.2109375 18.46484375 C41.76048569 19.83039146 41.76048569 19.83039146 41.30093384 21.223526 C40.33811369 24.13251331 39.35692426 27.0349126 38.375 29.9375 C37.73705587 31.85441034 37.10032525 33.77172498 36.46484375 35.68945312 C35.22971053 39.41353782 33.97874522 43.13176154 32.71777344 46.84716797 C31.63095705 50.06566749 30.59786658 53.29005924 29.63378906 56.54736328 C29.42485016 57.23335098 29.21591125 57.91933868 29.00064087 58.62611389 C28.45976465 60.41523204 27.93913796 62.21043865 27.42041016 64.00610352 C25.53571953 67.97859598 23.60669881 69.49549138 20 72 C15.8871057 72.64940436 13.92553512 72.60931429 10.43041992 70.30834961 C7.73338126 67.74677246 6.86462085 65.99883276 5.67578125 62.50390625 C5.29147949 61.40143555 4.90717773 60.29896484 4.51123047 59.16308594 C4.11564941 57.97489258 3.72006836 56.78669922 3.3125 55.5625 C2.66830992 53.68486453 2.02410719 51.8072333 1.37921143 49.92984009 C0.70592976 47.96223086 0.0400901 45.99219928 -0.62548828 44.02197266 C-1.99397775 39.99102656 -3.42877513 35.98546287 -4.87109375 31.98046875 C-5.56596683 30.0333029 -6.25913686 28.08554267 -6.95132446 26.13742065 C-7.61148712 24.28785871 -8.28159527 22.44185623 -8.9519043 20.59594727 C-11.07997589 14.52976454 -12.77830337 9.44556094 -12 3 C-8.3655827 -1.51548816 -5.40521016 -1.50144727 0 0 Z " fill="#000000" transform="translate(58,71)"/>
<path d="M0 0 C3.4887078 4.43019964 5.27869208 8.96607474 7.015625 14.2421875 C7.27631775 15.01055939 7.5370105 15.77893127 7.80560303 16.57058716 C8.62867491 19.00269431 9.43949904 21.43867844 10.25 23.875 C10.80908866 25.53412638 11.36897662 27.19298365 11.9296875 28.8515625 C13.29572081 32.89798834 14.65079228 36.9479345 16 41 C16.56714722 39.29686646 16.56714722 39.29686646 17.14575195 37.55932617 C18.55131207 33.34631754 19.96857597 29.13732485 21.3894043 24.92944336 C22.00263146 23.10792676 22.61268213 21.28533756 23.21948242 19.46166992 C24.09240523 16.84004647 24.97669098 14.22249679 25.86328125 11.60546875 C26.13215652 10.78974899 26.4010318 9.97402924 26.67805481 9.1335907 C27.06811958 7.99274773 27.06811958 7.99274773 27.46606445 6.82885742 C27.69034622 6.16045334 27.91462799 5.49204926 28.14570618 4.8033905 C29.14299692 2.69813749 30.21153148 1.48535053 32 0 C35.68996009 -1.12303133 37.30988722 -1.33738847 40.8125 0.375 C43 2 43 2 44 3 C44.62295202 10.85487715 42.72159833 17.12202608 40.203125 24.515625 C39.81308289 25.68961853 39.42304077 26.86361206 39.0211792 28.07318115 C38.19708359 30.54283862 37.36632653 33.01028212 36.52929688 35.47558594 C35.25131599 39.24611732 33.99924253 43.0245503 32.75 46.8046875 C31.94423635 49.208846 31.13699495 51.61250983 30.328125 54.015625 C29.95504211 55.14276917 29.58195923 56.26991333 29.1975708 57.43121338 C25.07908359 69.46045821 25.07908359 69.46045821 20 72 C12.89838611 72.6985194 12.89838611 72.6985194 9.62084961 70.15014648 C5.85034663 66.2294779 4.5680657 61.13767207 2.8984375 56.07421875 C2.53529449 55.01266068 2.17215149 53.9511026 1.79800415 52.8573761 C0.64316231 49.47193379 -0.49132955 46.08008347 -1.625 42.6875 C-2.39445887 40.41685148 -3.16527821 38.1466635 -3.9375 35.87695312 C-5.02877898 32.66924138 -6.11813023 29.46104271 -7.19644165 26.24894714 C-8.63351139 21.97184327 -10.0900657 17.72759664 -11.74755859 13.53051758 C-13.19327127 9.45518599 -13.13819138 7.14626859 -12 3 C-8.82042341 -1.33578626 -4.91435157 -1.50439334 0 0 Z " fill="#000000" transform="translate(204,402)"/>
<path d="M0 0 C2.44255446 1.97188167 3.5202258 3.79629861 4.53393555 6.73706055 C4.92400032 7.84787239 4.92400032 7.84787239 5.32194519 8.98112488 C5.59082047 9.77497086 5.85969574 10.56881683 6.13671875 11.38671875 C6.42102249 12.20372757 6.70532623 13.02073639 6.99824524 13.86250305 C7.90284387 16.46808778 8.79529451 19.07764884 9.6875 21.6875 C10.29933374 23.45665585 10.91195474 25.22553966 11.52539062 26.99414062 C13.02607458 31.32632526 14.51587849 35.66211491 16 40 C18.32845344 34.49552025 20.38227118 28.95783278 22.18359375 23.2578125 C22.55419922 22.08992188 22.92480469 20.92203125 23.30664062 19.71875 C24.06691247 17.30268748 24.81675492 14.88332073 25.55664062 12.4609375 C25.92853516 11.30078125 26.30042969 10.140625 26.68359375 8.9453125 C27.17170532 7.37547607 27.17170532 7.37547607 27.66967773 5.77392578 C29.26815527 2.44085517 30.88628649 0.95921038 34 -1 C37.55290044 -0.9387431 39.93417573 -0.74607699 42.875 1.3125 C44.2446067 3.36691006 44.67999695 4.52708615 45 7 C44.43242051 9.53863501 43.78687527 11.91927754 43.00390625 14.390625 C42.66462852 15.49920868 42.66462852 15.49920868 42.3184967 16.63018799 C41.55916795 19.09123993 40.78180765 21.54600081 40 24 C39.72855164 24.8566626 39.45710327 25.7133252 39.1774292 26.59594727 C37.44024636 32.05973044 35.66360741 37.50959168 33.86108398 42.95214844 C33.23878819 44.83729509 32.62137133 46.72405847 32.00854492 48.61230469 C31.10841771 51.38565676 30.19454421 54.15412934 29.27734375 56.921875 C28.87249001 58.18121857 28.87249001 58.18121857 28.4594574 59.46600342 C26.76841207 64.50115469 25.04679565 69.47660218 20 72 C15.90955881 72.47197398 13.66208571 72.38815736 10.07788086 70.28686523 C5.35815011 66.09563376 3.94759602 59.84305027 2.00390625 54.03515625 C1.56295522 52.75586201 1.12070796 51.47701389 0.67723083 50.19859314 C-0.24483662 47.52707557 -1.1535554 44.85150648 -2.05249023 42.17211914 C-3.20245265 38.74688341 -4.38137307 35.3325023 -5.56997585 31.92051029 C-6.48544199 29.28426129 -7.38725419 26.64350218 -8.28486824 24.00112724 C-8.92257288 22.12999336 -9.57014301 20.26223109 -10.21788025 18.39454651 C-10.59900467 17.24993454 -10.98012909 16.10532257 -11.37280273 14.92602539 C-11.71222397 13.92406631 -12.0516452 12.92210724 -12.40135193 11.88978577 C-13.0873466 8.57836169 -12.82296922 6.26418492 -12 3 C-8.42421759 -1.50859521 -5.44862731 -1.14707943 0 0 Z " fill="#000000" transform="translate(333,71)"/>
<path d="M0 0 C5.55477001 3.63196501 8.21900717 7.71649721 10 14 C12.13355604 27.67217545 3.70288079 37.87739276 -3.82666016 48.34936523 C-4.91398657 49.87899776 -5.95898653 51.4384798 -7 53 C-6.04738281 53.02578125 -5.09476563 53.0515625 -4.11328125 53.078125 C-2.23189453 53.16320312 -2.23189453 53.16320312 -0.3125 53.25 C0.92886719 53.29640625 2.17023438 53.3428125 3.44921875 53.390625 C7.45639344 54.07832495 9.15055374 55.15584029 12 58 C13.46296477 61.47454134 13.11275119 62.72080658 11.6875 66.25 C10 69 10 69 8 70 C3.05947436 70.28354633 -1.88194001 70.31371247 -6.82983398 70.35009766 C-8.47971716 70.36664678 -10.12952895 70.39392356 -11.77905273 70.43212891 C-14.16167258 70.48701149 -16.54261372 70.5087871 -18.92578125 70.5234375 C-19.65928299 70.54610687 -20.39278473 70.56877625 -21.14851379 70.59213257 C-25.11001179 70.57586146 -26.82530027 70.13860106 -29.96679688 67.64624023 C-32 65 -32 65 -32.60546875 62.13671875 C-31.80249783 57.97681131 -29.78500425 55.14688945 -27.3125 51.8125 C-26.31091644 50.40384593 -25.30962751 48.99498233 -24.30859375 47.5859375 C-23.20603792 46.05706896 -22.10316008 44.5284326 -21 43 C-18.60478198 39.6596987 -16.2347675 36.30290821 -13.875 32.9375 C-13.0228894 31.76054565 -13.0228894 31.76054565 -12.15356445 30.55981445 C-8.94080453 25.97345126 -7.12246358 22.65493607 -7 17 C-7.89757556 14.85219923 -7.89757556 14.85219923 -10 14 C-12.98212014 13.60566976 -12.98212014 13.60566976 -16 15 C-17.51482731 16.9433919 -18.67412996 18.91218423 -19.82421875 21.08984375 C-21 23 -21 23 -24 25 C-27.6233318 24.87059529 -30.06985031 24.75012072 -32.9375 22.4375 C-34.48742466 18.88179049 -34.72298047 15.75813435 -34 12 C-31.18037615 5.4570267 -26.64852744 0.70264614 -20.1875 -2.3125 C-12.94922928 -3.87369564 -6.61313252 -3.45336941 0 0 Z " fill="#000000" transform="translate(147,73)"/>
<path d="M0 0 C1.29808594 -0.01675781 2.59617187 -0.03351563 3.93359375 -0.05078125 C7.70829685 0.32709538 9.58227764 1.02302076 12.5625 3.3125 C13.92384441 6.03518881 13.71229084 8.21127112 13.73950195 11.25927734 C13.75233719 12.50752289 13.76517242 13.75576843 13.77839661 15.0418396 C13.78656338 16.41070154 13.79400723 17.77956796 13.80078125 19.1484375 C13.80485678 19.83666218 13.8089323 20.52488686 13.81313133 21.23396683 C13.8339887 24.87602692 13.84829232 28.51804936 13.85766602 32.16015625 C13.86873551 35.92205699 13.90314152 39.68336703 13.94283772 43.44505882 C13.96897958 46.33785097 13.97735557 49.23050176 13.98094749 52.12340164 C13.98581912 53.51009744 13.99744968 54.89678669 14.01598549 56.28336716 C14.04032229 58.22441119 14.0369975 60.16574228 14.0324707 62.10693359 C14.04127007 63.76334366 14.04127007 63.76334366 14.05024719 65.45321655 C13.44515836 69.000383 12.41512033 70.17634001 9.5625 72.3125 C5.80900538 72.78168683 3.52401547 72.84386381 0.1875 71 C-2.62083136 68.0836559 -2.56071539 65.22900836 -2.55102539 61.38208008 C-2.55094986 60.38126907 -2.55087433 59.38045807 -2.55079651 58.34931946 C-2.54563522 57.27111435 -2.54047394 56.19290924 -2.53515625 55.08203125 C-2.5337413 53.97647385 -2.53232635 52.87091644 -2.53086853 51.7318573 C-2.52526514 48.19621083 -2.51271204 44.66062738 -2.5 41.125 C-2.49498544 38.72981862 -2.49042246 36.33463625 -2.48632812 33.93945312 C-2.47529461 28.06378053 -2.45855316 22.18814477 -2.4375 16.3125 C-3.54351562 16.33570313 -4.64953125 16.35890625 -5.7890625 16.3828125 C-9.4375 16.3125 -9.4375 16.3125 -11.8125 15.1875 C-14.08693318 12.56315402 -14.36846951 10.76402438 -14.4375 7.3125 C-13.24901425 4.5602172 -12.27922913 2.88495559 -9.7890625 1.19140625 C-6.48042912 -0.04520922 -3.5231001 0.01047503 0 0 Z " fill="#000000" transform="translate(274.4375,400.6875)"/>
</svg>
